<svg width="40" height="40" viewBox="0 0 40 40" fill="none" xmlns="http://www.w3.org/2000/svg">
<rect width="40" height="40" rx="20" fill="white" fill-opacity="0.8"/>
<path d="M20.7739 27.9575C20.5991 28.4244 19.8753 28.3782 19.7022 27.9107C19.0816 26.2356 18.0526 24.6315 16.9854 23.6207C15.9167 22.6085 14.8572 21.5707 14.3869 20.1254C13.617 17.7592 13.953 15.5693 15.7847 13.8152C17.7369 11.9458 20.1217 11.5384 22.594 12.5095C26.7737 14.1511 27.7291 19.0178 24.6304 22.4407C24.2842 22.8231 23.9164 23.1872 23.5446 23.5451C21.8218 25.2032 21.4239 26.221 20.7739 27.9575ZM20.2303 15.1806C18.6362 15.1775 17.3434 16.4929 17.3587 18.1022C17.3729 19.6 18.6796 20.9021 20.1817 20.9154C21.7408 20.9293 23.0848 19.6342 23.0921 18.111C23.1 16.4867 21.8275 15.1837 20.2303 15.1806Z" stroke="#B78053" stroke-linecap="round" stroke-linejoin="round"/>
</svg>
