<svg width="67" height="67" viewBox="0 0 67 67" fill="none" xmlns="http://www.w3.org/2000/svg">
<g filter="url(#filter0_d_3215_43326)">
<rect x="7" y="7" width="40" height="40" rx="20" fill="white" fill-opacity="0.8" shape-rendering="crispEdges"/>
</g>
<path d="M27.7739 34.9575C27.5991 35.4244 26.8753 35.3782 26.7022 34.9107C26.0816 33.2356 25.0526 31.6315 23.9854 30.6207C22.9167 29.6085 21.8572 28.5707 21.3869 27.1254C20.617 24.7592 20.953 22.5693 22.7847 20.8152C24.7369 18.9458 27.1217 18.5384 29.594 19.5095C33.7737 21.1511 34.7291 26.0178 31.6304 29.4407C31.2842 29.8231 30.9164 30.1872 30.5446 30.5451C28.8218 32.2032 28.4239 33.221 27.7739 34.9575ZM27.2303 22.1806C25.6362 22.1775 24.3434 23.4929 24.3587 25.1022C24.3729 26.6 25.6796 27.9021 27.1817 27.9154C28.7408 27.9293 30.0848 26.6342 30.0921 25.111C30.1 23.4867 28.8275 22.1837 27.2303 22.1806Z" stroke="#B78053" stroke-linecap="round" stroke-linejoin="round"/>
<defs>
<filter id="filter0_d_3215_43326" x="0.333333" y="0.333333" width="66.6667" height="66.6667" filterUnits="userSpaceOnUse" color-interpolation-filters="sRGB">
<feFlood flood-opacity="0" result="BackgroundImageFix"/>
<feColorMatrix in="SourceAlpha" type="matrix" values="0 0 0 0 0 0 0 0 0 0 0 0 0 0 0 0 0 0 127 0" result="hardAlpha"/>
<feOffset dx="6.66667" dy="6.66667"/>
<feGaussianBlur stdDeviation="6.66667"/>
<feComposite in2="hardAlpha" operator="out"/>
<feColorMatrix type="matrix" values="0 0 0 0 0 0 0 0 0 0 0 0 0 0 0 0 0 0 0.04 0"/>
<feBlend mode="normal" in2="BackgroundImageFix" result="effect1_dropShadow_3215_43326"/>
<feBlend mode="normal" in="SourceGraphic" in2="effect1_dropShadow_3215_43326" result="shape"/>
</filter>
</defs>
</svg>
