<svg width="48" height="48" viewBox="0 0 48 48" fill="none" xmlns="http://www.w3.org/2000/svg">
<rect width="48" height="48" rx="24" fill="#FDEFF3"/>
<path d="M24.0144 14C18.4969 14 14.0244 18.4725 14.0244 23.9892C14.0244 28.2217 16.6561 31.8367 20.3727 33.2908C20.2852 32.5 20.2069 31.2883 20.4069 30.425C20.5894 29.6442 21.5786 25.4608 21.5786 25.4608C21.5786 25.4608 21.2794 24.8608 21.2794 23.9767C21.2794 22.5908 22.0852 21.5508 23.0861 21.5508C23.9394 21.5508 24.3511 22.1917 24.3511 22.9575C24.3511 23.815 23.8069 25.0967 23.5244 26.2842C23.2869 27.2783 24.0244 28.0883 25.0036 28.0883C26.7769 28.0883 28.1436 26.2175 28.1436 23.5158C28.1436 21.1317 26.4244 19.4583 23.9702 19.4583C21.1286 19.4583 19.4627 21.5933 19.4627 23.7908C19.4627 24.6517 19.7911 25.5767 20.2036 26.075C20.2861 26.175 20.2969 26.2625 20.2744 26.3625C20.1994 26.675 20.0302 27.3617 19.9961 27.4983C19.9519 27.6858 19.8527 27.7242 19.6619 27.6358C18.4161 27.0608 17.6344 25.2375 17.6344 23.7642C17.6344 20.6175 19.9244 17.7208 24.2344 17.7208C27.6994 17.7208 30.3944 20.1933 30.3944 23.49C30.3944 26.9358 28.2219 29.7083 25.2002 29.7083C24.1886 29.7083 23.2386 29.1842 22.9019 28.5592L22.2777 30.9325C22.0536 31.8033 21.4411 32.8925 21.0294 33.5542C21.9652 33.8417 22.9511 34 23.9877 34C29.4936 34 33.9752 29.5292 33.9752 24.0108C33.9752 18.4917 29.4936 14.0217 23.9877 14.0217L24.0144 14Z" fill="#E6116D"/>
</svg>
