<svg width="48" height="48" viewBox="0 0 48 48" fill="none" xmlns="http://www.w3.org/2000/svg">
<rect width="48" height="48" rx="24" fill="#FDEFF3"/>
<path d="M33.9608 17.8085C33.2121 18.1382 32.4188 18.3558 31.6067 18.4544C32.4618 17.9404 33.102 17.1344 33.4092 16.1852C32.6167 16.6477 31.7383 16.9844 30.8033 17.1719C30.1865 16.5122 29.3691 16.0747 28.478 15.9273C27.587 15.7799 26.6722 15.9307 25.8758 16.3565C25.0793 16.7823 24.4457 17.4592 24.0734 18.282C23.701 19.1048 23.6108 20.0275 23.8167 20.9069C20.4083 20.746 17.3892 19.1085 15.3667 16.6352C14.999 17.26 14.8072 17.9727 14.8117 18.6977C14.8117 20.1227 15.5367 21.3752 16.635 22.111C15.984 22.0903 15.3475 21.9143 14.7783 21.5977V21.6477C14.778 22.5947 15.1052 23.5127 15.7046 24.2458C16.304 24.979 17.1385 25.4823 18.0667 25.6702C17.4652 25.8314 16.8353 25.8556 16.2233 25.741C16.4868 26.556 16.9981 27.2685 17.6858 27.779C18.3736 28.2894 19.2036 28.5724 20.06 28.5885C18.6096 29.7268 16.8187 30.3446 14.975 30.3427C14.65 30.3427 14.3258 30.3235 14 30.2869C15.8798 31.4905 18.0654 32.1294 20.2975 32.1277C27.8417 32.1277 31.9625 25.881 31.9625 20.4735C31.9625 20.2985 31.9625 20.1235 31.95 19.9485C32.755 19.3693 33.4494 18.6501 34 17.8252L33.9608 17.8085Z" fill="#E6116D"/>
</svg>
