<svg width="5" height="8" viewBox="0 0 5 8" fill="none" xmlns="http://www.w3.org/2000/svg">
<path d="M3.608 0.605711C3.8249 0.388811 4.17656 0.388812 4.39346 0.605712C4.61036 0.822612 4.61036 1.17428 4.39346 1.39118L3.608 0.605711ZM0.99917 4L0.606438 4.39274C0.502279 4.28858 0.443763 4.14731 0.443763 4C0.443763 3.8527 0.502279 3.71143 0.606438 3.60727L0.99917 4ZM4.39346 6.60883C4.61036 6.82573 4.61036 7.1774 4.39346 7.3943C4.17656 7.6112 3.8249 7.6112 3.608 7.3943L4.39346 6.60883ZM4.39346 1.39118L1.3919 4.39274L0.606438 3.60727L3.608 0.605711L4.39346 1.39118ZM1.3919 3.60727L4.39346 6.60883L3.608 7.3943L0.606438 4.39274L1.3919 3.60727Z" fill="#B78053"/>
</svg>
