<svg width="48" height="48" viewBox="0 0 48 48" fill="none" xmlns="http://www.w3.org/2000/svg">
<rect width="48" height="48" rx="24" fill="#FDEFF3"/>
<path d="M34 24.0604C34 18.5379 29.5225 14.0604 24 14.0604C18.4775 14.0604 14 18.5379 14 24.0604C14 29.0521 17.6567 33.1887 22.4375 33.9387V26.9512H19.8983V24.0596H22.4375V21.8579C22.4375 19.3521 23.9308 17.9671 26.215 17.9671C27.3083 17.9671 28.4533 18.1629 28.4533 18.1629V20.6237H27.1917C25.9492 20.6237 25.5617 21.3946 25.5617 22.1854V24.0604H28.335L27.8917 26.9521H25.5617V33.9396C30.3433 33.1887 34 29.0512 34 24.0604Z" fill="#E6116D"/>
</svg>
