<svg width="94" height="94" viewBox="0 0 94 94" fill="none" xmlns="http://www.w3.org/2000/svg">
<path d="M17.3848 31.2206L20.2684 28.3627C21.3899 27.2513 22.0307 25.7429 22.0307 24.1591V20.0667C22.0307 13.4775 27.4375 8.12284 34.086 8.12284H38.2112C39.8133 8.12284 41.3352 7.48377 42.4566 6.37235L45.3803 3.47867C50.1063 -1.16549 57.756 -1.16549 62.442 3.5144L65.3256 6.37235C66.4471 7.48377 67.969 8.12284 69.571 8.12284L73.6963 8.12284C80.3447 8.12284 85.7516 13.4775 85.7516 20.0667V24.1154C85.7516 25.7429 86.3924 27.2513 87.5138 28.3627L90.4375 31.2643C95.1235 35.9442 95.0834 43.5297 90.3975 48.1699L87.5138 50.9881C86.3924 52.1392 85.7516 53.6476 85.7516 55.2393V59.3238C85.7516 65.913 80.3447 71.2756 73.6963 71.2756H69.571C67.969 71.2756 66.4471 71.9067 65.3256 73.0181L62.4019 75.9198C60.0389 78.222 56.955 79.3691 53.8711 79.3691C50.7872 79.3691 47.7033 78.222 45.3403 75.8761L42.4566 73.0181C41.3352 71.9067 39.8133 71.2756 38.2112 71.2756H34.086C27.4375 71.2756 22.0307 65.913 22.0307 59.3238V55.2393C22.0307 53.6476 21.3899 52.1392 20.2684 51.0278L17.4248 48.2095C17.3848 48.1699 17.3447 48.1341 17.3047 48.0905C15.0618 45.8319 13.8203 42.8112 13.8603 39.6357C13.8603 36.4602 15.1019 33.4435 17.3848 31.2206V31.2206Z" fill="#E6116D" fill-opacity="0.42"/>
<g opacity="0.4" filter="url(#filter0_f_254_1167)">
<path d="M29.712 34.077L31.6213 32.1848C32.3637 31.449 32.788 30.4503 32.788 29.4017V26.6921C32.788 22.3295 36.3678 18.7843 40.7697 18.7843L43.5009 18.7843C44.5616 18.7843 45.5693 18.3612 46.3117 17.6253L48.2475 15.7094C51.3765 12.6346 56.4413 12.6346 59.5438 15.7331L61.453 17.6253C62.1955 18.3612 63.2032 18.7843 64.2639 18.7843L66.9951 18.7843C71.397 18.7843 74.9768 22.3295 74.9768 26.6921V29.3728C74.9768 30.4503 75.4011 31.449 76.1435 32.1848L78.0793 34.1059C81.1818 37.2044 81.1553 42.2267 78.0528 45.2989L76.1435 47.1648C75.4011 47.927 74.9768 48.9256 74.9768 49.9795V52.6838C74.9768 57.0464 71.397 60.5969 66.9951 60.5969H64.2639C63.2032 60.5969 62.1955 61.0148 61.453 61.7506L59.5173 63.6717C57.9528 65.196 55.911 65.9555 53.8691 65.9555C51.8273 65.9555 49.7855 65.196 48.221 63.6428L46.3117 61.7506C45.5693 61.0148 44.5616 60.5969 43.5009 60.5969H40.7697C36.3678 60.5969 32.788 57.0464 32.788 52.6838V49.9795C32.788 48.9256 32.3637 47.927 31.6213 47.1911L29.7385 45.3252C29.712 45.2989 29.6855 45.2752 29.659 45.2463C28.174 43.751 27.352 41.751 27.3785 39.6485C27.3785 37.5461 28.2005 35.5487 29.712 34.077V34.077Z" fill="#B31851"/>
</g>
<g filter="url(#filter1_b_254_1167)">
<path d="M3.52541 44.9941L6.40907 42.1361C7.5305 41.0247 8.17131 39.5163 8.17131 37.9325V33.8401C8.17131 27.251 13.5782 21.8963 20.2266 21.8963H24.3518C25.9539 21.8963 27.4758 21.2572 28.5972 20.1458L31.5209 17.2521C36.2469 12.6079 43.8967 12.6079 48.5826 17.2878L51.4663 20.1458C52.5877 21.2572 54.1096 21.8963 55.7116 21.8963H59.8369C66.4853 21.8963 71.8922 27.251 71.8922 33.8401V37.8889C71.8922 39.5163 72.533 41.0247 73.6544 42.1361L76.5781 45.0377C81.2641 49.7176 81.224 57.3031 76.5381 61.9433L73.6544 64.7615C72.533 65.9127 71.8922 67.421 71.8922 69.0127V73.0972C71.8922 79.6864 66.4853 85.049 59.8369 85.049H55.7116C54.1096 85.049 52.5877 85.6801 51.4663 86.7916L48.5425 89.6932C46.1795 91.9954 43.0956 93.1426 40.0117 93.1426C36.9278 93.1426 33.8439 91.9954 31.4809 89.6495L28.5972 86.7916C27.4758 85.6801 25.9539 85.049 24.3518 85.049H20.2266C13.5782 85.049 8.17131 79.6864 8.17131 73.0972V69.0127C8.17131 67.421 7.5305 65.9127 6.40907 64.8012L3.56547 61.983C3.52542 61.9433 3.48536 61.9076 3.44531 61.8639C1.20247 59.6053 -0.0391124 56.5846 0.000938416 53.4091C0.000938416 50.2336 1.24252 47.2169 3.52541 44.9941V44.9941Z" fill="#E6116D" fill-opacity="0.15"/>
</g>
<g filter="url(#filter2_b_254_1167)">
<path fill-rule="evenodd" clip-rule="evenodd" d="M46.4627 19.4105L46.4708 19.4186L49.3545 22.2766C51.0305 23.9377 53.3085 24.8963 55.7116 24.8963H59.8369C64.8552 24.8963 68.8922 28.9344 68.8922 33.8401V37.8889C68.8922 40.319 69.8544 42.5936 71.5423 44.2666C71.5424 44.2667 71.5422 44.2665 71.5423 44.2666L74.4582 47.1604C74.4592 47.1614 74.4602 47.1624 74.4612 47.1635C77.9605 50.6615 77.9348 56.3314 74.4335 59.8053L71.5576 62.616C71.54 62.6332 71.5227 62.6505 71.5056 62.6681C69.8661 64.351 68.8922 66.6001 68.8922 69.0127V73.0972C68.8922 78.0056 64.8526 82.049 59.8369 82.049H55.7116C53.3187 82.049 51.0378 82.9925 49.3545 84.6608L46.4399 87.5533C44.6668 89.276 42.3503 90.1426 40.0117 90.1426C37.6724 90.1426 35.3628 89.276 33.5945 87.5205L33.5927 87.5187L30.709 84.6608C29.0257 82.9925 26.7448 82.049 24.3518 82.049H20.2266C15.2109 82.049 11.1713 78.0056 11.1713 73.0972V69.0127C11.1713 66.6087 10.2021 64.3367 8.52087 62.6704L5.67727 59.8522C5.66344 59.8385 5.6509 59.8262 5.64024 59.8159L5.61309 59.7897L5.60817 59.785C5.59689 59.7732 5.5855 59.7616 5.57403 59.75C3.8892 58.0534 2.97097 55.8043 3.0007 53.447L3.00094 53.4091C3.00094 51.0241 3.92887 48.7884 5.61828 47.1435L3.52541 44.9941C1.24252 47.2169 0.000938416 50.2336 0.000938416 53.4091C-0.0391083 56.5846 1.20246 59.6053 3.44531 61.8639C3.47202 61.893 3.49873 61.9186 3.52544 61.9442C3.53878 61.957 3.55212 61.9698 3.56547 61.983L6.40907 64.8012C7.53049 65.9127 8.17131 67.421 8.17131 69.0127V73.0972C8.17131 79.6864 13.5782 85.049 20.2266 85.049H24.3518C25.9539 85.049 27.4758 85.6801 28.5972 86.7916L31.4809 89.6495C33.8439 91.9954 36.9278 93.1426 40.0117 93.1426C43.0956 93.1426 46.1796 91.9954 48.5425 89.6932L51.4663 86.7916C52.5877 85.6801 54.1096 85.049 55.7116 85.049H59.8369C66.4853 85.049 71.8922 79.6864 71.8922 73.0972V69.0127C71.8922 67.421 72.533 65.9127 73.6544 64.7615L76.5381 61.9433C81.224 57.3031 81.2641 49.7176 76.5781 45.0377L73.6544 42.1361C72.533 41.0247 71.8922 39.5163 71.8922 37.8889V33.8401C71.8922 27.251 66.4853 21.8963 59.8369 21.8963H55.7116C54.1096 21.8963 52.5877 21.2572 51.4663 20.1458L48.5826 17.2878C43.8967 12.6079 36.2469 12.6079 31.5209 17.2521L28.5972 20.1458C27.4758 21.2572 25.9539 21.8963 24.3518 21.8963H20.2266C13.5782 21.8963 8.17131 27.251 8.17131 33.8401V37.9325C8.17131 39.5163 7.53049 41.0247 6.40907 42.1361L3.52541 44.9941L5.63721 47.1249L8.52087 44.2669C10.2006 42.6022 11.1713 40.3308 11.1713 37.9325V33.8401C11.1713 28.9344 15.2083 24.8963 20.2266 24.8963H24.3518C26.755 24.8963 29.033 23.9377 30.709 22.2766L33.6237 19.3919C33.6249 19.3906 33.6262 19.3894 33.6275 19.3881C37.1903 15.8911 42.9529 15.9053 46.4627 19.4105Z" fill="url(#paint0_linear_254_1167)"/>
</g>
<path fill-rule="evenodd" clip-rule="evenodd" d="M52.7341 40.8658C53.3173 41.4541 53.3133 42.4038 52.725 42.9871L29.2381 66.273C28.6498 66.8562 27.7001 66.8522 27.1168 66.2639C26.5335 65.6756 26.5376 64.7258 27.1259 64.1426L50.6128 40.8567C51.2011 40.2734 52.1508 40.2775 52.7341 40.8658Z" fill="white"/>
<path fill-rule="evenodd" clip-rule="evenodd" d="M47.9303 63.2686C47.9303 62.3021 48.7138 61.5186 49.6803 61.5186H49.7155C50.682 61.5186 51.4655 62.3021 51.4655 63.2686C51.4655 64.2351 50.682 65.0186 49.7155 65.0186H49.6803C48.7138 65.0186 47.9303 64.2351 47.9303 63.2686Z" fill="white"/>
<path fill-rule="evenodd" clip-rule="evenodd" d="M28.3678 43.8623C28.3678 42.8958 29.1513 42.1123 30.1178 42.1123H30.153C31.1195 42.1123 31.903 42.8958 31.903 43.8623C31.903 44.8288 31.1195 45.6123 30.153 45.6123H30.1178C29.1513 45.6123 28.3678 44.8288 28.3678 43.8623Z" fill="white"/>
<defs>
<filter id="filter0_f_254_1167" x="16.1779" y="2.20625" width="75.415" height="74.9493" filterUnits="userSpaceOnUse" color-interpolation-filters="sRGB">
<feFlood flood-opacity="0" result="BackgroundImageFix"/>
<feBlend mode="normal" in="SourceGraphic" in2="BackgroundImageFix" result="shape"/>
<feGaussianBlur stdDeviation="5.6" result="effect1_foregroundBlur_254_1167"/>
</filter>
<filter id="filter1_b_254_1167" x="-7.51427" y="6.25917" width="95.1012" height="94.3977" filterUnits="userSpaceOnUse" color-interpolation-filters="sRGB">
<feFlood flood-opacity="0" result="BackgroundImageFix"/>
<feGaussianBlur in="BackgroundImage" stdDeviation="3.75713"/>
<feComposite in2="SourceAlpha" operator="in" result="effect1_backgroundBlur_254_1167"/>
<feBlend mode="normal" in="SourceGraphic" in2="effect1_backgroundBlur_254_1167" result="shape"/>
</filter>
<filter id="filter2_b_254_1167" x="-7.51427" y="6.25917" width="95.1012" height="94.3977" filterUnits="userSpaceOnUse" color-interpolation-filters="sRGB">
<feFlood flood-opacity="0" result="BackgroundImageFix"/>
<feGaussianBlur in="BackgroundImage" stdDeviation="3.75713"/>
<feComposite in2="SourceAlpha" operator="in" result="effect1_backgroundBlur_254_1167"/>
<feBlend mode="normal" in="SourceGraphic" in2="effect1_backgroundBlur_254_1167" result="shape"/>
</filter>
<linearGradient id="paint0_linear_254_1167" x1="3.81002" y1="29.815" x2="73.7859" y2="49.9443" gradientUnits="userSpaceOnUse">
<stop stop-color="white"/>
<stop offset="1" stop-color="white" stop-opacity="0"/>
</linearGradient>
</defs>
</svg>
