<svg width="42" height="182" viewBox="0 0 42 182" fill="none" xmlns="http://www.w3.org/2000/svg">
<mask id="mask0_265_1191" style="mask-type:alpha" maskUnits="userSpaceOnUse" x="0" y="0" width="42" height="182">
<path d="M0 0H42V182H0V0Z" fill="#FAEEE6"/>
</mask>
<g mask="url(#mask0_265_1191)">
<path fill-rule="evenodd" clip-rule="evenodd" d="M-1.95363 174.091L-2.19952 174.033C-2.65919 174.876 -3.84914 176.992 -4.93156 178.709C-6.28459 180.856 -7.42976 183.084 -6.92496 186.158C-6.52113 188.617 -6.13608 189.494 -5.99404 189.625L-5.77763 189.676L-5.77841 189.68L-5.44025 189.76C-5.25448 189.706 -4.51669 189.096 -3.05174 187.08C-1.22055 184.559 -1.24338 182.054 -1.48865 179.529C-1.68487 177.508 -1.79815 175.084 -1.83027 174.124L-1.9544 174.094L-1.95363 174.091Z" fill="url(#paint0_linear_265_1191)"/>
<path d="M-2.19952 174.033L-2.1728 173.92C-2.22361 173.908 -2.2762 173.931 -2.3012 173.977L-2.19952 174.033ZM-1.95363 174.091L-1.84095 174.118C-1.83386 174.088 -1.83894 174.056 -1.85506 174.03C-1.87118 174.004 -1.89703 173.985 -1.92691 173.978L-1.95363 174.091ZM-4.93156 178.709L-4.8336 178.771L-4.93156 178.709ZM-6.92496 186.158L-6.81069 186.139L-6.81069 186.139L-6.92496 186.158ZM-5.99404 189.625L-6.07257 189.71C-6.05795 189.724 -6.0401 189.733 -6.02075 189.738L-5.99404 189.625ZM-5.77763 189.676L-5.66496 189.703C-5.65787 189.673 -5.66295 189.642 -5.67907 189.615C-5.69519 189.589 -5.72103 189.571 -5.75092 189.564L-5.77763 189.676ZM-5.77841 189.68L-5.89108 189.653C-5.89817 189.683 -5.89309 189.714 -5.87697 189.74C-5.86085 189.766 -5.83501 189.785 -5.80512 189.792L-5.77841 189.68ZM-5.44025 189.76L-5.46697 189.872C-5.44761 189.877 -5.4274 189.876 -5.40829 189.871L-5.44025 189.76ZM-3.05174 187.08L-3.14542 187.011L-3.14542 187.011L-3.05174 187.08ZM-1.48865 179.529L-1.60391 179.54L-1.60391 179.54L-1.48865 179.529ZM-1.83027 174.124L-1.71453 174.12C-1.71628 174.068 -1.75274 174.023 -1.80355 174.011L-1.83027 174.124ZM-1.9544 174.094L-2.06708 174.067C-2.07416 174.097 -2.06909 174.129 -2.05297 174.155C-2.03685 174.181 -2.011 174.2 -1.98112 174.207L-1.9544 174.094ZM-2.22624 174.145L-1.98034 174.204L-1.92691 173.978L-2.1728 173.92L-2.22624 174.145ZM-4.8336 178.771C-3.74935 177.051 -2.5581 174.932 -2.09784 174.088L-2.3012 173.977C-2.76028 174.819 -3.94892 176.933 -5.02952 178.647L-4.8336 178.771ZM-6.81069 186.139C-7.30832 183.109 -6.18304 180.912 -4.8336 178.771L-5.02952 178.647C-6.38615 180.799 -7.55119 183.059 -7.03923 186.176L-6.81069 186.139ZM-5.9155 189.54C-5.93199 189.525 -5.97473 189.465 -6.03697 189.326C-6.09674 189.193 -6.16918 188.999 -6.2505 188.731C-6.41308 188.194 -6.60931 187.365 -6.81069 186.139L-7.03923 186.176C-6.83679 187.409 -6.63857 188.249 -6.47216 188.798C-6.38898 189.073 -6.31329 189.276 -6.24829 189.421C-6.18576 189.56 -6.1271 189.66 -6.07257 189.71L-5.9155 189.54ZM-5.75092 189.564L-5.96732 189.512L-6.02075 189.738L-5.80435 189.789L-5.75092 189.564ZM-5.89031 189.65L-5.89108 189.653L-5.66573 189.706L-5.66496 189.703L-5.89031 189.65ZM-5.80512 189.792L-5.46697 189.872L-5.41353 189.647L-5.75169 189.567L-5.80512 189.792ZM-5.40829 189.871C-5.33697 189.851 -5.23999 189.788 -5.12155 189.692C-4.99841 189.591 -4.83933 189.443 -4.64173 189.235C-4.24639 188.819 -3.69245 188.158 -2.95806 187.148L-3.14542 187.011C-3.87598 188.017 -4.42341 188.669 -4.80964 189.076C-5.00283 189.279 -5.15458 189.42 -5.26781 189.512C-5.38573 189.608 -5.45064 189.642 -5.47221 189.648L-5.40829 189.871ZM-2.95806 187.148C-1.10087 184.592 -1.12747 182.05 -1.37339 179.518L-1.60391 179.54C-1.35929 182.059 -1.34024 184.527 -3.14542 187.011L-2.95806 187.148ZM-1.37339 179.518C-1.56928 177.501 -1.68246 175.078 -1.71453 174.12L-1.946 174.127C-1.91385 175.089 -1.80046 177.516 -1.60391 179.54L-1.37339 179.518ZM-1.80355 174.011L-1.92768 173.982L-1.98112 174.207L-1.85698 174.236L-1.80355 174.011ZM-2.0663 174.064L-2.06708 174.067L-1.84172 174.121L-1.84095 174.118L-2.0663 174.064Z" fill="#F4C9A1"/>
<path d="M-2.14531 174.04L-2.11859 173.928C-2.17315 173.915 -2.22913 173.943 -2.2515 173.994L-2.14531 174.04ZM-1.98353 174.079L-1.87085 174.105C-1.85609 174.043 -1.89458 173.981 -1.95681 173.966L-1.98353 174.079ZM-4.35169 178.841L-4.45575 178.79L-4.35169 178.841ZM-6.2715 186.307L-6.15577 186.303L-6.15577 186.303L-6.2715 186.307ZM-5.90827 189.64L-6.0018 189.708C-5.98553 189.731 -5.96183 189.746 -5.93498 189.753L-5.90827 189.64ZM-5.76737 189.673L-5.65469 189.7C-5.63994 189.638 -5.67842 189.575 -5.74065 189.561L-5.76737 189.673ZM-5.76804 189.676L-5.88072 189.65C-5.89547 189.712 -5.85699 189.774 -5.79476 189.789L-5.76804 189.676ZM-5.54555 189.729L-5.57226 189.842C-5.54541 189.848 -5.51717 189.845 -5.49263 189.832L-5.54555 189.729ZM-3.72474 186.914L-3.82631 186.859L-3.82631 186.859L-3.72474 186.914ZM-2.08806 179.381L-1.97226 179.382L-1.97226 179.382L-2.08806 179.381ZM-1.90401 174.1L-1.78838 174.107C-1.78529 174.051 -1.82274 174.001 -1.87729 173.988L-1.90401 174.1ZM-1.9842 174.081L-2.09687 174.055C-2.11163 174.117 -2.07314 174.179 -2.01091 174.194L-1.9842 174.081ZM-2.17203 174.153L-2.01024 174.191L-1.95681 173.966L-2.11859 173.928L-2.17203 174.153ZM-4.24763 178.892C-3.38284 177.121 -2.41502 174.95 -2.03912 174.086L-2.2515 173.994C-2.62673 174.856 -3.59304 177.024 -4.45575 178.79L-4.24763 178.892ZM-6.15577 186.303C-6.26002 183.353 -5.32515 181.099 -4.24763 178.892L-4.45575 178.79C-5.5376 181.006 -6.49355 183.303 -6.38723 186.311L-6.15577 186.303ZM-5.81474 189.572C-5.81417 189.572 -5.81636 189.57 -5.82073 189.56C-5.82487 189.551 -5.83 189.539 -5.83593 189.522C-5.84782 189.488 -5.86167 189.441 -5.87683 189.378C-5.90711 189.251 -5.94131 189.066 -5.97576 188.808C-6.04463 188.292 -6.11374 187.493 -6.15577 186.303L-6.38723 186.311C-6.34503 187.505 -6.27551 188.313 -6.20532 188.839C-6.17024 189.101 -6.1348 189.295 -6.10208 189.432C-6.08573 189.5 -6.06973 189.556 -6.05428 189.599C-6.0397 189.641 -6.02281 189.679 -6.0018 189.708L-5.81474 189.572ZM-5.74065 189.561L-5.88155 189.527L-5.93498 189.753L-5.79408 189.786L-5.74065 189.561ZM-5.88004 189.647L-5.88072 189.65L-5.65536 189.703L-5.65469 189.7L-5.88004 189.647ZM-5.79476 189.789L-5.57226 189.842L-5.51883 189.616L-5.74132 189.564L-5.79476 189.789ZM-5.49263 189.832C-5.46094 189.816 -5.42836 189.789 -5.39683 189.758C-5.36341 189.726 -5.32414 189.684 -5.27885 189.63C-5.18817 189.522 -5.06958 189.365 -4.92033 189.146C-4.62169 188.708 -4.19693 188.018 -3.62317 186.97L-3.82631 186.859C-4.39789 187.903 -4.81868 188.586 -5.11169 189.016C-5.25826 189.231 -5.37201 189.381 -5.45593 189.481C-5.49794 189.53 -5.53154 189.566 -5.55727 189.591C-5.5701 189.604 -5.58027 189.612 -5.58795 189.618C-5.59604 189.625 -5.59933 189.626 -5.59847 189.626L-5.49263 189.832ZM-3.62317 186.97C-2.17741 184.329 -2.0004 181.848 -1.97226 179.382L-2.20385 179.38C-2.23187 181.835 -2.4087 184.27 -3.82631 186.859L-3.62317 186.97ZM-1.97226 179.382C-1.94983 177.416 -1.84033 175.046 -1.78838 174.107L-2.01963 174.094C-2.07167 175.035 -2.18136 177.409 -2.20385 179.38L-1.97226 179.382ZM-1.87729 173.988L-1.95748 173.969L-2.01091 174.194L-1.93072 174.213L-1.87729 173.988ZM-2.0962 174.052L-2.09687 174.055L-1.87152 174.108L-1.87085 174.105L-2.0962 174.052Z" fill="#F4C9A1"/>
<path fill-rule="evenodd" clip-rule="evenodd" d="M9.33336 82H9.70295C10.4414 84.7077 12.3983 91.5261 14.3183 97.1384C16.7183 104.154 18.4722 111.261 14.9645 119.661C12.1583 126.381 10.4723 128.615 9.98004 128.892H9.33336H8.96449H8.31781C7.82556 128.615 6.13952 126.381 3.33338 119.661C-0.174309 111.261 1.57953 104.154 3.97953 97.1384C5.89952 91.5261 7.85644 84.7077 8.5949 82H8.96449H9.33336Z" fill="url(#paint1_linear_265_1191)"/>
<path d="M9.70295 82V81.8842C9.75517 81.8842 9.80093 81.9192 9.81467 81.9695L9.70295 82ZM14.3183 97.1384L14.2088 97.1759L14.2088 97.1759L14.3183 97.1384ZM14.9645 119.661L15.0713 119.706L15.0713 119.706L14.9645 119.661ZM9.98004 128.892L10.0368 128.993C10.0195 129.003 9.99993 129.008 9.98004 129.008V128.892ZM8.31781 128.892V129.008C8.29792 129.008 8.27837 129.003 8.26103 128.993L8.31781 128.892ZM3.33338 119.661L3.44023 119.617L3.44023 119.617L3.33338 119.661ZM3.97953 97.1384L4.0891 97.1759L4.0891 97.1759L3.97953 97.1384ZM8.5949 82L8.48318 81.9695C8.49692 81.9192 8.54268 81.8842 8.5949 81.8842V82ZM9.70295 82.1158H9.33336V81.8842H9.70295V82.1158ZM14.2088 97.1759C12.2877 91.5604 10.33 84.7393 9.59123 82.0305L9.81467 81.9695C10.5528 84.676 12.509 91.4919 14.4279 97.1009L14.2088 97.1759ZM14.8576 119.617C18.3483 111.258 16.6066 104.185 14.2088 97.1759L14.4279 97.1009C16.8301 104.123 18.5961 111.265 15.0713 119.706L14.8576 119.617ZM9.92326 128.791C10.0238 128.735 10.2091 128.561 10.48 128.208C10.7473 127.859 11.0892 127.349 11.5045 126.635C12.3349 125.207 13.4558 122.974 14.8576 119.617L15.0713 119.706C13.667 123.069 12.5418 125.312 11.7046 126.751C11.2861 127.471 10.9388 127.99 10.6638 128.349C10.3924 128.702 10.1824 128.911 10.0368 128.993L9.92326 128.791ZM9.33336 128.776H9.98004V129.008H9.33336V128.776ZM9.33336 129.008H8.96449V128.776H9.33336V129.008ZM8.96449 129.008H8.31781V128.776H8.96449V129.008ZM8.26103 128.993C8.11541 128.911 7.90541 128.702 7.63407 128.349C7.35904 127.99 7.01173 127.471 6.59321 126.751C5.75608 125.312 4.63085 123.069 3.22652 119.706L3.44023 119.617C4.84205 122.974 5.96291 125.207 6.7934 126.635C7.20869 127.349 7.55057 127.859 7.81781 128.208C8.08874 128.561 8.27408 128.735 8.37459 128.791L8.26103 128.993ZM3.22652 119.706C-0.298214 111.265 1.46779 104.123 3.86996 97.1009L4.0891 97.1759C1.69128 104.185 -0.0504038 111.258 3.44023 119.617L3.22652 119.706ZM3.86996 97.1009C5.78885 91.4919 7.74505 84.676 8.48318 81.9695L8.70662 82.0305C7.96784 84.7393 6.0102 91.5604 4.0891 97.1759L3.86996 97.1009ZM8.5949 81.8842H8.96449V82.1158H8.5949V81.8842ZM8.96449 81.8842H9.33336V82.1158H8.96449V81.8842Z" fill="#F4C9A1"/>
<path fill-rule="evenodd" clip-rule="evenodd" d="M9.27203 82H9.5117C9.99757 84.7077 11.2851 91.5261 12.5484 97.1384C14.1275 104.154 15.2814 111.261 12.9735 119.661C11.1272 126.381 10.0179 128.615 9.69401 128.892H9.27203H9.02582H8.60384C8.27996 128.615 7.17063 126.381 5.32431 119.661C3.01641 111.261 4.17036 104.154 5.74945 97.1384C7.01272 91.5261 8.30028 84.7077 8.78616 82H9.02582H9.27203Z" fill="url(#paint2_linear_265_1191)"/>
<path d="M9.5117 82V81.8842C9.56776 81.8842 9.61577 81.9244 9.62568 81.9795L9.5117 82ZM12.5484 97.1384L12.4354 97.1639L12.4354 97.1639L12.5484 97.1384ZM12.9735 119.661L13.0852 119.692L13.0852 119.692L12.9735 119.661ZM9.69401 128.892L9.76927 128.98C9.74829 128.998 9.72161 129.008 9.69401 129.008V128.892ZM8.60384 128.892V129.008C8.57625 129.008 8.54956 128.998 8.52859 128.98L8.60384 128.892ZM5.32431 119.661L5.21265 119.692L5.21265 119.692L5.32431 119.661ZM5.74945 97.1384L5.86242 97.1639L5.86242 97.1639L5.74945 97.1384ZM8.78616 82L8.67218 81.9795C8.68208 81.9244 8.73009 81.8842 8.78616 81.8842V82ZM9.5117 82.1158H9.27203V81.8842H9.5117V82.1158ZM12.4354 97.1639C11.1716 91.5492 9.88374 84.729 9.39772 82.0205L9.62568 81.9795C10.1114 84.6864 11.3986 91.503 12.6614 97.113L12.4354 97.1639ZM12.8619 119.631C15.162 111.259 14.0134 104.174 12.4354 97.1639L12.6614 97.113C14.2415 104.133 15.4009 111.264 13.0852 119.692L12.8619 119.631ZM9.61876 128.804C9.64602 128.781 9.6914 128.727 9.75487 128.629C9.81691 128.533 9.89201 128.4 9.98006 128.226C10.1561 127.877 10.3813 127.366 10.6547 126.652C11.2015 125.223 11.9393 122.989 12.8619 119.631L13.0852 119.692C12.1614 123.054 11.4214 125.297 10.871 126.734C10.5959 127.453 10.3676 127.972 10.1868 128.33C10.0965 128.509 10.0173 128.649 9.94951 128.754C9.8831 128.857 9.82298 128.934 9.76927 128.98L9.61876 128.804ZM9.27203 128.776H9.69401V129.008H9.27203V128.776ZM9.27203 129.008H9.02582V128.776H9.27203V129.008ZM9.02582 129.008H8.60384V128.776H9.02582V129.008ZM8.52859 128.98C8.47488 128.934 8.41475 128.857 8.34834 128.754C8.28051 128.649 8.20139 128.509 8.11104 128.33C7.93029 127.972 7.702 127.453 7.42684 126.734C6.87645 125.297 6.13641 123.054 5.21265 119.692L5.43597 119.631C6.35853 122.989 7.09632 125.223 7.64314 126.652C7.91659 127.366 8.14175 127.877 8.31779 128.226C8.40584 128.4 8.48094 128.533 8.54299 128.629C8.60645 128.727 8.65184 128.781 8.67909 128.804L8.52859 128.98ZM5.21265 119.692C2.89699 111.264 4.0563 104.133 5.63648 97.113L5.86242 97.1639C4.28442 104.174 3.13584 111.259 5.43597 119.631L5.21265 119.692ZM5.63648 97.113C6.89922 91.503 8.18645 84.6864 8.67218 81.9795L8.90014 82.0205C8.41412 84.729 7.12621 91.5492 5.86242 97.1639L5.63648 97.113ZM8.78616 81.8842H9.02582V82.1158H8.78616V81.8842ZM9.02582 81.8842H9.27203V82.1158H9.02582V81.8842Z" fill="#F4C9A1"/>
<path fill-rule="evenodd" clip-rule="evenodd" d="M9.19887 82H9.31468C9.5382 84.7077 10.1305 91.5261 10.7117 97.1384C11.4381 104.154 11.9689 111.261 10.9072 119.661C10.0579 126.381 9.54755 128.615 9.39855 128.892H9.19887H9.09117H8.89149C8.74249 128.615 8.23217 126.381 7.3828 119.661C6.3211 111.261 6.85195 104.154 7.57838 97.1384C8.15952 91.5261 8.75184 84.7077 8.97536 82H9.09117H9.19887Z" fill="url(#paint3_linear_265_1191)"/>
<path d="M9.31468 82V81.8842C9.37494 81.8842 9.42513 81.9304 9.43009 81.9905L9.31468 82ZM10.7117 97.1384L10.5965 97.1504L10.5965 97.1504L10.7117 97.1384ZM10.9072 119.661L11.0221 119.676L10.9072 119.661ZM9.39855 128.892L9.50053 128.947C9.48034 128.985 9.44117 129.008 9.39855 129.008V128.892ZM8.89149 128.892V129.008C8.84887 129.008 8.8097 128.985 8.78951 128.947L8.89149 128.892ZM7.3828 119.661L7.26792 119.676L7.26792 119.676L7.3828 119.661ZM7.57838 97.1384L7.69357 97.1504L7.69357 97.1504L7.57838 97.1384ZM8.97536 82L8.85995 81.9905C8.86491 81.9304 8.9151 81.8842 8.97536 81.8842V82ZM9.31468 82.1158H9.19887V81.8842H9.31468V82.1158ZM10.5965 97.1504C10.0152 91.5369 9.42282 84.7176 9.19927 82.0095L9.43009 81.9905C9.65357 84.6978 10.2458 91.5153 10.8268 97.1265L10.5965 97.1504ZM10.7923 119.647C11.8524 111.26 11.3227 104.163 10.5965 97.1504L10.8268 97.1265C11.5535 104.144 12.0855 111.263 11.0221 119.676L10.7923 119.647ZM9.29658 128.837C9.30904 128.814 9.33052 128.759 9.3603 128.659C9.38928 128.561 9.42417 128.427 9.4649 128.252C9.54633 127.901 9.65023 127.388 9.77621 126.673C10.0281 125.242 10.3678 123.006 10.7923 119.647L11.0221 119.676C10.5973 123.037 10.2571 125.278 10.0043 126.713C9.87791 127.431 9.7732 127.948 9.6905 128.304C9.64916 128.482 9.6131 128.621 9.58234 128.725C9.55237 128.826 9.52532 128.901 9.50053 128.947L9.29658 128.837ZM9.19887 128.776H9.39855V129.008H9.19887V128.776ZM9.19887 129.008H9.09117V128.776H9.19887V129.008ZM9.09117 129.008H8.89149V128.776H9.09117V129.008ZM8.78951 128.947C8.76472 128.901 8.73767 128.826 8.7077 128.725C8.67694 128.621 8.64088 128.482 8.59954 128.304C8.51684 127.948 8.41213 127.431 8.28574 126.713C8.03292 125.278 7.69273 123.037 7.26792 119.676L7.49769 119.647C7.92224 123.006 8.26189 125.242 8.51383 126.673C8.63981 127.388 8.74371 127.901 8.82514 128.252C8.86587 128.427 8.90076 128.561 8.92974 128.659C8.95952 128.759 8.981 128.814 8.99346 128.837L8.78951 128.947ZM7.26792 119.676C6.20452 111.263 6.73652 104.144 7.4632 97.1265L7.69357 97.1504C6.96739 104.163 6.43769 111.26 7.49769 119.647L7.26792 119.676ZM7.4632 97.1265C8.04422 91.5153 8.63646 84.6978 8.85995 81.9905L9.09076 82.0095C8.86722 84.7176 8.27482 91.5369 7.69357 97.1504L7.4632 97.1265ZM8.97536 81.8842H9.09117V82.1158H8.97536V81.8842ZM9.09117 81.8842H9.19887V82.1158H9.09117V81.8842Z" fill="#F4C9A1"/>
<path fill-rule="evenodd" clip-rule="evenodd" d="M9.14962 82H9.14818H9.14576H9.14432V82.995C9.13973 86.1418 9.13061 92.1219 9.12163 97.1384C9.10909 104.154 9.09992 111.261 9.11826 119.661C9.13293 126.381 9.14174 128.615 9.14431 128.892H9.14432H9.14962H9.14963C9.15221 128.615 9.16102 126.381 9.17569 119.661C9.19402 111.261 9.18486 104.154 9.17231 97.1384C9.16334 92.1219 9.15421 86.1418 9.14962 82.995V82Z" fill="url(#paint4_linear_265_1191)"/>
<path d="M9.14962 82H9.26542C9.26542 81.936 9.21358 81.8842 9.14962 81.8842V82ZM9.14432 82V81.8842C9.08037 81.8842 9.02852 81.936 9.02852 82H9.14432ZM9.14432 82.995L9.26012 82.9951V82.995H9.14432ZM9.12163 97.1384L9.23743 97.1386L9.12163 97.1384ZM9.11826 119.661L9.00246 119.662L9.11826 119.661ZM9.14431 128.892L9.02852 128.893C9.02911 128.957 9.08078 129.008 9.14431 129.008V128.892ZM9.14963 128.892V129.008C9.21317 129.008 9.26484 128.957 9.26543 128.893L9.14963 128.892ZM9.17569 119.661L9.05989 119.661L9.17569 119.661ZM9.17231 97.1384L9.05651 97.1386L9.17231 97.1384ZM9.14962 82.995H9.03382L9.03382 82.9951L9.14962 82.995ZM9.14818 82.1158H9.14962V81.8842H9.14818V82.1158ZM9.14818 81.8842H9.14576V82.1158H9.14818V81.8842ZM9.14576 81.8842H9.14432V82.1158H9.14576V81.8842ZM9.02852 82V82.995H9.26012V82H9.02852ZM9.23743 97.1386C9.24641 92.1221 9.25553 86.142 9.26012 82.9951L9.02852 82.9948C9.02393 86.1416 9.01481 92.1218 9.00583 97.1382L9.23743 97.1386ZM9.23406 119.661C9.21572 111.261 9.22489 104.154 9.23743 97.1386L9.00583 97.1382C8.99329 104.154 8.98412 111.261 9.00246 119.662L9.23406 119.661ZM9.26011 128.891C9.25754 128.615 9.24873 126.381 9.23406 119.661L9.00246 119.662C9.01713 126.381 9.02594 128.616 9.02852 128.893L9.26011 128.891ZM9.14432 128.776H9.14431V129.008H9.14432V128.776ZM9.14432 129.008H9.14962V128.776H9.14432V129.008ZM9.14962 129.008H9.14963V128.776H9.14962V129.008ZM9.26543 128.893C9.26801 128.616 9.27682 126.381 9.29149 119.662L9.05989 119.661C9.04522 126.381 9.03641 128.615 9.03384 128.891L9.26543 128.893ZM9.29149 119.662C9.30982 111.261 9.30066 104.154 9.28811 97.1382L9.05651 97.1386C9.06906 104.154 9.07822 111.261 9.05989 119.661L9.29149 119.662ZM9.28811 97.1382C9.27914 92.1218 9.27001 86.1416 9.26542 82.9948L9.03382 82.9951C9.03841 86.142 9.04754 92.1221 9.05651 97.1386L9.28811 97.1382ZM9.03382 82V82.995H9.26542V82H9.03382Z" fill="#F4C9A1"/>
<path fill-rule="evenodd" clip-rule="evenodd" d="M-11.7608 98.2119L-11.2748 97.8923C-9.61665 99.3546 -5.37714 102.995 -1.68405 105.857C2.9323 109.436 7.16336 113.354 8.49104 120.401C9.55319 126.038 9.41054 128.238 9.20645 128.634L8.78187 128.913L8.78325 128.915L8.11488 129.355C7.67104 129.386 5.59441 128.645 0.838614 125.437C-5.10613 121.427 -7.02865 115.99 -8.48597 110.334C-9.65182 105.81 -11.3155 100.475 -12.0016 98.3733L-11.7594 98.214L-11.7608 98.2119Z" fill="url(#paint5_linear_265_1191)"/>
<path d="M-11.2748 97.8923L-11.3384 97.7955C-11.2948 97.7668 -11.2373 97.7709 -11.1982 97.8054L-11.2748 97.8923ZM-11.7608 98.2119L-11.8575 98.2756C-11.8927 98.2221 -11.8778 98.1503 -11.8244 98.1152L-11.7608 98.2119ZM-1.68405 105.857L-1.755 105.949L-1.68405 105.857ZM8.49104 120.401L8.60484 120.38L8.60484 120.38L8.49104 120.401ZM9.20645 128.634L9.30935 128.687C9.30022 128.704 9.2867 128.72 9.27008 128.73L9.20645 128.634ZM8.78187 128.913L8.68512 128.977C8.64998 128.923 8.6648 128.851 8.71824 128.816L8.78187 128.913ZM8.78325 128.915L8.88 128.851C8.91514 128.905 8.90032 128.977 8.84688 129.012L8.78325 128.915ZM8.11488 129.355L8.17851 129.451C8.1619 129.462 8.14275 129.469 8.1229 129.47L8.11488 129.355ZM0.838614 125.437L0.90337 125.341L0.90337 125.341L0.838614 125.437ZM-8.48597 110.334L-8.37383 110.305L-8.37383 110.305L-8.48597 110.334ZM-12.0016 98.3733L-12.1117 98.4093C-12.1279 98.3596 -12.1089 98.3053 -12.0652 98.2766L-12.0016 98.3733ZM-11.7594 98.214L-11.6626 98.1504C-11.6275 98.2038 -11.6423 98.2756 -11.6958 98.3108L-11.7594 98.214ZM-11.2111 97.989L-11.6971 98.3087L-11.8244 98.1152L-11.3384 97.7955L-11.2111 97.989ZM-1.755 105.949C-5.45078 103.084 -9.69232 99.4423 -11.3514 97.9791L-11.1982 97.8054C-9.54097 99.267 -5.30349 102.906 -1.61311 105.766L-1.755 105.949ZM8.37724 120.422C7.05775 113.419 2.85603 109.523 -1.755 105.949L-1.61311 105.766C3.00857 109.348 7.26896 113.289 8.60484 120.38L8.37724 120.422ZM9.10355 128.581C9.1427 128.505 9.18918 128.314 9.21464 127.965C9.23965 127.621 9.24358 127.138 9.20796 126.489C9.13672 125.192 8.90771 123.238 8.37724 120.422L8.60484 120.38C9.13651 123.201 9.36725 125.166 9.43921 126.477C9.47518 127.132 9.47157 127.625 9.44562 127.982C9.42012 128.332 9.37224 128.565 9.30935 128.687L9.10355 128.581ZM8.71824 128.816L9.14281 128.537L9.27008 128.73L8.84551 129.01L8.71824 128.816ZM8.87862 128.849L8.88 128.851L8.6865 128.979L8.68512 128.977L8.87862 128.849ZM8.84688 129.012L8.17851 129.451L8.05124 129.258L8.71961 128.818L8.84688 129.012ZM8.1229 129.47C7.98612 129.48 7.75321 129.431 7.42148 129.316C7.08403 129.199 6.62953 129.007 6.04211 128.714C4.86708 128.129 3.15446 127.139 0.773858 125.533L0.90337 125.341C3.27856 126.943 4.98215 127.928 6.14535 128.507C6.72704 128.797 7.17215 128.984 7.49752 129.097C7.82861 129.212 8.02171 129.245 8.10685 129.239L8.1229 129.47ZM0.773858 125.533C-5.20756 121.499 -7.13911 116.026 -8.59811 110.363L-8.37383 110.305C-6.9182 115.955 -5.00469 121.356 0.90337 125.341L0.773858 125.533ZM-8.59811 110.363C-9.76311 105.842 -11.426 100.51 -12.1117 98.4093L-11.8915 98.3374C-11.205 100.44 -9.54054 105.777 -8.37383 110.305L-8.59811 110.363ZM-12.0652 98.2766L-11.823 98.1173L-11.6958 98.3108L-11.938 98.4701L-12.0652 98.2766ZM-11.664 98.1483L-11.6626 98.1504L-11.8561 98.2777L-11.8575 98.2756L-11.664 98.1483Z" fill="#F4C9A1"/>
<path d="M-11.8776 98.2893L-11.9841 98.3349C-12.0062 98.2833 -11.9881 98.2234 -11.9413 98.1926L-11.8776 98.2893ZM-11.5579 98.079L-11.6215 97.9823C-11.5681 97.9471 -11.4963 97.9619 -11.4611 98.0154L-11.5579 98.079ZM-7.32304 109.567L-7.4314 109.608L-7.32304 109.567ZM2.147 124.574L2.22343 124.487L2.22343 124.487L2.147 124.574ZM8.30121 129.23L8.36485 129.326C8.34179 129.342 8.31408 129.348 8.2867 129.345L8.30121 129.23ZM8.57944 129.047L8.51581 128.95C8.56924 128.915 8.64105 128.93 8.67619 128.983L8.57944 129.047ZM8.58048 129.048L8.64412 129.145C8.59069 129.18 8.51888 129.165 8.48374 129.112L8.58048 129.048ZM9.02024 128.759L9.13148 128.791C9.12381 128.818 9.10693 128.841 9.08388 128.856L9.02024 128.759ZM7.18278 121.264L7.07263 121.3L7.07263 121.3L7.18278 121.264ZM-2.84686 106.625L-2.92727 106.708L-2.92727 106.708L-2.84686 106.625ZM-11.3986 97.9765L-11.4622 97.8798C-11.4154 97.849 -11.3532 97.8561 -11.3146 97.8968L-11.3986 97.9765ZM-11.5568 98.0806L-11.4932 98.1773C-11.5466 98.2125 -11.6184 98.1977 -11.6536 98.1442L-11.5568 98.0806ZM-11.9413 98.1926L-11.6215 97.9823L-11.4942 98.1758L-11.814 98.3861L-11.9413 98.1926ZM-7.4314 109.608C-9.02863 105.37 -11.1321 100.326 -11.9841 98.3349L-11.7712 98.2438C-10.9185 100.237 -8.81358 105.283 -7.21468 109.526L-7.4314 109.608ZM2.07057 124.661C-3.10656 120.113 -5.43207 114.913 -7.4314 109.608L-7.21468 109.526C-5.21884 114.822 -2.90967 119.977 2.22343 124.487L2.07057 124.661ZM8.2867 129.345C8.22781 129.337 8.1523 129.311 8.06348 129.272C7.97227 129.232 7.85878 129.173 7.72138 129.094C7.44647 128.936 7.07079 128.693 6.57815 128.339C5.59268 127.63 4.13433 126.474 2.07057 124.661L2.22343 124.487C4.28377 126.297 5.73601 127.448 6.71336 128.151C7.20213 128.502 7.57092 128.741 7.83676 128.894C7.96973 128.97 8.07568 129.024 8.15713 129.06C8.24098 129.097 8.29135 129.112 8.31572 129.115L8.2867 129.345ZM8.64308 129.143L8.36485 129.326L8.23757 129.133L8.51581 128.95L8.64308 129.143ZM8.67619 128.983L8.67723 128.985L8.48374 129.112L8.4827 129.11L8.67619 128.983ZM8.51685 128.951L8.95661 128.662L9.08388 128.856L8.64412 129.145L8.51685 128.951ZM8.909 128.727C8.91583 128.703 8.92258 128.651 8.92175 128.56C8.92094 128.471 8.91313 128.352 8.89564 128.199C8.86068 127.895 8.78771 127.462 8.65858 126.874C8.40035 125.698 7.91884 123.909 7.07263 121.3L7.29293 121.229C8.14055 123.842 8.62442 125.639 8.88478 126.824C9.01494 127.417 9.08958 127.858 9.12573 128.173C9.1438 128.33 9.15243 128.458 9.15334 128.557C9.15422 128.655 9.14798 128.734 9.13148 128.791L8.909 128.727ZM7.07263 121.3C4.96436 114.8 1.14526 110.638 -2.92727 106.708L-2.76645 106.542C1.31319 110.479 5.16658 114.673 7.29293 121.229L7.07263 121.3ZM-2.92727 106.708C-6.18986 103.56 -9.99013 99.6285 -11.4826 98.0562L-11.3146 97.8968C-9.82329 99.4679 -6.02561 103.397 -2.76645 106.542L-2.92727 106.708ZM-11.335 98.0733L-11.4932 98.1773L-11.6205 97.9838L-11.4622 97.8798L-11.335 98.0733ZM-11.4611 98.0154L-11.4601 98.017L-11.6536 98.1442L-11.6546 98.1427L-11.4611 98.0154Z" fill="#F4C9A1"/>
<path d="M-11.5259 98.0581L-11.5895 97.9614C-11.5392 97.9282 -11.4719 97.9393 -11.4347 97.9867L-11.5259 98.0581ZM-11.673 98.1549L-11.7698 98.2185C-11.8049 98.1651 -11.7901 98.0933 -11.7366 98.0581L-11.673 98.1549ZM-4.05334 107.417L-4.14302 107.49L-4.14302 107.49L-4.05334 107.417ZM5.82522 122.155L5.72125 122.206L5.82522 122.155ZM8.82814 128.883L8.94349 128.873C8.94724 128.915 8.92738 128.957 8.89177 128.98L8.82814 128.883ZM8.69743 128.969L8.60068 129.033C8.58381 129.007 8.57781 128.976 8.58402 128.946C8.59023 128.916 8.60814 128.889 8.6338 128.872L8.69743 128.969ZM8.69939 128.972L8.79614 128.909C8.83129 128.962 8.81646 129.034 8.76303 129.069L8.69939 128.972ZM8.49709 129.105L8.56073 129.202C8.52513 129.225 8.47954 129.227 8.44204 129.207L8.49709 129.105ZM3.50834 123.683L3.42034 123.758L3.50834 123.683ZM-6.11278 108.775L-6.00999 108.722L-6.00999 108.722L-6.11278 108.775ZM-11.7466 98.2075L-11.8482 98.263C-11.8771 98.2101 -11.8605 98.1439 -11.8102 98.1108L-11.7466 98.2075ZM-11.671 98.1579L-11.5743 98.0942C-11.5392 98.1476 -11.554 98.2195 -11.6074 98.2546L-11.671 98.1579ZM-11.4623 98.1549L-11.6094 98.2516L-11.7366 98.0581L-11.5895 97.9614L-11.4623 98.1549ZM-4.14302 107.49C-6.95567 104.047 -10.2976 99.8151 -11.6171 98.1295L-11.4347 97.9867C-10.1157 99.6717 -6.77488 103.902 -3.96366 107.343L-4.14302 107.49ZM5.72125 122.206C2.78975 116.23 -0.629627 111.79 -4.14302 107.49L-3.96366 107.343C-0.447206 111.648 2.98575 116.104 5.92918 122.104L5.72125 122.206ZM8.71279 128.893C8.71121 128.875 8.70222 128.832 8.67838 128.753C8.65535 128.677 8.62057 128.574 8.57156 128.442C8.47358 128.176 8.32008 127.794 8.09342 127.269C7.64016 126.219 6.89576 124.6 5.72125 122.206L5.92918 122.104C7.10465 124.5 7.8508 126.122 8.30606 127.177C8.53365 127.704 8.6889 128.091 8.78883 128.361C8.83877 128.497 8.87524 128.604 8.90008 128.686C8.92411 128.766 8.93962 128.829 8.94349 128.873L8.71279 128.893ZM8.6338 128.872L8.7645 128.786L8.89177 128.98L8.76107 129.066L8.6338 128.872ZM8.79418 128.906L8.79614 128.909L8.60265 129.036L8.60068 129.033L8.79418 128.906ZM8.76303 129.069L8.56073 129.202L8.43346 129.008L8.63576 128.875L8.76303 129.069ZM8.44204 129.207C8.40336 129.186 8.35126 129.147 8.28774 129.093C8.2221 129.038 8.13796 128.962 8.0335 128.862C7.82448 128.663 7.53126 128.368 7.13723 127.95C6.34905 127.114 5.15502 125.787 3.42034 123.758L3.59635 123.608C5.32962 125.635 6.52101 126.959 7.30572 127.791C7.69814 128.207 7.98825 128.5 8.19319 128.695C8.2957 128.792 8.3762 128.865 8.43706 128.916C8.50006 128.969 8.53635 128.995 8.55214 129.003L8.44204 129.207ZM3.42034 123.758C-0.923415 118.679 -3.65571 113.762 -6.21557 108.829L-6.00999 108.722C-3.45236 113.651 -0.729804 118.55 3.59635 123.608L3.42034 123.758ZM-6.21557 108.829C-8.26205 104.884 -10.8234 100.141 -11.8482 98.263L-11.6449 98.1521C-10.6197 100.031 -8.05751 104.776 -6.00999 108.722L-6.21557 108.829ZM-11.8102 98.1108L-11.7347 98.0611L-11.6074 98.2546L-11.6829 98.3043L-11.8102 98.1108ZM-11.5763 98.0912L-11.5743 98.0942L-11.7678 98.2215L-11.7698 98.2185L-11.5763 98.0912Z" fill="#F4C9A1"/>
<path d="M-11.6319 98.1257L-11.5352 98.0619C-11.5704 98.0086 -11.6421 97.9939 -11.6955 98.029L-11.6319 98.1257ZM-11.6344 98.1274L-11.6981 98.0306C-11.7515 98.0658 -11.7663 98.1376 -11.7312 98.191L-11.6344 98.1274ZM-5.06284 108.078L-5.15947 108.142L-5.06284 108.078ZM4.68922 122.9L4.59233 122.964L4.68922 122.9ZM8.66791 128.986L8.73155 129.083C8.78463 129.048 8.79967 128.977 8.76525 128.924L8.66791 128.986ZM8.66442 128.989L8.56767 129.052C8.60281 129.106 8.67462 129.121 8.72805 129.086L8.66442 128.989ZM-11.6368 98.132L-11.7004 98.0353C-11.7538 98.0704 -11.7686 98.1421 -11.7336 98.1955L-11.6368 98.132ZM-11.6342 98.1303L-11.5375 98.0667C-11.5726 98.0133 -11.6444 97.9984 -11.6979 98.0336L-11.6342 98.1303ZM-5.09946 108.106L-5.0026 108.042L-5.09946 108.106ZM4.64815 122.93L4.55154 122.994L4.64815 122.93ZM8.66114 128.994L8.56498 129.059C8.60039 129.111 8.67169 129.126 8.72477 129.091L8.66114 128.994ZM8.66463 128.992L8.72827 129.088C8.7817 129.053 8.79652 128.982 8.76138 128.928L8.66463 128.992ZM-11.6955 98.029L-11.6981 98.0306L-11.5708 98.2241L-11.5683 98.2225L-11.6955 98.029ZM-4.96621 108.015C-7.40227 104.325 -10.3606 99.8423 -11.5352 98.0619L-11.7285 98.1895C-10.5539 99.9699 -7.59556 104.453 -5.15947 108.142L-4.96621 108.015ZM4.78611 122.837C1.16184 117.3 -1.92109 112.626 -4.96621 108.015L-5.15947 108.142C-2.11441 112.754 0.96832 117.427 4.59233 122.964L4.78611 122.837ZM8.76525 128.924C8.64677 128.74 7.68526 127.265 4.78611 122.837L4.59233 122.964C7.49181 127.393 8.45268 128.866 8.57057 129.049L8.76525 128.924ZM8.72805 129.086L8.73155 129.083L8.60427 128.89L8.60078 128.892L8.72805 129.086ZM-11.7312 98.191L8.56767 129.052L8.76116 128.925L-11.5377 98.0638L-11.7312 98.191ZM-11.5731 98.2288L-11.5706 98.2271L-11.6979 98.0336L-11.7004 98.0353L-11.5731 98.2288ZM-5.0026 108.042C-7.42547 104.344 -10.3703 99.8522 -11.5399 98.0685L-11.7336 98.1955C-10.564 99.9792 -7.61918 104.471 -5.19632 108.169L-5.0026 108.042ZM4.74476 122.866C1.09661 117.346 -1.97405 112.665 -5.0026 108.042L-5.19632 108.169C-2.16772 112.792 0.903137 117.473 4.55154 122.994L4.74476 122.866ZM8.75729 128.929C8.63602 128.749 7.66355 127.283 4.74476 122.866L4.55154 122.994C7.47 127.41 8.44312 128.877 8.56498 129.059L8.75729 128.929ZM8.601 128.895L8.5975 128.897L8.72477 129.091L8.72827 129.088L8.601 128.895ZM-11.731 98.194L8.56788 129.055L8.76138 128.928L-11.5375 98.0667L-11.731 98.194Z" fill="#F4C9A1"/>
<path fill-rule="evenodd" clip-rule="evenodd" d="M29.9883 98.2119L29.5023 97.8923C27.8442 99.3546 23.6047 102.995 19.9116 105.857C15.2952 109.436 11.0642 113.354 9.7365 120.401C8.67435 126.038 8.817 128.238 9.02109 128.634L9.44567 128.913L9.44429 128.915L10.1127 129.355C10.5565 129.386 12.6331 128.645 17.3889 125.437C23.3337 121.427 25.2562 115.99 26.7135 110.334C27.8794 105.81 29.543 100.475 30.2291 98.3733L29.9869 98.214L29.9883 98.2119Z" fill="url(#paint6_linear_265_1191)"/>
<path d="M29.5023 97.8923L29.5659 97.7955C29.5223 97.7668 29.4649 97.7709 29.4257 97.8054L29.5023 97.8923ZM29.9883 98.2119L30.0851 98.2756C30.1202 98.2221 30.1054 98.1503 30.0519 98.1152L29.9883 98.2119ZM19.9116 105.857L19.9825 105.949L19.9116 105.857ZM9.7365 120.401L9.6227 120.38L9.6227 120.38L9.7365 120.401ZM9.02109 128.634L8.91819 128.687C8.92732 128.704 8.94084 128.72 8.95746 128.73L9.02109 128.634ZM9.44567 128.913L9.54242 128.977C9.57756 128.923 9.56274 128.851 9.5093 128.816L9.44567 128.913ZM9.44429 128.915L9.34754 128.851C9.3124 128.905 9.32722 128.977 9.38065 129.012L9.44429 128.915ZM10.1127 129.355L10.049 129.451C10.0656 129.462 10.0848 129.469 10.1046 129.47L10.1127 129.355ZM17.3889 125.437L17.3242 125.341L17.3242 125.341L17.3889 125.437ZM26.7135 110.334L26.6014 110.305L26.6014 110.305L26.7135 110.334ZM30.2291 98.3733L30.3392 98.4093C30.3554 98.3596 30.3364 98.3053 30.2928 98.2766L30.2291 98.3733ZM29.9869 98.214L29.8902 98.1504C29.855 98.2038 29.8699 98.2756 29.9233 98.3108L29.9869 98.214ZM29.4387 97.989L29.9247 98.3087L30.0519 98.1152L29.5659 97.7955L29.4387 97.989ZM19.9825 105.949C23.6783 103.084 27.9199 99.4423 29.5789 97.9791L29.4257 97.8054C27.7685 99.267 23.531 102.906 19.8407 105.766L19.9825 105.949ZM9.8503 120.422C11.1698 113.419 15.3715 109.523 19.9825 105.949L19.8407 105.766C15.219 109.348 10.9586 113.289 9.6227 120.38L9.8503 120.422ZM9.12399 128.581C9.08484 128.505 9.03836 128.314 9.0129 127.965C8.98789 127.621 8.98396 127.138 9.01958 126.489C9.09082 125.192 9.31983 123.238 9.8503 120.422L9.6227 120.38C9.09102 123.201 8.86029 125.166 8.78833 126.477C8.75236 127.132 8.75597 127.625 8.78191 127.982C8.80742 128.332 8.8553 128.565 8.91819 128.687L9.12399 128.581ZM9.5093 128.816L9.08473 128.537L8.95746 128.73L9.38203 129.01L9.5093 128.816ZM9.34892 128.849L9.34754 128.851L9.54104 128.979L9.54242 128.977L9.34892 128.849ZM9.38065 129.012L10.049 129.451L10.1763 129.258L9.50793 128.818L9.38065 129.012ZM10.1046 129.47C10.2414 129.48 10.4743 129.431 10.8061 129.316C11.1435 129.199 11.598 129.007 12.1854 128.714C13.3605 128.129 15.0731 127.139 17.4537 125.533L17.3242 125.341C14.949 126.943 13.2454 127.928 12.0822 128.507C11.5005 128.797 11.0554 128.984 10.73 129.097C10.3989 129.212 10.2058 129.245 10.1207 129.239L10.1046 129.47ZM17.4537 125.533C23.4351 121.499 25.3667 116.026 26.8256 110.363L26.6014 110.305C25.1457 115.955 23.2322 121.356 17.3242 125.341L17.4537 125.533ZM26.8256 110.363C27.9906 105.842 29.6535 100.51 30.3392 98.4093L30.1191 98.3374C29.4326 100.44 27.7681 105.777 26.6014 110.305L26.8256 110.363ZM30.2928 98.2766L30.0506 98.1173L29.9233 98.3108L30.1655 98.4701L30.2928 98.2766ZM29.8916 98.1483L29.8902 98.1504L30.0837 98.2777L30.0851 98.2756L29.8916 98.1483Z" fill="#F4C9A1"/>
<path d="M30.1015 98.2893L30.208 98.3349C30.23 98.2833 30.212 98.2234 30.1652 98.1926L30.1015 98.2893ZM29.7818 98.079L29.8454 97.9823C29.792 97.9471 29.7202 97.9619 29.685 98.0154L29.7818 98.079ZM25.5469 109.567L25.6553 109.608L25.5469 109.567ZM16.0769 124.574L16.0004 124.487L16.0004 124.487L16.0769 124.574ZM9.92267 129.23L9.85903 129.326C9.88209 129.342 9.9098 129.348 9.93717 129.345L9.92267 129.23ZM9.64443 129.047L9.70807 128.95C9.65464 128.915 9.58283 128.93 9.54768 128.983L9.64443 129.047ZM9.64339 129.048L9.57976 129.145C9.60542 129.162 9.63673 129.168 9.66681 129.162C9.69689 129.155 9.72326 129.138 9.74014 129.112L9.64339 129.048ZM9.20364 128.759L9.0924 128.791C9.10006 128.818 9.11695 128.841 9.14 128.856L9.20364 128.759ZM11.0411 121.264L11.1513 121.3L11.1513 121.3L11.0411 121.264ZM21.0707 106.625L21.1512 106.708L21.1512 106.708L21.0707 106.625ZM29.6225 97.9765L29.6861 97.8798C29.6393 97.849 29.5771 97.8561 29.5385 97.8968L29.6225 97.9765ZM29.7807 98.0806L29.7171 98.1773C29.7427 98.1942 29.7741 98.2002 29.8041 98.194C29.8342 98.1878 29.8606 98.1699 29.8775 98.1442L29.7807 98.0806ZM30.1652 98.1926L29.8454 97.9823L29.7181 98.1758L30.0379 98.3861L30.1652 98.1926ZM25.6553 109.608C27.2525 105.37 29.356 100.326 30.208 98.3349L29.9951 98.2438C29.1424 100.237 27.0375 105.283 25.4386 109.526L25.6553 109.608ZM16.1533 124.661C21.3304 120.113 23.656 114.913 25.6553 109.608L25.4386 109.526C23.4427 114.822 21.1335 119.977 16.0004 124.487L16.1533 124.661ZM9.93717 129.345C9.99607 129.337 10.0716 129.311 10.1604 129.272C10.2516 129.232 10.3651 129.173 10.5025 129.094C10.7774 128.936 11.1531 128.693 11.6457 128.339C12.6312 127.63 14.0895 126.474 16.1533 124.661L16.0004 124.487C13.9401 126.297 12.4879 127.448 11.5105 128.151C11.0217 128.502 10.653 128.741 10.3871 128.894C10.2541 128.97 10.1482 129.024 10.0667 129.06C9.9829 129.097 9.93252 129.112 9.90816 129.115L9.93717 129.345ZM9.5808 129.143L9.85903 129.326L9.9863 129.133L9.70807 128.95L9.5808 129.143ZM9.54768 128.983L9.54664 128.985L9.74014 129.112L9.74118 129.11L9.54768 128.983ZM9.70703 128.951L9.26727 128.662L9.14 128.856L9.57976 129.145L9.70703 128.951ZM9.31488 128.727C9.30805 128.703 9.3013 128.651 9.30213 128.56C9.30294 128.471 9.31075 128.352 9.32824 128.199C9.3632 127.895 9.43616 127.462 9.5653 126.874C9.82352 125.698 10.305 123.909 11.1513 121.3L10.931 121.229C10.0833 123.842 9.59946 125.639 9.33909 126.824C9.20893 127.417 9.1343 127.858 9.09815 128.173C9.08008 128.33 9.07145 128.458 9.07054 128.557C9.06965 128.655 9.0759 128.734 9.0924 128.791L9.31488 128.727ZM11.1513 121.3C13.2595 114.8 17.0786 110.638 21.1512 106.708L20.9903 106.542C16.9107 110.479 13.0573 114.673 10.931 121.229L11.1513 121.3ZM21.1512 106.708C24.4137 103.56 28.214 99.6285 29.7065 98.0562L29.5385 97.8968C28.0472 99.4679 24.2495 103.397 20.9903 106.542L21.1512 106.708ZM29.5588 98.0733L29.7171 98.1773L29.8444 97.9838L29.6861 97.8798L29.5588 98.0733ZM29.685 98.0154L29.684 98.017L29.8775 98.1442L29.8785 98.1427L29.685 98.0154Z" fill="#F4C9A1"/>
<path d="M29.7574 98.0581L29.821 97.9614C29.7706 97.9282 29.7033 97.9393 29.6662 97.9867L29.7574 98.0581ZM29.9045 98.1549L30.0012 98.2185C30.0363 98.1651 30.0215 98.0933 29.9681 98.0581L29.9045 98.1549ZM22.2848 107.417L22.3745 107.49L22.3745 107.49L22.2848 107.417ZM12.4062 122.155L12.5102 122.206L12.4062 122.155ZM9.40331 128.883L9.28796 128.873C9.2842 128.915 9.30407 128.957 9.33967 128.98L9.40331 128.883ZM9.53401 128.969L9.63076 129.033C9.64764 129.007 9.65363 128.976 9.64742 128.946C9.64121 128.916 9.62331 128.889 9.59765 128.872L9.53401 128.969ZM9.53205 128.972L9.4353 128.909C9.41843 128.934 9.41243 128.965 9.41864 128.996C9.42485 129.026 9.44276 129.052 9.46842 129.069L9.53205 128.972ZM9.73435 129.105L9.67072 129.202C9.70632 129.225 9.75191 129.227 9.7894 129.207L9.73435 129.105ZM14.7231 123.683L14.8111 123.758L14.7231 123.683ZM24.3442 108.775L24.2414 108.722L24.2414 108.722L24.3442 108.775ZM29.978 98.2075L30.0797 98.263C30.1085 98.2101 30.092 98.1439 30.0416 98.1108L29.978 98.2075ZM29.9025 98.1579L29.8057 98.0942C29.7706 98.1476 29.7854 98.2195 29.8389 98.2546L29.9025 98.1579ZM29.6937 98.1549L29.8408 98.2516L29.9681 98.0581L29.821 97.9614L29.6937 98.1549ZM22.3745 107.49C25.1871 104.047 28.5291 99.8151 29.8485 98.1295L29.6662 97.9867C28.3472 99.6717 25.0063 103.902 22.1951 107.343L22.3745 107.49ZM12.5102 122.206C15.4417 116.23 18.8611 111.79 22.3745 107.49L22.1951 107.343C18.6787 111.648 15.2457 116.104 12.3023 122.104L12.5102 122.206ZM9.51866 128.893C9.52024 128.875 9.52923 128.832 9.55307 128.753C9.5761 128.677 9.61088 128.574 9.65989 128.442C9.75787 128.176 9.91137 127.794 10.138 127.269C10.5913 126.219 11.3357 124.6 12.5102 122.206L12.3023 122.104C11.1268 124.5 10.3806 126.122 9.92539 127.177C9.6978 127.704 9.54255 128.091 9.44262 128.361C9.39267 128.497 9.35621 128.604 9.33137 128.686C9.30733 128.766 9.29183 128.829 9.28796 128.873L9.51866 128.893ZM9.59765 128.872L9.46694 128.786L9.33967 128.98L9.47038 129.066L9.59765 128.872ZM9.43726 128.906L9.4353 128.909L9.6288 129.036L9.63076 129.033L9.43726 128.906ZM9.46842 129.069L9.67072 129.202L9.79799 129.008L9.59569 128.875L9.46842 129.069ZM9.7894 129.207C9.82809 129.186 9.88019 129.147 9.9437 129.093C10.0093 129.038 10.0935 128.962 10.1979 128.862C10.407 128.663 10.7002 128.368 11.0942 127.95C11.8824 127.114 13.0764 125.787 14.8111 123.758L14.6351 123.608C12.9018 125.635 11.7104 126.959 10.9257 127.791C10.5333 128.207 10.2432 128.5 10.0383 128.695C9.93574 128.792 9.85525 128.865 9.79438 128.916C9.73139 128.969 9.6951 128.995 9.6793 129.003L9.7894 129.207ZM14.8111 123.758C19.1549 118.679 21.8872 113.762 24.447 108.829L24.2414 108.722C21.6838 113.651 18.9612 118.55 14.6351 123.608L14.8111 123.758ZM24.447 108.829C26.4935 104.884 29.0548 100.141 30.0797 98.263L29.8763 98.1521C28.8512 100.031 26.289 104.776 24.2414 108.722L24.447 108.829ZM30.0416 98.1108L29.9661 98.0611L29.8389 98.2546L29.9144 98.3043L30.0416 98.1108ZM29.8077 98.0912L29.8057 98.0942L29.9992 98.2215L30.0012 98.2185L29.8077 98.0912Z" fill="#F4C9A1"/>
<path d="M29.8672 98.1257L29.7706 98.0619C29.8058 98.0086 29.8775 97.9939 29.9309 98.029L29.8672 98.1257ZM29.8698 98.1274L29.9334 98.0306C29.9869 98.0658 30.0017 98.1376 29.9665 98.191L29.8698 98.1274ZM23.2982 108.078L23.3948 108.142L23.2982 108.078ZM13.5461 122.9L13.643 122.964L13.5461 122.9ZM9.56744 128.986L9.50381 129.083C9.45072 129.048 9.43569 128.977 9.47011 128.924L9.56744 128.986ZM9.57094 128.989L9.66768 129.052C9.63254 129.106 9.56073 129.121 9.5073 129.086L9.57094 128.989ZM29.8721 98.132L29.9357 98.0353C29.9891 98.0704 30.004 98.1421 29.9689 98.1955L29.8721 98.132ZM29.8696 98.1303L29.7728 98.0667C29.808 98.0133 29.8798 97.9984 29.9332 98.0336L29.8696 98.1303ZM23.3348 108.106L23.238 108.042L23.3348 108.106ZM13.5872 122.93L13.6838 122.994L13.5872 122.93ZM9.57421 128.994L9.67037 129.059C9.63496 129.111 9.56366 129.126 9.51058 129.091L9.57421 128.994ZM9.57072 128.992L9.50708 129.088C9.45365 129.053 9.43883 128.982 9.47397 128.928L9.57072 128.992ZM29.9309 98.029L29.9334 98.0306L29.8061 98.2241L29.8036 98.2225L29.9309 98.029ZM23.2016 108.015C25.6376 104.325 28.5959 99.8423 29.7706 98.0619L29.9639 98.1895C28.7892 99.9699 25.8309 104.453 23.3948 108.142L23.2016 108.015ZM13.4492 122.837C17.0735 117.3 20.1564 112.626 23.2016 108.015L23.3948 108.142C20.3498 112.754 17.267 117.427 13.643 122.964L13.4492 122.837ZM9.47011 128.924C9.58858 128.74 10.5501 127.265 13.4492 122.837L13.643 122.964C10.7435 127.393 9.78267 128.866 9.66478 129.049L9.47011 128.924ZM9.5073 129.086L9.50381 129.083L9.63108 128.89L9.63457 128.892L9.5073 129.086ZM29.9665 98.191L9.66768 129.052L9.47419 128.925L29.773 98.0638L29.9665 98.191ZM29.8085 98.2288L29.8059 98.2271L29.9332 98.0336L29.9357 98.0353L29.8085 98.2288ZM23.238 108.042C25.6608 104.344 28.6057 99.8522 29.7753 98.0685L29.9689 98.1955C28.7994 99.9792 25.8545 104.471 23.4317 108.169L23.238 108.042ZM13.4906 122.866C17.1387 117.346 20.2094 112.665 23.238 108.042L23.4317 108.169C20.4031 112.792 17.3322 117.473 13.6838 122.994L13.4906 122.866ZM9.47806 128.929C9.59933 128.749 10.5718 127.283 13.4906 122.866L13.6838 122.994C10.7654 127.41 9.79223 128.877 9.67037 129.059L9.47806 128.929ZM9.63436 128.895L9.63785 128.897L9.51058 129.091L9.50708 129.088L9.63436 128.895ZM29.9663 98.194L9.66747 129.055L9.47397 128.928L29.7728 98.0667L29.9663 98.194Z" fill="#F4C9A1"/>
<path d="M9.16192 128.172V247.977C9.16192 247.977 9.16353 267.917 9.16192 294.697C9.16099 310.253 -3.6186 329.381 -19.0034 329.381" stroke="#F4C9A1" stroke-width="0.386001" stroke-linejoin="round"/>
<path d="M8.67019 130.925L9.16067 137.4L9.65116 130.925C9.66937 130.685 9.77315 130.459 9.94368 130.288L10.9243 129.308L9.16067 128.789L7.39703 129.308L8.37766 130.288C8.54819 130.459 8.65197 130.685 8.67019 130.925Z" fill="#F4C9A1" stroke="#F4C9A1" stroke-width="0.100858"/>
<path fill-rule="evenodd" clip-rule="evenodd" d="M31.0574 135.933L30.8097 135.741C29.8583 136.458 27.4298 138.236 25.3272 139.619C22.6989 141.348 20.2633 143.275 19.2564 147.004C18.4508 149.987 18.4356 151.175 18.5287 151.395L18.7482 151.565L18.7478 151.566L19.0884 151.83C19.3254 151.865 20.4715 151.554 23.1592 150.03C26.5189 148.125 27.7781 145.285 28.7966 142.309C29.6115 139.927 30.7274 137.132 31.1835 136.032L31.0569 135.934L31.0574 135.933Z" fill="url(#paint7_linear_265_1191)"/>
<path d="M30.8097 135.741L30.7401 135.649C30.7818 135.618 30.8394 135.618 30.8807 135.65L30.8097 135.741ZM31.0574 135.933L31.1283 135.842C31.1526 135.861 31.1684 135.888 31.1723 135.919C31.1761 135.949 31.1677 135.98 31.1489 136.004L31.0574 135.933ZM25.3272 139.619L25.3908 139.715L25.3908 139.715L25.3272 139.619ZM19.2564 147.004L19.3682 147.034L19.3682 147.034L19.2564 147.004ZM18.5287 151.395L18.4578 151.487C18.4421 151.475 18.4297 151.459 18.422 151.44L18.5287 151.395ZM18.7482 151.565L18.8192 151.474C18.8697 151.513 18.879 151.586 18.8398 151.636L18.7482 151.565ZM18.7478 151.566L18.6769 151.658C18.6263 151.618 18.6171 151.546 18.6563 151.495L18.7478 151.566ZM19.0884 151.83L19.0714 151.945C19.0518 151.942 19.0332 151.934 19.0174 151.922L19.0884 151.83ZM23.1592 150.03L23.1021 149.929L23.1021 149.929L23.1592 150.03ZM28.7966 142.309L28.9062 142.346L28.9062 142.346L28.7966 142.309ZM31.1835 136.032L31.2545 135.941C31.2958 135.973 31.3105 136.028 31.2905 136.076L31.1835 136.032ZM31.0569 135.934L30.986 136.026C30.9355 135.986 30.9262 135.914 30.9654 135.863L31.0569 135.934ZM30.8807 135.65L31.1283 135.842L30.9864 136.025L30.7388 135.833L30.8807 135.65ZM25.2635 139.522C27.3633 138.141 29.7896 136.364 30.7401 135.649L30.8794 135.834C29.927 136.551 27.4963 138.33 25.3908 139.715L25.2635 139.522ZM19.1446 146.974C20.163 143.203 22.6296 141.255 25.2635 139.522L25.3908 139.715C22.7682 141.441 20.3636 143.348 19.3682 147.034L19.1446 146.974ZM18.422 151.44C18.3887 151.361 18.3731 151.224 18.3741 151.035C18.375 150.84 18.3939 150.572 18.4407 150.22C18.5345 149.516 18.7409 148.469 19.1446 146.974L19.3682 147.034C18.9662 148.523 18.7623 149.56 18.6703 150.251C18.6243 150.596 18.6065 150.854 18.6057 151.036C18.6047 151.225 18.6222 151.319 18.6354 151.35L18.422 151.44ZM18.6773 151.657L18.4578 151.487L18.5997 151.304L18.8192 151.474L18.6773 151.657ZM18.8398 151.636L18.8393 151.637L18.6563 151.495L18.6567 151.495L18.8398 151.636ZM18.8187 151.475L19.1593 151.738L19.0174 151.922L18.6769 151.658L18.8187 151.475ZM19.1053 151.715C19.139 151.72 19.2346 151.714 19.4171 151.666C19.5937 151.619 19.8383 151.538 20.1614 151.407C20.8073 151.146 21.7611 150.69 23.1021 149.929L23.2163 150.131C21.8696 150.894 20.9065 151.356 20.2482 151.622C19.9192 151.755 19.6649 151.84 19.4759 151.89C19.2928 151.938 19.1563 151.957 19.0714 151.945L19.1053 151.715ZM23.1021 149.929C26.4232 148.046 27.6707 145.241 28.6871 142.271L28.9062 142.346C27.8855 145.329 26.6145 148.203 23.2163 150.131L23.1021 149.929ZM28.6871 142.271C29.503 139.887 30.62 137.089 31.0766 135.988L31.2905 136.076C30.8349 137.175 29.7199 139.968 28.9062 142.346L28.6871 142.271ZM31.1126 136.124L30.986 136.026L31.1279 135.842L31.2545 135.941L31.1126 136.124ZM31.1489 136.004L31.1485 136.005L30.9654 135.863L30.9658 135.862L31.1489 136.004Z" fill="#F4C9A1"/>
<path fill-rule="evenodd" clip-rule="evenodd" d="M30.9605 135.862L31.1235 135.988C30.5826 137.023 29.2422 139.644 28.2071 141.854C26.9133 144.618 25.4529 147.301 22.4956 149.518C20.1298 151.292 19.1771 151.753 18.9965 151.762L18.8563 151.653L18.8563 151.653L18.6322 151.479C18.5956 151.302 18.8041 150.265 19.9316 147.531C21.3409 144.114 23.5753 142.031 25.9283 140.088C27.8107 138.535 30.0147 136.583 30.8814 135.801L30.9605 135.862L30.9605 135.862Z" fill="url(#paint8_linear_265_1191)"/>
<path d="M31.1235 135.988L31.1944 135.897C31.2387 135.931 31.2521 135.992 31.2261 136.042L31.1235 135.988ZM30.9605 135.862L30.869 135.791C30.9082 135.74 30.9809 135.731 31.0315 135.77L30.9605 135.862ZM28.2071 141.854L28.312 141.904L28.312 141.904L28.2071 141.854ZM22.4956 149.518L22.4261 149.426L22.4261 149.426L22.4956 149.518ZM18.9965 151.762L19.0021 151.877C18.9745 151.879 18.9474 151.87 18.9256 151.853L18.9965 151.762ZM18.8563 151.653L18.7648 151.582C18.7836 151.558 18.8113 151.542 18.8418 151.538C18.8722 151.534 18.903 151.543 18.9273 151.561L18.8563 151.653ZM18.8563 151.653L18.9478 151.724C18.929 151.748 18.9013 151.764 18.8708 151.768C18.8404 151.772 18.8096 151.763 18.7853 151.744L18.8563 151.653ZM18.6322 151.479L18.5613 151.571C18.5394 151.554 18.5244 151.53 18.5188 151.503L18.6322 151.479ZM19.9316 147.531L20.0386 147.575L20.0386 147.575L19.9316 147.531ZM25.9283 140.088L26.002 140.178L25.9283 140.088ZM30.8814 135.801L30.8039 135.715C30.8455 135.677 30.908 135.675 30.9524 135.709L30.8814 135.801ZM30.9605 135.862L31.052 135.933C31.0128 135.984 30.9401 135.993 30.8895 135.954L30.9605 135.862ZM31.0525 136.08L30.8896 135.954L31.0315 135.77L31.1944 135.897L31.0525 136.08ZM28.1023 141.805C29.1383 139.593 30.4796 136.97 31.0208 135.935L31.2261 136.042C30.6856 137.076 29.3461 139.695 28.312 141.904L28.1023 141.805ZM22.4261 149.426C25.36 147.226 26.8105 144.564 28.1023 141.805L28.312 141.904C27.0161 144.671 25.5458 147.376 22.565 149.611L22.4261 149.426ZM18.991 151.646C18.9962 151.646 19.0178 151.642 19.0632 151.626C19.1061 151.611 19.1635 151.587 19.237 151.552C19.384 151.482 19.5903 151.371 19.8665 151.203C20.4187 150.867 21.245 150.311 22.4261 149.426L22.565 149.611C21.3803 150.499 20.5474 151.06 19.9867 151.401C19.7064 151.571 19.4929 151.687 19.3365 151.761C19.2583 151.799 19.1932 151.826 19.1402 151.845C19.0897 151.862 19.042 151.875 19.0021 151.877L18.991 151.646ZM18.9273 151.561L19.0675 151.67L18.9256 151.853L18.7854 151.744L18.9273 151.561ZM18.9479 151.724L18.9478 151.724L18.7648 151.582L18.7648 151.582L18.9479 151.724ZM18.7853 151.744L18.5613 151.571L18.7031 151.388L18.9272 151.561L18.7853 151.744ZM18.5188 151.503C18.5107 151.464 18.5113 151.414 18.5159 151.361C18.5208 151.305 18.5311 151.235 18.5475 151.15C18.5806 150.98 18.6396 150.744 18.7345 150.43C18.9245 149.802 19.2599 148.856 19.8245 147.487L20.0386 147.575C19.4758 148.94 19.1433 149.879 18.9562 150.497C18.8626 150.807 18.8059 151.034 18.7749 151.194C18.7594 151.274 18.7506 151.336 18.7466 151.381C18.7425 151.429 18.7445 151.451 18.7456 151.456L18.5188 151.503ZM19.8245 147.487C21.245 144.043 23.4978 141.944 25.8546 139.999L26.002 140.178C23.6528 142.117 21.4368 144.186 20.0386 147.575L19.8245 147.487ZM25.8546 139.999C27.7351 138.447 29.9378 136.496 30.8039 135.715L30.959 135.887C30.0916 136.669 27.8862 138.622 26.002 140.178L25.8546 139.999ZM30.9524 135.709L31.0314 135.771L30.8895 135.954L30.8105 135.892L30.9524 135.709ZM31.052 135.933L31.052 135.933L30.8689 135.791L30.869 135.791L31.052 135.933Z" fill="#F4C9A1"/>
<path fill-rule="evenodd" clip-rule="evenodd" d="M31.0156 135.901L30.9406 135.843C30.1619 136.693 28.191 138.826 26.5374 140.557C24.4703 142.721 22.4449 144.966 20.6177 148.059C19.1559 150.534 18.7464 151.416 18.7244 151.547L18.7898 151.598L18.7896 151.598L18.8927 151.678C19.0146 151.624 19.7664 151.007 21.7979 148.975C24.3372 146.433 26.0066 143.912 27.5864 141.37C28.8502 139.337 30.4238 136.897 31.0526 135.93L31.0153 135.901L31.0156 135.901Z" fill="url(#paint9_linear_265_1191)"/>
<path d="M30.9406 135.843L30.8552 135.765C30.8959 135.72 30.9639 135.715 31.0115 135.752L30.9406 135.843ZM31.0156 135.901L31.0865 135.81C31.137 135.849 31.1463 135.922 31.1071 135.972L31.0156 135.901ZM26.5374 140.557L26.6211 140.637L26.6211 140.637L26.5374 140.557ZM20.6177 148.059L20.7174 148.118L20.6177 148.059ZM18.7244 151.547L18.6535 151.639C18.6198 151.613 18.6032 151.57 18.6102 151.528L18.7244 151.547ZM18.7898 151.598L18.8607 151.506C18.9113 151.546 18.9205 151.618 18.8813 151.669L18.7898 151.598ZM18.7896 151.598L18.7187 151.69C18.6944 151.671 18.6786 151.643 18.6747 151.613C18.6708 151.582 18.6792 151.552 18.6981 151.527L18.7896 151.598ZM18.8927 151.678L18.9397 151.784C18.9007 151.801 18.8554 151.796 18.8217 151.77L18.8927 151.678ZM21.7979 148.975L21.7159 148.893L21.7159 148.893L21.7979 148.975ZM27.5864 141.37L27.6847 141.431L27.6847 141.431L27.5864 141.37ZM31.0526 135.93L31.1236 135.839C31.1712 135.876 31.1826 135.943 31.1497 135.994L31.0526 135.93ZM31.0153 135.901L30.9444 135.993C30.9201 135.974 30.9043 135.947 30.9005 135.916C30.8966 135.886 30.905 135.855 30.9238 135.831L31.0153 135.901ZM31.0115 135.752L31.0865 135.81L30.9446 135.993L30.8697 135.935L31.0115 135.752ZM26.4536 140.477C28.1065 138.747 30.0767 136.615 30.8552 135.765L31.026 135.921C30.247 136.772 28.2755 138.905 26.6211 140.637L26.4536 140.477ZM20.518 148.001C22.3521 144.896 24.3849 142.643 26.4536 140.477L26.6211 140.637C24.5558 142.799 22.5377 145.037 20.7174 148.118L20.518 148.001ZM18.6102 151.528C18.6151 151.499 18.6279 151.461 18.6442 151.419C18.6615 151.375 18.686 151.317 18.7187 151.246C18.7842 151.104 18.8842 150.902 19.0287 150.628C19.3177 150.079 19.7865 149.239 20.518 148.001L20.7174 148.118C19.987 149.355 19.5202 150.192 19.2336 150.736C19.0902 151.008 18.9923 151.206 18.9291 151.343C18.8975 151.412 18.8751 151.464 18.86 151.503C18.8525 151.522 18.8472 151.537 18.8435 151.549C18.8417 151.554 18.8405 151.559 18.8396 151.562C18.8388 151.565 18.8386 151.567 18.8386 151.566L18.6102 151.528ZM18.7189 151.689L18.6535 151.639L18.7953 151.456L18.8607 151.506L18.7189 151.689ZM18.8813 151.669L18.8811 151.669L18.6981 151.527L18.6983 151.527L18.8813 151.669ZM18.8605 151.507L18.9636 151.587L18.8217 151.77L18.7187 151.69L18.8605 151.507ZM18.8457 151.572C18.8455 151.572 18.8467 151.572 18.8497 151.57C18.8525 151.569 18.8564 151.566 18.8614 151.563C18.8715 151.557 18.8848 151.548 18.9016 151.536C18.9353 151.512 18.9806 151.477 19.0393 151.429C19.1564 151.333 19.3237 151.189 19.5514 150.983C20.0066 150.569 20.701 149.908 21.7159 148.893L21.8798 149.056C20.8633 150.074 20.166 150.737 19.707 151.154C19.4776 151.362 19.307 151.51 19.1855 151.608C19.1248 151.658 19.0755 151.696 19.0368 151.724C19.0003 151.75 18.9668 151.772 18.9397 151.784L18.8457 151.572ZM21.7159 148.893C24.2457 146.361 25.9095 143.849 27.488 141.309L27.6847 141.431C26.1037 143.975 24.4287 146.506 21.8798 149.056L21.7159 148.893ZM27.488 141.309C28.7525 139.275 30.3265 136.834 30.9556 135.867L31.1497 135.994C30.5211 136.959 28.948 139.399 27.6847 141.431L27.488 141.309ZM30.9817 136.022L30.9444 135.993L31.0863 135.81L31.1236 135.839L30.9817 136.022ZM31.1071 135.972L31.1069 135.972L30.9238 135.831L30.924 135.83L31.1071 135.972Z" fill="#F4C9A1"/>
<path fill-rule="evenodd" clip-rule="evenodd" d="M30.9969 135.894L30.9956 135.893C30.9948 135.894 30.9939 135.895 30.993 135.896L30.9924 135.895L30.6254 136.369C29.7819 137.454 28.3028 139.356 27.0528 140.963C25.2252 143.313 23.3747 145.694 21.1975 148.516C19.5747 150.619 18.9624 151.415 18.8289 151.59L18.8043 151.621L18.8061 151.623C18.8069 151.622 18.8077 151.621 18.8086 151.619L18.8088 151.62L18.8283 151.594C18.964 151.422 19.582 150.63 21.214 148.534C23.4035 145.722 25.2478 143.335 27.067 140.98C28.3112 139.368 29.7845 137.461 30.6248 136.374L30.9969 135.894Z" fill="url(#paint10_linear_265_1191)"/>
<path d="M30.9956 135.893L31.0665 135.801C31.016 135.762 30.9434 135.771 30.9042 135.822L30.9956 135.893ZM30.9969 135.894L31.0884 135.965C31.1276 135.914 31.1184 135.841 31.0678 135.802L30.9969 135.894ZM30.993 135.896L30.9221 135.987C30.9726 136.027 31.0453 136.017 31.0845 135.967L30.993 135.896ZM30.9924 135.895L31.0633 135.804C31.0127 135.765 30.94 135.774 30.9008 135.824L30.9924 135.895ZM30.6254 136.369L30.7168 136.44L30.7169 136.44L30.6254 136.369ZM27.0528 140.963L26.9614 140.892L27.0528 140.963ZM21.1975 148.516L21.2892 148.586L21.1975 148.516ZM18.8289 151.59L18.9204 151.66L18.9208 151.66L18.8289 151.59ZM18.8043 151.621L18.7128 151.55C18.6736 151.601 18.6828 151.674 18.7333 151.713L18.8043 151.621ZM18.8061 151.623L18.7351 151.714C18.7853 151.753 18.8575 151.744 18.8969 151.694L18.8061 151.623ZM18.8086 151.619L18.8796 151.528C18.8293 151.489 18.7571 151.498 18.7177 151.548L18.8086 151.619ZM18.8088 151.62L18.7379 151.711C18.7884 151.75 18.8612 151.741 18.9003 151.69L18.8088 151.62ZM18.8283 151.594L18.7372 151.523L18.7368 151.523L18.8283 151.594ZM21.214 148.534L21.1227 148.463L21.214 148.534ZM27.067 140.98L27.1587 141.05L27.067 140.98ZM30.6248 136.374L30.5333 136.303L30.5332 136.303L30.6248 136.374ZM30.9247 135.984L30.926 135.985L31.0678 135.802L31.0665 135.801L30.9247 135.984ZM31.0845 135.967C31.0853 135.966 31.0862 135.965 31.087 135.964L30.9042 135.822C30.9033 135.823 30.9025 135.824 30.9016 135.825L31.0845 135.967ZM31.064 135.804L31.0633 135.804L30.9214 135.987L30.9221 135.987L31.064 135.804ZM30.9008 135.824L30.5338 136.298L30.7169 136.44L31.0839 135.966L30.9008 135.824ZM27.1442 141.034C28.3942 139.427 29.8733 137.525 30.7168 136.44L30.5339 136.298C29.6905 137.383 28.2113 139.285 26.9614 140.892L27.1442 141.034ZM21.2892 148.586C23.4662 145.765 25.3166 143.384 27.1442 141.034L26.9614 140.892C25.1337 143.242 23.2831 145.623 21.1058 148.445L21.2892 148.586ZM18.9208 151.66C19.0542 151.486 19.6663 150.69 21.2892 148.586L21.1058 148.445C19.483 150.548 18.8706 151.344 18.7369 151.519L18.9208 151.66ZM18.7374 151.519L18.7128 151.55L18.8958 151.692L18.9204 151.66L18.7374 151.519ZM18.7333 151.713L18.7351 151.714L18.877 151.531L18.8752 151.53L18.7333 151.713ZM18.8969 151.694C18.8977 151.693 18.8986 151.692 18.8996 151.691L18.7177 151.548C18.7168 151.549 18.716 151.55 18.7152 151.551L18.8969 151.694ZM18.8798 151.528L18.8796 151.528L18.7377 151.711L18.7379 151.711L18.8798 151.528ZM18.7368 151.523L18.7173 151.549L18.9003 151.69L18.9198 151.665L18.7368 151.523ZM18.9194 151.666C19.0552 151.493 19.6734 150.701 21.3054 148.605L21.1227 148.463C19.4906 150.559 18.8727 151.35 18.7372 151.523L18.9194 151.666ZM21.3054 148.605C23.495 145.792 25.3394 143.406 27.1587 141.05L26.9754 140.909C25.1562 143.265 23.312 145.651 21.1227 148.463L21.3054 148.605ZM27.1587 141.05C28.4029 139.439 29.8762 137.532 30.7164 136.445L30.5332 136.303C29.6929 137.39 28.2196 139.297 26.9754 140.909L27.1587 141.05ZM30.9054 135.823L30.5333 136.303L30.7163 136.445L31.0884 135.965L30.9054 135.823Z" fill="#F4C9A1"/>
<path d="M18.7017 151.609V151.609C15.7921 156.008 14.2407 161.158 14.2407 166.432C14.2407 175.55 14.2407 190.635 14.2407 202.34C14.2407 220.103 0.380869 234.502 -17.921 234.502" stroke="#F4C9A1" stroke-width="0.386001" stroke-linejoin="round"/>
<path d="M18.555 152.266L16.892 154.305L18.2465 152.008C18.2693 151.97 18.2855 151.927 18.2943 151.883L18.4946 150.883L18.8519 151.492L19.5319 151.817L18.7154 152.147C18.6528 152.173 18.5976 152.214 18.555 152.266Z" fill="#F4C9A1" stroke="#F4C9A1" stroke-width="0.0401647"/>
</g>
<defs>
<linearGradient id="paint0_linear_265_1191" x1="-2.01451" y1="174.076" x2="-5.71753" y2="189.694" gradientUnits="userSpaceOnUse">
<stop stop-color="#D53A75"/>
<stop offset="1" stop-color="#D53A75" stop-opacity="0"/>
</linearGradient>
<linearGradient id="paint1_linear_265_1191" x1="9.14893" y1="82" x2="9.14893" y2="128.892" gradientUnits="userSpaceOnUse">
<stop stop-color="#D53A75"/>
<stop offset="1" stop-color="#D53A75" stop-opacity="0"/>
</linearGradient>
<linearGradient id="paint2_linear_265_1191" x1="9.14893" y1="82" x2="9.14893" y2="128.892" gradientUnits="userSpaceOnUse">
<stop stop-color="#D53A75"/>
<stop offset="1" stop-color="#D53A75" stop-opacity="0"/>
</linearGradient>
<linearGradient id="paint3_linear_265_1191" x1="9.14502" y1="82" x2="9.14502" y2="128.892" gradientUnits="userSpaceOnUse">
<stop stop-color="#D53A75"/>
<stop offset="1" stop-color="#D53A75" stop-opacity="0"/>
</linearGradient>
<linearGradient id="paint4_linear_265_1191" x1="9.14697" y1="82" x2="9.14697" y2="128.892" gradientUnits="userSpaceOnUse">
<stop stop-color="#D53A75"/>
<stop offset="1" stop-color="#D53A75" stop-opacity="0"/>
</linearGradient>
<linearGradient id="paint5_linear_265_1191" x1="-11.6389" y1="98.1318" x2="8.66135" y2="128.995" gradientUnits="userSpaceOnUse">
<stop stop-color="#D53A75"/>
<stop offset="1" stop-color="#D53A75" stop-opacity="0"/>
</linearGradient>
<linearGradient id="paint6_linear_265_1191" x1="29.8664" y1="98.1318" x2="9.56619" y2="128.995" gradientUnits="userSpaceOnUse">
<stop stop-color="#D53A75"/>
<stop offset="1" stop-color="#D53A75" stop-opacity="0"/>
</linearGradient>
<linearGradient id="paint7_linear_265_1191" x1="30.9969" y1="135.887" x2="18.8083" y2="151.613" gradientUnits="userSpaceOnUse">
<stop stop-color="#D53A75"/>
<stop offset="1" stop-color="#D53A75" stop-opacity="0"/>
</linearGradient>
<linearGradient id="paint8_linear_265_1191" x1="31.0025" y1="135.894" x2="18.8143" y2="151.62" gradientUnits="userSpaceOnUse">
<stop stop-color="#D53A75"/>
<stop offset="1" stop-color="#D53A75" stop-opacity="0"/>
</linearGradient>
<linearGradient id="paint9_linear_265_1191" x1="30.9967" y1="135.887" x2="18.8084" y2="151.613" gradientUnits="userSpaceOnUse">
<stop stop-color="#D53A75"/>
<stop offset="1" stop-color="#D53A75" stop-opacity="0"/>
</linearGradient>
<linearGradient id="paint10_linear_265_1191" x1="30.9959" y1="135.893" x2="18.8053" y2="151.622" gradientUnits="userSpaceOnUse">
<stop stop-color="#D53A75"/>
<stop offset="1" stop-color="#D53A75" stop-opacity="0"/>
</linearGradient>
</defs>
</svg>
