<svg width="24" height="24" viewBox="0 0 24 24" fill="none" xmlns="http://www.w3.org/2000/svg">
<path d="M17.2751 13.285H20.5525M5.73283 16.2178H8.05881M20.5525 13.285V13.285C21.352 13.285 22 13.933 22 14.7324V15.4568C22 15.8771 21.6593 16.2178 21.239 16.2178H19.7907M20.5525 13.285L19.1678 10.0892C18.806 9.25428 17.9829 8.71393 17.073 8.71393H14.9532M14.9532 16.2178V8.52199C14.9532 7.68142 14.2718 7 13.4312 7H7.25482C6.41425 7 5.73283 7.68142 5.73283 8.522V8.71393M14.9532 16.2178H17.2751M14.9532 16.2178H10.649M6.53679 10.6752H1.99992M8.05881 13.285H3.52194" stroke="#808080" stroke-width="0.977239" stroke-linecap="round" stroke-linejoin="round"/>
<circle r="1.21883" transform="matrix(-1 0 0 1 18.5148 16.5223)" stroke="#808080" stroke-width="0.977239" stroke-linecap="round" stroke-linejoin="round"/>
<circle r="1.21883" transform="matrix(-1 0 0 1 9.33439 16.5223)" stroke="#808080" stroke-width="0.977239" stroke-linecap="round" stroke-linejoin="round"/>
</svg>
