<svg width="24" height="24" viewBox="0 0 24 24" fill="none" xmlns="http://www.w3.org/2000/svg">
<path d="M7.83324 9.26172V6.58589C7.83324 5.15774 8.99098 4 10.4191 4V4C11.8473 4 13.005 5.15774 13.005 6.58589V9.26172M16.5 10.1612H16.9987C18.104 10.1612 19 11.0572 19 12.1625V12.1625C19 13.2678 18.104 14.1637 16.9987 14.1637H10.6215M10.6215 14.1637L12.2405 12.4548M10.6215 14.1637L12.2405 15.7827M15.456 12.5671L15.0545 8.49292C15.0144 8.08558 14.6718 7.7751 14.2625 7.7751H6.58707C6.17303 7.7751 5.82815 8.09256 5.79393 8.50518L5.14295 16.3528C5.06599 17.2806 5.79825 18.0761 6.72925 18.0761H14.1942C15.1269 18.0761 15.8598 17.2777 15.7801 16.3484L15.6921 15.3216" stroke="#808080" stroke-linecap="round" stroke-linejoin="round"/>
</svg>
