<svg width="20" height="18" viewBox="0 0 20 18" fill="none" xmlns="http://www.w3.org/2000/svg">
<path d="M18.6914 0.497684C18.6914 0.497684 16.5751 0.49564 14.8149 0.493678C11.3289 0.489792 5.90499 0.48623 4.53998 0.499496C3.86684 0.506041 3.33821 0.979589 3.32561 1.63861C3.31302 2.29763 3.44044 2.40857 3.72408 2.90104C3.26622 3.00288 2.75024 3.42564 2.63459 4.03173C2.52716 4.59481 2.69168 5.07739 3.09016 5.4984C1.78912 5.84179 1.54795 7.0135 2.50829 8.11255C1.55566 8.30559 1.11596 8.83212 1.20068 9.67834C1.28238 10.4943 1.80361 10.8826 2.81518 10.8823C4.11199 10.882 5.92914 10.8822 7.22594 10.8825C7.94968 10.8827 8.17228 10.9183 8.05802 11.6221C7.86137 12.8334 7.50539 14.0958 8.01534 15.2393C8.43998 16.1915 8.94328 16.7665 9.8198 17.0444C10.439 17.1813 10.8054 16.8971 10.8585 16.2633C10.8718 16.1048 10.8691 15.9411 10.8455 15.784C10.6947 13.3038 12.1361 11.9735 12.4939 11.6832C12.5458 11.641 12.5985 11.6002 12.6492 11.5566L15.1224 9.43023L16.8632 7.68946C17.0544 7.49822 17.3138 7.39079 17.5842 7.39079L18.6914 7.39079M6.75749 10.8841L9.45281 10.8841" stroke="#808080" stroke-width="0.96" stroke-linecap="round" stroke-linejoin="round"/>
</svg>
