<svg width="22" height="19" viewBox="0 0 22 19" fill="none" xmlns="http://www.w3.org/2000/svg">
<path d="M10.9613 2.77405C11.9715 1.40467 13.5818 0.5186 15.4022 0.5186C16.5912 0.5186 18.7455 0.853184 19.8572 1.04025C20.2797 1.11135 20.6043 1.44816 20.6567 1.87337C20.775 2.83311 20.9632 4.60211 20.9633 6.14717C20.9633 13.0725 14.2225 17.3243 11.2359 18.4257C11.1311 18.4643 11.0234 18.4814 10.9117 18.4814H10.8422M10.9652 2.77405C9.95501 1.40467 8.3447 0.5186 6.52434 0.5186C5.33535 0.5186 3.18097 0.853184 2.06935 1.04025C1.64686 1.11135 1.32224 1.44816 1.26982 1.87337C1.15149 2.83311 0.963327 4.60211 0.963257 6.14717C0.963257 13.0725 7.70403 17.3243 10.6906 18.4257C10.7954 18.4643 10.9031 18.4814 11.0148 18.4814H11.0843" stroke="white" stroke-linecap="round" stroke-linejoin="round"/>
</svg>
