<svg width="10" height="10" viewBox="0 0 10 10" fill="none" xmlns="http://www.w3.org/2000/svg">
    <path fill-rule="evenodd" clip-rule="evenodd" d="M9.55629 0.443993C9.75155 0.639255 9.75155 0.955838 9.55629 1.1511L5.70976 4.99763L9.55629 8.84415C9.75155 9.03942 9.75155 9.356 9.55629 9.55126C9.36102 9.74652 9.04444 9.74652 8.84918 9.55126L5.00265 5.70473L1.15629 9.5511C0.961026 9.74636 0.644443 9.74636 0.449181 9.5511C0.253919 9.35584 0.253919 9.03926 0.449181 8.84399L4.29555 4.99763L0.449181 1.15126C0.253919 0.955999 0.253919 0.639416 0.449181 0.444154C0.644443 0.248892 0.961026 0.248892 1.15629 0.444154L5.00265 4.29052L8.84918 0.443993C9.04444 0.248731 9.36102 0.248731 9.55629 0.443993Z" fill="#2B2B2B"/>
</svg>
