<svg width="14" height="15" viewBox="0 0 14 15" fill="none" xmlns="http://www.w3.org/2000/svg">
<path fill-rule="evenodd" clip-rule="evenodd" d="M0.587242 3.87706C0.725557 3.63806 1.03144 3.55643 1.27044 3.69475L6.90655 6.95641L12.5027 3.71485C12.7417 3.57644 13.0476 3.65794 13.186 3.89689C13.3244 4.13584 13.2429 4.44175 13.004 4.58016L7.15728 7.96683C7.00233 8.05658 6.81121 8.05662 6.65623 7.96693L0.769559 4.56026C0.530554 4.42195 0.448928 4.11607 0.587242 3.87706Z" fill="#808080"/>
<path fill-rule="evenodd" clip-rule="evenodd" d="M6.90667 7.0275C7.18281 7.0275 7.40667 7.25136 7.40667 7.5275V13.5742C7.40667 13.8503 7.18281 14.0742 6.90667 14.0742C6.63052 14.0742 6.40667 13.8503 6.40667 13.5742V7.5275C6.40667 7.25136 6.63052 7.0275 6.90667 7.0275Z" fill="#808080"/>
<path fill-rule="evenodd" clip-rule="evenodd" d="M6.90667 5.59252e-06C7.46896 -0.000929992 8.05864 0.115486 8.53356 0.375662L8.53637 0.3772L12.0955 2.35675V2.35675C12.5953 2.63366 13.021 3.09919 13.3199 3.60604C13.6188 4.11304 13.82 4.71013 13.82 5.28084V9.0475C13.82 9.61821 13.6188 10.2153 13.3199 10.7223C13.0211 11.2291 12.596 11.6942 12.0964 11.9711M12.0964 11.9711L8.53636 13.9511L8.53518 13.9518C8.06242 14.2131 7.47193 14.3292 6.91 14.3292C6.34806 14.3292 5.75758 14.2131 5.28482 13.9518L5.28364 13.9511L1.72446 11.9716C1.22479 11.6947 0.798944 11.2291 0.500133 10.7223C0.201183 10.2153 0 9.61821 0 9.0475V5.28084C0 4.71013 0.201183 4.11304 0.500133 3.60604C0.799068 3.09907 1.22432 2.63375 1.72426 2.35686V2.35686L5.2819 0.384846L5.28315 0.384145C5.75607 0.11902 6.34514 0.000939895 6.90667 5.59252e-06M6.90833 1C6.46868 1.00074 6.0583 1.09578 5.77143 1.25683L5.76907 1.25815L2.20907 3.23148C1.90243 3.40127 1.59423 3.71934 1.36153 4.11397C1.12882 4.50864 1 4.93154 1 5.28084V9.0475C1 9.3968 1.12882 9.81971 1.36153 10.2144C1.59423 10.609 1.90223 10.927 2.20887 11.0968L5.76851 13.0766V13.0766C6.05573 13.2351 6.46888 13.3292 6.91 13.3292C7.35112 13.3292 7.76373 13.2354 8.05095 13.0768V13.0768L11.6103 11.0972C11.9169 10.9274 12.2258 10.609 12.4585 10.2144C12.6912 9.81971 12.82 9.3968 12.82 9.0475V5.28084C12.82 4.93154 12.6912 4.50864 12.4585 4.11397C12.2258 3.71934 11.9178 3.40138 11.6111 3.23159L8.05311 1.25268L8.0518 1.25197C7.76013 1.09258 7.34706 0.999274 6.90833 1Z" fill="#808080"/>
</svg>
