<svg width="8" height="12" viewBox="0 0 8 12" fill="none" xmlns="http://www.w3.org/2000/svg">
    <path fill-rule="evenodd" clip-rule="evenodd" d="M0.75 3.74219H6.67552Z" fill="#B78053"/>
    <path fill-rule="evenodd" clip-rule="evenodd" d="M0 0.5H2.96219C4.49235 0.5 5.73972 1.57296 6.12051 2.99219H7.42552V4.49219H6.19132C5.92525 6.06932 4.60712 7.30926 2.96219 7.30926H2.36527C2.35585 7.32433 2.34573 7.34142 2.33508 7.36062C2.29167 7.43887 2.25389 7.52625 2.22805 7.60398C2.21534 7.64221 2.20731 7.67274 2.20283 7.69395C2.20133 7.70105 2.20046 7.70604 2.19998 7.70903L2.18429 8.42453C2.15933 9.56335 3.07568 10.5 4.21477 10.5H5.1813V12H4.21477C2.23438 12 0.641255 10.3716 0.684655 8.39165L0.700566 7.66579C0.70799 7.32711 0.863137 6.92187 1.02336 6.63301C1.11012 6.4766 1.22702 6.30125 1.37606 6.15426C1.50737 6.02476 1.77318 5.80926 2.15054 5.80926H2.96219C3.72977 5.80926 4.42011 5.27313 4.6551 4.49219H0V2.99219H4.52454C4.21729 2.39127 3.61792 2 2.96219 2H0V0.5Z" fill="#B78053"/>
</svg>
