<svg width="48" height="49" viewBox="0 0 48 49" fill="none" xmlns="http://www.w3.org/2000/svg">
<g filter="url(#filter0_bi_189_1487)">
<rect width="48" height="48.0469" rx="24" fill="white" fill-opacity="0.8"/>
<rect x="0.75" y="0.75" width="46.5" height="46.5469" rx="23.25" stroke="#B78053" stroke-width="1.5"/>
</g>
<path d="M19.0817 22.2651C19.61 22.2651 20.0383 21.8364 20.0383 21.3075C20.0383 20.7787 19.61 20.35 19.0817 20.35C18.5533 20.35 18.125 20.7787 18.125 21.3075C18.125 21.8364 18.5533 22.2651 19.0817 22.2651Z" fill="#B78053"/>
<path d="M20.9375 46.5004C20.9375 46.9146 21.2733 47.2504 21.6875 47.2504C22.1017 47.2504 22.4375 46.9146 22.4375 46.5004H20.9375ZM37.0511 15.5611L37.7849 15.4057C37.7426 15.2063 37.6211 15.0327 37.4481 14.9248C37.2752 14.8169 37.0658 14.784 36.8682 14.8338L37.0511 15.5611ZM25.1135 35.6274L25.3103 34.9037L25.1135 35.6274ZM33.0899 21.9635C33.4619 21.7813 33.6158 21.3321 33.4337 20.9601C33.2515 20.588 32.8023 20.4341 32.4303 20.6163L33.0899 21.9635ZM22.4375 46.5004V32.5777H20.9375V46.5004H22.4375ZM22.4375 32.5777C22.4375 30.7452 22.5793 27.5891 24.4643 24.4461C26.3361 21.3252 29.9931 18.1102 37.2341 16.2884L36.8682 14.8338C29.314 16.7342 25.2892 20.1543 23.1779 23.6746C21.08 27.1727 20.9375 30.6639 20.9375 32.5777H22.4375ZM36.3174 15.7165C37.6977 22.2336 36.1442 27.4056 33.6368 30.7498C31.0891 34.1477 27.6772 35.5474 25.3103 34.9037L24.9167 36.3511C28.1166 37.2213 32.0963 35.3048 34.8369 31.6496C37.6179 27.9406 39.2498 22.3225 37.7849 15.4057L36.3174 15.7165ZM25.3103 34.9037C25.0107 34.8222 24.8164 34.6687 24.6819 34.4587C24.5378 34.2338 24.4356 33.8996 24.42 33.4346C24.3885 32.4942 24.7181 31.1994 25.422 29.7547C26.8248 26.8758 29.5747 23.6845 33.0899 21.9635L32.4303 20.6163C28.5685 22.507 25.5983 25.9687 24.0736 29.0976C23.3139 30.6568 22.8779 32.2048 22.9209 33.485C22.9426 34.1304 23.0877 34.751 23.4188 35.2678C23.7593 35.7995 24.2679 36.1747 24.9167 36.3511L25.3103 34.9037Z" fill="#B78053"/>
<path d="M20.9379 33.4904C20.9379 33.9046 21.2737 34.2404 21.6879 34.2404C22.1021 34.2404 22.4379 33.9046 22.4379 33.4904L20.9379 33.4904ZM9.77883 22.8436V22.0936C9.42174 22.0936 9.11416 22.3454 9.04362 22.6954L9.77883 22.8436ZM19.8009 35.2782L20.5473 35.3519L20.5473 35.3519L19.8009 35.2782ZM14.5632 27.0456C14.2203 26.8132 13.7539 26.9029 13.5216 27.2458C13.2892 27.5887 13.3789 28.055 13.7218 28.2874L14.5632 27.0456ZM21.6879 33.4904C22.4379 33.4904 22.4379 33.4899 22.4379 33.4894C22.4379 33.4892 22.4379 33.4887 22.4379 33.4882C22.4379 33.4874 22.4379 33.4863 22.4379 33.4851C22.4379 33.4827 22.4379 33.4797 22.4378 33.476C22.4378 33.4686 22.4377 33.4587 22.4374 33.4463C22.437 33.4215 22.4361 33.3868 22.4345 33.3428C22.4312 33.255 22.4248 33.13 22.4123 32.9731C22.3872 32.6597 22.3376 32.2176 22.2391 31.6893C22.0428 30.6359 21.6487 29.2221 20.8539 27.8009C20.0565 26.3752 18.8537 24.9393 17.0477 23.8629C15.2409 22.786 12.8713 22.0936 9.77883 22.0936V23.5936C12.6409 23.5936 14.7373 24.2321 16.2798 25.1514C17.8232 26.0713 18.8534 27.297 19.5447 28.5331C20.2385 29.7735 20.5888 31.0214 20.7645 31.9643C20.8521 32.4341 20.8956 32.8238 20.917 33.0926C20.9278 33.2269 20.933 33.3306 20.9355 33.3987C20.9368 33.4328 20.9374 33.4579 20.9377 33.4733C20.9378 33.4811 20.9379 33.4864 20.9379 33.4893C20.9379 33.4907 20.9379 33.4915 20.9379 33.4917C20.9379 33.4918 20.9379 33.4917 20.9379 33.4915C20.9379 33.4914 20.9379 33.4911 20.9379 33.4911C20.9379 33.4907 20.9379 33.4904 21.6879 33.4904ZM20.5473 35.3519C20.6541 34.27 20.246 32.9369 19.3029 31.5338C18.3509 30.1176 16.8185 28.5738 14.5632 27.0456L13.7218 28.2874C15.8559 29.7334 17.2363 31.1481 18.058 32.3706C18.8885 33.6061 19.115 34.5918 19.0545 35.2045L20.5473 35.3519ZM19.0545 35.2045C19.0287 35.4664 18.9164 35.638 18.7308 35.765C18.5232 35.9071 18.1832 36.0165 17.7006 36.023C16.735 36.036 15.406 35.6305 14.1167 34.7051C11.5865 32.8889 9.28092 29.1105 10.5141 22.9918L9.04362 22.6954C7.69891 29.3679 10.2127 33.7492 13.2421 35.9237C14.7326 36.9936 16.3685 37.5411 17.7208 37.5229C18.3971 37.5137 19.0543 37.3613 19.5781 37.0028C20.1239 36.6292 20.4773 36.0612 20.5473 35.3519L19.0545 35.2045Z" fill="#B78053"/>
<defs>
<filter id="filter0_bi_189_1487" x="-6" y="-6" width="60" height="60.0469" filterUnits="userSpaceOnUse" color-interpolation-filters="sRGB">
<feFlood flood-opacity="0" result="BackgroundImageFix"/>
<feGaussianBlur in="BackgroundImage" stdDeviation="3"/>
<feComposite in2="SourceAlpha" operator="in" result="effect1_backgroundBlur_189_1487"/>
<feBlend mode="normal" in="SourceGraphic" in2="effect1_backgroundBlur_189_1487" result="shape"/>
<feColorMatrix in="SourceAlpha" type="matrix" values="0 0 0 0 0 0 0 0 0 0 0 0 0 0 0 0 0 0 127 0" result="hardAlpha"/>
<feOffset dx="4" dy="3"/>
<feGaussianBlur stdDeviation="2"/>
<feComposite in2="hardAlpha" operator="arithmetic" k2="-1" k3="1"/>
<feColorMatrix type="matrix" values="0 0 0 0 0 0 0 0 0 0 0 0 0 0 0 0 0 0 0.06 0"/>
<feBlend mode="normal" in2="shape" result="effect2_innerShadow_189_1487"/>
</filter>
</defs>
</svg>
