<svg width="11" height="18" viewBox="0 0 11 18" fill="none" xmlns="http://www.w3.org/2000/svg">
<path d="M1 0.725H0.225V2.275H1V0.725ZM1 8.68889C0.571979 8.68889 0.225 9.03587 0.225 9.46389C0.225 9.89191 0.571979 10.2389 1 10.2389V8.68889ZM6.52194 17.275H7.29694V15.725H6.52194V17.275ZM1 2.275H4.31829V0.725H1V2.275ZM4.31829 2.275C5.94952 2.275 7.33562 3.67473 7.33562 5.48195H8.88562C8.88562 2.89082 6.87595 0.725 4.31829 0.725V2.275ZM7.33562 5.48195C7.33562 7.28916 5.94952 8.68889 4.31829 8.68889V10.2389C6.87595 10.2389 8.88562 8.07307 8.88562 5.48195H7.33562ZM4.31829 8.68889H1V10.2389H4.31829V8.68889ZM1.27577 11.1314L1.2519 12.2201L2.80153 12.2541L2.82539 11.1653L1.27577 11.1314ZM6.19716 17.275H6.52194V15.725H6.19716V17.275ZM0.674419 10.1672C1.04871 10.3405 1.2848 10.719 1.27577 11.1314L2.82539 11.1653C2.84794 10.1369 2.2591 9.19276 1.32558 8.7606L0.674419 10.1672ZM1.2519 12.2201C1.1911 14.9938 3.42288 17.275 6.19716 17.275V15.725C4.29222 15.725 2.75978 14.1586 2.80153 12.2541L1.2519 12.2201Z" fill="#808080"/>
<path d="M1 4.46719H0.225V6.01719H1V4.46719ZM9.88827 6.01719H10.6633V4.46719H9.88827V6.01719ZM1 6.01719H9.88827V4.46719H1V6.01719Z" fill="#808080"/>
</svg>
