<svg width="24" height="24" viewBox="0 0 24 24" fill="none" xmlns="http://www.w3.org/2000/svg">
<rect width="24" height="24" fill="white"/>
<path d="M17.2752 13.285H20.5526M5.7329 16.2178H8.05888M20.5526 13.285V13.285C21.352 13.285 22.0001 13.933 22.0001 14.7324V15.4568C22.0001 15.8771 21.6594 16.2178 21.2391 16.2178H19.7908M20.5526 13.285L19.1678 10.0892C18.8061 9.25428 17.983 8.71393 17.0731 8.71393H14.9533M14.9533 16.2178V8.52199C14.9533 7.68142 14.2719 7 13.4313 7H7.2549C6.41432 7 5.7329 7.68142 5.7329 8.522V8.71393M14.9533 16.2178H17.2752M14.9533 16.2178H10.649M6.53687 10.6752H2M8.05888 13.285H3.52201" stroke="#808080" stroke-width="0.977239" stroke-linecap="round" stroke-linejoin="round"/>
<circle r="1.21883" transform="matrix(-1 0 0 1 18.5151 16.5223)" stroke="#808080" stroke-width="0.977239" stroke-linecap="round" stroke-linejoin="round"/>
<circle r="1.21883" transform="matrix(-1 0 0 1 9.33447 16.5223)" stroke="#808080" stroke-width="0.977239" stroke-linecap="round" stroke-linejoin="round"/>
</svg>
