<svg width="6" height="10" viewBox="0 0 6 10" fill="none" xmlns="http://www.w3.org/2000/svg">
<path d="M0.979736 0.98125H0.554736V1.83125H0.979736V0.98125ZM0.979736 4.98595C0.745015 4.98595 0.554736 5.17623 0.554736 5.41095C0.554736 5.64567 0.745015 5.83595 0.979736 5.83595V4.98595ZM3.74015 9.37411H4.16516V8.52411H3.74015V9.37411ZM0.979736 1.83125H2.63855V0.98125H0.979736V1.83125ZM2.63855 1.83125C3.42924 1.83125 4.10933 2.51525 4.10933 3.4086H4.95933C4.95933 2.09021 3.94188 0.98125 2.63855 0.98125V1.83125ZM4.10933 3.4086C4.10933 4.30195 3.42924 4.98595 2.63855 4.98595V5.83595C3.94188 5.83595 4.95933 4.72699 4.95933 3.4086H4.10933ZM2.63855 4.98595H0.979736V5.83595H2.63855V4.98595ZM1.08008 6.24584L1.06813 6.79439L1.91793 6.81291L1.92988 6.26436L1.08008 6.24584ZM3.59224 9.37411H3.74015V8.52411H3.59224V9.37411ZM0.800324 5.79623C0.974506 5.87734 1.08427 6.05374 1.08008 6.24584L1.92988 6.26436C1.94142 5.73514 1.63902 5.24914 1.15915 5.02568L0.800324 5.79623ZM1.06813 6.79439C1.03728 8.20995 2.17635 9.37411 3.59224 9.37411V8.52411C2.65304 8.52411 1.89747 7.75189 1.91793 6.81291L1.06813 6.79439Z" fill="#B78053"/>
<path d="M0.979736 2.86406H0.554736V3.71406H0.979736V2.86406ZM5.42298 3.71406H5.84798V2.86406H5.42298V3.71406ZM0.979736 3.71406H5.42298V2.86406H0.979736V3.71406Z" fill="#B78053"/>
</svg>
