<svg width="15" height="15" viewBox="0 0 15 15" fill="none" xmlns="http://www.w3.org/2000/svg">
<path fill-rule="evenodd" clip-rule="evenodd" d="M3.16667 1C1.96948 1 1 1.96948 1 3.16667V8H7.83333C8.29052 8 8.66667 7.62386 8.66667 7.16667V1H3.16667ZM0 3.16667C0 1.41719 1.41719 0 3.16667 0H9.16667C9.44281 0 9.66667 0.223858 9.66667 0.5V7.16667C9.66667 8.17614 8.84281 9 7.83333 9H0.5C0.223858 9 0 8.77614 0 8.5V3.16667Z" fill="#808080"/>
<path fill-rule="evenodd" clip-rule="evenodd" d="M8.66667 2.5C8.66667 2.22386 8.89052 2 9.16667 2H10.3933C11.0559 2 11.6585 2.35866 11.9857 2.92227L11.9874 2.92511L13.1274 4.91844C13.2159 5.07319 13.2153 5.26335 13.1258 5.41755C13.0364 5.57175 12.8716 5.66667 12.6933 5.66667H11.8333C11.7428 5.66667 11.6667 5.74281 11.6667 5.83333V7.83333C11.6667 7.92386 11.7428 8 11.8333 8H13.8333C14.1095 8 14.3333 8.22386 14.3333 8.5V10.5C14.3333 11.8828 13.2161 13 11.8333 13H11.1667C10.8905 13 10.6667 12.7761 10.6667 12.5C10.6667 12.0428 10.2905 11.6667 9.83333 11.6667C9.37614 11.6667 9 12.0428 9 12.5C9 12.7761 8.77614 13 8.5 13H5.83333C5.55719 13 5.33333 12.7761 5.33333 12.5C5.33333 12.0428 4.95719 11.6667 4.5 11.6667C4.04281 11.6667 3.66667 12.0428 3.66667 12.5C3.66667 12.7761 3.44281 13 3.16667 13H2.5C1.11719 13 0 11.8828 0 10.5V8.5C0 8.22386 0.223858 8 0.5 8L7.83333 8C8.29052 8 8.66667 7.62386 8.66667 7.16667V2.5ZM9.66667 3V7.16667C9.66667 8.17614 8.84281 9 7.83333 9H1V10.5C1 11.3305 1.66948 12 2.5 12H2.73621C2.95485 11.2321 3.66373 10.6667 4.5 10.6667C5.33627 10.6667 6.04515 11.2321 6.26379 12H8.06954C8.28818 11.2321 8.99706 10.6667 9.83333 10.6667C10.6696 10.6667 11.3785 11.2321 11.5971 12H11.8333C12.6639 12 13.3333 11.3305 13.3333 10.5V9H11.8333C11.1905 9 10.6667 8.47614 10.6667 7.83333V5.83333C10.6667 5.19117 11.1895 4.66773 11.8314 4.66667L11.1209 3.42441C11.1207 3.42397 11.1204 3.42354 11.1202 3.42311C10.9673 3.16082 10.6903 3 10.3933 3H9.66667Z" fill="#808080"/>
<path fill-rule="evenodd" clip-rule="evenodd" d="M4.5 11.6667C4.03976 11.6667 3.66667 12.0398 3.66667 12.5C3.66667 12.9602 4.03976 13.3333 4.5 13.3333C4.96024 13.3333 5.33333 12.9602 5.33333 12.5C5.33333 12.0398 4.96024 11.6667 4.5 11.6667ZM2.66667 12.5C2.66667 11.4875 3.48748 10.6667 4.5 10.6667C5.51252 10.6667 6.33333 11.4875 6.33333 12.5C6.33333 13.5125 5.51252 14.3333 4.5 14.3333C3.48748 14.3333 2.66667 13.5125 2.66667 12.5Z" fill="#808080"/>
<path fill-rule="evenodd" clip-rule="evenodd" d="M9.83333 11.6667C9.3731 11.6667 9 12.0398 9 12.5C9 12.9602 9.3731 13.3333 9.83333 13.3333C10.2936 13.3333 10.6667 12.9602 10.6667 12.5C10.6667 12.0398 10.2936 11.6667 9.83333 11.6667ZM8 12.5C8 11.4875 8.82081 10.6667 9.83333 10.6667C10.8459 10.6667 11.6667 11.4875 11.6667 12.5C11.6667 13.5125 10.8459 14.3333 9.83333 14.3333C8.82081 14.3333 8 13.5125 8 12.5Z" fill="#808080"/>
<path fill-rule="evenodd" clip-rule="evenodd" d="M11.8333 5.66667C11.7428 5.66667 11.6667 5.74281 11.6667 5.83333V7.83333C11.6667 7.92386 11.7428 8 11.8333 8L13.3333 8V7.29916L12.4028 5.66667H11.8333ZM10.6667 5.83333C10.6667 5.19052 11.1905 4.66667 11.8333 4.66667H12.6933C12.873 4.66667 13.0384 4.76239 13.1274 4.91844L14.2677 6.91907C14.3107 6.9945 14.3333 7.07984 14.3333 7.16667V8.5C14.3333 8.77614 14.1095 9 13.8333 9H11.8333C11.1905 9 10.6667 8.47614 10.6667 7.83333V5.83333Z" fill="#808080"/>
</svg>
