<svg width="12" height="18" viewBox="0 0 12 18" fill="none" xmlns="http://www.w3.org/2000/svg">
<path d="M1.49023 0.0359375H0.440234V2.13594H1.49023V0.0359375ZM1.49023 9.09534V8.04534C0.997801 8.04534 0.571522 8.38756 0.465065 8.86834C0.358607 9.34913 0.600575 9.83931 1.04698 10.0472L1.49023 9.09534ZM2.54073 10.7836L1.49098 10.7608L1.49098 10.7608L2.54073 10.7836ZM2.51682 11.8807L3.56657 11.9036L3.56657 11.9036L2.51682 11.8807ZM7.01107 17.2217H8.06107V15.1217H7.01107V17.2217ZM1.49023 2.13594H4.80786V0.0359375H1.49023V2.13594ZM4.80786 2.13594C6.26862 2.13594 7.54943 3.40396 7.54943 5.09064H9.64943C9.64943 2.35385 7.53515 0.0359375 4.80786 0.0359375V2.13594ZM7.54943 5.09064C7.54943 6.77732 6.26862 8.04534 4.80786 8.04534V10.1453C7.53515 10.1453 9.64943 7.82743 9.64943 5.09064H7.54943ZM4.80786 8.04534H1.49023V10.1453H4.80786V8.04534ZM1.49098 10.7608L1.46707 11.8579L3.56657 11.9036L3.59048 10.8065L1.49098 10.7608ZM6.71525 17.2217H7.01107V15.1217H6.71525V17.2217ZM1.04698 10.0472C1.32342 10.1759 1.49762 10.4559 1.49098 10.7608L3.59048 10.8065C3.61527 9.66875 2.96515 8.62391 1.93349 8.14349L1.04698 10.0472ZM1.46707 11.8579C1.40293 14.8011 3.77131 17.2217 6.71525 17.2217V15.1217C4.94901 15.1217 3.52809 13.6694 3.56657 11.9036L1.46707 11.8579Z" fill="#623C21"/>
<path fill-rule="evenodd" clip-rule="evenodd" d="M1.49023 4.83594H10.3767Z" fill="#623C21"/>
<path d="M1.49023 3.78594H0.440234V5.88594H1.49023V3.78594ZM10.3767 5.88594H11.4267V3.78594H10.3767V5.88594ZM1.49023 5.88594H10.3767V3.78594H1.49023V5.88594Z" fill="#623C21"/>
</svg>
