<svg width="12" height="18" viewBox="0 0 12 18" fill="none" xmlns="http://www.w3.org/2000/svg">
<path d="M1.44519 0.3375H0.28269V2.6625H1.44519V0.3375ZM1.44519 8.30139C0.803159 8.30139 0.28269 8.82186 0.28269 9.46389C0.28269 10.1059 0.803159 10.6264 1.44519 10.6264V8.30139ZM6.96713 17.6625H8.12963V15.3375H6.96713V17.6625ZM1.44519 2.6625H4.76348V0.3375H1.44519V2.6625ZM4.76348 2.6625C6.1631 2.6625 7.39331 3.87071 7.39331 5.48195H9.71831C9.71831 2.69485 7.55275 0.3375 4.76348 0.3375V2.6625ZM7.39331 5.48195C7.39331 7.09318 6.1631 8.30139 4.76348 8.30139V10.6264C7.55275 10.6264 9.71831 8.26905 9.71831 5.48195H7.39331ZM4.76348 8.30139H1.44519V10.6264H4.76348V8.30139ZM1.33355 11.1229L1.30968 12.2117L3.63412 12.2626L3.65799 11.1738L1.33355 11.1229ZM6.64235 17.6625H6.96713V15.3375H6.64235V17.6625ZM0.95682 10.5188C1.1913 10.6274 1.33921 10.8645 1.33355 11.1229L3.65799 11.1738C3.68391 9.99134 3.00689 8.90583 1.93356 8.40895L0.95682 10.5188ZM1.30968 12.2117C1.24412 15.2026 3.65073 17.6625 6.64235 17.6625V15.3375C4.95474 15.3375 3.59714 13.9498 3.63412 12.2626L1.30968 12.2117Z" fill="black"/>
<path d="M1.44519 4.07969H0.28269V6.40469H1.44519V4.07969ZM10.3335 6.40469H11.496V4.07969H10.3335V6.40469ZM1.44519 6.40469H10.3335V4.07969H1.44519V6.40469Z" fill="black"/>
</svg>
