<svg width="20" height="20" viewBox="0 0 20 20" fill="none" xmlns="http://www.w3.org/2000/svg">
<mask id="path-1-outside-1_611_3342" maskUnits="userSpaceOnUse" x="5.23242" y="1.20703" width="14" height="18" fill="black">
<rect fill="white" x="5.23242" y="1.20703" width="14" height="18"/>
<path d="M6.23242 15.292L8.81575 17.292C9.14909 17.6254 9.89909 17.792 10.3991 17.792H13.5658C14.5658 17.792 15.6491 17.042 15.8991 16.042L17.8991 9.95871C18.3158 8.79205 17.5658 7.79205 16.3158 7.79205H12.9824C12.4824 7.79205 12.0658 7.37538 12.1491 6.79205L12.5658 4.12538C12.7324 3.37538 12.2324 2.54205 11.4824 2.29205C10.8158 2.04205 9.98242 2.37538 9.64909 2.87538L6.23242 7.95871"/>
</mask>
<path d="M6.23242 15.292L8.81575 17.292C9.14909 17.6254 9.89909 17.792 10.3991 17.792H13.5658C14.5658 17.792 15.6491 17.042 15.8991 16.042L17.8991 9.95871C18.3158 8.79205 17.5658 7.79205 16.3158 7.79205H12.9824C12.4824 7.79205 12.0658 7.37538 12.1491 6.79205L12.5658 4.12538C12.7324 3.37538 12.2324 2.54205 11.4824 2.29205C10.8158 2.04205 9.98242 2.37538 9.64909 2.87538L6.23242 7.95871" fill="url(#paint0_linear_611_3342)"/>
<path d="M8.81575 17.292L9.52286 16.5849L9.47804 16.5401L9.42793 16.5013L8.81575 17.292ZM15.8991 16.042L14.9491 15.7297L14.9378 15.7643L14.9289 15.7995L15.8991 16.042ZM17.8991 9.95871L16.9573 9.62238L16.9531 9.63433L16.9491 9.64639L17.8991 9.95871ZM12.1491 6.79205L11.161 6.63766L11.1591 6.65063L12.1491 6.79205ZM12.5658 4.12538L11.5896 3.90845L11.5827 3.93954L11.5777 3.971L12.5658 4.12538ZM11.4824 2.29205L11.1313 3.22838L11.1486 3.23488L11.1662 3.24073L11.4824 2.29205ZM9.64909 2.87538L10.479 3.43322L10.4811 3.43008L9.64909 2.87538ZM5.62025 16.0828L8.20358 18.0828L9.42793 16.5013L6.84459 14.5013L5.62025 16.0828ZM8.10865 17.9992C8.45312 18.3436 8.91726 18.5277 9.2702 18.6286C9.64762 18.7364 10.0525 18.792 10.3991 18.792V16.792C10.2457 16.792 10.0256 16.7644 9.81964 16.7055C9.71949 16.6769 9.6389 16.6455 9.58068 16.6164C9.5188 16.5854 9.50788 16.57 9.52286 16.5849L8.10865 17.9992ZM10.3991 18.792H13.5658V16.792H10.3991V18.792ZM13.5658 18.792C14.3054 18.792 15.0292 18.5198 15.6042 18.0991C16.1799 17.6778 16.6766 17.0552 16.8692 16.2846L14.9289 15.7995C14.8716 16.0289 14.7016 16.2812 14.4232 16.485C14.144 16.6893 13.8261 16.792 13.5658 16.792V18.792ZM16.8491 16.3544L18.8491 10.271L16.9491 9.64639L14.9491 15.7297L16.8491 16.3544ZM18.8408 10.2951C19.1479 9.43538 19.0487 8.53845 18.5375 7.84468C18.031 7.1573 17.2113 6.79205 16.3158 6.79205V8.79205C16.6702 8.79205 16.8505 8.9268 16.9274 9.03108C16.9995 9.12897 17.067 9.31538 16.9573 9.62238L18.8408 10.2951ZM16.3158 6.79205H12.9824V8.79205H16.3158V6.79205ZM12.9824 6.79205C13.0126 6.79205 13.0589 6.80614 13.0968 6.84918C13.1156 6.87048 13.128 6.89424 13.1342 6.91558C13.1405 6.9374 13.1373 6.9456 13.139 6.93347L11.1591 6.65063C10.9873 7.85351 11.8913 8.79205 12.9824 8.79205V6.79205ZM13.1371 6.94642L13.5538 4.27976L11.5777 3.971L11.1611 6.63767L13.1371 6.94642ZM13.5419 4.34231C13.8277 3.05634 12.9993 1.74357 11.7986 1.34336L11.1662 3.24073C11.4656 3.34052 11.6371 3.69442 11.5896 3.90845L13.5419 4.34231ZM11.8335 1.35572C11.2375 1.13221 10.6182 1.18404 10.1157 1.35678C9.61991 1.5272 9.12919 1.85245 8.81704 2.32068L10.4811 3.43008C10.5023 3.39831 10.5949 3.3069 10.7658 3.24815C10.93 3.19172 11.0607 3.20189 11.1313 3.22838L11.8335 1.35572ZM8.81914 2.31754L5.40247 7.40088L7.06237 8.51655L10.479 3.43322L8.81914 2.31754Z" fill="white" mask="url(#path-1-outside-1_611_3342)"/>
<path d="M1.48242 7.12533V15.292C1.48242 15.9317 1.61743 16.4993 2.03912 16.8886C2.45098 17.2687 3.02743 17.3753 3.64909 17.3753H4.48242C5.10408 17.3753 5.68053 17.2687 6.0924 16.8886C6.51408 16.4993 6.64909 15.9317 6.64909 15.292V7.12533C6.64909 6.48565 6.51408 5.91801 6.0924 5.52876C5.68053 5.14858 5.10408 5.04199 4.48242 5.04199H3.64909C3.02743 5.04199 2.45098 5.14858 2.03912 5.52876C1.61743 5.91801 1.48242 6.48565 1.48242 7.12533Z" fill="url(#paint1_linear_611_3342)" stroke="white" stroke-linecap="round" stroke-linejoin="round"/>
<defs>
<linearGradient id="paint0_linear_611_3342" x1="16.498" y1="10" x2="5.49805" y2="20.5" gradientUnits="userSpaceOnUse">
<stop stop-color="#E6116D"/>
<stop offset="1" stop-color="#E6116D" stop-opacity="0"/>
</linearGradient>
<linearGradient id="paint1_linear_611_3342" x1="6.99805" y1="9.49902" x2="4.06576" y2="16.8753" gradientUnits="userSpaceOnUse">
<stop stop-color="#E6116D"/>
<stop offset="1" stop-color="#E6116D" stop-opacity="0"/>
</linearGradient>
</defs>
</svg>
