<svg width="24" height="24" viewBox="0 0 24 24" fill="none" xmlns="http://www.w3.org/2000/svg">
<rect width="24" height="24" fill="white"/>
<path d="M7.83324 10.2617V7.58589C7.83324 6.15774 8.99098 5 10.4191 5V5C11.8473 5 13.005 6.15774 13.005 7.58589V10.2617M16.5 11.1612H16.9987C18.104 11.1612 19 12.0572 19 13.1625V13.1625C19 14.2678 18.104 15.1637 16.9987 15.1637H10.6215M10.6215 15.1637L12.2405 13.4548M10.6215 15.1637L12.2405 16.7827M15.456 13.5671L15.0545 9.49292C15.0144 9.08558 14.6718 8.7751 14.2625 8.7751H6.58707C6.17303 8.7751 5.82815 9.09256 5.79393 9.50518L5.14295 17.3528C5.06599 18.2806 5.79825 19.0761 6.72925 19.0761H14.1942C15.1269 19.0761 15.8598 18.2777 15.7801 17.3484L15.6921 16.3216" stroke="#808080" stroke-linecap="round" stroke-linejoin="round"/>
</svg>
