<svg width="19" height="22" viewBox="0 0 19 22" fill="none" xmlns="http://www.w3.org/2000/svg">
<path d="M15.0521 13.5236C14.5162 13.5264 13.9877 13.6552 13.5057 13.9006C13.0237 14.1459 12.6005 14.5015 12.2672 14.9411L7.03387 11.5136C7.2246 10.8687 7.2246 10.1785 7.03387 9.53359L12.2672 6.10609C12.7983 6.79513 13.5451 7.26497 14.3753 7.4324C15.2055 7.59982 16.0654 7.45401 16.8028 7.02081C17.5402 6.5876 18.1074 5.89496 18.404 5.06558C18.7006 4.23619 18.7074 3.3236 18.4232 2.48947C18.1391 1.65533 17.5822 0.953485 16.8514 0.508263C16.1206 0.0630413 15.2629 -0.0968219 14.4303 0.0569927C13.5978 0.210807 12.844 0.668371 12.3026 1.34863C11.7613 2.02889 11.4672 2.88793 11.4725 3.77359C11.4759 4.10897 11.5241 4.44221 11.6157 4.76359L6.38239 8.19109C5.92038 7.58178 5.28887 7.13813 4.5754 6.92164C3.86194 6.70515 3.10185 6.72654 2.40051 6.98285C1.69917 7.23916 1.09131 7.71769 0.661195 8.35212C0.231075 8.98654 0 9.74543 0 10.5236C0 11.3018 0.231075 12.0606 0.661195 12.6951C1.09131 13.3295 1.69917 13.808 2.40051 14.0643C3.10185 14.3206 3.86194 14.342 4.5754 14.1255C5.28887 13.9091 5.92038 13.4654 6.38239 12.8561L11.6157 16.2836C11.5241 16.605 11.4759 16.9382 11.4725 17.2736C11.4725 18.0153 11.6824 18.7403 12.0758 19.357C12.4691 19.9737 13.0281 20.4543 13.6822 20.7381C14.3363 21.022 15.056 21.0962 15.7504 20.9515C16.4447 20.8068 17.0826 20.4497 17.5832 19.9252C18.0838 19.4008 18.4247 18.7326 18.5628 18.0052C18.7009 17.2777 18.63 16.5237 18.3591 15.8385C18.0882 15.1533 17.6294 14.5676 17.0407 14.1556C16.4521 13.7435 15.76 13.5236 15.0521 13.5236V13.5236ZM15.0521 1.52359C15.4768 1.52359 15.8921 1.65555 16.2453 1.90278C16.5985 2.15002 16.8737 2.50142 17.0363 2.91255C17.1988 3.32369 17.2414 3.77609 17.1585 4.21254C17.0756 4.649 16.8711 5.04991 16.5707 5.36458C16.2704 5.67925 15.8877 5.89354 15.4711 5.98036C15.0544 6.06717 14.6226 6.02262 14.2302 5.85232C13.8377 5.68202 13.5023 5.39363 13.2663 5.02362C13.0303 4.65361 12.9043 4.2186 12.9043 3.77359C12.9043 3.17685 13.1306 2.60456 13.5334 2.1826C13.9362 1.76064 14.4824 1.52359 15.0521 1.52359V1.52359Z" fill="#E6116D"/>
<path d="M3.59646 12.7756C3.17168 12.7756 2.75644 12.6436 2.40325 12.3964C2.05005 12.1491 1.77477 11.7977 1.61222 11.3866C1.44966 10.9755 1.40713 10.5231 1.49 10.0866C1.57287 9.65016 1.77742 9.24925 2.07779 8.93458C2.37815 8.61992 2.76084 8.40562 3.17746 8.31881C3.59408 8.23199 4.02591 8.27655 4.41836 8.44685C4.8108 8.61714 5.14623 8.90553 5.38223 9.27554C5.61822 9.64555 5.74419 10.0806 5.74419 10.5256C5.74419 11.1223 5.51791 11.6946 5.11513 12.1166C4.71235 12.5385 4.16607 12.7756 3.59646 12.7756ZM15.051 19.5256C14.6262 19.5256 14.211 19.3936 13.8578 19.1464C13.5046 18.8991 13.2293 18.5477 13.0668 18.1366C12.9042 17.7255 12.8617 17.2731 12.9445 16.8366C13.0274 16.4002 13.232 15.9993 13.5323 15.6846C13.8327 15.3699 14.2154 15.1556 14.632 15.0688C15.0486 14.982 15.4805 15.0265 15.8729 15.1968C16.2654 15.3671 16.6008 15.6555 16.8368 16.0255C17.0728 16.3956 17.1987 16.8306 17.1987 17.2756C17.1987 17.8723 16.9725 18.4446 16.5697 18.8666C16.1669 19.2885 15.6206 19.5256 15.051 19.5256V19.5256Z" fill="white"/>
</svg>
