<svg width="48" height="49" viewBox="0 0 48 49" fill="none" xmlns="http://www.w3.org/2000/svg">
<g filter="url(#filter0_bi_189_1480)">
<rect width="48" height="48.0469" rx="24" fill="white" fill-opacity="0.8"/>
<rect x="0.75" y="0.75" width="46.5" height="46.5469" rx="23.25" stroke="#B78053" stroke-width="1.5"/>
</g>
<path d="M33.9872 26.3889C34.4893 26.3889 34.8963 25.9815 34.8963 25.4789C34.8963 24.9763 34.4893 24.5689 33.9872 24.5689C33.4851 24.5689 33.0781 24.9763 33.0781 25.4789C33.0781 25.9815 33.4851 26.3889 33.9872 26.3889Z" fill="#B78053"/>
<path d="M26.781 25.3366C26.3828 25.2224 25.9675 25.4527 25.8533 25.8508C25.7391 26.249 25.9694 26.6643 26.3675 26.7785L26.781 25.3366ZM22.54 34.3049C22.54 34.7191 22.8758 35.0549 23.29 35.0549C23.7042 35.0549 24.04 34.7191 24.04 34.3049H22.54ZM27.4359 19.1443L26.883 18.6375L27.4359 19.1443ZM26.9036 24.1637L26.6942 23.4435L26.9036 24.1637ZM31.9641 35.3868L31.2177 35.4608L31.9641 35.3868ZM26.3675 26.7785C28.6 27.4186 30.6754 29.9916 31.2177 35.4608L32.7104 35.3128C32.1456 29.6169 29.9043 26.2322 26.781 25.3366L26.3675 26.7785ZM29.1521 37.5849H18.5843V39.0849H29.1521V37.5849ZM16.5812 35.6715C16.715 32.8922 17.4789 29.4891 19.8872 27.2474L18.8652 26.1494C16.028 28.7903 15.2235 32.6799 15.083 35.5994L16.5812 35.6715ZM19.7034 22.7019C18.3768 21.7686 17.6597 20.8218 17.2405 19.5504C16.8043 18.2271 16.6766 16.5149 16.6437 14.0034L15.1438 14.023C15.1766 16.5253 15.299 18.4518 15.8159 20.02C16.35 21.64 17.2891 22.8374 18.8403 23.9287L19.7034 22.7019ZM18.8322 11.8122H29.4161V10.3122H18.8322V11.8122ZM31.3985 13.7111C31.31 15.6296 30.9647 17.8629 30.1988 19.7289C29.4291 21.6042 28.2929 22.9788 26.6942 23.4435L27.1129 24.8839C29.3412 24.2362 30.7362 22.37 31.5865 20.2985C32.4405 18.2177 32.8038 15.7981 32.8969 13.7802L31.3985 13.7111ZM26.0873 21.7255L27.9887 19.6511L26.883 18.6375L24.9816 20.7119L26.0873 21.7255ZM26.3542 15.9354H21.8376V17.4354H26.3542V15.9354ZM20.1958 19.6621L20.8034 20.3265L21.9102 19.3141L21.3026 18.6498L20.1958 19.6621ZM22.54 24.798V34.3049H24.04V24.798H22.54ZM20.8034 20.3265C21.9205 21.5477 22.54 23.1429 22.54 24.798H24.04C24.04 22.7682 23.2802 20.8118 21.9102 19.3141L20.8034 20.3265ZM21.8376 15.9354C19.9027 15.9354 18.8899 18.2344 20.1958 19.6621L21.3026 18.6498C20.8771 18.1845 21.2071 17.4354 21.8376 17.4354V15.9354ZM27.9887 19.6511C29.2924 18.2289 28.2835 15.9354 26.3542 15.9354V17.4354C26.9784 17.4354 27.3048 18.1774 26.883 18.6375L27.9887 19.6511ZM25.815 22.7258C25.7386 22.3679 25.84 21.9952 26.0873 21.7255L24.9816 20.7119C24.4063 21.3394 24.1703 22.2065 24.3481 23.039L25.815 22.7258ZM26.6942 23.4435C26.5208 23.494 26.3517 23.46 26.1907 23.34C26.0196 23.2125 25.872 22.9928 25.815 22.7258L24.3481 23.039C24.5918 24.1802 25.7062 25.2928 27.1129 24.8839L26.6942 23.4435ZM29.4161 11.8122C30.5758 11.8122 31.4461 12.6799 31.3985 13.7111L32.8969 13.7802C32.9896 11.7697 31.3013 10.3122 29.4161 10.3122V11.8122ZM16.6437 14.0034C16.628 12.8009 17.6123 11.8122 18.8322 11.8122V10.3122C16.7935 10.3122 15.1169 11.9672 15.1438 14.023L16.6437 14.0034ZM19.8872 27.2474C20.5362 26.6432 20.8301 25.7613 20.8144 24.9418C20.7986 24.1215 20.4672 23.2392 19.7034 22.7019L18.8403 23.9287C19.1186 24.1245 19.3056 24.4997 19.3146 24.9706C19.3237 25.4424 19.1487 25.8855 18.8652 26.1494L19.8872 27.2474ZM18.5843 37.5849C17.4147 37.5849 16.5314 36.7054 16.5812 35.6715L15.083 35.5994C14.9857 37.6204 16.6955 39.0849 18.5843 39.0849V37.5849ZM31.2177 35.4608C31.3297 36.5894 30.3913 37.5849 29.1521 37.5849V39.0849C31.1715 39.0849 32.9201 37.4269 32.7104 35.3128L31.2177 35.4608Z" fill="#B78053"/>
<defs>
<filter id="filter0_bi_189_1480" x="-6" y="-6" width="60" height="60.0469" filterUnits="userSpaceOnUse" color-interpolation-filters="sRGB">
<feFlood flood-opacity="0" result="BackgroundImageFix"/>
<feGaussianBlur in="BackgroundImage" stdDeviation="3"/>
<feComposite in2="SourceAlpha" operator="in" result="effect1_backgroundBlur_189_1480"/>
<feBlend mode="normal" in="SourceGraphic" in2="effect1_backgroundBlur_189_1480" result="shape"/>
<feColorMatrix in="SourceAlpha" type="matrix" values="0 0 0 0 0 0 0 0 0 0 0 0 0 0 0 0 0 0 127 0" result="hardAlpha"/>
<feOffset dx="4" dy="3"/>
<feGaussianBlur stdDeviation="2"/>
<feComposite in2="hardAlpha" operator="arithmetic" k2="-1" k3="1"/>
<feColorMatrix type="matrix" values="0 0 0 0 0 0 0 0 0 0 0 0 0 0 0 0 0 0 0.06 0"/>
<feBlend mode="normal" in2="shape" result="effect2_innerShadow_189_1480"/>
</filter>
</defs>
</svg>
