<svg width="16" height="19" viewBox="0 0 16 19" fill="none" xmlns="http://www.w3.org/2000/svg">
    <path fill-rule="evenodd" clip-rule="evenodd" d="M3.30512 3.2612C3.30512 1.73305 4.54394 0.494236 6.07209 0.494236H10.1303C11.6585 0.494236 12.8973 1.73305 12.8973 3.2612V4.55185H14.1953C15.1598 4.55185 15.9417 5.33371 15.9417 6.29817V15.4353C15.9417 16.9634 14.7029 18.2022 13.1747 18.2022H3.02912C1.50096 18.2022 0.262154 16.9634 0.262154 15.4353V6.30426C0.262154 5.33643 1.04673 4.55185 2.01456 4.55185H3.30512V3.2612ZM4.01253 6.02755C4.02262 6.02796 4.03277 6.02816 4.04297 6.02816C4.05317 6.02816 4.06331 6.02796 4.07341 6.02755H14.1953C14.3448 6.02755 14.466 6.14871 14.466 6.29817V15.4353C14.466 16.1484 13.8879 16.7266 13.1747 16.7266H3.02912C2.31597 16.7266 1.73785 16.1484 1.73785 15.4353V6.30426C1.73785 6.15144 1.86173 6.02755 2.01456 6.02755H4.01253ZM4.78082 4.55185V3.2612C4.78082 2.54805 5.35894 1.96993 6.07209 1.96993H10.1303C10.8435 1.96993 11.4216 2.54805 11.4216 3.2612V4.55185H4.78082ZM4.89549 9.37474C4.89549 8.96724 5.22584 8.63689 5.63334 8.63689H5.64378C6.05128 8.63689 6.38163 8.96724 6.38163 9.37474C6.38163 9.78224 6.05128 10.1126 5.64378 10.1126H5.63334C5.22584 10.1126 4.89549 9.78224 4.89549 9.37474ZM10.1103 9.37474C10.1103 8.96724 10.4407 8.63689 10.8482 8.63689H10.8586C11.2661 8.63689 11.5965 8.96724 11.5965 9.37474C11.5965 9.78224 11.2661 10.1126 10.8586 10.1126H10.8482C10.4407 10.1126 10.1103 9.78224 10.1103 9.37474Z" fill="white"/>
</svg>
