<svg width="20" height="20" viewBox="0 0 20 20" fill="none" xmlns="http://www.w3.org/2000/svg">
    <path d="M18.8618 8.69531C19.2541 6.1162 18.7467 3.73665 18.1472 2.23666C17.8534 1.50145 17.0977 1.07875 16.3193 1.22359C13.5978 1.73 11.5436 3.77747 10.4842 5.28454C10.2575 5.60695 9.74246 5.60695 9.51581 5.28454C8.45636 3.77747 6.40224 1.73 3.68067 1.22359C2.90229 1.07875 2.14662 1.50145 1.8528 2.23666C0.436179 5.78139 -0.466543 14.238 9.80411 18.6327C9.92682 18.6852 10.0695 18.6867 10.1922 18.6343C11.8702 17.9166 13.25 17.0906 14.3782 16.1953M16.9961 10.1953V15.1953M14.5 12.6953H19.5" stroke="#B78053" stroke-linecap="round"/>
</svg>
