<svg width="9" height="14" viewBox="0 0 9 14" fill="none" xmlns="http://www.w3.org/2000/svg">
    <path fill-rule="evenodd" clip-rule="evenodd" d="M4.50586 0.25C4.92007 0.25 5.25586 0.585786 5.25586 1V2.25H7.50586C7.92007 2.25 8.25586 2.58579 8.25586 3C8.25586 3.41421 7.92007 3.75 7.50586 3.75H3.50586C2.8155 3.75 2.25586 4.30964 2.25586 5C2.25586 5.69036 2.8155 6.25 3.50586 6.25H5.50586C7.02464 6.25 8.25586 7.48122 8.25586 9C8.25586 10.5188 7.02464 11.75 5.50586 11.75H5.25586V13C5.25586 13.4142 4.92007 13.75 4.50586 13.75C4.09165 13.75 3.75586 13.4142 3.75586 13V11.75H1.50586C1.09165 11.75 0.755859 11.4142 0.755859 11C0.755859 10.5858 1.09165 10.25 1.50586 10.25H5.50586C6.19622 10.25 6.75586 9.69036 6.75586 9C6.75586 8.30964 6.19622 7.75 5.50586 7.75H3.50586C1.98708 7.75 0.755859 6.51878 0.755859 5C0.755859 3.48122 1.98708 2.25 3.50586 2.25H3.75586V1C3.75586 0.585786 4.09165 0.25 4.50586 0.25Z" fill="#2B2B2B"/>
</svg>
