<svg width="48" height="49" viewBox="0 0 48 49" fill="none" xmlns="http://www.w3.org/2000/svg">
<g filter="url(#filter0_bi_189_1470)">
<rect width="48" height="48.0469" rx="24" fill="white" fill-opacity="0.8"/>
<rect x="0.75" y="0.75" width="46.5" height="46.5469" rx="23.25" stroke="#B78053" stroke-width="1.5"/>
</g>
<path d="M22.3153 35.5401L22.4316 34.7992L22.3153 35.5401ZM30.6763 32.6905L31.3753 32.9623L31.3753 32.9623L30.6763 32.6905ZM23.7324 45.6569L23.0667 46.0024C23.2121 46.2826 23.5175 46.4418 23.8306 46.4005C24.1436 46.3592 24.3972 46.1262 24.465 45.8178L23.7324 45.6569ZM21.9094 46.7836C22.2578 47.0078 22.7218 46.9071 22.946 46.5588C23.1702 46.2105 23.0695 45.7464 22.7212 45.5222L21.9094 46.7836ZM25.6635 34.8179C25.2647 34.9298 25.032 35.3437 25.1438 35.7426C25.2557 36.1414 25.6696 36.3741 26.0685 36.2623L25.6635 34.8179ZM31.3753 32.9623C31.4575 32.7508 31.5624 32.3781 31.3784 32.0074C31.1752 31.5983 30.78 31.4922 30.5716 31.4629C30.3509 31.4318 30.1167 31.4513 29.9255 31.4756C29.724 31.5012 29.5021 31.5418 29.2906 31.581C28.8461 31.6635 28.4171 31.7446 28.0231 31.7618C27.6155 31.7796 27.3837 31.7197 27.2661 31.6413L26.434 32.8893C26.9541 33.236 27.5815 33.2825 28.0884 33.2604C28.6088 33.2377 29.1496 33.1328 29.5643 33.0559C29.7823 33.0154 29.9623 32.983 30.1143 32.9637C30.1887 32.9542 30.2477 32.9491 30.2935 32.9474C30.316 32.9466 30.333 32.9467 30.3454 32.9471C30.3578 32.9475 30.3631 32.9483 30.3624 32.9482C30.3619 32.9481 30.3519 32.9467 30.3349 32.9417C30.318 32.9367 30.2901 32.9268 30.2563 32.9082C30.1823 32.8677 30.0934 32.7924 30.0348 32.6744C29.9274 32.4581 30.019 32.3112 29.9773 32.4186L31.3753 32.9623ZM27.2661 31.6413C26.8255 31.3476 26.7151 31.001 26.3841 30.3924C26.2304 30.1098 26.0199 29.7728 25.6735 29.4967C25.317 29.2126 24.8735 29.0365 24.3178 28.9698L24.1391 30.4592C24.469 30.4988 24.6366 30.5885 24.7385 30.6697C24.8504 30.7589 24.9455 30.8869 25.0664 31.1091C25.2845 31.5102 25.5992 32.3328 26.434 32.8893L27.2661 31.6413ZM24.3178 28.9698C23.6888 28.8944 23.1718 29.0483 22.7547 29.3692C22.3776 29.6594 22.125 30.0575 21.9404 30.3608C21.5127 31.0634 21.311 31.4195 20.8506 31.5396L21.2293 32.991C22.3986 32.686 22.9054 31.6603 23.2217 31.1407C23.409 30.8329 23.5373 30.6597 23.6695 30.558C23.7617 30.487 23.8823 30.4284 24.1391 30.4592L24.3178 28.9698ZM20.8506 31.5396C20.5868 31.6084 20.2528 31.6056 19.852 31.5397C19.454 31.4741 19.0467 31.3568 18.6405 31.2363C18.271 31.1266 17.8347 30.9913 17.4873 30.952C17.3169 30.9328 17.0553 30.9206 16.7983 31.0251C16.4741 31.1569 16.2549 31.4331 16.1924 31.7768L17.6682 32.0451C17.6412 32.194 17.526 32.3484 17.3632 32.4146C17.2676 32.4535 17.2246 32.4319 17.3188 32.4425C17.5006 32.4631 17.7773 32.5448 18.2138 32.6743C18.6136 32.7929 19.1052 32.9369 19.6084 33.0197C20.1088 33.1021 20.6782 33.1348 21.2293 32.991L20.8506 31.5396ZM16.1924 31.7768C16.0564 32.525 16.4805 33.4989 17.3837 34.3112C18.3218 35.1548 19.8513 35.9127 22.1991 36.281L22.4316 34.7992C20.2875 34.4628 19.0538 33.7958 18.3868 33.1959C18.0526 32.8954 17.8619 32.6133 17.7622 32.3956C17.6562 32.164 17.6686 32.0432 17.6682 32.0451L16.1924 31.7768ZM22.1991 36.281C22.6598 36.3533 23.0405 36.7123 23.3035 37.5729C23.5648 38.4278 23.6353 39.5764 23.5935 40.7795C23.5522 41.9686 23.4041 43.1492 23.2648 44.0376C23.1953 44.4804 23.1285 44.8476 23.0794 45.1031C23.0548 45.2307 23.0346 45.3303 23.0207 45.3974C23.0138 45.4309 23.0084 45.4563 23.0049 45.4729C23.0031 45.4812 23.0018 45.4873 23.0009 45.4912C23.0005 45.4932 23.0002 45.4945 23 45.4954C23 45.4958 22.9999 45.496 22.9999 45.4961C22.9999 45.4962 22.9999 45.4962 22.9999 45.4962C22.9999 45.4961 22.9999 45.4961 23.7324 45.6569C24.465 45.8178 24.465 45.8176 24.4651 45.8174C24.4651 45.8173 24.4651 45.8171 24.4652 45.8169C24.4653 45.8164 24.4654 45.8158 24.4656 45.815C24.4659 45.8135 24.4664 45.8114 24.4669 45.8088C24.4681 45.8034 24.4697 45.7959 24.4718 45.7861C24.476 45.7665 24.482 45.7381 24.4896 45.7014C24.5048 45.628 24.5263 45.5216 24.5523 45.3867C24.6042 45.1169 24.6741 44.7325 24.7466 44.27C24.8913 43.3477 25.0484 42.1026 25.0926 40.8315C25.1362 39.5744 25.0723 38.2282 24.738 37.1345C24.4056 36.0465 23.7297 35.0028 22.4316 34.7992L22.1991 36.281ZM24.3982 45.3115C23.7335 44.0305 22.6093 42.1785 21.39 40.805C20.7859 40.1244 20.1111 39.5066 19.4133 39.1578C18.6946 38.7985 17.83 38.6773 17.056 39.2402L17.9383 40.4533C18.0996 40.336 18.3197 40.2881 18.7425 40.4995C19.1862 40.7213 19.7098 41.1717 20.2683 41.8008C21.3742 43.0465 22.4324 44.7798 23.0667 46.0024L24.3982 45.3115ZM17.056 39.2402C16.6985 39.5002 16.4464 39.845 16.3417 40.2632C16.2405 40.6677 16.2949 41.069 16.4136 41.4265C16.644 42.1204 17.1736 42.8193 17.7634 43.4476C18.9633 44.7258 20.6926 46.0005 21.9094 46.7836L22.7212 45.5222C21.5526 44.7701 19.9375 43.572 18.857 42.421C18.3067 41.8347 17.9621 41.33 17.8372 40.9538C17.7782 40.7763 17.7847 40.6759 17.7968 40.6275C17.8055 40.5928 17.8281 40.5334 17.9383 40.4533L17.056 39.2402ZM26.0685 36.2623C27.2114 35.9418 28.3813 35.441 29.3234 34.8899C29.7945 34.6143 30.2243 34.3171 30.5702 34.0117C30.9018 33.719 31.2188 33.3647 31.3753 32.9623L29.9773 32.4186C29.9498 32.4893 29.844 32.6519 29.5774 32.8873C29.325 33.1101 28.981 33.3524 28.5661 33.5952C27.7361 34.0807 26.6848 34.5316 25.6635 34.8179L26.0685 36.2623Z" fill="#B78053"/>
<path d="M28.2803 41.3432C28.8493 41.3432 29.3106 40.8814 29.3106 40.3119C29.3106 39.7423 28.8493 39.2805 28.2803 39.2805C27.7113 39.2805 27.25 39.7423 27.25 40.3119C27.25 40.8814 27.7113 41.3432 28.2803 41.3432Z" fill="#B78053"/>
<path d="M16.5776 32.5501C16.9628 32.7022 17.3985 32.5131 17.5505 32.1278C17.7026 31.7425 17.5136 31.3069 17.1283 31.1548L16.5776 32.5501ZM19.2742 20.2854L19.2232 21.0337C19.6022 21.0595 19.9407 20.7978 20.0112 20.4245L19.2742 20.2854ZM31.3746 21.9661H30.6246C30.6246 22.291 30.8338 22.5789 31.1428 22.6793L31.3746 21.9661ZM30.7162 31.7617C30.3122 31.8529 30.0586 32.2544 30.1498 32.6585C30.241 33.0625 30.6425 33.3161 31.0466 33.2249L30.7162 31.7617ZM17.1283 31.1548C15.961 30.6941 13.7377 28.921 14.3015 25.2161L12.8186 24.9904C12.1275 29.5318 14.9065 31.8905 16.5776 32.5501L17.1283 31.1548ZM14.3015 25.2161C14.5815 23.3765 15.4688 22.3348 16.4287 21.7452C17.4196 21.1366 18.5307 20.9865 19.2232 21.0337L19.3252 19.5372C18.3744 19.4723 16.9422 19.6695 15.6437 20.4671C14.3142 21.2836 13.1661 22.7068 12.8186 24.9904L14.3015 25.2161ZM20.0112 20.4245C20.1777 19.5417 20.6798 18.2544 21.6099 17.2989C22.5067 16.3775 23.8188 15.7387 25.7491 16.0933L26.0201 14.618C23.5584 14.1658 21.752 15.0023 20.535 16.2526C19.3512 17.4688 18.7441 19.0498 18.5372 20.1464L20.0112 20.4245ZM25.7491 16.0933C27.7164 16.4546 28.9166 17.5015 29.6405 18.6604C30.3795 19.8435 30.6246 21.1526 30.6246 21.9661H32.1246C32.1246 20.9122 31.8207 19.3194 30.9127 17.8658C29.9897 16.388 28.4448 15.0633 26.0201 14.618L25.7491 16.0933ZM31.1428 22.6793C31.8622 22.9131 32.7454 23.2655 33.4488 23.9324C34.1257 24.5742 34.6847 25.5533 34.6847 27.1585H36.1847C36.1847 25.1473 35.4606 23.7729 34.4809 22.844C33.5277 21.9402 32.3809 21.5045 31.6065 21.2528L31.1428 22.6793ZM34.6847 27.1585C34.6847 28.7107 34.0011 29.7746 33.1599 30.504C32.2984 31.2511 31.2803 31.6343 30.7162 31.7617L31.0466 33.2249C31.7978 33.0552 33.0563 32.5793 34.1426 31.6373C35.2493 30.6776 36.1847 29.2226 36.1847 27.1585H34.6847Z" fill="#B78053"/>
<defs>
<filter id="filter0_bi_189_1470" x="-6" y="-6" width="60" height="60.0469" filterUnits="userSpaceOnUse" color-interpolation-filters="sRGB">
<feFlood flood-opacity="0" result="BackgroundImageFix"/>
<feGaussianBlur in="BackgroundImage" stdDeviation="3"/>
<feComposite in2="SourceAlpha" operator="in" result="effect1_backgroundBlur_189_1470"/>
<feBlend mode="normal" in="SourceGraphic" in2="effect1_backgroundBlur_189_1470" result="shape"/>
<feColorMatrix in="SourceAlpha" type="matrix" values="0 0 0 0 0 0 0 0 0 0 0 0 0 0 0 0 0 0 127 0" result="hardAlpha"/>
<feOffset dx="4" dy="3"/>
<feGaussianBlur stdDeviation="2"/>
<feComposite in2="hardAlpha" operator="arithmetic" k2="-1" k3="1"/>
<feColorMatrix type="matrix" values="0 0 0 0 0 0 0 0 0 0 0 0 0 0 0 0 0 0 0.06 0"/>
<feBlend mode="normal" in2="shape" result="effect2_innerShadow_189_1470"/>
</filter>
</defs>
</svg>
