<svg width="20" height="20" viewBox="0 0 20 20" fill="none" xmlns="http://www.w3.org/2000/svg">
<mask id="path-1-outside-1_613_3348" maskUnits="userSpaceOnUse" x="0.767577" y="0.792969" width="14" height="18" fill="black">
<rect fill="white" x="0.767577" y="0.792969" width="14" height="18"/>
<path d="M13.7676 4.70795L11.1842 2.70795C10.8509 2.37462 10.1009 2.20795 9.60091 2.20795L6.43424 2.20795C5.43424 2.20795 4.35091 2.95795 4.10091 3.95795L2.10091 10.0413C1.68425 11.208 2.43425 12.208 3.68424 12.208L7.01758 12.208C7.51758 12.208 7.93424 12.6246 7.85091 13.208L7.43425 15.8746C7.26758 16.6246 7.76758 17.458 8.51758 17.708C9.18425 17.958 10.0176 17.6246 10.3509 17.1246L13.7676 12.0413"/>
</mask>
<path d="M13.7676 4.70795L11.1842 2.70795C10.8509 2.37462 10.1009 2.20795 9.60091 2.20795L6.43424 2.20795C5.43424 2.20795 4.35091 2.95795 4.10091 3.95795L2.10091 10.0413C1.68425 11.208 2.43425 12.208 3.68424 12.208L7.01758 12.208C7.51758 12.208 7.93424 12.6246 7.85091 13.208L7.43425 15.8746C7.26758 16.6246 7.76758 17.458 8.51758 17.708C9.18425 17.958 10.0176 17.6246 10.3509 17.1246L13.7676 12.0413" fill="#555555"/>
<path d="M11.1842 2.70795L10.4771 3.41506L10.522 3.45988L10.5721 3.49868L11.1842 2.70795ZM4.10091 3.95795L5.05089 4.27028L5.06224 4.23575L5.07105 4.20049L4.10091 3.95795ZM2.10091 10.0413L3.04265 10.3776L3.04692 10.3657L3.05089 10.3536L2.10091 10.0413ZM7.85091 13.208L8.83901 13.3623L8.84086 13.3494L7.85091 13.208ZM7.43425 15.8746L8.41043 16.0916L8.41734 16.0605L8.42226 16.029L7.43425 15.8746ZM8.51758 17.708L8.8687 16.7716L8.85137 16.7651L8.83381 16.7593L8.51758 17.708ZM10.3509 17.1246L9.52095 16.5668L9.51886 16.5699L10.3509 17.1246ZM14.3797 3.91723L11.7964 1.91723L10.5721 3.49868L13.1554 5.49868L14.3797 3.91723ZM11.8914 2.00085C11.5469 1.65638 11.0827 1.47227 10.7298 1.37143C10.3524 1.2636 9.94749 1.20795 9.60091 1.20795L9.60091 3.20795C9.75433 3.20795 9.97444 3.23564 10.1804 3.29448C10.2805 3.32309 10.3611 3.35452 10.4193 3.38363C10.4812 3.41457 10.4921 3.43005 10.4771 3.41506L11.8914 2.00085ZM9.60091 1.20795L6.43424 1.20795L6.43424 3.20795L9.60091 3.20795L9.60091 1.20795ZM6.43424 1.20795C5.69456 1.20795 4.97078 1.48022 4.39582 1.90092C3.82014 2.32215 3.32342 2.9448 3.13077 3.71542L5.07105 4.20049C5.1284 3.9711 5.29835 3.71876 5.57684 3.51498C5.85604 3.31069 6.17393 3.20795 6.43424 3.20795L6.43424 1.20795ZM3.15093 3.64563L1.15094 9.72897L3.05089 10.3536L5.05089 4.27028L3.15093 3.64563ZM1.15917 9.70495C0.852144 10.5646 0.951322 11.4615 1.46252 12.1553C1.96902 12.8427 2.78869 13.208 3.68425 13.208L3.68424 11.208C3.3298 11.208 3.14947 11.0732 3.07263 10.9689C3.0005 10.871 2.93301 10.6846 3.04265 10.3776L1.15917 9.70495ZM3.68425 13.208L7.01758 13.208L7.01758 11.208L3.68424 11.208L3.68425 13.208ZM7.01758 13.208C6.98738 13.208 6.94113 13.1939 6.90316 13.1508C6.88436 13.1295 6.87202 13.1058 6.86583 13.0844C6.85949 13.0626 6.8627 13.0544 6.86096 13.0665L8.84086 13.3494C9.0127 12.1465 8.10871 11.208 7.01758 11.208L7.01758 13.208ZM6.8629 13.0536L6.44623 15.7202L8.42226 16.029L8.83892 13.3623L6.8629 13.0536ZM6.45806 15.6577C6.17229 16.9437 7.00073 18.2564 8.20135 18.6566L8.83381 16.7593C8.53443 16.6595 8.36287 16.3056 8.41043 16.0916L6.45806 15.6577ZM8.16646 18.6443C8.76249 18.8678 9.38183 18.816 9.88433 18.6432C10.3801 18.4728 10.8708 18.1475 11.183 17.6793L9.51886 16.5699C9.49768 16.6017 9.40506 16.6931 9.23417 16.7519C9.07 16.8083 8.93933 16.7981 8.8687 16.7716L8.16646 18.6443ZM11.1809 17.6825L14.5975 12.5991L12.9376 11.4835L9.52096 16.5668L11.1809 17.6825Z" fill="white" mask="url(#path-1-outside-1_613_3348)"/>
<path d="M18.5176 12.8747L18.5176 4.70801C18.5176 4.06833 18.3826 3.50069 17.9609 3.11144C17.549 2.73126 16.9726 2.62467 16.3509 2.62467L15.5176 2.62468C14.8959 2.62468 14.3195 2.73126 13.9076 3.11144C13.4859 3.50069 13.3509 4.06833 13.3509 4.70801L13.3509 12.8747C13.3509 13.5143 13.4859 14.082 13.9076 14.4712C14.3195 14.8514 14.8959 14.958 15.5176 14.958L16.3509 14.958C16.9726 14.958 17.549 14.8514 17.9609 14.4712C18.3826 14.082 18.5176 13.5143 18.5176 12.8747Z" fill="#555555" stroke="white" stroke-linecap="round" stroke-linejoin="round"/>
</svg>
