<svg width="20" height="18" viewBox="0 0 20 18" fill="none" xmlns="http://www.w3.org/2000/svg">
<path d="M1.3086 17.5023C1.3086 17.5023 3.42491 17.5044 5.18513 17.5063C8.67113 17.5102 14.095 17.5138 15.46 17.5005C16.1332 17.494 16.6618 17.0204 16.6744 16.3614C16.687 15.7024 16.5596 15.5914 16.2759 15.099C16.7338 14.9971 17.2498 14.5744 17.3654 13.9683C17.4728 13.4052 17.3083 12.9226 16.9098 12.5016C18.2109 12.1582 18.452 10.9865 17.4917 9.88745C18.4443 9.69441 18.884 9.16788 18.7993 8.32166C18.7176 7.50569 18.1964 7.1174 17.1848 7.11766C15.888 7.11799 14.0709 7.11782 12.7741 7.11748C12.0503 7.1173 11.8277 7.08175 11.942 6.37794C12.1386 5.16656 12.4946 3.90423 11.9847 2.76072C11.56 1.8085 11.0567 1.2335 10.1802 0.955553C9.561 0.818691 9.1946 1.10287 9.14146 1.73674C9.12817 1.89521 9.13093 2.0589 9.1545 2.21597C9.30534 4.69624 7.86389 6.02649 7.50612 6.31684C7.4542 6.35897 7.40152 6.39977 7.35082 6.44336L4.87761 8.56977L3.13684 10.3105C2.94561 10.5018 2.68624 10.6092 2.41579 10.6092L1.30859 10.6092M13.2425 7.11587L10.5472 7.11587" stroke="#808080" stroke-width="0.96" stroke-linecap="round" stroke-linejoin="round"/>
</svg>
