<svg width="69" height="18" viewBox="0 0 69 18" fill="none" xmlns="http://www.w3.org/2000/svg">
<g filter="url(#filter0_b_96_108)">
<path d="M0 0H69V18H0L6.41676 9L0 0Z" fill="white"/>
</g>
<path d="M12.656 12V6.416H13.712V11.064H15.912V12H12.656ZM19.1559 12V11.152H19.8919V7.264H19.1559V6.416H21.6919V7.264H20.9479V11.152H21.6919V12H19.1559ZM29.5467 7.992H29.5147L29.0827 8.88L27.9387 10.992L26.7947 8.88L26.3627 7.992H26.3307V12H25.3307V6.416H26.5227L27.9547 9.144H27.9867L29.4027 6.416H30.5467V12H29.5467V7.992ZM34.1899 12V11.152H34.9259V7.264H34.1899V6.416H36.7259V7.264H35.9819V11.152H36.7259V12H34.1899ZM42.5177 7.352V12H41.4617V7.352H39.8777V6.416H44.1017V7.352H42.5177ZM47.5263 12V6.416H51.2063V7.352H48.5823V8.704H50.9023V9.64H48.5823V11.064H51.2063V12H47.5263ZM54.8832 6.416H56.9152C57.2779 6.416 57.6059 6.47467 57.8992 6.592C58.1979 6.70933 58.4512 6.88533 58.6592 7.12C58.8725 7.34933 59.0352 7.64 59.1472 7.992C59.2645 8.33867 59.3232 8.744 59.3232 9.208C59.3232 9.672 59.2645 10.08 59.1472 10.432C59.0352 10.7787 58.8725 11.0693 58.6592 11.304C58.4512 11.5333 58.1979 11.7067 57.8992 11.824C57.6059 11.9413 57.2779 12 56.9152 12H54.8832V6.416ZM56.9152 11.064C57.3099 11.064 57.6219 10.9493 57.8512 10.72C58.0859 10.4853 58.2032 10.128 58.2032 9.648V8.768C58.2032 8.288 58.0859 7.93333 57.8512 7.704C57.6219 7.46933 57.3099 7.352 56.9152 7.352H55.9392V11.064H56.9152Z" fill="#E6116D"/>
<defs>
<filter id="filter0_b_96_108" x="-7.28571" y="-7.28571" width="83.5714" height="32.5714" filterUnits="userSpaceOnUse" color-interpolation-filters="sRGB">
<feFlood flood-opacity="0" result="BackgroundImageFix"/>
<feGaussianBlur in="BackgroundImage" stdDeviation="3.64286"/>
<feComposite in2="SourceAlpha" operator="in" result="effect1_backgroundBlur_96_108"/>
<feBlend mode="normal" in="SourceGraphic" in2="effect1_backgroundBlur_96_108" result="shape"/>
</filter>
</defs>
</svg>
