<svg width="18" height="18" viewBox="0 0 18 18" fill="none" xmlns="http://www.w3.org/2000/svg">
<path d="M4.23708 7.01172V3.95447C4.23708 2.32276 5.55985 1 7.19156 1V1C8.82327 1 10.146 2.32276 10.146 3.95448V7.01172M13.8456 8.03945H14.7447C16.0075 8.03945 17.0312 9.06316 17.0312 10.326V10.326C17.0312 11.5888 16.0075 12.6125 14.7447 12.6125H7.42278M7.42278 12.6125L9.27254 10.6599M7.42278 12.6125L9.27254 14.4622M12.9464 10.7883L12.4877 6.13334C12.4418 5.66793 12.0504 5.3132 11.5828 5.3132H2.81329C2.34024 5.3132 1.9462 5.6759 1.90709 6.14734L1.16333 15.1135C1.0754 16.1736 1.91203 17.0825 2.97573 17.0825H11.5047C12.5704 17.0825 13.4077 16.1703 13.3167 15.1085L13.2162 13.9354" stroke="#808080" stroke-width="1.02525" stroke-linecap="round" stroke-linejoin="round"/>
</svg>
