<svg width="26" height="15" viewBox="0 0 26 15" fill="none" xmlns="http://www.w3.org/2000/svg">
<path d="M19.2345 8.50323H23.1472M5.45485 12.0046H8.2317M23.1472 8.50323V8.50323C24.1016 8.50323 24.8752 9.2769 24.8752 10.2313V11.096C24.8752 11.5978 24.4685 12.0046 23.9667 12.0046H22.2377M23.1472 8.50323L21.494 4.68802C21.0621 3.69125 20.0795 3.04615 18.9932 3.04615H16.4625M16.4625 12.0046V2.81702C16.4625 1.81351 15.649 1 14.6455 1H7.27187C6.26836 1 5.45485 1.81351 5.45485 2.81702V3.04615M16.4625 12.0046H19.3501M16.4625 12.0046H11.3239M6.41466 5.38762H0.998362M8.2317 8.50323H2.8154" stroke="#808080" stroke-width="1.03077" stroke-linecap="round" stroke-linejoin="round"/>
<circle r="1.45509" transform="matrix(-1 0 0 1 20.7143 12.3682)" stroke="#808080" stroke-width="1.03077" stroke-linecap="round" stroke-linejoin="round"/>
<circle r="1.45509" transform="matrix(-1 0 0 1 9.75439 12.3682)" stroke="#808080" stroke-width="1.03077" stroke-linecap="round" stroke-linejoin="round"/>
</svg>
