<svg width="12" height="18" viewBox="0 0 12 18" fill="none" xmlns="http://www.w3.org/2000/svg">
<path d="M1.50781 0.7625H0.457813V2.8625H1.50781V0.7625ZM1.50781 9.77639V8.72639C1.01494 8.72639 0.588399 9.06921 0.482388 9.55055C0.376377 10.0319 0.61943 10.5222 1.0667 10.7292L1.50781 9.77639ZM2.55839 11.4608L1.50864 11.4378H1.50864L2.55839 11.4608ZM2.53452 12.5496L3.58427 12.5726L2.53452 12.5496ZM7.02976 17.8625H8.07976V15.7625H7.02976V17.8625ZM1.50781 2.8625H4.8261V0.7625H1.50781V2.8625ZM4.8261 2.8625C6.29296 2.8625 7.56843 4.12631 7.56843 5.79445H9.66843C9.66843 3.06424 7.54813 0.7625 4.8261 0.7625V2.8625ZM7.56843 5.79445C7.56843 7.46258 6.29296 8.72639 4.8261 8.72639V10.8264C7.54813 10.8264 9.66843 8.52465 9.66843 5.79445H7.56843ZM4.8261 8.72639H1.50781V10.8264H4.8261V8.72639ZM1.50864 11.4378L1.48478 12.5266L3.58427 12.5726L3.60814 11.4839L1.50864 11.4378ZM6.70497 17.8625H7.02976V15.7625H6.70497V17.8625ZM1.0667 10.7292C1.34178 10.8566 1.51529 11.1348 1.50864 11.4378L3.60814 11.4839C3.63308 10.3461 2.98166 9.30163 1.94892 8.82354L1.0667 10.7292ZM1.48478 12.5266C1.4206 15.4544 3.77645 17.8625 6.70497 17.8625V15.7625C4.95427 15.7625 3.54591 14.3229 3.58427 12.5726L1.48478 12.5266Z" fill="#623C21"/>
<path fill-rule="evenodd" clip-rule="evenodd" d="M1.50781 5.54688H10.3961H1.50781Z" fill="#623C21"/>
<path d="M1.50781 4.49688H0.457813V6.59687H1.50781V4.49688ZM10.3961 6.59687H11.4461V4.49688H10.3961V6.59687ZM1.50781 6.59687H10.3961V4.49688H1.50781V6.59687Z" fill="#623C21"/>
</svg>
