<svg width="41" height="33" viewBox="0 0 41 33" fill="none" xmlns="http://www.w3.org/2000/svg">
<path d="M5.39387 17.3909C1.03325 18.1304 -0.160947 22.2843 1.54769 25.2203C3.25633 28.1563 23.0277 33.5389 26.6891 31.5816C30.8386 29.3633 40.4 20.1724 40.4 17.3909C40.4 12.0027 34.9882 10.7849 30.8386 9.80599C28.5119 9.25709 23.619 8.23634 20.5127 7.59764M5.39387 17.3909C4.26334 17.104 2.05074 16.1901 2.24454 14.8302C2.4062 13.696 9.84949 10.3708 15.304 8.1716M5.39387 17.3909C11.2888 18.5609 23.3209 21.0223 24.2899 21.508M24.2899 21.508C25.5012 22.1151 25.7435 27.2145 21.504 26.7288C18.1124 26.3403 9.91601 24.2196 6.24178 23.2078M24.2899 21.508C24.7185 21.6294 25.7983 21.6051 26.6891 20.5367M20.5127 7.59764C21.4414 7.24996 24.2899 6.17049 24.2899 3.83591C24.2899 0.917685 19.8932 1.57492 20.5127 7.59764ZM20.5127 7.59764C20.6944 9.36427 18.8904 10.9671 17.1663 11.6746M20.5127 7.59764C19.9961 5.13741 19.6267 0.177998 17.1663 0.864638C14.0908 1.72294 18.831 7.59764 20.5127 7.59764ZM20.5127 7.59764C21.8482 8.85659 21.8981 13.2055 19.7157 14.8302" stroke="#B78053" stroke-linecap="round" stroke-linejoin="round"/>
</svg>
