<svg width="24" height="24" viewBox="0 0 24 24" fill="none" xmlns="http://www.w3.org/2000/svg">
    <path d="M0.333172 11.9998C0.333172 10.3859 0.639617 8.86924 1.25251 7.4498C1.86462 6.03035 2.69567 4.79563 3.74567 3.74563C4.79567 2.69563 6.03039 1.86457 7.44984 1.25246C8.86928 0.639574 10.3859 0.33313 11.9998 0.33313C13.6137 0.33313 15.1304 0.639574 16.5498 1.25246C17.9693 1.86457 19.204 2.69563 20.254 3.74563C21.304 4.79563 22.1354 6.03035 22.7483 7.4498C23.3604 8.86924 23.6665 10.3859 23.6665 11.9998C23.6665 13.6137 23.3604 15.1304 22.7483 16.5498C22.1354 17.9692 21.304 19.204 20.254 20.254C19.204 21.304 17.9693 22.135 16.5498 22.7471C15.1304 23.36 13.6137 23.6665 11.9998 23.6665C10.3859 23.6665 8.86928 23.36 7.44984 22.7471C6.03039 22.135 4.79567 21.304 3.74567 20.254C2.69567 19.204 1.86462 17.9692 1.25251 16.5498C0.639617 15.1304 0.333172 13.6137 0.333172 11.9998Z" fill="#B78053"/>
    <path d="M13.1598 16.1861L9.20003 12.2263L13.1598 8.26652" stroke="white" stroke-width="0.933333"/>
</svg>
