<?xml version="1.0" standalone="no"?>
<!DOCTYPE svg PUBLIC "-//W3C//DTD SVG 1.1//EN" "http://www.w3.org/Graphics/SVG/1.1/DTD/svg11.dtd" >
<svg xmlns="http://www.w3.org/2000/svg" xmlns:xlink="http://www.w3.org/1999/xlink" version="1.1">
<metadata></metadata>
<defs>
<font id="brightgrotesk-boouploadedfile" horiz-adv-x="1472" >
<font-face units-per-em="2048" ascent="1591" descent="-457" />
<missing-glyph horiz-adv-x="614" />
<glyph unicode="&#xfb01;" horiz-adv-x="1095" d="M31 918v147h155v129q0 178 109 281q108 102 321 102q202 0 338 -107l-71 -131q-124 91 -265 91q-268 0 -268 -248v-117h623v-1065h-164v918h-459v-918h-164v918h-155z" />
<glyph unicode="&#xfb02;" horiz-adv-x="1196" d="M31 918v147h155v117q0 72 22 143q21 69 67 126q45 57 129 92q81 34 196 34q214 1 306 -113q91 -113 91 -282v-994q0 -41 28 -53q27 -12 62 6l39 -141q-39 -20 -125 -20q-167 0 -167 165v1037q0 122 -66 185t-174 63q-111 0 -177 -63q-67 -64 -67 -185v-117h307v-147h-307 v-918h-164v918h-155z" />
<glyph horiz-adv-x="0" />
<glyph unicode="&#xd;" horiz-adv-x="681" />
<glyph unicode=" "  horiz-adv-x="614" />
<glyph unicode="&#x09;" horiz-adv-x="614" />
<glyph unicode="&#xa0;" horiz-adv-x="614" />
<glyph unicode="!" horiz-adv-x="399" d="M119 0v190h164v-190h-164zM119 1434h164l-23 -1055h-119z" />
<glyph unicode="&#x22;" horiz-adv-x="692" d="M123 942v614h170l-66 -614h-104zM440 942v614h170l-65 -614h-105z" />
<glyph unicode="#" horiz-adv-x="1298" d="M51 408v133h279l61 356h-256v133h279l69 404h146l-68 -404h283l69 404h148l-70 -404h256v-133h-278l-62 -356h256v-133h-278l-70 -408h-147l69 408h-280l-70 -408h-149l69 408h-256zM479 541h281l61 356h-282z" />
<glyph unicode="$" horiz-adv-x="1171" d="M61 475l150 60q17 -175 101 -276q85 -102 218 -124v531q-95 24 -163 51q-78 31 -138 69q-69 43 -105 110q-36 66 -36 155q0 164 123 278q124 115 319 125v102h134v-110q175 -28 282 -152q107 -123 117 -301l-150 -53q-17 291 -249 354v-506q95 -23 159 -49 q70 -28 133 -71q65 -44 100 -113q34 -67 34 -158q0 -169 -119 -283t-307 -132v-105h-134v107q-200 22 -330 157q-132 136 -139 334zM252 1061q0 -101 72 -154q75 -54 206 -88v488q-123 -7 -201 -75q-77 -66 -77 -171zM664 133q119 15 190 85q72 71 72 175q0 100 -67 155 q-66 54 -195 87v-502z" />
<glyph unicode="%" horiz-adv-x="1601" d="M72 1104q0 149 95 250q94 100 243 100q148 0 243 -99q95 -100 95 -251q0 -153 -95 -254q-94 -100 -243 -100t-243 100q-95 101 -95 254zM190 1104q0 -104 59 -172t161 -68q101 0 160 68t59 172q0 102 -59 170q-58 67 -160 67t-161 -66q-59 -67 -59 -171zM301 0l868 1434 h134l-869 -1434h-133zM854 332q0 150 96 250t242 100q150 0 244 -100t94 -250q0 -152 -94 -252t-244 -100q-149 0 -243 100q-95 101 -95 252zM973 332q0 -104 59 -170q60 -68 160 -68q102 0 162 68q59 66 59 170t-59 170q-60 67 -162 67q-100 0 -160 -67q-59 -66 -59 -170z " />
<glyph unicode="&#x26;" horiz-adv-x="1470" d="M41 453q0 141 78 244q79 105 217 157q-168 84 -168 266q0 137 110 236q108 98 277 98q154 0 249 -77q96 -78 120 -203l-142 -54q-16 90 -70 144q-57 57 -157 57q-101 0 -162 -57t-61 -144q0 -90 67 -154q68 -65 224 -65v-119q-191 0 -304 -91q-114 -91 -114 -238 q0 -163 116 -252q115 -88 277 -88q169 0 270 73q103 74 103 183q0 89 -66 133q-65 43 -157 43h-123l34 133h443q90 0 144 39t54 112q0 59 -36 91t-90 32q-88 0 -125 -63l-68 76q10 36 73 78t144 42q117 0 184 -68q68 -70 68 -186q0 -139 -93 -213q-92 -73 -251 -73h-37 q66 -66 66 -168q0 -161 -151 -280q-148 -117 -386 -117q-230 0 -393 124q-164 125 -164 349z" />
<glyph unicode="'" horiz-adv-x="374" d="M123 942v614h170l-66 -614h-104z" />
<glyph unicode="(" horiz-adv-x="636" d="M143 635q0 534 369 921l113 -88q-332 -349 -332 -833q0 -480 334 -836l-115 -86q-369 387 -369 922z" />
<glyph unicode=")" horiz-adv-x="636" d="M10 -201q336 359 336 836q0 484 -334 833l113 88q369 -387 369 -921q0 -535 -369 -922z" />
<glyph unicode="*" horiz-adv-x="892" d="M92 973q129 74 295 141q-170 69 -295 143l53 95q114 -65 273 -185q-27 178 -27 328h111q0 -149 -27 -328q169 127 273 185l53 -95q-125 -74 -295 -143q166 -67 295 -141l-53 -94q-111 61 -273 186q27 -183 27 -328h-111q0 145 27 328q-149 -115 -273 -186z" />
<glyph unicode="+" horiz-adv-x="1232" d="M92 571v131h459v465h133v-465h457v-131h-457v-469h-133v469h-459z" />
<glyph unicode="," horiz-adv-x="411" d="M104 0v215h205v-215q0 -193 -149 -242l-43 80q92 38 88 162h-101z" />
<glyph unicode="-" horiz-adv-x="749" d="M139 561v148h471v-148h-471z" />
<glyph unicode="." horiz-adv-x="409" d="M102 0v221h205v-221h-205z" />
<glyph unicode="/" horiz-adv-x="1044" d="M111 -287l673 1843h150l-674 -1843h-149z" />
<glyph unicode="0" horiz-adv-x="1302" d="M102 717q0 353 142 546q140 191 405 191q267 0 409 -191t142 -546t-142 -546t-409 -191q-265 0 -405 191q-142 193 -142 546zM266 717q0 -299 92 -444q92 -144 291 -144q201 0 293 144q92 145 92 444q0 300 -92 445t-293 145q-199 0 -291 -146t-92 -444z" />
<glyph unicode="1" horiz-adv-x="684" d="M41 1053v196l254 185h164v-1434h-164v1237z" />
<glyph unicode="2" horiz-adv-x="1138" d="M61 1077q33 159 159 268q125 109 323 109q206 0 331 -125t125 -330t-163 -410q-161 -202 -492 -433h674v-156h-948v156q386 247 575 450q191 206 191 393q0 147 -76 227q-76 81 -217 81q-129 0 -219 -84q-91 -85 -115 -211z" />
<glyph unicode="3" horiz-adv-x="1083" d="M0 340l141 63q79 -274 344 -274q135 0 224 71q88 70 88 189q0 258 -439 258v150q221 0 316 68q96 69 96 204q0 92 -70 165t-202 73q-135 0 -223 -88t-109 -209l-146 67q27 148 152 262q126 115 326 115q198 0 318 -115q118 -114 118 -270q0 -256 -254 -346 q281 -84 281 -334q0 -190 -142 -300q-140 -109 -334 -109q-183 0 -313 94q-132 96 -172 266z" />
<glyph unicode="4" horiz-adv-x="1157" d="M31 383v147l702 904h164v-904h209v-147h-209v-383h-164v383h-702zM233 530h500v644z" />
<glyph unicode="5" horiz-adv-x="1071" d="M31 352l145 56q15 -105 102 -192t230 -87q145 0 236 103q92 104 92 255t-95 248q-95 96 -245 96q-130 0 -210 -62q-83 -65 -106 -138l-139 16l82 787h788v-148h-655l-41 -391q125 86 295 86q232 0 360 -143q129 -144 129 -351t-138 -357t-353 -150q-116 0 -203 35 q-89 36 -144 95q-56 60 -86 118q-32 61 -44 124z" />
<glyph unicode="6" horiz-adv-x="1204" d="M113 731q0 166 34 293q34 126 91 208q55 78 130 131t147 72q70 19 151 19q94 0 173 -28q76 -27 125 -74q45 -44 74 -87q28 -41 45 -85l-129 -50q-83 183 -288 183q-80 0 -150 -29t-133 -92q-63 -62 -100 -181q-37 -117 -37 -280v-6q62 111 166 174q107 64 233 64 q200 0 333 -144q134 -145 134 -350t-135 -347t-334 -142q-243 0 -386 185q-144 186 -144 566zM330 469q0 -152 91 -250t224 -98t226 99q94 100 94 249q0 152 -93 253q-92 99 -227 99q-133 0 -224 -99q-91 -98 -91 -253z" />
<glyph unicode="7" horiz-adv-x="1069" d="M51 1286v148h936v-148q-211 -252 -320 -597q-108 -343 -108 -689h-164q0 345 107 690t319 596h-770z" />
<glyph unicode="8" horiz-adv-x="1146" d="M102 408q0 118 68 222q66 102 182 158q-85 46 -134 127q-48 79 -48 179q0 156 111 258t290 102q182 0 293 -102t111 -258q0 -96 -48 -176q-49 -81 -134 -127q114 -56 183 -160q68 -103 68 -223q0 -191 -134 -310q-133 -118 -337 -118q-203 0 -336 118q-135 120 -135 310z M266 432q0 -129 89 -216t218 -87q131 0 219 87q89 87 89 216q0 120 -84 208q-84 89 -224 89q-139 0 -223 -89q-84 -88 -84 -208zM334 1081q0 -96 67 -162q69 -67 170 -67t171 67q69 66 69 162q0 101 -66 164q-67 64 -174 64q-104 0 -171 -65q-66 -64 -66 -163z" />
<glyph unicode="9" horiz-adv-x="1163" d="M51 965q0 204 134 347q133 142 333 142h6q242 0 384 -185q143 -187 143 -567q0 -200 -52 -351q-51 -149 -136 -225q-88 -79 -175 -112q-89 -34 -188 -34q-96 0 -174 27q-76 26 -126 75q-48 46 -75 87t-45 85l129 51q88 -184 291 -184q79 0 149 29q68 28 132 92 q63 62 100 181q37 117 37 279v7q-62 -111 -166 -174q-107 -64 -234 -64q-200 0 -333 143q-134 145 -134 351zM201 965q0 -153 92 -253t225 -100t225 100q93 101 93 253q0 148 -93 249q-91 99 -225 99t-225 -99q-92 -100 -92 -249z" />
<glyph unicode=":" horiz-adv-x="399" d="M98 0v225h205v-225h-205zM98 840v225h205v-225h-205z" />
<glyph unicode=";" horiz-adv-x="380" d="M82 840v225h205v-225h-205zM90 0v215h205v-215q0 -192 -152 -242l-43 80q94 38 90 162h-100z" />
<glyph unicode="&#x3c;" horiz-adv-x="792" d="M92 635l504 504l94 -92l-411 -412l411 -410l-94 -94z" />
<glyph unicode="=" horiz-adv-x="1255" d="M92 346v131h1079v-131h-1079zM92 795v133h1079v-133h-1079z" />
<glyph unicode="&#x3e;" horiz-adv-x="792" d="M100 225l410 410l-410 412l93 92l503 -504l-503 -504z" />
<glyph unicode="?" horiz-adv-x="1079" d="M102 1100q41 176 160 265t297 89q179 0 297 -116q117 -116 117 -283q0 -122 -43 -204q-45 -85 -133 -169q-15 -14 -58 -52q-32 -27 -60 -58q-17 -18 -44 -53q-26 -34 -38 -67q-11 -32 -11 -71h-164q0 61 11 102q13 47 41 87q35 49 47 63t68 65q44 40 64 60q79 78 117 140 q39 65 39 155q0 115 -77 184q-78 70 -185 70q-116 0 -194 -67q-77 -66 -101 -196zM424 0v205h164v-205h-164z" />
<glyph unicode="@" horiz-adv-x="1990" d="M92 532q0 414 254 668t676 254q404 0 636 -215q230 -214 230 -600q0 -594 -418 -594q-198 0 -243 152q-83 -156 -297 -156q-173 0 -278 130q-105 131 -105 349q0 245 110 376q111 132 312 132q169 0 243 -131v115h164v-711q0 -56 31 -87q30 -30 82 -30q108 0 171 118 q62 117 62 333q0 319 -187 494q-188 176 -521 176q-340 0 -545 -211t-205 -559q0 -373 222 -573q223 -200 595 -200q247 0 422 72l41 -147q-216 -76 -463 -76q-457 0 -723 237t-266 684zM705 522q0 -161 73 -249q74 -89 195 -89q96 0 162 57q65 56 77 142v317 q-12 81 -75 133q-62 52 -158 52q-127 0 -201 -92q-73 -91 -73 -271z" />
<glyph unicode="A" horiz-adv-x="1234" d="M20 0l512 1434h170l512 -1434h-163l-148 412h-569l-148 -412h-166zM381 545h475l-238 665z" />
<glyph unicode="B" horiz-adv-x="1294" d="M174 0v1434h547q180 0 300 -99t120 -288q0 -224 -226 -304q287 -84 287 -346q0 -180 -116 -288q-117 -109 -289 -109h-623zM338 133h401q132 0 216 70q83 69 83 194q0 140 -82 210q-83 71 -217 71h-401v-545zM338 811h354q120 0 202 58q83 59 83 178q0 134 -81 194 q-80 59 -204 59h-354v-489z" />
<glyph unicode="C" horiz-adv-x="1359" d="M92 717q0 328 176 533q176 204 467 204q455 0 574 -455l-158 -38q-30 152 -143 249q-114 97 -275 97q-195 0 -337 -157q-140 -155 -140 -433q0 -276 140 -432q141 -158 337 -158q163 0 275 96q113 96 143 250l158 -39q-112 -454 -574 -454q-292 0 -467 203 q-176 205 -176 534z" />
<glyph unicode="D" horiz-adv-x="1351" d="M174 0v1434h459q281 0 454 -187t173 -489v-82q0 -303 -173 -490q-173 -186 -454 -186h-459zM338 150h276q234 0 355 145t127 381v82q0 231 -122 376q-122 144 -360 152h-276v-1136z" />
<glyph unicode="E" horiz-adv-x="1200" d="M174 0v1434h924v-148h-760v-475h668v-147h-668v-514h760v-150h-924z" />
<glyph unicode="F" horiz-adv-x="1159" d="M174 0v1434h924v-156h-760v-467h668v-147h-668v-664h-164z" />
<glyph unicode="G" horiz-adv-x="1443" d="M92 717q0 328 176 533q176 204 467 204q455 0 574 -455l-158 -38q-30 152 -143 249q-114 97 -275 97q-195 0 -337 -157q-140 -155 -140 -433q0 -276 140 -432q141 -158 337 -158q177 0 290 107q114 108 130 274v31h-367v149h523v-688h-125l-13 207q-143 -227 -438 -227 q-291 0 -466 203t-175 534z" />
<glyph unicode="H" horiz-adv-x="1423" d="M174 0v1434h164v-621h747v621h164v-1434h-164v666h-747v-666h-164z" />
<glyph unicode="I" horiz-adv-x="512" d="M174 0v1434h164v-1434h-164z" />
<glyph unicode="J" horiz-adv-x="1101" d="M0 444l154 62q17 -169 96 -274q80 -105 233 -105q112 0 189 68q76 67 104 158q29 93 29 194v887h164v-887q0 -106 -25 -204q-23 -90 -78 -180q-53 -86 -151 -135q-102 -51 -232 -51q-121 0 -214 42q-91 41 -148 112q-55 68 -84 148q-30 82 -37 165z" />
<glyph unicode="K" horiz-adv-x="1255" d="M174 0v1434h164v-682h76l596 682h198l-661 -754l667 -680h-198l-592 604h-86v-604h-164z" />
<glyph unicode="L" horiz-adv-x="1024" d="M174 0v1434h164v-1284h645v-150h-809z" />
<glyph unicode="M" horiz-adv-x="1699" d="M174 0v1434h164l512 -1235l512 1235h164v-1434h-164v1038l-430 -1038h-164l-430 1038v-1038h-164z" />
<glyph unicode="N" d="M174 0v1434h166l795 -1188v1188h163v-1434h-165l-795 1188v-1188h-164z" />
<glyph unicode="O" d="M92 717q0 327 178 532t467 205t466 -205t177 -532q0 -330 -177 -534q-176 -203 -466 -203q-289 0 -467 203t-178 534zM242 717q0 -251 139 -423q140 -173 356 -173q221 0 357 172q137 173 137 424q0 249 -137 422q-136 172 -357 172q-217 0 -356 -172t-139 -422z" />
<glyph unicode="P" horiz-adv-x="1206" d="M174 0v1434h565q168 0 287 -131t119 -320q0 -185 -118 -306q-119 -122 -288 -122h-401v-555h-164zM338 705h342q139 0 220 72t81 206q0 149 -80 226t-221 77h-342v-581z" />
<glyph unicode="Q" horiz-adv-x="1527" d="M92 717q0 327 177 532t466 205t467 -205t178 -532q0 -389 -239 -594q38 3 73 3q152 0 222 -65l-64 -147q-79 53 -163 73q-85 20 -135 20h-5q-70 -2 -155 -12q-96 -11 -136 -13q-20 -2 -43 -2q-290 0 -466 203q-177 204 -177 534zM242 717q0 -251 138 -423 q138 -173 355 -173q220 0 358 172t138 424q0 249 -138 422q-138 172 -358 172q-217 0 -355 -172q-138 -173 -138 -422z" />
<glyph unicode="R" horiz-adv-x="1263" d="M174 0v1434h596q169 0 288 -122q118 -121 118 -308q0 -137 -66 -231q-66 -95 -176 -138q168 -62 186 -301q12 -166 24 -232t44 -102h-166q-42 59 -57 301q-17 305 -277 305h-350v-606h-164zM338 756h373q301 0 301 248q0 282 -301 282h-373v-530z" />
<glyph unicode="S" horiz-adv-x="1212" d="M61 475l150 60q18 -197 131 -302q111 -104 285 -104q149 0 244 74q96 75 96 190q0 109 -81 163t-239 87q-107 23 -159 37q-66 18 -145 50q-86 35 -133 73q-49 39 -84 103q-36 65 -36 145q0 171 137 287t357 116q226 0 367 -129q140 -128 151 -332l-150 -53 q-12 184 -115 275q-104 92 -262 92q-140 0 -231 -68q-90 -67 -90 -178q0 -51 24 -91q24 -41 55 -66q32 -26 94 -48q59 -21 109 -34q27 -7 128 -29q92 -21 174 -49q74 -26 145 -70q72 -45 110 -115q37 -68 37 -162q0 -184 -144 -301q-143 -116 -363 -116q-240 0 -395 139 q-157 140 -167 356z" />
<glyph unicode="T" horiz-adv-x="1146" d="M20 1286v148h1106v-148h-471v-1286h-163v1286h-472z" />
<glyph unicode="U" horiz-adv-x="1396" d="M133 549v885h164v-842q0 -226 112 -338q111 -111 289 -111q175 0 287 109q110 107 115 340v842h164v-885q0 -269 -155 -419t-411 -150t-410 150q-155 150 -155 419z" />
<glyph unicode="V" horiz-adv-x="1292" d="M20 1434h166l461 -1217l461 1217h164l-543 -1434h-166z" />
<glyph unicode="W" horiz-adv-x="1751" d="M20 1434h164l305 -1158l312 1158h149l312 -1153l305 1153h166l-396 -1434h-149l-311 1159l-314 -1159h-149z" />
<glyph unicode="X" horiz-adv-x="1245" d="M20 0l508 717l-508 717h189l414 -584l411 584h191l-508 -717l508 -717h-191l-411 584l-414 -584h-189z" />
<glyph unicode="Y" horiz-adv-x="1290" d="M20 1434h166l457 -744h4l457 744h166l-543 -881v-553h-164v553z" />
<glyph unicode="Z" horiz-adv-x="1058" d="M41 0v150l790 1136h-772v148h957v-148l-797 -1136h799v-150h-977z" />
<glyph unicode="[" horiz-adv-x="630" d="M174 -287v1843h385v-122h-235v-1598h235v-123h-385z" />
<glyph unicode="\" horiz-adv-x="1044" d="M111 1556h149l674 -1843h-150z" />
<glyph unicode="]" horiz-adv-x="630" d="M72 -154h237v1577h-237v133h385v-1843h-385v133z" />
<glyph unicode="^" horiz-adv-x="1105" d="M61 840l410 716h164l409 -716h-163l-328 573l-328 -573h-164z" />
<glyph unicode="_" horiz-adv-x="1105" d="M102 -41h899l3 -149h-902v149z" />
<glyph unicode="`" horiz-adv-x="661" d="M164 1493l137 23q62 -140 197 -275l-58 -53q-85 51 -167 137q-79 83 -109 168z" />
<glyph unicode="a" horiz-adv-x="1085" d="M84 295q0 275 399 319q226 27 314 48q0 276 -265 276q-90 0 -173 -44q-82 -43 -105 -95l-135 65q35 78 145 150q109 71 268 71q124 0 210 -34q85 -34 132 -96q45 -60 66 -128t21 -149v-352q0 -102 15 -154q15 -54 58 -98l-121 -94q-81 59 -104 174q-123 -174 -367 -174 q-150 0 -254 83t-104 232zM248 295q0 -84 64 -133t155 -49q148 0 239 97t91 288v39q-117 -31 -297 -54q-252 -33 -252 -188z" />
<glyph unicode="b" horiz-adv-x="1140" d="M51 74q38 40 55 93q18 56 19 90q2 50 2 144v762q0 209 -33 299l152 33q22 -40 33 -111q9 -61 11 -119q1 -33 1 -175v-138q117 133 299 133q210 0 333 -162q124 -163 124 -388q0 -229 -123 -392t-334 -163q-201 0 -318 157q-27 -102 -98 -157zM291 264q105 -135 278 -135 q160 0 237 116t77 290q0 173 -77 289t-237 116q-170 0 -278 -135v-498v-43z" />
<glyph unicode="c" horiz-adv-x="1089" d="M94 532q0 241 134 398q133 155 364 155q157 0 265 -84q109 -85 161 -225l-152 -51q-84 213 -274 213q-156 0 -245 -112t-89 -294q0 -183 84 -293t240 -110q205 0 284 207l152 -49q-52 -139 -165 -224q-110 -83 -271 -83q-228 0 -358 155t-130 397z" />
<glyph unicode="d" horiz-adv-x="1161" d="M94 535q0 225 124 388q123 162 333 162q182 0 299 -133v211q0 206 -31 299l152 33q19 -34 30 -98q11 -61 12 -111q1 -33 1 -156v-40v-746q0 -114 16 -168q16 -56 60 -102l-123 -94q-77 60 -99 155q-118 -155 -317 -155q-211 0 -334 163t-123 392zM258 535q0 -174 77 -290 t236 -116q170 0 281 135q-2 22 -2 51v492q-108 133 -279 133q-159 0 -236 -116t-77 -289z" />
<glyph unicode="e" horiz-adv-x="1198" d="M86 532q0 237 140 395t378 158q185 0 310 -97q127 -98 170 -238q25 -83 25 -167q0 -61 -13 -122h-844q17 -156 107 -243q92 -89 243 -89q221 0 311 209l146 -53q-122 -305 -465 -305q-235 0 -371 155q-137 157 -137 397zM256 602h688q-6 148 -90 242t-236 94t-246 -91 q-95 -92 -116 -245z" />
<glyph unicode="f" horiz-adv-x="688" d="M31 918v147h155v84q0 157 80 252q79 94 248 94q154 0 254 -82l-72 -125q-76 60 -170 60q-176 0 -176 -193v-90h307l-16 -147h-291v-918h-164v918h-155z" />
<glyph unicode="g" horiz-adv-x="1126" d="M20 -98q0 144 142 235q-70 53 -70 139q0 101 109 154q-127 106 -127 279q0 172 128 274t302 102q158 0 274 -81q65 81 189 81q103 0 159 -38l-63 -138q-51 45 -109 45q-56 0 -90 -34q70 -93 70 -211q0 -177 -129 -280q-128 -103 -301 -103q-101 0 -182 32 q-64 -21 -64 -67q0 -93 299 -105q99 -5 150 -10q61 -6 130 -24q65 -17 110 -49t70 -81q27 -53 27 -124q0 -133 -134 -231q-133 -97 -375 -97q-225 0 -370 92t-145 240zM186 -84q0 -92 96 -153q94 -60 257 -60q149 0 245 51q97 52 97 137q0 103 -148 136q-61 14 -276 26 q-78 6 -160 23q-50 -24 -80 -68q-31 -45 -31 -92zM238 709q0 -109 72 -180q71 -70 194 -70q120 0 191 70q73 71 73 180q0 104 -73 174q-72 69 -191 69q-123 0 -194 -68q-72 -69 -72 -175z" />
<glyph unicode="h" horiz-adv-x="1173" d="M117 1462l151 33q21 -37 31 -98q9 -54 11 -111q1 -33 1 -156v-40v-168q153 163 389 163q336 0 336 -411v-674h-164v659q0 49 -4 80q-5 38 -16 74q-12 39 -35 65q-22 25 -63 43q-38 17 -97 17q-98 0 -194 -41q-94 -40 -152 -109v-788h-164v1163q0 209 -30 299z" />
<glyph unicode="i" horiz-adv-x="407" d="M123 0v1065h164v-1065h-164zM123 1229v246h164v-246h-164z" />
<glyph unicode="j" horiz-adv-x="409" d="M-31 -309q158 33 158 194v1180h164v-1165q0 -271 -289 -310zM127 1229v246h164v-246h-164z" />
<glyph unicode="k" horiz-adv-x="1064" d="M117 1462l151 33q21 -37 31 -98q9 -54 11 -111q1 -33 1 -156v-40v-459h90l406 434h199l-474 -506l527 -559h-201l-450 479h-97v-479h-164v1163q0 209 -30 299z" />
<glyph unicode="l" horiz-adv-x="509" d="M113 1462l151 33q23 -33 33 -103q9 -62 11 -123q1 -35 1 -179v-902q0 -41 29 -53q28 -12 61 6l39 -141q-36 -20 -123 -20q-170 0 -170 165v1018q0 225 -32 299z" />
<glyph unicode="m" horiz-adv-x="1734" d="M53 991l123 94q78 -55 105 -170q141 170 337 170q225 0 291 -194q145 194 359 194q321 0 321 -405v-680h-164v664q0 58 -6 98q-6 44 -25 85q-19 43 -63 67q-43 24 -108 24q-71 0 -153 -42q-84 -43 -136 -108q6 -56 6 -108v-680h-164v664q0 58 -6 98t-26 85q-19 43 -61 67 t-108 24q-67 0 -148 -39q-82 -39 -134 -102v-13v-784h-164v739q0 97 -15 151q-15 53 -61 101z" />
<glyph unicode="n" horiz-adv-x="1159" d="M61 991l123 94q78 -55 105 -174q156 174 397 174q330 0 330 -405v-680h-164v664q0 58 -6 98q-6 42 -27 85q-21 44 -65 67q-45 24 -113 24q-96 0 -189 -39q-96 -40 -151 -104v-13v-782h-164v737q0 99 -15 153q-15 53 -61 101z" />
<glyph unicode="o" horiz-adv-x="1220" d="M94 532q0 238 134 396q133 157 382 157q246 0 382 -157t136 -396q0 -238 -136 -395t-382 -157q-249 0 -382 157q-134 158 -134 395zM252 532q0 -183 95 -296t263 -113t264 113q97 114 97 296q0 183 -97 298q-96 114 -264 114t-263 -114q-95 -115 -95 -298z" />
<glyph unicode="p" horiz-adv-x="1150" d="M61 991l123 94q72 -53 101 -155q118 155 315 155q212 0 334 -162q123 -163 123 -391q0 -226 -123 -390q-122 -162 -334 -162q-185 0 -299 135v-525h-164v1147q0 101 -15 154q-15 52 -61 100zM301 262q108 -133 279 -133q159 0 236 115t77 288q0 174 -77 290t-236 116 q-171 0 -279 -133v-23v-520z" />
<glyph unicode="q" horiz-adv-x="1116" d="M70 532q0 227 124 390t334 163q199 0 316 -153q27 102 100 153l121 -94q-42 -45 -58 -100q-16 -56 -16 -154v-1147h-164v525q-114 -135 -299 -135q-210 0 -334 163t-124 389zM233 532q0 -172 78 -287q78 -116 236 -116q172 0 280 133v520v21q-108 135 -280 135 q-158 0 -236 -116q-78 -115 -78 -290z" />
<glyph unicode="r" horiz-adv-x="788" d="M61 991l123 94q77 -57 101 -159q112 159 301 159q115 0 176 -49l-74 -147q-56 49 -143 49q-124 0 -184 -76t-60 -180v-682h-164v721q0 114 -14 166q-14 53 -62 104z" />
<glyph unicode="s" horiz-adv-x="1001" d="M80 293l139 53q28 -103 115 -169q85 -64 205 -64q99 0 163 50t64 130q0 94 -123 139q-31 13 -158 47q-215 60 -278 99q-115 68 -115 196t115 220q113 91 280 91q173 0 281 -90q109 -91 127 -204l-139 -50q-21 84 -89 147q-68 64 -184 64q-101 0 -165 -47 q-62 -46 -62 -114q0 -27 10 -48t33 -38t45 -30q25 -15 59 -26q57 -18 63 -20q38 -11 70 -20q15 -4 36.5 -9.5t27.5 -7.5q1 0 6.5 -1.5t14.5 -4t19 -5.5t19.5 -5.5t16 -4.5t8.5 -3q21 -6 42 -14q40 -15 45 -18q3 -2 16.5 -9.5t23.5 -13.5q25 -14 40 -29q19 -19 31 -33 q16 -19 26 -43q11 -27 16 -52q6 -29 6 -61q0 -120 -107 -218q-106 -97 -293 -97q-185 0 -301 91t-149 222z" />
<glyph unicode="t" horiz-adv-x="663" d="M23 932v133h159v272l164 35v-307h287l-17 -133h-270v-674q0 -147 143 -147q68 0 111 14l18 -125q-59 -20 -174 -20q-130 0 -195 65q-67 67 -67 188v699h-159z" />
<glyph unicode="u" horiz-adv-x="1177" d="M145 375v690h164v-674q0 -55 6 -95t27 -82t65 -63q46 -22 113 -22q100 0 193 37q94 37 149 100v23v776h164v-731q0 -102 14 -155q14 -55 60 -105l-121 -94q-76 57 -105 172q-150 -172 -399 -172q-330 0 -330 395z" />
<glyph unicode="v" horiz-adv-x="976" d="M20 1065h164l305 -879l304 879h163l-381 -1065h-172z" />
<glyph unicode="w" horiz-adv-x="1482" d="M20 1065h150l240 -866l252 866h159l236 -870l258 870h147l-329 -1065h-156l-238 834l-252 -834h-155z" />
<glyph unicode="x" horiz-adv-x="976" d="M20 0l379 532l-379 533h181l288 -406l289 406h178l-376 -533l376 -532h-178l-289 406l-288 -406h-181z" />
<glyph unicode="y" horiz-adv-x="948" d="M18 1065h164l287 -883l295 883h164q-9 -25 -217 -650q-192 -578 -226 -671q-60 -154 -227 -154h-74v148h52q76 0 114 90l58 172h-43z" />
<glyph unicode="z" horiz-adv-x="903" d="M41 0v150l631 768h-611v147h799v-147l-637 -768h639v-150h-821z" />
<glyph unicode="{" horiz-adv-x="653" d="M92 584v102q104 0 141 48q37 47 37 134v437q0 128 41 190q40 61 144 61h147v-133h-100q-82 0 -82 -118v-387q0 -253 -154 -283q154 -30 154 -283v-387q0 -119 82 -119h100v-133h-147q-103 0 -144 62t-41 190v438q0 181 -178 181z" />
<glyph unicode="|" horiz-adv-x="542" d="M205 -287v1843h133v-1843h-133z" />
<glyph unicode="}" horiz-adv-x="653" d="M51 -154h99q83 0 83 119v387q0 253 154 283q-154 30 -154 283v387q0 118 -83 118h-99v133h148q103 0 143 -61q41 -62 41 -190v-437q0 -87 37 -134q37 -48 141 -48v-102q-178 0 -178 -181v-438q0 -128 -41 -190t-143 -62h-148v133z" />
<glyph unicode="~" horiz-adv-x="1208" d="M96 594q92 176 299 176q105 0 236 -75q129 -74 200 -74q76 0 122 31q44 30 89 89l84 -63q-102 -178 -295 -178q-95 0 -219 73q-125 74 -217 74q-135 0 -211 -123z" />
<glyph unicode="&#xa1;" horiz-adv-x="399" d="M119 -276l22 1056h119l23 -1056h-164zM119 969v188h164v-188h-164z" />
<glyph unicode="&#xa2;" horiz-adv-x="1206" d="M82 563q0 230 127 388q128 160 346 190v200h150v-196q308 -27 430 -324l-160 -55q-84 196 -270 219v-844q192 28 270 215l160 -53q-55 -133 -165 -219q-109 -85 -265 -100v-199h-150v199q-221 29 -347 187q-126 159 -126 392zM256 563q0 -169 77 -281t222 -139v838 q-140 -28 -220 -140q-79 -110 -79 -278z" />
<glyph unicode="&#xa3;" horiz-adv-x="1327" d="M82 657v134h194q-67 146 -67 319q0 201 136 325t353 124q363 0 510 -287l-143 -76q-106 199 -367 199q-148 0 -237 -77q-88 -76 -88 -208q0 -33 5 -71q4 -28 17 -70q10 -30 20 -57q13 -35 27 -63q22 -46 27 -58h469v-134h-424q16 -70 16 -153q0 -167 -100 -301 q88 30 172 30q104 0 210 -47t167 -47q117 0 174 152l154 -60q-99 -256 -328 -256q-81 0 -213 53q-129 52 -213 52q-176 0 -360 -100l-89 137q263 158 263 387q0 72 -31 153h-254z" />
<glyph unicode="&#xa4;" horiz-adv-x="1243" d="M125 197l160 157q-70 102 -70 228q0 121 70 229l-160 160l115 114l159 -159q107 69 230 69q118 0 225 -67l158 157l114 -114l-157 -158q71 -107 71 -231q0 -126 -71 -230l157 -155l-114 -115l-158 156q-103 -68 -225 -68q-130 0 -230 70l-159 -158zM379 582 q0 -103 74 -175q75 -73 176 -73q102 0 175 73t73 175q0 101 -73 176q-72 73 -175 73t-176 -73q-74 -74 -74 -176z" />
<glyph unicode="&#xa5;" horiz-adv-x="1208" d="M20 1434h166l420 -736l418 736h164l-426 -748h328v-133h-404v-147h404v-134h-404v-272h-164v272h-395v134h395v147h-395v133h319z" />
<glyph unicode="&#xa6;" horiz-adv-x="542" d="M205 -287v758h133v-758h-133zM205 799v757h133v-757h-133z" />
<glyph unicode="&#xa7;" horiz-adv-x="1114" d="M82 4l133 53q15 -173 116 -264q103 -92 253 -92q130 0 216 65q85 64 85 168q0 95 -72 142q-76 49 -211 78q-87 17 -140 31q-54 14 -131 46q-70 29 -118 66q-45 35 -77 92q-32 58 -32 127q0 106 63 183q64 78 175 112q-238 95 -238 291q0 149 124 251q123 101 319 101 q199 0 324 -114t135 -291l-134 -45q-11 160 -102 239q-92 80 -231 80q-129 0 -207 -59q-80 -60 -80 -154q0 -54 27 -95q27 -40 86 -67q58 -26 109 -40q33 -9 142 -34q99 -23 155 -44q69 -26 129 -62q63 -38 98 -100q34 -61 34 -144q0 -218 -237 -291q237 -92 237 -296 q0 -164 -129 -266q-128 -101 -323 -101q-211 0 -350 122q-137 121 -148 312zM252 541q0 -105 96 -162q95 -56 268 -94l54 -13q215 56 215 236q0 171 -283 233q-94 21 -141 33q-100 -27 -154 -89q-55 -62 -55 -144z" />
<glyph unicode="&#xa8;" horiz-adv-x="927" d="M164 1229v246h164v-246h-164zM600 1229v246h164v-246h-164z" />
<glyph unicode="&#xa9;" horiz-adv-x="1660" d="M92 715q0 315 215 527t522 212t524 -212q216 -212 216 -527q0 -318 -215 -527q-214 -208 -525 -208q-309 0 -523 208t-214 527zM164 715q0 -289 193 -479q194 -191 474 -191q283 0 476 191q192 191 192 479q0 290 -192 481q-191 190 -476 190q-281 0 -474 -190t-193 -481 zM442 717q0 187 108 308q108 122 286 122q127 0 216 -68q88 -67 117 -174l-127 -39q-47 158 -206 158q-124 0 -190 -83t-66 -224q0 -146 63 -227q62 -80 186 -80q167 0 213 153l127 -37q-29 -107 -120 -173q-92 -66 -220 -66q-179 0 -283 120q-104 121 -104 310z" />
<glyph unicode="&#xaa;" horiz-adv-x="1087" d="M250 942q0 46 18 84q17 36 44 58q26 21 66 36q41 15 67 21q21 5 67 10q119 7 201 29q0 174 -170 174q-56 0 -110 -28q-51 -26 -68 -60l-93 47q22 46 98 95q71 46 175 46q152 0 216 -76t64 -190v-225q0 -113 49 -162l-83 -64q-56 38 -68 109q-83 -109 -238 -109 q-97 0 -167 55q-68 53 -68 150zM362 942q0 -54 41 -84q42 -31 99 -31q93 0 152 62t59 180v27q-55 -16 -191 -33q-160 -24 -160 -121z" />
<glyph unicode="&#xab;" horiz-adv-x="962" d="M61 635l398 461l84 -72l-350 -389l352 -387l-86 -74zM420 635l397 461l84 -72l-352 -389l352 -387l-84 -74z" />
<glyph unicode="&#xac;" horiz-adv-x="1220" d="M92 682v133h1036v-565h-133v432h-903z" />
<glyph unicode="&#xad;" horiz-adv-x="749" d="M139 561v148h471v-148h-471z" />
<glyph unicode="&#xae;" horiz-adv-x="942" d="M92 1075q0 157 111 268t268 111q156 0 267 -111q112 -112 112 -268t-112 -268q-111 -111 -267 -111q-157 0 -268 111t-111 268zM139 1075q0 -136 98 -234t234 -98q137 0 235 98q97 97 97 234t-96 235q-96 97 -236 97q-137 0 -234 -97q-98 -98 -98 -235zM342 883v389h172 q45 0 75 -33q29 -32 29 -84q0 -77 -63 -106q53 -18 55 -88q6 -61 21 -78h-68q-12 25 -14 78q-1 28 -21 54q-18 23 -45 25h-73v-157h-68zM410 1100h63q80 0 80 55q0 36 -20 47q-19 10 -60 10h-63v-112z" />
<glyph unicode="&#xaf;" horiz-adv-x="942" d="M164 1245v103h614v-103h-614z" />
<glyph unicode="&#xb0;" horiz-adv-x="698" d="M82 1188q0 108 79 187t189 79q109 0 188 -79q78 -78 78 -187q0 -112 -78 -189t-188 -77q-111 0 -189 77q-79 78 -79 189zM184 1188q0 -68 48 -116t118 -48q68 0 116 48t48 116t-48 116t-116 48t-117 -48t-49 -116z" />
<glyph unicode="&#xb1;" horiz-adv-x="1232" d="M92 20v132h1049v-132h-1049zM92 815v131h459v467h133v-467h457v-131h-457v-467h-133v467h-459z" />
<glyph unicode="&#xb4;" horiz-adv-x="661" d="M164 1241q134 134 196 275l138 -23q-30 -83 -110 -168q-82 -86 -167 -137z" />
<glyph unicode="&#xb5;" horiz-adv-x="1177" d="M145 -410v1475h164v-674q0 -55 6 -95t27 -82t65 -63q46 -22 113 -22q100 0 194 41q91 40 148 104v791h164v-731q0 -102 14 -155q14 -55 60 -105l-121 -94q-78 57 -102 176q-150 -176 -402 -176q-102 0 -166 53v-443h-164z" />
<glyph unicode="&#xb6;" horiz-adv-x="1243" d="M61 936q0 223 146 360q147 138 356 138h486l-33 -111h-103v-1470q0 -122 -76 -192q-77 -71 -198 -71q-181 0 -260 105l80 90q69 -74 174 -74q59 0 103 38t44 114v573h-217q-216 0 -359 137t-143 363z" />
<glyph unicode="&#xb7;" horiz-adv-x="532" d="M164 635q0 42 31 73q29 29 71 29q44 0 73 -29q30 -30 30 -73q0 -42 -30 -72q-31 -31 -73 -31q-40 0 -71 31t-31 72z" />
<glyph unicode="&#xb8;" horiz-adv-x="690" d="M164 -315l41 82q57 -62 127 -62q82 0 82 72q0 82 -135 82l14 159h72l-7 -94q79 0 123 -40q45 -41 45 -109q0 -77 -53 -121q-52 -43 -137 -43q-110 0 -172 74z" />
<glyph unicode="&#xba;" horiz-adv-x="856" d="M92 1096q0 154 87 256t249 102q160 0 248 -102q88 -101 88 -256t-88 -256q-89 -103 -248 -103q-161 0 -249 103q-87 102 -87 256zM197 1096q0 -120 61 -191t170 -71q110 0 169 71q60 72 60 191t-60 191q-61 73 -169 73t-170 -73q-61 -71 -61 -191z" />
<glyph unicode="&#xbb;" horiz-adv-x="962" d="M61 248l353 387l-351 389l84 72l398 -461l-398 -461zM420 248l352 387l-352 389l84 72l397 -461l-397 -461z" />
<glyph unicode="&#xbc;" horiz-adv-x="1318" d="M41 1210v138l123 86h117v-820h-117v684zM86 0l868 1434h133l-868 -1434h-133zM629 199v108l401 512h117v-512h121v-108h-121v-199h-117v199h-401zM774 307h256v336z" />
<glyph unicode="&#xbd;" horiz-adv-x="1466" d="M41 1210v138l123 86h117v-820h-117v684zM86 0l868 1434h133l-868 -1434h-133zM813 606q23 93 90 153t180 60q115 0 186 -69q70 -69 70 -193q0 -110 -78 -212q-79 -103 -241 -226h326v-119h-523v119q201 141 297 243q97 103 97 195q0 150 -134 150q-58 0 -102 -41 q-42 -39 -59 -111z" />
<glyph unicode="&#xbe;" horiz-adv-x="1484" d="M0 815l96 45q16 -59 64 -98q46 -37 119 -37q71 0 112 33t41 90q0 127 -225 127v106q211 0 211 136q0 42 -36 75t-99 33q-71 0 -115 -41q-42 -39 -53 -108l-105 47q16 85 88 148t185 63q114 0 184 -62t70 -155q0 -134 -129 -185q143 -51 143 -182q0 -116 -84 -176 t-191 -60q-94 0 -176 54q-79 52 -100 147zM276 0l869 1434h133l-868 -1434h-134zM797 199v108l399 512h117v-512h121v-108h-121v-199h-117v199h-399zM940 307h256v336z" />
<glyph unicode="&#xbf;" horiz-adv-x="931" d="M41 10q0 123 43 205q44 83 133 168q4 4 11 10.5t20.5 19t24.5 22.5q44 41 62 59q16 16 45 53q28 36 38 67t10 70h164q0 -61 -11 -102q-13 -47 -41 -87q-30 -42 -48 -63q-13 -15 -67 -64q-32 -29 -65 -59q-76 -76 -116 -142q-39 -64 -39 -155q0 -115 77 -184 q78 -70 185 -70q118 0 195 68q76 67 100 197l149 -58q-41 -177 -159 -265q-119 -89 -297 -89q-179 0 -297 116q-117 116 -117 283zM426 860v205h164v-205h-164z" />
<glyph unicode="&#xc0;" horiz-adv-x="1234" d="M20 0l512 1434h170l512 -1434h-163l-148 412h-569l-148 -412h-166zM381 545h475l-238 665zM381 1862l137 22q61 -138 197 -274l-58 -54q-83 49 -167 138q-79 83 -109 168z" />
<glyph unicode="&#xc1;" horiz-adv-x="1234" d="M20 0l512 1434h170l512 -1434h-163l-148 412h-569l-148 -412h-166zM381 545h475l-238 665zM518 1610q136 136 197 274l137 -22q-30 -83 -110 -168q-84 -89 -167 -138z" />
<glyph unicode="&#xc2;" horiz-adv-x="1234" d="M20 0l512 1434h170l512 -1434h-163l-148 412h-569l-148 -412h-166zM299 1616q185 147 258 268h121q77 -123 258 -268l-41 -60q-180 77 -279 209q-95 -132 -276 -209zM381 545h475l-238 665z" />
<glyph unicode="&#xc3;" horiz-adv-x="1234" d="M20 0l512 1434h170l512 -1434h-163l-148 412h-569l-148 -412h-166zM291 1638q61 129 192 129q66 0 150 -54t127 -54q75 0 135 88l51 -61q-63 -130 -186 -130q-56 0 -138 54q-80 53 -139 53q-89 0 -135 -88zM381 545h475l-238 665z" />
<glyph unicode="&#xc4;" horiz-adv-x="1234" d="M20 0l512 1434h170l512 -1434h-163l-148 412h-569l-148 -412h-166zM317 1638v191h164v-191h-164zM381 545h475l-238 665zM754 1638v191h164v-191h-164z" />
<glyph unicode="&#xc5;" horiz-adv-x="1230" d="M20 0l500 1399q-117 60 -117 182q0 83 62 145t151 62q90 0 152 -62q61 -61 61 -145q0 -57 -30 -106t-84 -74l499 -1401h-163l-148 412h-569l-148 -412h-166zM381 545h475l-238 665zM496 1581q0 -50 35 -84q37 -35 85 -35q49 0 83 34t34 85q0 48 -34 82q-35 35 -83 35 q-46 0 -84 -35q-36 -33 -36 -82z" />
<glyph unicode="&#xc6;" horiz-adv-x="2068" d="M20 0l1022 1434h924v-148h-760v-475h668v-147h-668v-514h760v-150h-924v412h-532l-293 -412h-197zM606 545h436v612z" />
<glyph unicode="&#xc7;" horiz-adv-x="1359" d="M92 717q0 328 176 533q176 204 467 204q455 0 574 -455l-158 -38q-30 152 -143 249q-114 97 -275 97q-195 0 -337 -157q-140 -155 -140 -433q0 -276 140 -432q141 -158 337 -158q163 0 275 96q113 96 143 250l158 -39q-108 -436 -539 -454l-4 -56q79 0 123 -40 q45 -41 45 -109q0 -77 -53 -121q-52 -43 -138 -43q-110 0 -172 74l41 82q57 -62 127 -62q82 0 82 72q0 82 -135 82l10 121q-277 15 -440 216q-164 202 -164 521z" />
<glyph unicode="&#xc8;" horiz-adv-x="1200" d="M174 0v1434h924v-148h-760v-475h668v-147h-668v-514h760v-150h-924zM362 1862l138 22q62 -139 196 -274l-57 -54q-83 49 -167 138q-80 85 -110 168z" />
<glyph unicode="&#xc9;" horiz-adv-x="1200" d="M174 0v1434h924v-148h-760v-475h668v-147h-668v-514h760v-150h-924zM500 1610q134 134 196 274l138 -22q-30 -83 -110 -168q-84 -89 -167 -138z" />
<glyph unicode="&#xca;" horiz-adv-x="1200" d="M174 0v1434h924v-148h-760v-475h668v-147h-668v-514h760v-150h-924zM283 1616q185 147 258 268h121q77 -123 258 -268l-41 -60q-180 77 -279 209q-95 -132 -276 -209z" />
<glyph unicode="&#xcb;" horiz-adv-x="1200" d="M174 0v1434h924v-148h-760v-475h668v-147h-668v-514h760v-150h-924zM301 1638v191h164v-191h-164zM737 1638v191h164v-191h-164z" />
<glyph unicode="&#xcc;" horiz-adv-x="512" d="M18 1862l138 22q62 -140 196 -274l-57 -54q-83 49 -167 138q-80 85 -110 168zM174 0v1434h164v-1434h-164z" />
<glyph unicode="&#xcd;" horiz-adv-x="512" d="M156 1610q134 134 196 274l137 -22q-30 -85 -109 -168q-84 -89 -167 -138zM174 0v1434h164v-1434h-164z" />
<glyph unicode="&#xce;" horiz-adv-x="512" d="M-61 1616q185 147 258 268h120q77 -123 258 -268l-40 -60q-180 77 -279 209q-95 -132 -276 -209zM174 0v1434h164v-1434h-164z" />
<glyph unicode="&#xcf;" horiz-adv-x="512" d="M-43 1638v191h164v-191h-164zM174 0v1434h164v-1434h-164zM393 1638v191h164v-191h-164z" />
<glyph unicode="&#xd0;" horiz-adv-x="1366" d="M20 643v148h168v643h459q282 0 455 -187q172 -185 172 -489v-82q0 -305 -172 -490q-172 -186 -455 -186h-459v643h-168zM352 150h277q233 0 354 145t127 381v82q0 231 -122 376q-122 144 -359 152h-277v-495h293v-148h-293v-493z" />
<glyph unicode="&#xd1;" d="M174 0v1434h166l795 -1188v1188h163v-1434h-165l-795 1188v-1188h-164zM410 1638q62 129 192 129q66 0 150 -54t127 -54q75 0 135 88l51 -61q-63 -130 -186 -130q-57 0 -139 54q-80 53 -138 53q-89 0 -135 -88z" />
<glyph unicode="&#xd2;" d="M92 717q0 327 178 532t467 205t466 -205t177 -532q0 -330 -177 -534q-176 -203 -466 -203q-289 0 -467 203t-178 534zM242 717q0 -251 139 -423q140 -173 356 -173q221 0 357 172q137 173 137 424q0 249 -137 422q-136 172 -357 172q-217 0 -356 -172t-139 -422z M500 1862l137 22q61 -138 197 -274l-58 -54q-83 49 -167 138q-79 83 -109 168z" />
<glyph unicode="&#xd3;" d="M92 717q0 327 178 532t467 205t466 -205t177 -532q0 -330 -177 -534q-176 -203 -466 -203q-289 0 -467 203t-178 534zM242 717q0 -251 139 -423q140 -173 356 -173q221 0 357 172q137 173 137 424q0 249 -137 422q-136 172 -357 172q-217 0 -356 -172t-139 -422z M637 1610q136 136 197 274l137 -22q-30 -83 -110 -168q-84 -89 -167 -138z" />
<glyph unicode="&#xd4;" d="M92 717q0 327 178 532t467 205t466 -205t177 -532q0 -330 -177 -534q-176 -203 -466 -203q-289 0 -467 203t-178 534zM242 717q0 -251 139 -423q140 -173 356 -173q221 0 357 172q137 173 137 424q0 249 -137 422q-136 172 -357 172q-217 0 -356 -172t-139 -422z M418 1616q185 147 258 268h121q77 -123 258 -268l-41 -60q-180 77 -279 209q-95 -132 -276 -209z" />
<glyph unicode="&#xd5;" d="M92 717q0 327 178 532t467 205t466 -205t177 -532q0 -330 -177 -534q-176 -203 -466 -203q-289 0 -467 203t-178 534zM242 717q0 -251 139 -423q140 -173 356 -173q221 0 357 172q137 173 137 424q0 249 -137 422q-136 172 -357 172q-217 0 -356 -172t-139 -422z M410 1638q62 129 192 129q66 0 150 -54t127 -54q75 0 135 88l51 -61q-63 -130 -186 -130q-57 0 -139 54q-80 53 -138 53q-89 0 -135 -88z" />
<glyph unicode="&#xd6;" d="M92 717q0 327 178 532t467 205t466 -205t177 -532q0 -330 -177 -534q-176 -203 -466 -203q-289 0 -467 203t-178 534zM242 717q0 -251 139 -423q140 -173 356 -173q221 0 357 172q137 173 137 424q0 249 -137 422q-136 172 -357 172q-217 0 -356 -172t-139 -422z M436 1638v191h164v-191h-164zM872 1638v191h164v-191h-164z" />
<glyph unicode="&#xd7;" horiz-adv-x="1140" d="M92 250l385 385l-385 385l94 94l385 -385l383 385l95 -94l-385 -385l385 -385l-95 -92l-383 385l-385 -385z" />
<glyph unicode="&#xd8;" d="M92 717q0 327 178 532t467 205q218 0 371 -117l82 117l84 -57l-88 -127q194 -206 194 -553q0 -330 -177 -534q-176 -203 -466 -203q-216 0 -372 116l-80 -114l-84 57l88 125q-197 208 -197 553zM242 717q0 -247 137 -422l641 917q-124 99 -283 99q-217 0 -356 -172 t-139 -422zM453 221q122 -100 284 -100q221 0 357 172q137 173 137 424q0 252 -137 422z" />
<glyph unicode="&#xd9;" horiz-adv-x="1396" d="M133 549v885h164v-842q0 -226 112 -338q111 -111 289 -111q175 0 287 109q110 107 115 340v842h164v-885q0 -269 -155 -419t-411 -150t-410 150q-155 150 -155 419zM461 1862l137 22q61 -138 197 -274l-58 -54q-83 49 -167 138q-79 83 -109 168z" />
<glyph unicode="&#xda;" horiz-adv-x="1396" d="M133 549v885h164v-842q0 -226 112 -338q111 -111 289 -111q175 0 287 109q110 107 115 340v842h164v-885q0 -269 -155 -419t-411 -150t-410 150q-155 150 -155 419zM598 1610q136 136 197 274l137 -22q-30 -83 -110 -168q-84 -89 -167 -138z" />
<glyph unicode="&#xdb;" horiz-adv-x="1396" d="M133 549v885h164v-842q0 -226 112 -338q111 -111 289 -111q175 0 287 109q110 107 115 340v842h164v-885q0 -269 -155 -419t-411 -150t-410 150q-155 150 -155 419zM381 1616q185 147 258 268h121q77 -123 258 -268l-41 -60q-180 77 -279 209q-95 -132 -276 -209z" />
<glyph unicode="&#xdc;" horiz-adv-x="1396" d="M133 549v885h164v-842q0 -226 112 -338q111 -111 289 -111q175 0 287 109q110 107 115 340v842h164v-885q0 -269 -155 -419t-411 -150t-410 150q-155 150 -155 419zM399 1638v191h164v-191h-164zM836 1638v191h163v-191h-163z" />
<glyph unicode="&#xdd;" horiz-adv-x="1290" d="M20 1434h166l457 -744h4l457 744h166l-543 -881v-553h-164v553zM545 1610q135 134 196 274l138 -22q-30 -83 -110 -168q-84 -89 -167 -138z" />
<glyph unicode="&#xde;" horiz-adv-x="1228" d="M143 0v1434h164v-277h426q168 0 287 -131t119 -319q0 -186 -118 -307t-288 -121h-426v-279h-164zM307 428h367q138 0 220 73q81 72 81 206q0 149 -80 226t-221 77h-367v-582z" />
<glyph unicode="&#xdf;" horiz-adv-x="1228" d="M143 0v1014q0 245 137 394q136 148 367 148q212 0 323 -111t111 -294q0 -129 -66 -228t-186 -128q161 -24 252 -127q90 -102 90 -262q0 -194 -131 -313q-130 -118 -352 -118q-143 0 -227 33l33 148q79 -31 186 -31q163 0 246 77q82 76 82 212q0 162 -118 223t-349 61v164 q195 0 286 73t91 222q0 108 -74 180t-201 72q-165 0 -250 -106q-86 -107 -86 -289v-1014h-164z" />
<glyph unicode="&#xe0;" horiz-adv-x="1085" d="M84 295q0 275 399 319q226 27 314 48q0 276 -265 276q-90 0 -173 -44q-82 -43 -105 -95l-135 65q35 78 145 150q109 71 268 71q124 0 210 -34q85 -34 132 -96q45 -60 66 -128t21 -149v-352q0 -102 15 -154q15 -54 58 -98l-121 -94q-81 59 -104 174q-123 -174 -367 -174 q-150 0 -254 83t-104 232zM248 295q0 -84 64 -133t155 -49q148 0 239 97t91 288v39q-117 -31 -297 -54q-252 -33 -252 -188zM301 1493l137 23q62 -140 197 -275l-57 -53q-85 51 -167 137q-80 85 -110 168z" />
<glyph unicode="&#xe1;" horiz-adv-x="1085" d="M84 295q0 275 399 319q226 27 314 48q0 276 -265 276q-90 0 -173 -44q-82 -43 -105 -95l-135 65q35 78 145 150q109 71 268 71q124 0 210 -34q85 -34 132 -96q45 -60 66 -128t21 -149v-352q0 -102 15 -154q15 -54 58 -98l-121 -94q-81 59 -104 174q-123 -174 -367 -174 q-150 0 -254 83t-104 232zM248 295q0 -84 64 -133t155 -49q148 0 239 97t91 288v39q-117 -31 -297 -54q-252 -33 -252 -188zM424 1241q136 135 197 275l137 -23q-30 -83 -110 -168q-82 -86 -167 -137z" />
<glyph unicode="&#xe2;" horiz-adv-x="1085" d="M84 295q0 275 399 319q226 27 314 48q0 276 -265 276q-90 0 -173 -44q-82 -43 -105 -95l-135 65q35 78 145 150q109 71 268 71q124 0 210 -34q85 -34 132 -96q45 -60 66 -128t21 -149v-352q0 -102 15 -154q15 -54 58 -98l-121 -94q-81 59 -104 174q-123 -174 -367 -174 q-150 0 -254 83t-104 232zM225 1247q184 147 258 269h121q79 -126 258 -269l-41 -59q-178 76 -278 209q-95 -131 -277 -209zM248 295q0 -84 64 -133t155 -49q148 0 239 97t91 288v39q-117 -31 -297 -54q-252 -33 -252 -188z" />
<glyph unicode="&#xe3;" horiz-adv-x="1085" d="M84 295q0 275 399 319q226 27 314 48q0 276 -265 276q-90 0 -173 -44q-82 -43 -105 -95l-135 65q35 78 145 150q109 71 268 71q124 0 210 -34q85 -34 132 -96q45 -60 66 -128t21 -149v-352q0 -102 15 -154q15 -54 58 -98l-121 -94q-81 59 -104 174q-123 -174 -367 -174 q-150 0 -254 83t-104 232zM215 1321q61 129 193 129q65 0 149 -54q86 -55 127 -55q75 0 135 89l51 -62q-63 -129 -186 -129q-58 0 -138 53q-82 54 -138 54q-89 0 -136 -89zM248 295q0 -84 64 -133t155 -49q148 0 239 97t91 288v39q-117 -31 -297 -54q-252 -33 -252 -188z " />
<glyph unicode="&#xe4;" horiz-adv-x="1085" d="M84 295q0 275 399 319q226 27 314 48q0 276 -265 276q-90 0 -173 -44q-82 -43 -105 -95l-135 65q35 78 145 150q109 71 268 71q124 0 210 -34q85 -34 132 -96q45 -60 66 -128t21 -149v-352q0 -102 15 -154q15 -54 58 -98l-121 -94q-81 59 -104 174q-123 -174 -367 -174 q-150 0 -254 83t-104 232zM244 1229v246h164v-246h-164zM248 295q0 -84 64 -133t155 -49q148 0 239 97t91 288v39q-117 -31 -297 -54q-252 -33 -252 -188zM680 1229v246h164v-246h-164z" />
<glyph unicode="&#xe5;" horiz-adv-x="1085" d="M84 295q0 275 399 319q226 27 314 48q0 276 -265 276q-90 0 -173 -44q-82 -43 -105 -95l-135 65q35 78 145 150q109 71 268 71q124 0 210 -34q85 -34 132 -96q45 -60 66 -128t21 -149v-352q0 -102 15 -154q15 -54 58 -98l-121 -94q-81 59 -104 174q-123 -174 -367 -174 q-150 0 -254 83t-104 232zM248 295q0 -84 64 -133t155 -49q148 0 239 97t91 288v39q-117 -31 -297 -54q-252 -33 -252 -188zM330 1391q0 84 61 145t152 61q90 0 151 -61q62 -62 62 -145q0 -84 -62 -144q-60 -59 -151 -59q-92 0 -152 59q-61 60 -61 144zM424 1391 q0 -49 36 -84q37 -35 83 -35q50 0 85 35q34 34 34 84t-34 84t-85 34q-48 0 -83 -34q-36 -35 -36 -84z" />
<glyph unicode="&#xe6;" horiz-adv-x="1902" d="M82 295q0 276 401 319q229 27 312 48q0 124 -57 200t-208 76q-89 0 -172 -44q-82 -43 -106 -95l-133 65q33 78 144 150q109 71 269 71q287 0 377 -202q139 202 406 202q185 0 310 -97q127 -98 170 -238q44 -142 11 -289h-841q17 -153 107 -242q92 -90 241 -90 q221 0 311 209l145 -53q-122 -305 -464 -305q-300 0 -424 268q-44 -124 -159 -196q-116 -72 -280 -72q-152 0 -256 83t-104 232zM246 295q0 -84 64 -133t155 -49q330 0 330 422q-107 -29 -297 -52q-252 -33 -252 -188zM969 602h686q-5 145 -89 240q-86 96 -237 96t-245 -91 t-115 -245z" />
<glyph unicode="&#xe7;" horiz-adv-x="1089" d="M94 532q0 241 134 398q133 155 364 155q157 0 265 -84q109 -85 161 -225l-152 -51q-84 213 -274 213q-156 0 -245 -112t-89 -294q0 -183 84 -293t240 -110q205 0 284 207l152 -49q-51 -135 -159 -219q-107 -83 -261 -88l-4 -56q79 0 123 -40q45 -41 45 -109 q0 -77 -53 -121q-52 -43 -138 -43q-110 0 -172 74l41 82q57 -62 127 -62q82 0 82 72q0 82 -135 82l10 123q-202 21 -315 173q-115 154 -115 377z" />
<glyph unicode="&#xe8;" horiz-adv-x="1198" d="M86 532q0 237 140 395t378 158q185 0 310 -97q127 -98 170 -238q44 -144 12 -289h-844q17 -156 107 -243q92 -89 243 -89q221 0 311 209l146 -53q-122 -305 -465 -305q-235 0 -371 155q-137 157 -137 397zM256 602h688q-6 148 -90 242t-236 94t-246 -91 q-95 -92 -116 -245zM358 1493l138 23q62 -141 196 -275l-57 -53q-85 51 -167 137q-80 85 -110 168z" />
<glyph unicode="&#xe9;" horiz-adv-x="1198" d="M86 532q0 237 140 395t378 158q185 0 310 -97q127 -98 170 -238q44 -144 12 -289h-844q17 -156 107 -243q92 -89 243 -89q221 0 311 209l146 -53q-122 -305 -465 -305q-235 0 -371 155q-137 157 -137 397zM256 602h688q-6 148 -90 242t-236 94t-246 -91 q-95 -92 -116 -245zM481 1241q135 135 197 275l137 -23q-30 -85 -109 -168q-82 -86 -167 -137z" />
<glyph unicode="&#xea;" horiz-adv-x="1198" d="M86 532q0 237 140 395t378 158q185 0 310 -97q127 -98 170 -238q44 -144 12 -289h-844q17 -156 107 -243q92 -89 243 -89q221 0 311 209l146 -53q-122 -305 -465 -305q-235 0 -371 155q-137 157 -137 397zM256 602h688q-6 148 -90 242t-236 94t-246 -91 q-95 -92 -116 -245zM281 1247q184 147 258 269h120q78 -124 259 -269l-41 -59q-180 77 -279 209q-95 -132 -276 -209z" />
<glyph unicode="&#xeb;" horiz-adv-x="1198" d="M86 532q0 237 140 395t378 158q185 0 310 -97q127 -98 170 -238q44 -144 12 -289h-844q17 -156 107 -243q92 -89 243 -89q221 0 311 209l146 -53q-122 -305 -465 -305q-235 0 -371 155q-137 157 -137 397zM256 602h688q-6 148 -90 242t-236 94t-246 -91 q-95 -92 -116 -245zM299 1229v246h164v-246h-164zM735 1229v246h164v-246h-164z" />
<glyph unicode="&#xec;" horiz-adv-x="407" d="M-39 1493l139 23q62 -142 195 -275l-55 -53q-85 51 -167 137q-79 83 -112 168zM123 0v1065h164v-1065h-164z" />
<glyph unicode="&#xed;" horiz-adv-x="407" d="M106 1241q133 133 195 275l137 -23q-30 -85 -109 -168q-82 -86 -167 -137zM123 0v1065h164v-1065h-164z" />
<glyph unicode="&#xee;" horiz-adv-x="407" d="M-115 1247q184 149 258 269h121q79 -125 256 -269l-39 -59q-178 76 -278 209q-98 -132 -277 -209zM123 0v1065h164v-1065h-164z" />
<glyph unicode="&#xef;" horiz-adv-x="407" d="M-96 1229v246h164v-246h-164zM123 0v1065h164v-1065h-164zM340 1229v246h164v-246h-164z" />
<glyph unicode="&#xf0;" horiz-adv-x="1130" d="M102 522q0 249 125 397q124 146 340 146q127 0 224 -53q-73 134 -191 252l-119 -119l-69 74l112 112q-92 70 -174 109l72 116q112 -57 201 -129l120 121l74 -71l-117 -117q328 -316 328 -838q0 -249 -123 -396q-122 -146 -338 -146t-340 146q-125 148 -125 396zM238 522 q0 -177 85 -293t244 -116q158 0 243 116t85 293t-85 293q-86 117 -243 117q-159 0 -244 -117q-85 -116 -85 -293z" />
<glyph unicode="&#xf1;" horiz-adv-x="1159" d="M61 991l123 94q78 -55 105 -174q156 174 397 174q330 0 330 -405v-680h-164v664q0 58 -6 98q-6 42 -27 85q-21 44 -65 67q-45 24 -113 24q-96 0 -189 -39q-96 -40 -151 -104v-13v-782h-164v737q0 99 -15 153q-15 53 -61 101zM252 1321q62 129 192 129q66 0 150 -54 q86 -55 127 -55q75 0 135 89l51 -62q-63 -129 -186 -129q-58 0 -138 53q-82 54 -139 54q-88 0 -135 -89z" />
<glyph unicode="&#xf2;" horiz-adv-x="1220" d="M94 532q0 238 134 396q133 157 382 157q246 0 382 -157t136 -396q0 -238 -136 -395t-382 -157q-249 0 -382 157q-134 158 -134 395zM252 532q0 -183 95 -296t263 -113t264 113q97 114 97 296q0 183 -97 298q-96 114 -264 114t-263 -114q-95 -115 -95 -298zM369 1493 l137 23q62 -141 196 -275l-57 -53q-85 51 -167 137q-79 83 -109 168z" />
<glyph unicode="&#xf3;" horiz-adv-x="1220" d="M94 532q0 238 134 396q133 157 382 157q246 0 382 -157t136 -396q0 -238 -136 -395t-382 -157q-249 0 -382 157q-134 158 -134 395zM252 532q0 -183 95 -296t263 -113t264 113q97 114 97 296q0 183 -97 298q-96 114 -264 114t-263 -114q-95 -115 -95 -298zM492 1241 q134 134 196 275l137 -23q-30 -85 -109 -168q-82 -86 -167 -137z" />
<glyph unicode="&#xf4;" horiz-adv-x="1220" d="M94 532q0 238 134 396q133 157 382 157q246 0 382 -157t136 -396q0 -238 -136 -395t-382 -157q-249 0 -382 157q-134 158 -134 395zM252 532q0 -183 95 -296t263 -113t264 113q97 114 97 296q0 183 -97 298q-96 114 -264 114t-263 -114q-95 -115 -95 -298zM293 1247 q184 147 258 269h121q79 -126 258 -269l-41 -59q-180 77 -279 209q-95 -132 -276 -209z" />
<glyph unicode="&#xf5;" horiz-adv-x="1220" d="M94 532q0 238 134 396q133 157 382 157q246 0 382 -157t136 -396q0 -238 -136 -395t-382 -157q-249 0 -382 157q-134 158 -134 395zM252 532q0 -183 95 -296t263 -113t264 113q97 114 97 296q0 183 -97 298q-96 114 -264 114t-263 -114q-95 -115 -95 -298zM283 1321 q61 129 192 129q66 0 150 -54q86 -55 127 -55q75 0 135 89l51 -62q-63 -129 -186 -129q-59 0 -139 53q-82 54 -138 54q-88 0 -135 -89z" />
<glyph unicode="&#xf6;" horiz-adv-x="1220" d="M94 532q0 238 134 396q133 157 382 157q246 0 382 -157t136 -396q0 -238 -136 -395t-382 -157q-249 0 -382 157q-134 158 -134 395zM252 532q0 -183 95 -296t263 -113t264 113q97 114 97 296q0 183 -97 298q-96 114 -264 114t-263 -114q-95 -115 -95 -298zM311 1229v246 h164v-246h-164zM748 1229v246h163v-246h-163z" />
<glyph unicode="&#xf7;" horiz-adv-x="1206" d="M92 571v131h1049v-131h-1049zM510 270q0 44 32 78q32 33 76 33t75 -33q32 -34 32 -78q0 -42 -32 -74t-75 -32q-44 0 -76 32t-32 74zM510 999q0 43 32 75t76 32q43 0 75 -32t32 -75t-32 -77q-31 -33 -75 -33t-76 32t-32 78z" />
<glyph unicode="&#xf8;" horiz-adv-x="1220" d="M94 532q0 238 134 396q133 157 382 157q161 0 275 -69l49 69l84 -57l-51 -74q161 -155 161 -422q0 -238 -136 -395t-382 -157q-160 0 -274 69l-49 -69l-84 57l51 74q-160 154 -160 421zM252 532q0 -180 92 -292l457 655q-85 49 -191 49q-168 0 -263 -114 q-95 -115 -95 -298zM422 172q82 -49 188 -49q168 0 264 113q97 114 97 296q0 180 -92 295z" />
<glyph unicode="&#xf9;" horiz-adv-x="1177" d="M145 375v690h164v-674q0 -55 6 -95t27 -82t65 -63q46 -22 113 -22q100 0 193 37q94 37 149 100v23v776h164v-731q0 -102 14 -155q14 -55 60 -105l-121 -94q-76 57 -105 172q-150 -172 -399 -172q-330 0 -330 395zM348 1493l137 23q61 -140 197 -275l-57 -53 q-85 51 -167 137q-80 85 -110 168z" />
<glyph unicode="&#xfa;" horiz-adv-x="1177" d="M145 375v690h164v-674q0 -55 6 -95t27 -82t65 -63q46 -22 113 -22q100 0 193 37q94 37 149 100v23v776h164v-731q0 -102 14 -155q14 -55 60 -105l-121 -94q-76 57 -105 172q-150 -172 -399 -172q-330 0 -330 395zM471 1241q135 135 197 275l137 -23q-30 -83 -110 -168 q-82 -86 -167 -137z" />
<glyph unicode="&#xfb;" horiz-adv-x="1177" d="M145 375v690h164v-674q0 -55 6 -95t27 -82t65 -63q46 -22 113 -22q100 0 193 37q94 37 149 100v23v776h164v-731q0 -102 14 -155q14 -55 60 -105l-121 -94q-76 57 -105 172q-150 -172 -399 -172q-330 0 -330 395zM272 1247q184 147 258 269h121q79 -126 258 -269l-41 -59 q-178 76 -278 209q-95 -131 -277 -209z" />
<glyph unicode="&#xfc;" horiz-adv-x="1177" d="M145 375v690h164v-674q0 -55 6 -95t27 -82t65 -63q46 -22 113 -22q100 0 193 37q94 37 149 100v23v776h164v-731q0 -102 14 -155q14 -55 60 -105l-121 -94q-76 57 -105 172q-150 -172 -399 -172q-330 0 -330 395zM291 1229v246h164v-246h-164zM727 1229v246h164v-246 h-164z" />
<glyph unicode="&#xfd;" horiz-adv-x="948" d="M18 1065h164l287 -883l295 883h164q-9 -25 -217 -650q-192 -578 -226 -671q-60 -154 -227 -154h-74v148h52q76 0 114 90l58 172h-43zM356 1241q136 135 197 275l137 -23q-30 -85 -109 -168q-82 -86 -167 -137z" />
<glyph unicode="&#xfe;" horiz-adv-x="1280" d="M143 -410v1844h164v-516q140 167 391 167q244 0 380 -158t136 -395q0 -238 -135 -395t-381 -157q-252 0 -391 167v-557h-164zM307 532q0 -181 102 -295t271 -114q170 0 270 114q101 115 101 295q0 182 -101 297t-270 115q-168 0 -271 -115q-102 -114 -102 -297z" />
<glyph unicode="&#xff;" horiz-adv-x="948" d="M18 1065h164l287 -883l295 883h164q-9 -25 -217 -650q-192 -578 -226 -671q-60 -154 -227 -154h-74v148h52q76 0 114 90l58 172h-43zM176 1229v246h164v-246h-164zM612 1229v246h164v-246h-164z" />
<glyph unicode="&#x152;" horiz-adv-x="2123" d="M92 717q0 327 178 532t467 205q95 0 168 -20h1116v-148h-854q181 -175 209 -475h553v-147h-551q-16 -325 -207 -514h850v-150h-1116q-73 -20 -168 -20q-289 0 -467 203t-178 534zM242 717q0 -251 139 -423q140 -173 356 -173q221 0 357 172q137 173 137 424 q0 249 -137 422q-136 172 -357 172q-217 0 -356 -172t-139 -422z" />
<glyph unicode="&#x153;" horiz-adv-x="2078" d="M92 532q0 238 135 396q135 157 383 157q156 0 267 -65q113 -66 174 -178q67 112 180 178q111 65 260 65q185 0 310 -97q127 -98 170 -238q44 -142 11 -289h-843q17 -155 108 -243q92 -89 242 -89q221 0 311 209l146 -53q-122 -305 -465 -305q-145 0 -256 63t-174 176 q-140 -239 -441 -239q-248 0 -383 157q-135 158 -135 395zM250 532q0 -184 96 -296q96 -113 264 -113t263 113q96 114 96 296t-96 298q-95 114 -263 114t-264 -114t-96 -298zM1143 602h688q-6 148 -90 242t-236 94q-153 0 -247 -91t-115 -245z" />
<glyph unicode="&#x178;" horiz-adv-x="1290" d="M20 1434h166l457 -744h4l457 744h166l-543 -881v-553h-164v553zM346 1638v191h164v-191h-164zM782 1638v191h164v-191h-164z" />
<glyph unicode="&#x2c6;" horiz-adv-x="964" d="M164 1247q184 147 258 269h121q79 -126 258 -269l-41 -59q-180 77 -279 209q-95 -132 -276 -209z" />
<glyph unicode="&#x2dc;" horiz-adv-x="983" d="M164 1321q62 129 192 129q66 0 150 -54q86 -55 127 -55q75 0 135 89l51 -62q-63 -129 -186 -129q-58 0 -138 53q-82 54 -139 54q-88 0 -135 -89z" />
<glyph unicode="&#x2000;" horiz-adv-x="942" />
<glyph unicode="&#x2001;" horiz-adv-x="1884" />
<glyph unicode="&#x2002;" horiz-adv-x="942" />
<glyph unicode="&#x2003;" horiz-adv-x="1884" />
<glyph unicode="&#x2004;" horiz-adv-x="628" />
<glyph unicode="&#x2005;" horiz-adv-x="471" />
<glyph unicode="&#x2006;" horiz-adv-x="314" />
<glyph unicode="&#x2007;" horiz-adv-x="314" />
<glyph unicode="&#x2008;" horiz-adv-x="235" />
<glyph unicode="&#x2009;" horiz-adv-x="376" />
<glyph unicode="&#x200a;" horiz-adv-x="104" />
<glyph unicode="&#x2010;" horiz-adv-x="749" d="M139 561v148h471v-148h-471z" />
<glyph unicode="&#x2011;" horiz-adv-x="749" d="M139 561v148h471v-148h-471z" />
<glyph unicode="&#x2012;" horiz-adv-x="749" d="M139 561v148h471v-148h-471z" />
<glyph unicode="&#x2013;" horiz-adv-x="1024" d="M139 561v148h746v-148h-746z" />
<glyph unicode="&#x2014;" horiz-adv-x="2048" d="M139 561v148h1770v-148h-1770z" />
<glyph unicode="&#x2018;" horiz-adv-x="368" d="M82 1096v215q0 192 149 241l43 -79q-92 -38 -88 -162h101v-215h-205z" />
<glyph unicode="&#x2019;" horiz-adv-x="368" d="M82 1337v215h205v-215q0 -195 -150 -241l-43 80q90 33 90 161h-102z" />
<glyph unicode="&#x201a;" horiz-adv-x="368" d="M82 0v215h205v-215q0 -196 -150 -242l-43 80q90 34 90 162h-102z" />
<glyph unicode="&#x201c;" horiz-adv-x="665" d="M61 1096v215q0 191 150 241l43 -79q-92 -38 -88 -162h100v-215h-205zM358 1096v215q0 191 150 241l43 -79q-92 -38 -88 -162h100v-215h-205z" />
<glyph unicode="&#x201d;" horiz-adv-x="665" d="M61 1341v215h205v-215q0 -194 -149 -239l-43 78q90 34 90 161h-103zM358 1341v215h205v-215q0 -194 -149 -239l-43 78q90 34 90 161h-103z" />
<glyph unicode="&#x201e;" horiz-adv-x="665" d="M61 0v215h205v-215q0 -196 -149 -242l-43 80q90 33 90 162h-103zM358 0v215h205v-215q0 -196 -149 -242l-43 80q90 33 90 162h-103z" />
<glyph unicode="&#x2022;" horiz-adv-x="692" d="M123 655q0 92 65 157q67 67 158 67t158 -67q65 -65 65 -157t-65 -157q-66 -66 -158 -66t-158 66q-65 65 -65 157z" />
<glyph unicode="&#x2026;" horiz-adv-x="1167" d="M102 0v221h205v-221h-205zM481 0v221h205v-221h-205zM860 0v221h205v-221h-205z" />
<glyph unicode="&#x202f;" horiz-adv-x="376" />
<glyph unicode="&#x2039;" horiz-adv-x="606" d="M61 635l398 461l84 -72l-350 -389l352 -387l-86 -74z" />
<glyph unicode="&#x203a;" horiz-adv-x="606" d="M61 248l353 387l-351 389l84 72l398 -461l-398 -461z" />
<glyph unicode="&#x205f;" horiz-adv-x="471" />
<glyph unicode="&#x20ac;" horiz-adv-x="1486" d="M82 508v133h166q-2 32 -2 76q0 46 2 78h-166v133h184q50 242 207 384t385 142q216 0 344 -89q126 -88 203 -267l-156 -41q-106 250 -391 250q-142 0 -260 -100t-164 -279h545v-133h-565q-4 -44 -4 -78q0 -44 2 -76h567v-133h-545q45 -181 163 -281t261 -100 q285 0 391 250l156 -39q-73 -177 -202 -268q-127 -90 -345 -90q-231 0 -386 142q-156 143 -206 386h-184z" />
<glyph unicode="&#x2122;" horiz-adv-x="1550" d="M41 1327v107h573v-107h-227v-549h-119v549h-227zM715 778v656h121l215 -514l217 514h118v-656h-118v375l-158 -375h-119l-155 369v-369h-121z" />
<glyph unicode="&#x25fc;" horiz-adv-x="1064" d="M0 0v1065h1065v-1065h-1065z" />
</font>
</defs>
</svg>
