<svg width="266" height="232" viewBox="0 0 266 232" fill="none" xmlns="http://www.w3.org/2000/svg">
<path d="M39.336 26.56C34.024 26.56 29.672 28.032 26.28 30.912C22.888 33.792 21.288 37.184 21.416 41.024C21.416 42.304 21.672 43.392 22.184 44.416C22.632 45.44 23.336 46.336 24.232 47.104C25.128 47.872 26.088 48.576 27.048 49.088C27.944 49.664 29.16 50.176 30.632 50.624C32.04 51.072 33.256 51.392 34.28 51.648C35.24 51.904 36.52 52.224 38.12 52.544C40.552 53.056 42.408 53.824 43.688 54.72C44.968 55.616 45.672 56.896 45.736 58.496C45.8 60.928 44.776 62.912 42.728 64.512C40.68 66.112 38.056 66.88 34.984 66.88C31.72 66.88 29.096 65.92 27.112 63.936C25.064 61.952 24.104 59.008 24.232 55.04L18.216 57.344C17.832 61.824 19.176 65.472 22.184 68.352C25.128 71.232 29.096 72.64 34.024 72.64C38.568 72.64 42.6 71.424 46.056 68.928C49.512 66.432 51.496 63.232 52.072 59.264C52.328 57.344 52.136 55.68 51.56 54.144C50.984 52.672 50.024 51.456 48.744 50.496C47.464 49.6 46.056 48.832 44.648 48.256C43.176 47.744 41.512 47.232 39.592 46.784C35.24 45.888 32.104 44.928 30.312 43.904C28.456 42.944 27.688 41.344 28.008 39.104C28.264 37.12 29.352 35.52 31.208 34.24C33 32.96 35.368 32.32 38.248 32.32C44.904 32.32 48.04 35.904 47.784 42.944L53.8 40.832C54.12 36.608 52.968 33.216 50.408 30.528C47.784 27.904 44.072 26.56 39.336 26.56ZM83.998 64.704L88.542 38.72H82.206L81.758 41.408C79.774 39.232 77.086 38.08 73.758 38.08C69.278 38.08 65.502 39.808 62.366 43.264C59.166 46.72 57.182 50.752 56.414 55.296C55.902 58.24 55.902 60.992 56.542 63.552C57.118 66.112 58.398 68.288 60.318 70.016C62.238 71.808 64.67 72.64 67.678 72.64C71.262 72.64 74.462 71.424 77.342 68.864C77.79 71.424 79.774 72.64 83.23 72.64C84.958 72.64 86.238 72.448 87.07 72L88.03 66.56C87.134 67.008 86.174 67.072 85.15 66.816C84.126 66.56 83.742 65.856 83.998 64.704ZM62.814 55.296C63.326 51.968 64.542 49.216 66.398 47.04C68.19 44.864 70.622 43.712 73.694 43.712C76.51 43.712 78.878 44.736 80.798 46.72L77.79 63.936C75.166 65.92 72.414 66.88 69.598 66.88C67.486 66.88 65.822 66.368 64.67 65.216C63.454 64.128 62.75 62.72 62.622 60.992C62.43 59.328 62.494 57.408 62.814 55.296ZM123.625 64.704L126.121 51.072C127.657 42.432 124.969 38.08 117.929 38.08C113.193 38.08 109.097 39.616 105.513 42.56C105.257 39.616 103.273 38.08 99.497 38.08C97.705 38.08 96.425 38.336 95.657 38.72L94.697 44.16C95.593 43.776 96.489 43.712 97.513 43.968C98.537 44.224 98.921 44.928 98.729 46.016L94.057 72H100.457L104.873 47.104C107.689 44.928 111.017 43.84 114.985 43.84C116.713 43.84 117.993 44.288 118.825 45.056C119.593 45.888 119.977 46.912 119.913 48.064C119.849 49.216 119.721 50.432 119.593 51.712L116.969 66.304C116.585 68.288 116.969 69.824 117.993 70.976C119.017 72.128 120.617 72.64 122.857 72.64C124.585 72.64 125.865 72.448 126.697 72L127.657 66.56C126.761 67.008 125.801 67.072 124.777 66.816C123.753 66.56 123.369 65.856 123.625 64.704ZM162.63 38.08C160.134 38.08 158.086 38.912 156.422 40.448C154.118 38.912 151.43 38.08 148.358 38.08C144.646 38.08 141.382 39.168 138.502 41.28C135.622 43.456 134.022 46.272 133.766 49.856C133.382 53.312 134.342 56.192 136.774 58.368C134.406 59.648 133.126 61.376 132.998 63.424C132.87 65.152 133.318 66.56 134.47 67.648C131.654 69.504 130.117 71.936 129.861 74.88C129.541 78.016 130.822 80.576 133.702 82.496C136.518 84.48 140.358 85.44 145.158 85.44C150.278 85.44 154.374 84.416 157.318 82.24C160.262 80.128 161.926 77.632 162.182 74.752C162.31 73.216 162.118 71.936 161.67 70.784C161.158 69.632 160.518 68.736 159.75 68.096C158.982 67.456 157.894 66.88 156.486 66.496C155.078 66.112 153.734 65.856 152.454 65.728C151.174 65.6 149.574 65.472 147.782 65.408C142.086 65.28 139.334 64.384 139.462 62.784C139.462 62.016 140.102 61.44 141.254 61.056C142.79 61.568 144.454 61.824 146.246 61.824C149.83 61.824 153.03 60.8 155.91 58.624C158.79 56.448 160.454 53.568 160.838 49.856C160.966 47.552 160.518 45.504 159.494 43.648C160.07 43.328 160.774 43.136 161.606 43.136C163.014 43.136 164.038 43.648 164.806 44.608L167.75 39.296C166.47 38.528 164.806 38.08 162.63 38.08ZM154.438 49.856C154.182 52.032 153.35 53.76 151.878 54.912C150.406 56.128 148.678 56.704 146.694 56.704C144.582 56.704 142.918 56.128 141.702 54.976C140.422 53.824 139.91 52.096 140.166 49.856C140.294 47.744 141.126 46.08 142.598 44.928C144.07 43.776 145.862 43.2 147.91 43.2C149.894 43.2 151.494 43.776 152.774 44.928C154.054 46.08 154.566 47.744 154.438 49.856ZM155.718 75.072C155.526 76.8 154.502 78.08 152.646 78.976C150.726 79.872 148.422 80.32 145.734 80.32C142.662 80.32 140.294 79.744 138.63 78.592C136.902 77.44 136.134 75.968 136.326 74.24C136.454 72.512 137.414 71.104 139.334 70.016C140.614 70.336 141.894 70.528 143.238 70.528H143.686C145.606 70.656 147.27 70.72 148.678 70.848C150.086 70.976 151.366 71.232 152.518 71.488C153.67 71.744 154.502 72.192 155.014 72.768C155.526 73.408 155.782 74.176 155.718 75.072ZM185.444 67.52C182.628 67.52 180.26 66.752 178.404 65.088C176.484 63.488 175.46 61.248 175.268 58.368C178.916 59.264 182.244 59.776 185.252 59.904C188.26 60.032 190.692 59.776 192.548 59.136C194.404 58.56 196.004 57.856 197.348 56.96C198.692 56.128 199.716 55.168 200.356 54.016C200.996 52.864 201.508 51.904 201.764 51.008C202.02 50.112 202.212 49.28 202.212 48.512C202.212 45.312 200.996 42.752 198.628 40.896C196.196 39.04 192.868 38.08 188.516 38.08C183.012 38.08 178.34 39.936 174.564 43.648C170.788 47.36 168.932 51.968 168.932 57.472C168.932 62.08 170.404 65.728 173.412 68.48C176.42 71.296 180.26 72.64 184.932 72.64C188.196 72.64 191.268 72 194.148 70.72C196.964 69.44 199.14 67.648 200.548 65.344L196.644 61.888C193.892 65.664 190.18 67.52 185.444 67.52ZM188.516 43.2C191.076 43.2 192.932 43.712 194.084 44.736C195.236 45.76 195.812 46.976 195.812 48.512C195.812 49.152 195.684 49.856 195.428 50.496C195.172 51.136 194.596 51.84 193.7 52.608C192.804 53.376 191.716 53.952 190.372 54.336C188.964 54.72 187.044 54.848 184.548 54.72C181.988 54.592 179.108 54.144 175.844 53.248C176.612 50.304 178.212 47.872 180.516 46.016C182.82 44.16 185.444 43.2 188.516 43.2ZM222.944 67.52C220.128 67.52 217.76 66.752 215.904 65.088C213.984 63.488 212.96 61.248 212.768 58.368C216.416 59.264 219.744 59.776 222.752 59.904C225.76 60.032 228.192 59.776 230.048 59.136C231.904 58.56 233.504 57.856 234.848 56.96C236.192 56.128 237.216 55.168 237.856 54.016C238.496 52.864 239.008 51.904 239.264 51.008C239.52 50.112 239.712 49.28 239.712 48.512C239.712 45.312 238.496 42.752 236.128 40.896C233.696 39.04 230.368 38.08 226.016 38.08C220.512 38.08 215.84 39.936 212.064 43.648C208.288 47.36 206.432 51.968 206.432 57.472C206.432 62.08 207.904 65.728 210.912 68.48C213.92 71.296 217.76 72.64 222.432 72.64C225.696 72.64 228.768 72 231.648 70.72C234.464 69.44 236.64 67.648 238.048 65.344L234.144 61.888C231.392 65.664 227.68 67.52 222.944 67.52ZM226.016 43.2C228.576 43.2 230.432 43.712 231.584 44.736C232.736 45.76 233.312 46.976 233.312 48.512C233.312 49.152 233.184 49.856 232.928 50.496C232.672 51.136 232.096 51.84 231.2 52.608C230.304 53.376 229.216 53.952 227.872 54.336C226.464 54.72 224.544 54.848 222.048 54.72C219.488 54.592 216.608 54.144 213.344 53.248C214.112 50.304 215.712 47.872 218.016 46.016C220.32 44.16 222.944 43.2 226.016 43.2ZM255.132 43.84H263.9L265.5 38.72H256.092L257.756 29.12L251.1 30.4L249.628 38.72H244.764L243.804 43.84H248.732L245.212 63.872C244.7 66.688 245.148 68.864 246.428 70.4C247.708 71.936 249.82 72.64 252.892 72.64C255.196 72.64 257.244 72.448 258.972 72L259.164 67.136C258.204 67.392 256.988 67.52 255.516 67.52C252.444 67.52 251.228 65.984 251.804 62.912L255.132 43.84Z" fill="white"/>
<path d="M78.32 100.71C74.91 97.19 69.96 96.2 65.23 96.09C56.76 95.76 43.45 104.12 43.45 113.8C43.45 121.94 53.79 129.53 58.08 135.58C61.6 140.75 63.14 146.03 63.47 151.31C55.88 151.64 47.52 155.38 42.57 157.69C30.58 162.97 20.57 169.68 11 179.25C3.74 186.51 0.659999 197.18 8.69 201.36C25.85 210.6 53.35 188.05 61.27 173.97C65.45 167.04 67.32 160.11 66.99 153.29C68.42 153.4 69.63 153.73 70.62 154.28C73.92 156.15 74.69 160.77 71.83 163.63C71.28 164.95 72.16 166.05 73.92 165.28C77.33 161.87 75.79 154.06 71.06 152.3C69.63 151.75 68.2 151.53 66.88 151.42C66.11 145.37 64.02 139.65 59.73 134.26C55.33 128.65 45.98 121.17 45.98 113.69C45.98 104.34 56.21 97.85 64.13 97.52C68.64 96.64 73.7 100.27 76.12 104.45C77.33 106.87 80.96 102.47 78.32 100.71ZM51.92 180.24C44 190.25 24.86 205.76 12.54 201.36C2.09 197.62 7.92 185.3 12.54 180.35C23.76 168.25 39.93 160.11 56.32 154.28C57.97 153.73 60.72 153.18 63.47 153.07C63.14 162.75 58.52 171.88 51.92 180.24ZM66.6695 124.36C66.7795 124.69 66.8895 124.91 67.1095 125.02C68.7595 126.78 71.7295 126.67 74.0395 126.67C80.1995 126.67 86.4695 125.68 92.5195 125.13L98.6795 124.47C86.9095 142.4 77.3395 164.4 83.4995 172.54C88.0095 178.48 101.759 171.22 105.939 168.8C111.109 165.72 115.289 162.09 119.689 158.24C120.019 156.59 119.689 156.7 118.479 157.47C111.549 163.63 104.509 168.8 95.5995 171.77C87.1295 174.74 82.1795 173.2 83.8295 163.19C85.9195 155.6 87.4595 152.63 88.8895 149.77C90.5395 146.36 92.1895 142.95 93.9495 139.54C96.5895 136.57 102.309 129.53 103.189 128.65L102.859 129.09L107.589 123.59C116.719 122.82 125.739 122.82 134.649 124.91C137.839 125.68 139.929 126.01 142.899 127.44C145.429 127.99 146.749 125.57 144.879 124.03C140.479 122.38 134.869 122.38 130.139 121.94C122.989 121.39 115.949 121.61 108.909 122.05C115.619 114.46 119.689 109.73 122.769 104.45C123.649 103.02 124.639 101.26 123.759 99.61C123.429 99.28 123.099 99.06 122.769 99.17C117.159 100.93 108.139 110.61 99.7795 122.82L92.0795 123.48C82.5095 124.36 76.2395 126.34 69.5295 124.36C69.3095 124.36 66.6695 122.49 66.6695 124.36ZM106.049 119.3C110.559 113.25 115.179 107.09 120.459 102.58C121.779 101.15 123.319 99.83 121.999 102.36C120.789 104.89 119.139 107.42 117.379 109.62C114.299 113.58 110.779 117.87 107.149 122.16L103.849 122.49L106.049 119.3ZM105.829 123.81L96.0395 135.36C98.1295 131.51 100.219 127.66 102.749 124.03L105.829 123.81ZM123.349 154.39C117.299 154.39 111.799 165.17 119.169 165.5C122.249 165.61 124.669 162.42 125.659 159.67C131.049 161.98 136.549 160.22 141.939 158.02C142.709 157.03 142.599 156.92 141.279 157.25C137.649 159.67 128.299 160.99 125.989 158.35C126.319 156.7 125.109 154.39 123.349 154.39ZM119.389 164.4C116.529 164.07 119.609 158.46 121.919 156.48C121.919 157.69 123.569 158.9 124.889 159.45C124.339 161.43 122.359 164.73 119.389 164.4ZM125.219 158.13C124.009 157.69 122.689 156.59 123.679 155.82C125.329 156.26 125.329 157.36 125.219 158.13ZM155.048 142.95C155.048 142.62 154.938 142.07 154.608 141.74C152.188 140.53 148.888 144.71 147.788 146.14C144.268 150.76 135.028 164.95 135.028 170.12C135.138 170.67 135.358 171 135.578 171.11C135.468 171.11 135.908 171.66 135.908 171.55C136.018 171.77 136.238 171.88 136.568 171.99C139.098 171.99 142.838 166.71 144.268 165.28C148.558 160.99 151.968 156.92 157.138 153.51C159.228 152.3 164.398 148.12 165.938 152.08C166.708 152.96 166.928 153.4 167.258 152.19C166.048 147.46 162.418 148.45 158.458 150.54C153.288 153.51 148.448 157.69 144.158 161.76C142.398 163.52 138.328 168.36 138.658 167.81L139.318 165.5C139.648 164.18 140.528 163.19 141.078 161.98C141.628 160.77 142.618 158.68 143.938 156.37C147.128 153.4 155.048 147.24 155.048 142.95ZM153.288 143.39C153.288 145.48 148.888 150.21 145.588 153.51C148.558 148.23 152.188 142.84 153.288 143.39ZM176.53 151.09C171.36 155.38 163.88 170.56 176.75 169.24C180.71 168.8 184.67 166.82 188.52 164.29C192.04 162.09 195.45 159.56 198.09 157.47C198.42 155.82 198.75 155.82 197.76 156.37C194.79 158.68 191.38 161.21 187.97 163.3C184.34 165.5 180.82 167.04 176.75 167.81C165.86 169.68 176.31 154.94 179.61 152.08C180.49 150.87 177.74 150.21 176.53 151.09ZM181.26 141.3C180.82 142.29 180.71 143.83 181.26 144.38C181.81 144.93 183.68 144.6 184.12 144.27C184.56 143.94 184.89 142.73 184.12 141.96C183.35 141.19 181.7 140.31 181.26 141.3ZM195.727 158.79C195.837 158.9 195.947 158.9 196.057 158.9C195.177 161.65 195.837 164.62 199.467 165.06C209.147 166.49 224.437 158.9 234.227 155.27C234.557 158.24 235.987 161.21 236.977 164.4C235.327 165.17 233.897 166.16 232.467 167.15C230.707 168.25 226.527 171.11 225.427 173.31C222.897 178.92 228.177 179.91 232.467 178.37C234.117 177.82 235.547 176.94 236.977 175.62C240.497 172.21 242.257 167.92 240.607 163.63C247.647 160.55 255.457 159.12 263.047 157.47C264.697 156.59 264.807 156.59 262.717 156.48C254.907 158.13 247.317 159.67 240.167 162.75C240.167 162.64 240.057 162.53 240.057 162.42C238.957 160.44 235.327 155.82 236.427 153.29C237.637 150.76 241.157 149.77 244.567 149.88C245.337 149.88 245.667 151.75 246.437 151.75C249.517 151.42 248.637 148.23 245.997 147.35C244.347 146.8 241.927 147.24 240.057 148.01C236.207 149.44 234.667 151.42 234.227 153.62C226.747 157.47 218.277 160.66 210.247 162.86C207.497 163.63 204.087 164.18 201.117 163.85C198.037 163.52 197.597 161.21 198.477 159.12C200.017 159.01 201.557 158.46 202.987 157.36C203.977 156.48 205.517 154.5 204.087 153.29C202.437 151.97 199.577 154.28 198.367 155.16C197.487 155.93 196.827 156.81 196.387 158.02L195.727 157.58C194.737 157.58 194.847 158.35 195.727 158.79ZM237.857 167.81C238.407 171.66 236.207 175.07 233.017 176.83C230.377 178.59 223.997 178.48 226.417 173.97C227.627 171.77 231.477 169.02 233.017 167.92C234.337 166.93 235.767 166.05 237.307 165.28C237.637 166.16 237.747 167.04 237.857 167.81ZM201.777 155.16C202.327 154.61 202.657 154.39 202.987 154.5C204.527 155.71 201.557 157.47 199.027 158.02C199.577 157.36 200.127 156.7 200.897 156.04L201.777 155.16Z" fill="white"/>
</svg>
