<svg width="20" height="20" viewBox="0 0 20 20" fill="none" xmlns="http://www.w3.org/2000/svg">
<path d="M17.3077 16.2753C17.3077 16.5753 17.241 16.8837 17.0993 17.1837C16.9577 17.4837 16.7744 17.767 16.5327 18.0337C16.1244 18.4837 15.6743 18.8087 15.166 19.017C14.666 19.2253 14.1244 19.3337 13.541 19.3337C12.691 19.3337 11.7827 19.1337 10.8243 18.7253C9.86602 18.317 8.90768 17.767 7.95768 17.0753C6.99935 16.3753 6.09102 15.6003 5.22435 14.742C4.36602 13.8753 3.59102 12.967 2.89935 12.017C2.21602 11.067 1.66602 10.117 1.26602 9.17533C0.866016 8.22533 0.666016 7.31699 0.666016 6.45033C0.666016 5.88366 0.766016 5.34199 0.966016 4.84199C1.16602 4.33366 1.48268 3.86699 1.92435 3.45033C2.45768 2.92533 3.04102 2.66699 3.65768 2.66699C3.89102 2.66699 4.12435 2.71699 4.33268 2.81699C4.54935 2.91699 4.74102 3.06699 4.89102 3.28366L6.82435 6.00866C6.97435 6.21699 7.08268 6.40866 7.15768 6.59199C7.23268 6.76699 7.27435 6.94199 7.27435 7.10033C7.27435 7.30033 7.21602 7.50033 7.09935 7.69199C6.99102 7.88366 6.83268 8.08366 6.63268 8.28366L5.99935 8.94199C5.90768 9.03366 5.86602 9.14199 5.86602 9.27533C5.86602 9.34199 5.87435 9.40033 5.89102 9.46699C5.91602 9.53366 5.94102 9.58366 5.95768 9.63366C6.10768 9.90866 6.36602 10.267 6.73268 10.7003C7.10768 11.1337 7.50768 11.5753 7.94102 12.017C8.39102 12.4587 8.82435 12.867 9.26602 13.242C9.69935 13.6087 10.0577 13.8587 10.341 14.0087C10.3827 14.0253 10.4327 14.0503 10.491 14.0753C10.5577 14.1003 10.6243 14.1087 10.6993 14.1087C10.841 14.1087 10.9493 14.0587 11.041 13.967L11.6743 13.342C11.8827 13.1337 12.0827 12.9753 12.2743 12.8753C12.466 12.7587 12.6577 12.7003 12.866 12.7003C13.0243 12.7003 13.191 12.7337 13.3743 12.8087C13.5577 12.8837 13.7494 12.992 13.9577 13.1337L16.716 15.092C16.9327 15.242 17.0827 15.417 17.1743 15.6253C17.2577 15.8337 17.3077 16.042 17.3077 16.2753Z" stroke="#B78053" stroke-miterlimit="10"/>
<path d="M14.4167 8.50065C14.4167 8.00065 14.025 7.23398 13.4417 6.60898C12.9083 6.03398 12.2 5.58398 11.5 5.58398" stroke="#B78053" stroke-linecap="round" stroke-linejoin="round"/>
<path d="M17.3333 8.50033C17.3333 5.27533 14.725 2.66699 11.5 2.66699" stroke="#B78053" stroke-linecap="round" stroke-linejoin="round"/>
</svg>
