<svg width="14" height="18" viewBox="0 0 14 18" fill="none" xmlns="http://www.w3.org/2000/svg">
<path d="M7.77387 16.9575C7.59908 17.4244 6.87535 17.3782 6.70215 16.9107C6.08162 15.2356 5.05265 13.6315 3.98537 12.6207C2.91671 11.6085 1.85723 10.5707 1.38693 9.1254C0.616982 6.75922 0.952992 4.56925 2.78473 2.81518C4.73687 0.945812 7.12165 0.538387 9.59402 1.50946C13.7737 3.1511 14.7291 8.01781 11.6304 11.4407C11.2842 11.8231 10.9164 12.1872 10.5446 12.5451C8.82183 14.2032 8.42389 15.221 7.77387 16.9575ZM7.23029 4.18063C5.63617 4.17755 4.34336 5.49286 4.35866 7.10224C4.3729 8.59998 5.6796 9.90212 7.18173 9.91543C8.7408 9.92926 10.0848 8.6342 10.0921 7.11099C10.1 5.48669 8.82747 4.18372 7.23029 4.18063Z" stroke="#B78053" stroke-linecap="round" stroke-linejoin="round"/>
</svg>
