<svg width="46" height="46" viewBox="0 0 46 46" fill="none" xmlns="http://www.w3.org/2000/svg">
<path d="M23 0C26.3633 3.97878e-08 29.6856 0.731745 32.7329 2.14367C35.7802 3.55559 38.4783 5.61333 40.637 8.17187C42.7957 10.7304 44.3626 13.7275 45.2271 16.9519C46.0917 20.1763 46.2329 23.5496 45.6408 26.8341C45.0487 30.1185 43.7377 33.2341 41.8003 35.9614C39.8628 38.6887 37.346 40.9613 34.4272 42.619C31.5084 44.2767 28.2586 45.2792 24.907 45.5558C21.5553 45.8325 18.1832 45.3765 15.0284 44.2201L15.8238 42.0846C18.6638 43.1256 21.6994 43.5361 24.7167 43.2871C27.734 43.038 30.6595 42.1356 33.287 40.6433C35.9146 39.151 38.1803 37.1051 39.9245 34.6499C41.6686 32.1948 42.8488 29.39 43.3818 26.4333C43.9148 23.4765 43.7877 20.4398 43.0094 17.5371C42.2311 14.6344 40.8206 11.9364 38.8773 9.63312C36.9339 7.32985 34.505 5.47743 31.7618 4.20638C29.0186 2.93533 26.0277 2.2766 23 2.2766L23 0Z" fill="url(#paint0_linear_638_5556)"/>
<defs>
<linearGradient id="paint0_linear_638_5556" x1="27.5" y1="2.12306" x2="15.5" y2="43.6231" gradientUnits="userSpaceOnUse">
<stop stop-color="#F4B224"/>
<stop offset="0.43235" stop-color="#F4B224" stop-opacity="0.42"/>
<stop offset="1" stop-color="#F4B224" stop-opacity="0"/>
</linearGradient>
</defs>
</svg>
