<svg width="16" height="16" viewBox="0 0 16 16" fill="none" xmlns="http://www.w3.org/2000/svg">
<path d="M11.3333 11.3333C13.1743 11.3333 14.6667 9.84091 14.6667 7.99996C14.6667 6.15901 13.1743 4.66663 11.3333 4.66663C9.49238 4.66663 8 6.15901 8 7.99996C8 9.84091 9.49238 11.3333 11.3333 11.3333Z" stroke="#402020" stroke-miterlimit="10" stroke-linecap="round" stroke-linejoin="round"/>
<path d="M7.99996 14.6667C9.84091 14.6667 11.3333 13.1743 11.3333 11.3333C11.3333 9.49238 9.84091 8 7.99996 8C6.15901 8 4.66663 9.49238 4.66663 11.3333C4.66663 13.1743 6.15901 14.6667 7.99996 14.6667Z" stroke="#402020" stroke-miterlimit="10" stroke-linecap="round" stroke-linejoin="round"/>
<path d="M7.99996 8.00004C9.84091 8.00004 11.3333 6.50766 11.3333 4.66671C11.3333 2.82576 9.84091 1.33337 7.99996 1.33337C6.15901 1.33337 4.66663 2.82576 4.66663 4.66671C4.66663 6.50766 6.15901 8.00004 7.99996 8.00004Z" stroke="#402020" stroke-miterlimit="10" stroke-linecap="round" stroke-linejoin="round"/>
<path d="M4.66671 11.3333C6.50766 11.3333 8.00004 9.84091 8.00004 7.99996C8.00004 6.15901 6.50766 4.66663 4.66671 4.66663C2.82576 4.66663 1.33337 6.15901 1.33337 7.99996C1.33337 9.84091 2.82576 11.3333 4.66671 11.3333Z" stroke="#402020" stroke-miterlimit="10" stroke-linecap="round" stroke-linejoin="round"/>
</svg>
