<svg width="27" height="24" viewBox="0 0 27 24" fill="none" xmlns="http://www.w3.org/2000/svg">
<path opacity="0.3" fill-rule="evenodd" clip-rule="evenodd" d="M12.2422 3.40039C12.2422 3.12425 12.466 2.90039 12.7422 2.90039H17.3288C18.7176 2.90039 19.9522 3.78495 20.3988 5.10002L21.4398 8.16536C21.9452 9.65356 21.1461 11.1872 19.7935 11.718V13.8631C19.7935 14.1393 19.5697 14.3631 19.2935 14.3631C19.0174 14.3631 18.7935 14.1393 18.7935 13.8631V11.9122C18.7807 11.9124 18.7679 11.9124 18.7551 11.9124H18.4064C17.1192 11.9124 15.8978 11.3533 15.0569 10.3844L14.4815 11.088C14.0548 11.6098 13.4163 11.9124 12.7422 11.9124V10.9124C13.1163 10.9124 13.4706 10.7445 13.7074 10.4549L14.4824 9.50721C14.7787 9.14488 15.3326 9.14488 15.6289 9.50721L15.7473 9.65199C16.3997 10.4497 17.3758 10.9124 18.4064 10.9124H18.7551C20.0122 10.9124 20.8972 9.67723 20.4929 8.48694L19.4519 5.4216C19.143 4.51213 18.2892 3.90039 17.3288 3.90039H12.7422C12.466 3.90039 12.2422 3.67653 12.2422 3.40039Z" fill="black"/>
<path fill-rule="evenodd" clip-rule="evenodd" d="M4.79898 3.90039C3.87365 3.90039 3.04676 4.47816 2.72855 5.34706L1.64514 8.30543C1.19348 9.53875 2.10646 10.8454 3.41989 10.8454H3.83609C4.85675 10.8454 5.82349 10.3871 6.46962 9.59701L6.58705 9.45343C6.88253 9.0921 7.43495 9.0921 7.73043 9.45343C8.45088 10.3344 9.52882 10.8454 10.6669 10.8454H12.4994C12.7755 10.8454 12.9994 11.0692 12.9994 11.3454C12.9994 11.6215 12.7755 11.8454 12.4994 11.8454H10.6669C9.33455 11.8454 8.06744 11.2912 7.16435 10.3244C6.32962 11.2888 5.1156 11.8454 3.83609 11.8454H3.41989C3.41625 11.8454 3.41262 11.8454 3.40899 11.8454V20.056C3.40899 21.2798 4.40107 22.2719 5.62487 22.2719H7.90726L7.86877 18.2843C7.8515 16.4962 9.29628 15.0374 11.0845 15.0374H11.1994C12.9754 15.0374 14.4152 16.4772 14.4152 18.2533V22.2719H16.5853C17.8091 22.2719 18.8012 21.2798 18.8012 20.056V14.2212C18.8012 13.9451 19.025 13.7212 19.3012 13.7212C19.5773 13.7212 19.8012 13.9451 19.8012 14.2212V20.056C19.8012 21.8321 18.3614 23.2719 16.5853 23.2719H5.62487C3.84879 23.2719 2.40899 21.8321 2.40899 20.056V11.6655C0.978715 11.1339 0.139077 9.50995 0.706131 7.96155L1.78954 5.00318C2.25207 3.7402 3.45398 2.90039 4.79898 2.90039H12.4994C12.7755 2.90039 12.9994 3.12425 12.9994 3.40039C12.9994 3.67653 12.7755 3.90039 12.4994 3.90039H4.79898ZM13.4152 22.2719V18.2533C13.4152 17.0295 12.4232 16.0374 11.1994 16.0374H11.0845C9.85234 16.0374 8.85682 17.0426 8.86872 18.2747L8.90731 22.2719H13.4152Z" fill="black"/>
<path fill-rule="evenodd" clip-rule="evenodd" d="M18.3506 13.6933C21.8557 13.6933 24.6972 10.8518 24.6972 7.34665C24.6972 3.84149 21.8557 1 18.3506 1C14.8454 1 12.0039 3.84149 12.0039 7.34665C12.0039 10.8518 14.8454 13.6933 18.3506 13.6933ZM18.3506 14.6933C22.408 14.6933 25.6972 11.4041 25.6972 7.34665C25.6972 3.28921 22.408 0 18.3506 0C14.2931 0 11.0039 3.28921 11.0039 7.34665C11.0039 11.4041 14.2931 14.6933 18.3506 14.6933Z" fill="black"/>
<path fill-rule="evenodd" clip-rule="evenodd" d="M23.0488 12.0454C23.2441 11.8501 23.5606 11.8501 23.7559 12.0454L26.3591 14.6486C26.5544 14.8439 26.5544 15.1604 26.3591 15.3557C26.1639 15.551 25.8473 15.551 25.652 15.3557L23.0488 12.7525C22.8535 12.5572 22.8535 12.2406 23.0488 12.0454Z" fill="black"/>
</svg>
