<svg width="24" height="24" viewBox="0 0 24 24" fill="none" xmlns="http://www.w3.org/2000/svg">
    <path d="M6.36509 18.9593C6.75707 18.2957 7.60959 18.0773 8.26921 18.4715C8.92926 18.8657 9.14635 19.7235 8.75436 20.387C8.36237 21.0506 7.50984 21.269 6.8498 20.8748C6.19018 20.4806 5.97309 19.6228 6.36509 18.9593V18.9593Z" stroke="white" stroke-linecap="round" stroke-linejoin="round"/>
    <path d="M3.66505 15.2164C4.33432 14.839 5.18114 15.0785 5.55643 15.7517C5.93217 16.4249 5.69355 17.277 5.02426 17.6545C4.35498 18.0324 3.50816 17.7925 3.13287 17.1193C2.75759 16.446 2.99577 15.5939 3.66505 15.2164V15.2164Z" stroke="white" stroke-linecap="round" stroke-linejoin="round"/>
    <path d="M3.18609 10.6169C3.95336 10.6266 4.56771 11.2603 4.55804 12.032C4.54837 12.8041 3.91865 13.4219 3.15137 13.4123C2.38409 13.4026 1.76974 12.7689 1.77941 11.9972C1.78908 11.2251 2.41882 10.6073 3.18609 10.6169V10.6169Z" stroke="white" stroke-linecap="round" stroke-linejoin="round"/>
    <path d="M5.05828 6.39299C5.71788 6.78717 5.93498 7.64499 5.54299 8.30854C5.15143 8.97212 4.2989 9.19053 3.63885 8.79634C2.97924 8.40216 2.76216 7.54435 3.15414 6.88078C3.54613 6.21721 4.39866 5.99881 5.05828 6.39299V6.39299Z" stroke="white" stroke-linecap="round" stroke-linejoin="round"/>
    <path d="M8.7793 3.67645C9.15457 4.34969 8.9164 5.20178 8.24711 5.57927C7.57784 5.95719 6.73102 5.71726 6.35573 5.04403C5.98 4.37079 6.21862 3.5187 6.8879 3.14121C7.55719 2.76329 8.404 3.00322 8.7793 3.67645V3.67645Z" stroke="white" stroke-linecap="round" stroke-linejoin="round"/>
    <path d="M13.351 3.19527C13.3414 3.96739 12.7116 4.58526 11.9443 4.57559C11.1771 4.56592 10.5627 3.93223 10.5724 3.16057C10.582 2.38845 11.2118 1.7706 11.9791 1.78026C12.7463 1.78992 13.3607 2.42317 13.351 3.19527Z" stroke="white" stroke-linecap="round" stroke-linejoin="round"/>
    <path d="M17.5512 5.07831C17.1592 5.74188 16.3067 5.9603 15.6471 5.56611C14.987 5.17193 14.77 4.31412 15.1619 3.65055C15.5539 2.98699 16.4065 2.76858 17.0665 3.16277C17.7261 3.55695 17.9432 4.41476 17.5512 5.07831V5.07831Z" stroke="white" stroke-linecap="round" stroke-linejoin="round"/>
    <path d="M20.251 8.82103C19.5817 9.19852 18.7349 8.95903 18.3596 8.28578C17.9839 7.61254 18.2225 6.76045 18.8918 6.38298C19.5611 6.00504 20.4079 6.24498 20.7832 6.91822C21.1585 7.59146 20.9203 8.44355 20.251 8.82103Z" stroke="white" stroke-linecap="round" stroke-linejoin="round"/>
    <path d="M20.7295 13.4207C19.9622 13.411 19.3479 12.7773 19.3575 12.0057C19.3672 11.2336 19.9969 10.6157 20.7642 10.6254C21.5315 10.635 22.1458 11.2687 22.1362 12.0404C22.1265 12.8125 21.4968 13.4304 20.7295 13.4207V13.4207Z" stroke="white" stroke-linecap="round" stroke-linejoin="round"/>
    <path d="M18.8576 17.6446C18.198 17.2504 17.9809 16.3926 18.3729 15.7291C18.7644 15.0655 19.617 14.8471 20.277 15.2413C20.9366 15.6354 21.1537 16.4932 20.7617 17.1568C20.3697 17.8204 19.5172 18.0388 18.8576 17.6446V17.6446Z" stroke="white" stroke-linecap="round" stroke-linejoin="round"/>
    <path d="M15.1368 20.3612C14.7615 19.6879 14.9997 18.8358 15.669 18.4583C16.3382 18.0804 17.185 18.3204 17.5603 18.9936C17.9361 19.6668 17.6974 20.5189 17.0282 20.8964C16.3589 21.2743 15.5121 21.0344 15.1368 20.3612V20.3612Z" stroke="white" stroke-linecap="round" stroke-linejoin="round"/>
    <path d="M10.7186 20.2888L11.326 19.6814C11.6288 19.3786 12.1205 19.3786 12.4233 19.6814L13.0309 20.289C13.3336 20.5917 13.3336 21.0832 13.0309 21.3859L12.4233 21.9935C12.1205 22.2964 11.6288 22.2964 11.326 21.9935L10.7186 21.3861C10.4158 21.0833 10.4158 20.5916 10.7186 20.2888V20.2888Z" stroke="white" stroke-linecap="round" stroke-linejoin="round"/>
    <path d="M6.25805 13.833L6.70816 13.3829C6.93263 13.1584 7.2971 13.1584 7.52157 13.3829L7.97169 13.833C8.19603 14.0574 8.19603 14.4216 7.97169 14.646L7.52137 15.0963C7.29701 15.3207 6.93272 15.3207 6.70836 15.0963L6.25805 14.646C6.0337 14.4216 6.0337 14.0574 6.25805 13.833V13.833Z" stroke="white" stroke-linecap="round" stroke-linejoin="round"/>
    <path d="M16.1547 13.3214L16.6046 12.8715C16.8291 12.647 17.1936 12.647 17.4181 12.8715L17.868 13.3214C18.0924 13.5459 18.0924 13.9103 17.868 14.1348L17.4179 14.5849C17.1935 14.8092 16.8292 14.8092 16.6048 14.5849L16.1547 14.1348C15.9303 13.9103 15.9303 13.5459 16.1547 13.3214L16.1547 13.3214Z" stroke="white" stroke-linecap="round" stroke-linejoin="round"/>
    <path d="M15.9436 9.22243L16.3937 8.77231C16.6182 8.54784 16.9827 8.54784 17.2071 8.77231L17.657 9.22222C17.8815 9.44668 17.8815 9.81114 17.657 10.0356L17.2069 10.4857C16.9826 10.7101 16.6183 10.7101 16.3939 10.4857L15.9436 10.0354C15.7192 9.81104 15.7192 9.44677 15.9436 9.22242L15.9436 9.22243Z" stroke="white" stroke-linecap="round" stroke-linejoin="round"/>
    <path d="M11.3225 9.32777L11.7726 8.87766C11.9971 8.65319 12.3616 8.65319 12.586 8.87766L13.0359 9.32757C13.2604 9.55202 13.2604 9.91648 13.0359 10.1409L12.5858 10.5911C12.3615 10.8154 11.9972 10.8154 11.7728 10.5911L11.3225 10.1407C11.0982 9.91639 11.0982 9.55211 11.3225 9.32777L11.3225 9.32777Z" stroke="white" stroke-linecap="round" stroke-linejoin="round"/>
    <path d="M11.1057 14.037L11.5558 13.5869C11.7803 13.3624 12.1448 13.3624 12.3692 13.5869L12.8193 14.037C13.0437 14.2613 13.0437 14.6256 12.8193 14.85L12.369 15.3003C12.1447 15.5246 11.7804 15.5246 11.556 15.3003L11.1057 14.85C10.8814 14.6256 10.8814 14.2613 11.1057 14.037V14.037Z" stroke="white" stroke-linecap="round" stroke-linejoin="round"/>
    <path d="M13.4592 11.6065L13.9093 11.1563C14.1338 10.9319 14.4983 10.9319 14.7227 11.1563L15.1727 11.6063C15.3971 11.8307 15.3971 12.1952 15.1727 12.4196L14.7225 12.8697C14.4982 13.0941 14.1339 13.0941 13.9095 12.8697L13.4592 12.4194C13.2349 12.1951 13.2349 11.8308 13.4592 11.6065L13.4592 11.6065Z" stroke="white" stroke-linecap="round" stroke-linejoin="round"/>
    <path d="M8.82661 11.6063L9.27652 11.1563C9.50099 10.9319 9.86546 10.9319 10.0899 11.1563L10.54 11.6065C10.7644 11.8308 10.7644 12.1951 10.54 12.4194L10.0897 12.8697C9.86537 13.0941 9.50108 13.0941 9.27672 12.8697L8.82661 12.4196C8.60215 12.1952 8.60215 11.8307 8.8266 11.6063L8.82661 11.6063Z" stroke="white" stroke-linecap="round" stroke-linejoin="round"/>
    <path d="M6.70336 9.22242L7.15347 8.77231C7.37794 8.54784 7.74242 8.54784 7.96688 8.77231L8.417 9.22242C8.64134 9.44677 8.64134 9.81104 8.417 10.0354L7.96668 10.4857C7.74233 10.7101 7.37803 10.7101 7.15367 10.4857L6.70336 10.0354C6.47901 9.81104 6.47901 9.44677 6.70336 9.22242V9.22242Z" stroke="white" stroke-linecap="round" stroke-linejoin="round"/>
    <path d="M15.1932 19.1287L15.8006 18.5213C16.1034 18.2185 16.5951 18.2185 16.8979 18.5213L17.5055 19.1289C17.8082 19.4316 17.8082 19.9231 17.5055 20.2258L16.8979 20.8334C16.5951 21.1363 16.1034 21.1363 15.8006 20.8334L15.1932 20.226C14.8904 19.9232 14.8904 19.4315 15.1932 19.1287Z" stroke="white" stroke-linecap="round" stroke-linejoin="round"/>
    <path d="M18.41 15.9103L19.0174 15.3029C19.3202 15.0001 19.8119 15.0001 20.1147 15.3029L20.7223 15.9105C21.025 16.2132 21.025 16.7047 20.7223 17.0074L20.1147 17.6151C19.8119 17.9179 19.3202 17.9179 19.0174 17.6151L18.41 17.0076C18.1072 16.7048 18.1072 16.2131 18.41 15.9103Z" stroke="white" stroke-linecap="round" stroke-linejoin="round"/>
    <path d="M19.5897 11.4744L20.1971 10.8669C20.4999 10.5641 20.9916 10.5641 21.2944 10.8669L21.902 11.4746C22.2047 11.7773 22.2047 12.2688 21.902 12.5715L21.2944 13.1791C20.9916 13.4819 20.4999 13.4819 20.1971 13.1791L19.5897 12.5717C19.2869 12.2688 19.2869 11.7772 19.5897 11.4744V11.4744Z" stroke="white" stroke-linecap="round" stroke-linejoin="round"/>
    <path d="M18.4158 7.03833L19.0233 6.43089C19.3261 6.12808 19.8178 6.12808 20.1206 6.43089L20.7282 7.03852C21.0309 7.34122 21.0309 7.83273 20.7282 8.13543L20.1206 8.74306C19.8178 9.04587 19.3261 9.04587 19.0233 8.74306L18.4158 8.13562C18.113 7.83281 18.113 7.34114 18.4158 7.03833Z" stroke="white" stroke-linecap="round" stroke-linejoin="round"/>
    <path d="M15.199 3.81567L15.8065 3.20824C16.1093 2.90543 16.601 2.90543 16.9038 3.20824L17.5114 3.81587C17.8141 4.11856 17.8141 4.61007 17.5114 4.91277L16.9038 5.5204C16.601 5.82321 16.1093 5.82321 15.8065 5.5204L15.199 4.91297C14.8962 4.61016 14.8962 4.11848 15.199 3.81567V3.81567Z" stroke="white" stroke-linecap="round" stroke-linejoin="round"/>
    <path d="M10.8299 2.62921L11.4373 2.02178C11.7401 1.71897 12.2318 1.71897 12.5346 2.02178L13.1423 2.6294C13.445 2.9321 13.445 3.42361 13.1423 3.72631L12.5346 4.33394C12.2318 4.63675 11.7401 4.63675 11.4373 4.33394L10.8299 3.7265C10.5271 3.4237 10.5271 2.93202 10.8299 2.62921V2.62921Z" stroke="white" stroke-linecap="round" stroke-linejoin="round"/>
    <path d="M6.41193 3.81152L7.01937 3.20408C7.32218 2.90127 7.81386 2.90127 8.11667 3.20408L8.7243 3.81171C9.027 4.11441 9.027 4.60592 8.7243 4.90862L8.11686 5.51605C7.81395 5.81897 7.32209 5.81897 7.01917 5.51605L6.41193 4.90881C6.10912 4.60601 6.10912 4.11433 6.41193 3.81152L6.41193 3.81152Z" stroke="white" stroke-linecap="round" stroke-linejoin="round"/>
    <path d="M3.19318 7.0606L3.80062 6.45317C4.10343 6.15036 4.59511 6.15036 4.89792 6.45317L5.50555 7.0608C5.80825 7.36349 5.80825 7.855 5.50555 8.1577L4.89811 8.76514C4.5952 9.06805 4.10334 9.06806 3.80042 8.76514L3.19318 8.1579C2.89037 7.85509 2.89037 7.36341 3.19318 7.06061L3.19318 7.0606Z" stroke="white" stroke-linecap="round" stroke-linejoin="round"/>
    <path d="M2.01545 11.4664L2.62288 10.859C2.92569 10.5562 3.41738 10.5562 3.72019 10.859L4.32781 11.4666C4.63051 11.7693 4.63052 12.2608 4.32781 12.5635L3.72038 13.171C3.41746 13.4739 2.9256 13.4739 2.62268 13.171L2.01544 12.5637C1.71264 12.2609 1.71264 11.7692 2.01544 11.4664L2.01545 11.4664Z" stroke="white" stroke-linecap="round" stroke-linejoin="round"/>
    <path d="M3.19318 15.9176L3.80061 15.3102C4.10342 15.0074 4.59511 15.0074 4.89792 15.3102L5.50555 15.9178C5.80824 16.2205 5.80825 16.712 5.50554 17.0147L4.89792 17.6223C4.59511 17.9251 4.10342 17.9251 3.80061 17.6223L3.19318 17.0149C2.89037 16.7121 2.89037 16.2204 3.19318 15.9176V15.9176Z" stroke="white" stroke-linecap="round" stroke-linejoin="round"/>
    <path d="M6.40412 19.1287L7.01155 18.5213C7.31436 18.2185 7.80605 18.2185 8.10886 18.5213L8.71648 19.1289C9.01918 19.4316 9.01918 19.9231 8.71648 20.2258L8.10885 20.8334C7.80604 21.1363 7.31436 21.1363 7.01155 20.8334L6.40411 20.226C6.10131 19.9232 6.10131 19.4315 6.40412 19.1287Z" stroke="white" stroke-linecap="round" stroke-linejoin="round"/>
</svg>
