<svg width="24" height="24" viewBox="0 0 24 24" fill="none" xmlns="http://www.w3.org/2000/svg">
    <path d="M19.9998 10.3942C19.2119 10.394 15.707 10.3941 12.6224 10.3942L12.187 10.3942C10.4197 10.3942 8.9873 11.8269 8.9873 13.5942V15.5914M19.9998 10.3942C19.9998 10.3942 17.555 9.48364 16.8685 8.18125M19.9998 10.3942C19.9998 10.3942 17.3573 11.0159 16.8685 12.4835M15.7333 14.5574V17.8667C15.7333 19.0449 14.7782 20 13.6 20H6.13333C4.95513 20 4 19.0449 4 17.8667V6.13333C4 4.95513 4.95513 4 6.13333 4H13.6C14.7782 4 15.7333 4.95513 15.7333 6.13333V6.33939" stroke="#B78053" stroke-linecap="round" stroke-linejoin="round"/>
</svg>
