<svg width="16" height="16" viewBox="0 0 16 16" fill="none" xmlns="http://www.w3.org/2000/svg">
<path d="M10.7996 6.66675C10.7996 6.66675 10.6663 7.33341 8.66628 10.0001C6.73295 12.5334 9.53295 14.4001 9.86628 14.6667H9.93295C10.3329 14.3334 15.3996 11.1334 10.7996 6.66675Z" stroke="#17191C" stroke-miterlimit="10" stroke-linecap="round" stroke-linejoin="round"/>
<path d="M9.19955 5.19996C9.19955 3.66663 8.59955 2.26663 7.99955 1.46663C7.79955 1.26663 7.46621 1.3333 7.39955 1.59996C7.13288 2.59996 6.33288 4.7333 4.39955 7.26663C1.93288 10.4666 4.19955 13.9333 6.53288 14.6C7.79955 14.9333 6.19955 13.9333 5.99955 11.8666C5.79955 9.26663 9.19955 7.3333 9.19955 5.19996Z" stroke="#17191C" stroke-miterlimit="10" stroke-linecap="round" stroke-linejoin="round"/>
</svg>
