<svg width="24" height="24" viewBox="0 0 24 24" fill="none" xmlns="http://www.w3.org/2000/svg">
    <path d="M19.8191 12.1298L22.5349 9.63342C23.0363 9.17237 22.6812 8.3835 21.9718 8.3835H18.608C17.8964 8.3835 17.5418 8.00474 18.0484 7.54499L19.5799 6.15445C20.0866 5.69471 19.7324 4.90148 19.0204 4.90148H15.6459C14.9423 4.90148 14.5845 4.12393 15.0745 3.65983L15.6063 2.74165C16.0962 2.27756 15.738 1.5 15.0344 1.5H9.25257C8.54896 1.5 8.1912 2.27755 8.68113 2.74165L9.21292 3.65983C9.70285 4.12392 9.3451 4.90148 8.64104 4.90148H5.26703C4.55504 4.90148 4.20081 5.69471 4.70749 6.15445L6.23896 7.54499C6.7452 8.00474 6.39097 8.3835 5.67898 8.3835H2.31554C1.6062 8.3835 1.25064 9.17237 1.75247 9.63342L4.46824 12.1298M4.46824 12.1298L1.75247 14.6261C1.25064 15.0872 1.6062 15.8761 2.31554 15.8761H5.67897C6.39096 15.8761 6.7452 16.2548 6.23896 16.7146L4.70748 18.1051C4.20081 18.5648 4.55504 19.3581 5.26703 19.3581H8.64104C9.3451 19.3581 9.70285 20.1356 9.21292 20.5997L8.68113 21.5179C8.1912 21.982 8.54895 22.7596 9.25257 22.7596H15.0344C15.738 22.7596 16.0962 21.982 15.6063 21.5179L15.0745 20.5997C14.5845 20.1356 14.9423 19.3581 15.6459 19.3581H19.0204C19.7324 19.3581 20.0866 18.5648 19.5799 18.1051L18.0484 16.7146C17.5418 16.2548 17.8964 15.8761 18.608 15.8761H21.9718C22.6812 15.8761 23.0363 15.0872 22.5349 14.6261L19.8191 12.1298" stroke="white" stroke-linecap="round" stroke-linejoin="round"/>
    <path d="M11.8345 15.8155L8.44106 12.4436C8.26835 12.2717 8.26835 11.9987 8.44106 11.8267L11.8345 8.45484C12.0151 8.27547 12.3134 8.27547 12.494 8.45484L15.887 11.8267C16.0601 11.9987 16.0601 12.2717 15.887 12.4436L12.494 15.8155C12.3134 15.9949 12.0151 15.9949 11.8345 15.8155V15.8155Z" stroke="white" stroke-linecap="round" stroke-linejoin="round"/>
</svg>
