<svg width="24" height="24" viewBox="0 0 24 24" fill="none" xmlns="http://www.w3.org/2000/svg">
    <path d="M12.1436 22.5007C12.5918 22.4915 14.1626 22.4766 15.4979 21.3384C17.1687 19.9137 17.1665 17.8053 17.1836 17.4609C16.8392 17.478 14.7302 17.4759 13.306 19.1466C12.1677 20.4817 12.1528 22.0525 12.1436 22.5007V22.5007Z" stroke="white" stroke-linecap="round" stroke-linejoin="round"/>
    <path d="M17.459 17.1863C17.9073 17.1771 19.4781 17.1622 20.8133 16.0239C22.4841 14.5993 22.4819 12.4908 22.499 12.1465C22.1547 12.1636 20.0461 12.1614 18.6214 13.8321C17.4831 15.1673 17.4682 16.738 17.459 17.1863Z" stroke="white" stroke-linecap="round" stroke-linejoin="round"/>
    <path d="M22.499 11.8542C22.4898 11.406 22.4749 9.83526 21.3366 8.50009C19.9123 6.82936 17.8033 6.83156 17.459 6.81445C17.4761 7.15877 17.4739 9.26724 19.1447 10.6919C20.4799 11.8301 22.0507 11.845 22.499 11.8542H22.499Z" stroke="white" stroke-linecap="round" stroke-linejoin="round"/>
    <path d="M12.1436 11.8542C12.5918 11.845 14.1626 11.8301 15.4979 10.6919C17.1687 9.26724 17.1665 7.15878 17.1836 6.81445C16.8392 6.83156 14.7302 6.82937 13.306 8.50009C12.1677 9.83526 12.1528 11.406 12.1436 11.8542V11.8542Z" stroke="white" stroke-linecap="round" stroke-linejoin="round"/>
    <path d="M11.8574 12.1406C11.4091 12.1498 9.83832 12.1648 8.50309 13.303C6.8323 14.7276 6.83449 16.8361 6.81738 17.1804C7.16172 17.1633 9.27072 17.1655 10.695 15.4948C11.8333 14.1596 11.8482 12.5889 11.8574 12.1406L11.8574 12.1406Z" stroke="white" stroke-linecap="round" stroke-linejoin="round"/>
    <path d="M11.8574 11.8542C11.4091 11.845 9.83832 11.8301 8.50309 10.6919C6.8323 9.26724 6.83449 7.15878 6.81738 6.81445C7.16172 6.83156 9.27028 6.82937 10.695 8.50009C11.8333 9.83526 11.8482 11.406 11.8574 11.8542H11.8574Z" stroke="white" stroke-linecap="round" stroke-linejoin="round"/>
    <path d="M12.1436 12.1406C12.5918 12.1498 14.1626 12.1648 15.4979 13.303C17.1687 14.7276 17.1665 16.8361 17.1836 17.1804C16.8392 17.1633 14.7307 17.1655 13.306 15.4948C12.1677 14.1596 12.1528 12.5889 12.1436 12.1406V12.1406Z" stroke="white" stroke-linecap="round" stroke-linejoin="round"/>
    <path d="M17.1836 6.53979C17.1744 6.09152 17.1594 4.5208 16.0212 3.18563C14.5969 1.51491 12.4879 1.51711 12.1436 1.5C12.1607 1.84432 12.1585 3.95279 13.8293 5.37744C15.1645 6.51567 16.7353 6.53059 17.1836 6.53979V6.53979Z" stroke="white" stroke-linecap="round" stroke-linejoin="round"/>
    <path d="M11.8545 22.5007C11.4062 22.4915 9.83539 22.4766 8.50016 21.3384C6.82937 19.9137 6.83156 17.8053 6.81445 17.4609C7.15879 17.478 9.26779 17.4759 10.6921 19.1466C11.8303 20.4817 11.8453 22.0525 11.8545 22.5007H11.8545Z" stroke="white" stroke-linecap="round" stroke-linejoin="round"/>
    <path d="M6.54002 17.1861C6.09173 17.1769 4.52095 17.162 3.18571 16.0237C1.51491 14.5991 1.51711 12.4906 1.5 12.1463C1.84434 12.1634 3.95334 12.1612 5.37761 13.8319C6.51589 15.1671 6.53081 16.7378 6.54002 17.1861H6.54002Z" stroke="white" stroke-linecap="round" stroke-linejoin="round"/>
    <path d="M1.5 11.8542C1.50922 11.406 1.52413 9.83526 2.66241 8.50009C4.08668 6.82936 6.19569 6.83156 6.54002 6.81445C6.52291 7.15877 6.52511 9.26724 4.85431 10.6919C3.51908 11.8301 1.94829 11.845 1.5 11.8542H1.5Z" stroke="white" stroke-linecap="round" stroke-linejoin="round"/>
    <path d="M6.81445 6.53979C6.82366 6.09152 6.83857 4.5208 7.97686 3.18563C9.40113 1.51491 11.5101 1.51711 11.8545 1.5C11.8374 1.84432 11.8396 3.95279 10.1688 5.37744C8.83353 6.51567 7.26275 6.53059 6.81445 6.53979V6.53979Z" stroke="white" stroke-linecap="round" stroke-linejoin="round"/>
</svg>
