<svg width="18" height="18" viewBox="0 0 18 18" fill="none" xmlns="http://www.w3.org/2000/svg">
    <path fill-rule="evenodd" clip-rule="evenodd" d="M0.5 3.13333C0.5 1.67898 1.67898 0.5 3.13333 0.5H10.6C12.0543 0.5 13.2333 1.67898 13.2333 3.13333V3.33939C13.2333 3.61553 13.0095 3.83939 12.7333 3.83939C12.4572 3.83939 12.2333 3.61553 12.2333 3.33939V3.13333C12.2333 2.23127 11.5021 1.5 10.6 1.5H3.13333C2.23127 1.5 1.5 2.23127 1.5 3.13333V14.8667C1.5 15.7687 2.23127 16.5 3.13333 16.5H10.6C11.5021 16.5 12.2333 15.7687 12.2333 14.8667V11.5574C12.2333 11.2812 12.4572 11.0574 12.7333 11.0574C13.0095 11.0574 13.2333 11.2812 13.2333 11.5574V14.8667C13.2333 16.321 12.0543 17.5 10.6 17.5H3.13333C1.67898 17.5 0.5 16.321 0.5 14.8667V3.13333ZM13.6354 4.73893C13.8797 4.61017 14.1821 4.70383 14.3108 4.94812C14.5804 5.45946 15.2452 5.95296 15.9359 6.33991C16.267 6.52537 16.5791 6.67288 16.8087 6.77403C16.9231 6.82447 17.0163 6.86303 17.0801 6.88869C17.1119 6.90152 17.1364 6.9111 17.1525 6.9173L17.1701 6.92406L17.1739 6.92551C17.1739 6.92551 17.1743 6.92566 16.9998 7.39421L16.9997 7.89421C16.647 7.89413 15.7498 7.8941 14.5896 7.8941C13.1642 7.89409 11.3417 7.89413 9.64405 7.89416L9.18702 7.89417C7.69591 7.8942 6.4873 9.10299 6.4873 10.5942V12.5914C6.4873 12.8675 6.26345 13.0914 5.9873 13.0914C5.71116 13.0914 5.4873 12.8675 5.4873 12.5914V10.5942C5.4873 8.55082 7.1435 6.89421 9.18701 6.89417L9.64371 6.89416C11.4757 6.89412 13.4532 6.89409 14.9202 6.8941C14.3423 6.51627 13.7438 6.017 13.4262 5.41438C13.2974 5.1701 13.3911 4.86768 13.6354 4.73893ZM17.1143 7.88094L17.1105 7.88185L17.0923 7.88637C17.0755 7.8906 17.0498 7.89724 17.0162 7.90634C16.949 7.92457 16.8508 7.95259 16.7308 7.99076C16.4897 8.06745 16.1656 8.18348 15.8299 8.34108C15.4922 8.49966 15.1571 8.69364 14.8847 8.92142C14.6108 9.15047 14.4259 9.39217 14.3429 9.64143C14.2557 9.90343 13.9725 10.0451 13.7105 9.95784C13.4485 9.87059 13.3069 9.58747 13.3941 9.32547C13.5555 8.84094 13.8842 8.45459 14.2432 8.15432C14.3542 8.06151 14.4705 7.97485 14.5896 7.8941M17.1143 7.88094C17.3286 7.83034 17.485 7.64537 17.4988 7.42556C17.5126 7.20567 17.3804 7.00247 17.1739 6.92551" fill="white"/>
</svg>
