
<svg width="172" height="38" viewBox="0 0 172 38" fill="none" xmlns="http://www.w3.org/2000/svg">
    <path d="M2 19C2 9.61116 9.61116 2 19 2H153C162.389 2 170 9.61116 170 19V19C170 28.3888 162.389 36 153 36H19C9.61115 36 2 28.3888 2 19V19Z" fill="url(#paint0_linear_47_879)"/>
    <path d="M43.538 22.461H44.088L48.202 15.322H49.346L49.896 22.461H50.446L50.314 23H47.729L47.861 22.461H48.664L48.543 20.525H45.958L44.88 22.461H45.683L45.551 23H43.406L43.538 22.461ZM46.255 19.953H48.521L48.323 16.334H48.246L46.255 19.953ZM51.5396 22.461H52.2876L53.9376 15.861H53.1896L53.3216 15.322H56.8746C57.4172 15.322 57.8462 15.443 58.1616 15.685C58.4769 15.9197 58.6346 16.2827 58.6346 16.774C58.6346 17.016 58.5942 17.2947 58.5136 17.61C58.4329 17.918 58.2899 18.215 58.0846 18.501C57.8866 18.7797 57.6116 19.0143 57.2596 19.205C56.9076 19.3957 56.4602 19.491 55.9176 19.491H54.2896L53.5416 22.461H54.5316L54.3996 23H51.4076L51.5396 22.461ZM54.4326 18.908H55.7636C56.1229 18.908 56.4272 18.798 56.6766 18.578C56.9332 18.3507 57.1129 18.0427 57.2156 17.654C57.2229 17.6027 57.2376 17.5367 57.2596 17.456C57.2816 17.3753 57.2999 17.291 57.3146 17.203C57.3366 17.115 57.3549 17.0307 57.3696 16.95C57.3842 16.862 57.3916 16.785 57.3916 16.719C57.3916 16.477 57.3182 16.2827 57.1716 16.136C57.0322 15.982 56.8122 15.905 56.5116 15.905H55.1806L54.4326 18.908ZM58.653 22.461H59.401L61.051 15.861H60.303L60.435 15.322H63.988C64.5307 15.322 64.9597 15.443 65.275 15.685C65.5904 15.9197 65.748 16.2827 65.748 16.774C65.748 17.016 65.7077 17.2947 65.627 17.61C65.5464 17.918 65.4034 18.215 65.198 18.501C65 18.7797 64.725 19.0143 64.373 19.205C64.021 19.3957 63.5737 19.491 63.031 19.491H61.403L60.655 22.461H61.645L61.513 23H58.521L58.653 22.461ZM61.546 18.908H62.877C63.2364 18.908 63.5407 18.798 63.79 18.578C64.0467 18.3507 64.2264 18.0427 64.329 17.654C64.3364 17.6027 64.351 17.5367 64.373 17.456C64.395 17.3753 64.4134 17.291 64.428 17.203C64.45 17.115 64.4684 17.0307 64.483 16.95C64.4977 16.862 64.505 16.785 64.505 16.719C64.505 16.477 64.4317 16.2827 64.285 16.136C64.1457 15.982 63.9257 15.905 63.625 15.905H62.294L61.546 18.908ZM65.7665 22.461H66.5145L68.1645 15.861H67.4165L67.5485 15.322H70.2985L70.1665 15.861H69.4185L67.7795 22.417H70.1005L70.4745 20.921H71.4205L70.9035 23H65.6345L65.7665 22.461ZM72.978 22.461H73.858L74.485 19.887L73.429 15.861H72.879L73.011 15.322H75.662L75.53 15.861H74.727L75.497 19.106H75.585L77.961 15.861H77.158L77.301 15.322H79.468L79.336 15.861H78.786L75.772 19.766L75.112 22.461H75.992L75.86 23H72.846L72.978 22.461ZM83.1822 23V15.322H87.9782V16.422H84.4252V18.556H87.5822V19.656H84.4252V23H83.1822ZM89.6756 23V21.988H90.7206V16.334H89.6756V15.322H93.0196V16.334H91.9636V21.988H93.0196V23H89.6756ZM95.1318 23V15.322H96.3748V21.9H99.4988V23H95.1318ZM103.376 16.422V23H102.133V16.422H99.8445V15.322H105.664V16.422H103.376ZM107.425 23V15.322H112.342V16.422H108.668V18.556H112.001V19.656H108.668V21.9H112.342V23H107.425ZM115.739 23H114.496V15.322H117.807C118.496 15.322 119.039 15.531 119.435 15.949C119.831 16.3597 120.029 16.9207 120.029 17.632C120.029 18.182 119.9 18.6403 119.644 19.007C119.394 19.3663 119.024 19.6193 118.533 19.766L120.194 23H118.808L117.268 19.898H115.739V23ZM117.719 18.853C118.034 18.853 118.28 18.7723 118.456 18.611C118.632 18.4423 118.72 18.204 118.72 17.896V17.368C118.72 17.06 118.632 16.8253 118.456 16.664C118.28 16.4953 118.034 16.411 117.719 16.411H115.739V18.853H117.719ZM124.553 23.132C123.907 23.132 123.357 23.0147 122.903 22.78C122.455 22.5453 122.07 22.23 121.748 21.834L122.606 21.031C122.877 21.361 123.174 21.6103 123.497 21.779C123.827 21.9477 124.201 22.032 124.619 22.032C125.11 22.032 125.48 21.922 125.73 21.702C125.979 21.482 126.104 21.185 126.104 20.811C126.104 20.5103 126.016 20.272 125.84 20.096C125.664 19.92 125.352 19.788 124.905 19.7L124.223 19.579C123.475 19.4397 122.914 19.194 122.54 18.842C122.166 18.49 121.979 18.006 121.979 17.39C121.979 17.0527 122.041 16.7483 122.166 16.477C122.298 16.1983 122.477 15.9673 122.705 15.784C122.939 15.5933 123.222 15.4467 123.552 15.344C123.882 15.2413 124.252 15.19 124.663 15.19C125.242 15.19 125.744 15.2927 126.17 15.498C126.595 15.696 126.958 15.9857 127.259 16.367L126.39 17.137C126.192 16.8803 125.95 16.675 125.664 16.521C125.378 16.367 125.022 16.29 124.597 16.29C124.157 16.29 123.816 16.378 123.574 16.554C123.332 16.73 123.211 16.9867 123.211 17.324C123.211 17.6467 123.31 17.8887 123.508 18.05C123.706 18.204 124.014 18.3213 124.432 18.402L125.114 18.545C125.884 18.6917 126.445 18.941 126.797 19.293C127.156 19.645 127.336 20.129 127.336 20.745C127.336 21.1043 127.273 21.4307 127.149 21.724C127.024 22.0173 126.841 22.2703 126.599 22.483C126.364 22.6883 126.074 22.8497 125.73 22.967C125.385 23.077 124.993 23.132 124.553 23.132Z" fill="white"/>
    <path d="M19 3.28571H153V0.714286H19V3.28571ZM153 34.7143H19V37.2857H153V34.7143ZM19 34.7143C10.3212 34.7143 3.28571 27.6788 3.28571 19H0.714286C0.714286 29.0989 8.90107 37.2857 19 37.2857V34.7143ZM168.714 19C168.714 27.6788 161.679 34.7143 153 34.7143V37.2857C163.099 37.2857 171.286 29.0989 171.286 19H168.714ZM153 3.28571C161.679 3.28571 168.714 10.3212 168.714 19H171.286C171.286 8.90108 163.099 0.714286 153 0.714286V3.28571ZM19 0.714286C8.90108 0.714286 0.714286 8.90108 0.714286 19H3.28571C3.28571 10.3212 10.3212 3.28571 19 3.28571V0.714286Z" fill="url(#paint1_linear_47_879)" fill-opacity="0.8"/>
    <defs>
        <linearGradient id="paint0_linear_47_879" x1="-3.13761" y1="-13.725" x2="157.061" y2="59.6113" gradientUnits="userSpaceOnUse">
            <stop stop-color="#F29EB6"/>
            <stop offset="1" stop-color="#E6116D"/>
        </linearGradient>
        <linearGradient id="paint1_linear_47_879" x1="2" y1="66.8191" x2="170" y2="66.8191" gradientUnits="userSpaceOnUse">
            <stop stop-color="#F7DE97"/>
            <stop offset="0.40413" stop-color="#B78053"/>
            <stop offset="1" stop-color="#FFD044"/>
        </linearGradient>
    </defs>
</svg>
