<svg width="74" height="49" viewBox="0 0 74 49" fill="none" xmlns="http://www.w3.org/2000/svg">
<path d="M29.5915 27.1586H30.382V34.8825C30.382 35.5261 30.0935 35.1507 30.0295 35.0219L25.1794 27.5019C23.9402 25.646 22.3378 27.1908 21.5473 26L21.1947 26.0858L21.9532 27.2659C22.0707 27.4482 22.0921 27.5448 22.0921 27.8559V39.431C22.0921 40.2248 22.6156 40.5145 23.0429 40.5145H23.2672V39.7421H23.1283C22.9574 39.7421 22.8613 39.6026 22.8613 39.431V29.0037C22.8613 28.6926 22.9574 28.8106 22.9788 28.8535L30.5102 40.5145H31.1511V27.1586H31.9737V26.4398H29.6021V27.1586H29.5915ZM10.7576 26.4398H0V27.1586H4.72181C4.52978 27.2558 4.36826 27.4044 4.25513 27.5881C4.14201 27.7717 4.08169 27.9832 4.08084 28.1992V40.4394H5.52303C5.6747 40.4399 5.82498 40.4104 5.96521 40.3523C6.10545 40.2943 6.23286 40.209 6.34011 40.1013C6.44736 39.9936 6.53232 39.8657 6.5901 39.7248C6.64788 39.584 6.67734 39.4331 6.67677 39.2808V27.813C6.67677 27.3731 6.94384 27.1479 7.25364 27.1479H10.7576V26.4398ZM42.0049 39.6777H36.7703C36.9215 39.5713 37.045 39.43 37.1305 39.2658C37.216 39.1015 37.261 38.919 37.2617 38.7337V34.1637C37.2617 33.8848 37.422 33.7453 37.6143 33.7453H41.2037V33.0266H37.6143C37.3686 33.0266 37.2617 32.8335 37.2617 32.6082V27.813C37.2617 27.3731 37.5288 27.1479 37.8386 27.1479H43.0198V26.4398H34.0676V27.1586H35.3068C35.1147 27.2558 34.9532 27.4044 34.8401 27.5881C34.727 27.7717 34.6666 27.9832 34.6658 28.1992V40.4394H42.0797C42.9984 40.4394 43.0625 39.8172 43.0625 39.3237H42.3147C42.3147 39.4846 42.3147 39.6777 42.0049 39.6777ZM19.838 39.3881L15.8533 26.4398H15.0414L10.2983 40.4286H10.6615C11.1315 39.0662 13.0651 40.1819 13.8129 38.0793L16.1952 31.0527C16.2379 30.9132 16.3661 30.7738 16.5157 31.2351V31.2243C17.6374 34.861 19.0582 39.4846 19.0582 39.4846C19.1543 39.7957 19.368 40.5145 20.1799 40.5145H20.3829V39.7421H20.2012C19.9662 39.7421 19.8914 39.5704 19.838 39.3881ZM73.8077 39.7421C73.5834 39.7421 73.5086 39.5704 73.4552 39.3881L69.4705 26.4398H68.6586L63.9154 40.4286H64.2786C64.7487 39.0662 66.6823 40.1819 67.4301 38.0793L69.8123 31.0527C69.8551 30.9132 69.9833 30.7738 70.1328 31.2351V31.2243C71.2545 34.861 72.6753 39.4846 72.6753 39.4846C72.7715 39.7957 72.9851 40.5145 73.797 40.5145H74V39.7421H73.8077ZM59.0013 34.3139C59.9231 34.0381 60.7152 33.4384 61.2328 32.6243C61.7505 31.8103 61.959 30.8363 61.8202 29.8805C61.6815 28.9248 61.2048 28.0511 60.4772 27.4193C59.7497 26.7875 58.8201 26.4398 57.8582 26.4398H51.9186V27.1586H53.2753C53.0833 27.2558 52.9217 27.4044 52.8086 27.5881C52.6955 27.7717 52.6352 27.9832 52.6343 28.1992V40.4394H54.0765C54.2282 40.4399 54.3785 40.4104 54.5187 40.3523C54.6589 40.2943 54.7863 40.209 54.8936 40.1013C55.0008 39.9936 55.0858 39.8657 55.1436 39.7248C55.2014 39.584 55.2308 39.4331 55.2303 39.2808V27.813C55.2303 27.3731 55.4973 27.1479 55.8071 27.1479H57.8476C58.2796 27.1479 58.7075 27.2333 59.1067 27.3994C59.5059 27.5654 59.8686 27.8088 60.1742 28.1156C60.4797 28.4224 60.7221 28.7867 60.8874 29.1875C61.0528 29.5884 61.1379 30.0181 61.1379 30.452C61.1379 30.8859 61.0528 31.3155 60.8874 31.7164C60.7221 32.1173 60.4797 32.4815 60.1742 32.7883C59.8686 33.0951 59.5059 33.3385 59.1067 33.5046C58.7075 33.6706 58.2796 33.7561 57.8476 33.7561H55.7858V34.4748H56.1703C56.3306 34.4748 56.6404 34.5714 56.8861 35.0112L59.0227 38.9053C60.0055 40.6432 61.4904 39.3022 62.1207 40.4179H62.4839L59.2577 34.5392C59.1948 34.4416 59.106 34.3636 59.0013 34.3139ZM45.1457 27.1586H46.5024C46.3103 27.2558 46.1488 27.4044 46.0357 27.5881C45.9226 27.7717 45.8623 27.9832 45.8614 28.1992V39.6884H45.1457V40.4394H49.1838V39.6884H47.9766C48.1278 39.582 48.2513 39.4408 48.3368 39.2765C48.4223 39.1122 48.4673 38.9298 48.468 38.7444V27.813C48.468 27.3731 48.7351 27.1479 49.0449 27.1479H49.4615V26.4398H45.1457V27.1586Z" fill="#E6116D"/>
<path fill-rule="evenodd" clip-rule="evenodd" d="M18.0512 48.9032V46.1677H16.9723V44.9984H20.6365V46.1892H19.643V48.9032H18.0512ZM25.9779 48.9032V46.1892H24.9203V44.9984H28.6059V46.2106H27.5803V48.9032H25.9779ZM20.4655 48.9032L21.9184 44.9984H23.6277L25.0592 48.9032H23.5208L22.773 46.6504L22.0252 48.9032H20.4655ZM28.3922 48.9032L29.8451 44.9984H31.533L32.9645 48.9032H31.4475L30.6997 46.6504L29.9092 48.9032H28.3922ZM12.9021 45.642L12.2398 47.4121H13.5217L12.9021 45.642ZM12.4534 44.9769H13.3828L14.8998 48.914H14.0665L13.746 47.9807H12.0368L11.6949 48.914H10.9258L12.4534 44.9769ZM60.1095 44.9877H62.9512V45.5884H61.9043V48.9032H61.1351V45.5884H60.1095V44.9877ZM59.4365 45.1164L59.3831 45.7386C59.3724 45.7279 59.3511 45.7279 59.3297 45.7171C59.0622 45.6008 58.7767 45.5318 58.4857 45.5133C58.0584 45.5133 57.7166 45.642 57.4602 45.9102C57.3295 46.053 57.2282 46.2204 57.1622 46.4027C57.0962 46.5849 57.0668 46.7785 57.0756 46.9723C57.067 47.1604 57.0978 47.3483 57.1658 47.5238C57.2339 47.6994 57.3378 47.8586 57.4709 47.9914C57.6109 48.1226 57.7757 48.2243 57.9555 48.2907C58.1353 48.357 58.3265 48.3865 58.5178 48.3776C58.7411 48.3594 58.9606 48.3088 59.1695 48.2274C59.2763 48.1952 59.3511 48.1738 59.4045 48.1523L59.4686 48.7745C59.4152 48.7852 59.3511 48.8067 59.2549 48.8281C58.9948 48.9101 58.7258 48.9605 58.4537 48.9783C57.7807 48.9783 57.2465 48.796 56.862 48.4312C56.4774 48.0665 56.2744 47.573 56.2744 46.9615C56.2744 46.3501 56.4667 45.8459 56.862 45.4597C57.2572 45.0735 57.77 44.8911 58.411 44.8911C58.6869 44.906 58.9598 44.9565 59.2229 45.0413C59.319 45.0842 59.3938 45.0949 59.4365 45.1164ZM52.044 44.9877H52.8132V47.2834C52.8132 47.6588 52.8773 47.9378 53.0055 48.1201C53.1337 48.3025 53.3366 48.3883 53.6037 48.3883C53.7227 48.3951 53.8416 48.3722 53.9497 48.3216C54.0578 48.2711 54.1518 48.1945 54.2233 48.0987C54.3622 47.9056 54.437 47.6267 54.437 47.2512V44.9877H55.1634V47.2619C55.1634 47.8305 55.0352 48.2703 54.7788 48.5492C54.5224 48.8281 54.1272 48.9783 53.6037 48.9783C53.0802 48.9783 52.7063 48.8389 52.4499 48.5492C52.1936 48.2596 52.0547 47.8412 52.0547 47.2834V44.9877H52.044ZM47.6106 44.9877H48.7216C49.0078 44.984 49.2938 45.0055 49.5763 45.052C49.7807 45.0851 49.9766 45.158 50.1531 45.2666C50.4209 45.4343 50.6387 45.6715 50.7834 45.9531C50.9242 46.263 50.9971 46.5995 50.9971 46.9401C50.9971 47.2806 50.9242 47.6172 50.7834 47.927C50.6376 48.2114 50.4156 48.4492 50.1425 48.6136C49.9612 48.7304 49.7573 48.8072 49.5442 48.8389C49.2549 48.8894 48.9618 48.9145 48.6682 48.914H47.6106V44.9877ZM48.3798 45.567V48.3025H48.8285C49.2558 48.3025 49.5976 48.1845 49.8327 47.9378C50.0677 47.691 50.1959 47.3585 50.1959 46.9294C50.1959 46.5003 50.0784 46.157 49.8327 45.921C49.587 45.685 49.2451 45.567 48.7964 45.567H48.3798ZM44.6408 44.9018C45.2177 44.9018 45.6664 45.0842 45.9975 45.4489C46.3287 45.8137 46.4889 46.3072 46.4889 46.9508C46.4889 47.5945 46.3287 48.0879 45.9975 48.4527C45.6664 48.8174 45.2177 48.9998 44.6408 48.9998C44.0639 48.9998 43.6152 48.8174 43.2841 48.4527C42.9529 48.0879 42.7927 47.5945 42.7927 46.9508C42.7927 46.3072 42.9529 45.8137 43.2841 45.4489C43.6152 45.0842 44.0639 44.9018 44.6408 44.9018ZM44.6408 45.4811C44.4897 45.4769 44.3399 45.511 44.2055 45.5804C44.071 45.6498 43.9562 45.7522 43.8716 45.8781C43.6793 46.1462 43.5832 46.4895 43.5832 46.9294C43.5832 47.3692 43.6793 47.7232 43.8716 47.9914C43.9593 48.1141 44.0747 48.2141 44.2085 48.283C44.3422 48.352 44.4904 48.388 44.6408 48.388C44.7912 48.388 44.9394 48.352 45.0731 48.283C45.2069 48.2141 45.3223 48.1141 45.41 47.9914C45.6192 47.6782 45.724 47.3063 45.7091 46.9294C45.7091 46.4895 45.6129 46.1355 45.41 45.8781C45.3238 45.7538 45.2086 45.6527 45.0745 45.5835C44.9405 45.5143 44.7915 45.4792 44.6408 45.4811ZM39.1178 44.9877H40.3997C40.8804 44.9877 41.233 45.0735 41.468 45.2344C41.5847 45.3199 41.6782 45.4334 41.7397 45.5647C41.8013 45.6959 41.8291 45.8405 41.8205 45.9853C41.8288 46.2122 41.7527 46.434 41.6069 46.6075C41.4469 46.7839 41.2324 46.9011 40.998 46.9401C41.0985 46.9716 41.19 47.0268 41.265 47.101C41.3605 47.2321 41.4361 47.3767 41.4894 47.5301L42.0342 48.8925H41.2223L40.7843 47.7125C40.7447 47.5699 40.6581 47.4451 40.5386 47.3585C40.4046 47.2854 40.2527 47.2519 40.1006 47.2619H39.8549V48.9032H39.1178V44.9877ZM39.8763 45.5348V46.7148H40.2715C40.4745 46.7247 40.6757 46.6723 40.8484 46.5646C40.9167 46.5147 40.9711 46.4481 41.0067 46.3711C41.0422 46.2942 41.0576 46.2094 41.0514 46.1248C41.0587 46.0385 41.0439 45.9518 41.0084 45.8729C40.9728 45.7941 40.9178 45.7256 40.8484 45.6742C40.7095 45.5777 40.5065 45.5348 40.2074 45.5348H39.8763ZM35.4963 44.9877H36.6607C37.1628 44.9877 37.5367 45.0842 37.7824 45.288C38.0281 45.4919 38.1456 45.7922 38.1456 46.2106C38.1546 46.3788 38.1246 46.5468 38.0578 46.7013C37.9911 46.8558 37.8895 46.9927 37.7611 47.101C37.5047 47.3156 37.1415 47.4228 36.6821 47.4228H36.2655V48.914H35.4963V44.9877ZM36.2655 45.5348V46.8543H36.5753C36.8317 46.8543 37.0239 46.8006 37.1521 46.6826C37.2212 46.6237 37.2756 46.5494 37.3108 46.4655C37.3461 46.3817 37.3613 46.2907 37.3551 46.1999C37.3606 46.1085 37.3463 46.0171 37.3131 45.9319C37.2799 45.8467 37.2286 45.7697 37.1628 45.7064C37.0096 45.5817 36.8147 45.5203 36.618 45.5348H36.2655Z" fill="#E6116D"/>
<path d="M29.5915 1.15858H30.382V8.88247C30.382 9.52612 30.0935 9.15066 30.0295 9.02192L25.1794 1.50187C23.9402 -0.354011 22.3378 1.19077 21.5473 0L21.1947 0.0858208L21.9532 1.26586C22.0707 1.44823 22.0921 1.54478 22.0921 1.85588V13.431C22.0921 14.2248 22.6156 14.5145 23.0429 14.5145H23.2672V13.7421H23.1283C22.9574 13.7421 22.8613 13.6026 22.8613 13.431V3.00373C22.8613 2.69263 22.9574 2.81064 22.9788 2.85355L30.5102 14.5145H31.1511V1.15858H31.9737V0.439832H29.6021V1.15858H29.5915ZM10.7576 0.439832H0V1.15858H4.72181C4.52978 1.25577 4.36826 1.40441 4.25513 1.58806C4.14201 1.77171 4.08169 1.98322 4.08084 2.19916V14.4394H5.52303C5.6747 14.4399 5.82498 14.4104 5.96521 14.3523C6.10545 14.2943 6.23286 14.209 6.34011 14.1013C6.44736 13.9936 6.53232 13.8657 6.5901 13.7248C6.64788 13.584 6.67734 13.4331 6.67677 13.2808V1.81297C6.67677 1.37314 6.94384 1.14785 7.25364 1.14785H10.7576V0.439832ZM42.0049 13.6777H36.7703C36.9215 13.5713 37.045 13.43 37.1305 13.2658C37.216 13.1015 37.261 12.919 37.2617 12.7337V8.16372C37.2617 7.8848 37.422 7.74534 37.6143 7.74534H41.2037V7.02659H37.6143C37.3686 7.02659 37.2617 6.83349 37.2617 6.60821V1.81297C37.2617 1.37314 37.5288 1.14785 37.8386 1.14785H43.0198V0.439832H34.0676V1.15858H35.3068C35.1147 1.25577 34.9532 1.40441 34.8401 1.58806C34.727 1.77171 34.6666 1.98322 34.6658 2.19916V14.4394H42.0797C42.9984 14.4394 43.0625 13.8172 43.0625 13.3237H42.3147C42.3147 13.4846 42.3147 13.6777 42.0049 13.6777ZM19.838 13.3881L15.8533 0.439832H15.0414L10.2983 14.4286H10.6615C11.1315 13.0662 13.0651 14.1819 13.8129 12.0793L16.1952 5.05271C16.2379 4.91325 16.3661 4.77379 16.5157 5.23508V5.22435C17.6374 8.86101 19.0582 13.4846 19.0582 13.4846C19.1543 13.7957 19.368 14.5145 20.1799 14.5145H20.3829V13.7421H20.2012C19.9662 13.7421 19.8914 13.5704 19.838 13.3881ZM73.8077 13.7421C73.5834 13.7421 73.5086 13.5704 73.4552 13.3881L69.4705 0.439832H68.6586L63.9154 14.4286H64.2786C64.7487 13.0662 66.6823 14.1819 67.4301 12.0793L69.8123 5.05271C69.8551 4.91325 69.9833 4.77379 70.1328 5.23508V5.22435C71.2545 8.86101 72.6753 13.4846 72.6753 13.4846C72.7715 13.7957 72.9851 14.5145 73.797 14.5145H74V13.7421H73.8077ZM59.0013 8.3139C59.9231 8.03815 60.7152 7.4384 61.2328 6.62433C61.7505 5.81027 61.959 4.8363 61.8202 3.88055C61.6815 2.92479 61.2048 2.05113 60.4772 1.41934C59.7497 0.787548 58.8201 0.439849 57.8582 0.439832H51.9186V1.15858H53.2753C53.0833 1.25577 52.9217 1.40441 52.8086 1.58806C52.6955 1.77171 52.6352 1.98322 52.6343 2.19916V14.4394H54.0765C54.2282 14.4399 54.3785 14.4104 54.5187 14.3523C54.6589 14.2943 54.7863 14.209 54.8936 14.1013C55.0008 13.9936 55.0858 13.8657 55.1436 13.7248C55.2014 13.584 55.2308 13.4331 55.2303 13.2808V1.81297C55.2303 1.37314 55.4973 1.14785 55.8071 1.14785H57.8476C58.2796 1.14785 58.7075 1.23332 59.1067 1.39936C59.5059 1.56541 59.8686 1.80879 60.1742 2.1156C60.4797 2.42242 60.7221 2.78666 60.8874 3.18753C61.0528 3.58841 61.1379 4.01806 61.1379 4.45196C61.1379 4.88586 61.0528 5.31552 60.8874 5.71639C60.7221 6.11726 60.4797 6.4815 60.1742 6.78832C59.8686 7.09513 59.5059 7.33851 59.1067 7.50456C58.7075 7.6706 58.2796 7.75607 57.8476 7.75607H55.7858V8.47482H56.1703C56.3306 8.47482 56.6404 8.57136 56.8861 9.0112L59.0227 12.9053C60.0055 14.6432 61.4904 13.3022 62.1207 14.4179H62.4839L59.2577 8.53918C59.1948 8.44158 59.106 8.36356 59.0013 8.3139ZM45.1457 1.15858H46.5024C46.3103 1.25577 46.1488 1.40441 46.0357 1.58806C45.9226 1.77171 45.8623 1.98322 45.8614 2.19916V13.6884H45.1457V14.4394H49.1838V13.6884H47.9766C48.1278 13.582 48.2513 13.4408 48.3368 13.2765C48.4223 13.1122 48.4673 12.9298 48.468 12.7444V1.81297C48.468 1.37314 48.7351 1.14785 49.0449 1.14785H49.4615V0.439832H45.1457V1.15858Z" fill="white"/>
<path fill-rule="evenodd" clip-rule="evenodd" d="M18.0512 22.9032V20.1677H16.9723V18.9984H20.6365V20.1892H19.643V22.9032H18.0512ZM25.9779 22.9032V20.1892H24.9203V18.9984H28.6059V20.2106H27.5803V22.9032H25.9779ZM20.4655 22.9032L21.9184 18.9984H23.6277L25.0592 22.9032H23.5208L22.773 20.6504L22.0252 22.9032H20.4655ZM28.3922 22.9032L29.8451 18.9984H31.533L32.9645 22.9032H31.4475L30.6997 20.6504L29.9092 22.9032H28.3922ZM12.9021 19.642L12.2398 21.4121H13.5217L12.9021 19.642ZM12.4534 18.9769H13.3828L14.8998 22.914H14.0665L13.746 21.9807H12.0368L11.6949 22.914H10.9258L12.4534 18.9769ZM60.1095 18.9877H62.9512V19.5884H61.9043V22.9032H61.1351V19.5884H60.1095V18.9877ZM59.4365 19.1164L59.3831 19.7386C59.3724 19.7279 59.3511 19.7279 59.3297 19.7171C59.0622 19.6008 58.7767 19.5318 58.4857 19.5133C58.0584 19.5133 57.7166 19.642 57.4602 19.9102C57.3295 20.053 57.2282 20.2204 57.1622 20.4027C57.0962 20.5849 57.0668 20.7785 57.0756 20.9723C57.067 21.1604 57.0978 21.3483 57.1658 21.5238C57.2339 21.6994 57.3378 21.8586 57.4709 21.9914C57.6109 22.1226 57.7757 22.2243 57.9555 22.2907C58.1353 22.357 58.3265 22.3865 58.5178 22.3776C58.7411 22.3594 58.9606 22.3088 59.1695 22.2274C59.2763 22.1952 59.3511 22.1738 59.4045 22.1523L59.4686 22.7745C59.4152 22.7852 59.3511 22.8067 59.2549 22.8281C58.9948 22.9101 58.7258 22.9605 58.4537 22.9783C57.7807 22.9783 57.2465 22.796 56.862 22.4312C56.4774 22.0665 56.2744 21.573 56.2744 20.9615C56.2744 20.3501 56.4667 19.8459 56.862 19.4597C57.2572 19.0735 57.77 18.8911 58.411 18.8911C58.6869 18.906 58.9598 18.9565 59.2229 19.0413C59.319 19.0842 59.3938 19.0949 59.4365 19.1164ZM52.044 18.9877H52.8132V21.2834C52.8132 21.6588 52.8773 21.9378 53.0055 22.1201C53.1337 22.3025 53.3366 22.3883 53.6037 22.3883C53.7227 22.3951 53.8416 22.3722 53.9497 22.3216C54.0578 22.2711 54.1518 22.1945 54.2233 22.0987C54.3622 21.9056 54.437 21.6267 54.437 21.2512V18.9877H55.1634V21.2619C55.1634 21.8305 55.0352 22.2703 54.7788 22.5492C54.5224 22.8281 54.1272 22.9783 53.6037 22.9783C53.0802 22.9783 52.7063 22.8389 52.4499 22.5492C52.1936 22.2596 52.0547 21.8412 52.0547 21.2834V18.9877H52.044ZM47.6106 18.9877H48.7216C49.0078 18.984 49.2938 19.0055 49.5763 19.052C49.7807 19.0851 49.9766 19.158 50.1531 19.2666C50.4209 19.4343 50.6387 19.6715 50.7834 19.9531C50.9242 20.263 50.9971 20.5995 50.9971 20.9401C50.9971 21.2806 50.9242 21.6172 50.7834 21.927C50.6376 22.2114 50.4156 22.4492 50.1425 22.6136C49.9612 22.7304 49.7573 22.8072 49.5442 22.8389C49.2549 22.8894 48.9618 22.9145 48.6682 22.914H47.6106V18.9877ZM48.3798 19.567V22.3025H48.8285C49.2558 22.3025 49.5976 22.1845 49.8327 21.9378C50.0677 21.691 50.1959 21.3585 50.1959 20.9294C50.1959 20.5003 50.0784 20.157 49.8327 19.921C49.587 19.685 49.2451 19.567 48.7964 19.567H48.3798ZM44.6408 18.9018C45.2177 18.9018 45.6664 19.0842 45.9975 19.4489C46.3287 19.8137 46.4889 20.3072 46.4889 20.9508C46.4889 21.5945 46.3287 22.0879 45.9975 22.4527C45.6664 22.8174 45.2177 22.9998 44.6408 22.9998C44.0639 22.9998 43.6152 22.8174 43.2841 22.4527C42.9529 22.0879 42.7927 21.5945 42.7927 20.9508C42.7927 20.3072 42.9529 19.8137 43.2841 19.4489C43.6152 19.0842 44.0639 18.9018 44.6408 18.9018ZM44.6408 19.4811C44.4897 19.4769 44.3399 19.511 44.2055 19.5804C44.071 19.6498 43.9562 19.7522 43.8716 19.8781C43.6793 20.1462 43.5832 20.4895 43.5832 20.9294C43.5832 21.3692 43.6793 21.7232 43.8716 21.9914C43.9593 22.1141 44.0747 22.2141 44.2085 22.283C44.3422 22.352 44.4904 22.388 44.6408 22.388C44.7912 22.388 44.9394 22.352 45.0731 22.283C45.2069 22.2141 45.3223 22.1141 45.41 21.9914C45.6192 21.6782 45.724 21.3063 45.7091 20.9294C45.7091 20.4895 45.6129 20.1355 45.41 19.8781C45.3238 19.7538 45.2086 19.6527 45.0745 19.5835C44.9405 19.5143 44.7915 19.4792 44.6408 19.4811ZM39.1178 18.9877H40.3997C40.8804 18.9877 41.233 19.0735 41.468 19.2344C41.5847 19.3199 41.6782 19.4334 41.7397 19.5647C41.8013 19.6959 41.8291 19.8405 41.8205 19.9853C41.8288 20.2122 41.7527 20.434 41.6069 20.6075C41.4469 20.7839 41.2324 20.9011 40.998 20.9401C41.0985 20.9716 41.19 21.0268 41.265 21.101C41.3605 21.2321 41.4361 21.3767 41.4894 21.5301L42.0342 22.8925H41.2223L40.7843 21.7125C40.7447 21.5699 40.6581 21.4451 40.5386 21.3585C40.4046 21.2854 40.2527 21.2519 40.1006 21.2619H39.8549V22.9032H39.1178V18.9877ZM39.8763 19.5348V20.7148H40.2715C40.4745 20.7247 40.6757 20.6723 40.8484 20.5646C40.9167 20.5147 40.9711 20.4481 41.0067 20.3711C41.0422 20.2942 41.0576 20.2094 41.0514 20.1248C41.0587 20.0385 41.0439 19.9518 41.0084 19.8729C40.9728 19.7941 40.9178 19.7256 40.8484 19.6742C40.7095 19.5777 40.5065 19.5348 40.2074 19.5348H39.8763ZM35.4963 18.9877H36.6607C37.1628 18.9877 37.5367 19.0842 37.7824 19.288C38.0281 19.4919 38.1456 19.7922 38.1456 20.2106C38.1546 20.3788 38.1246 20.5468 38.0578 20.7013C37.9911 20.8558 37.8895 20.9927 37.7611 21.101C37.5047 21.3156 37.1415 21.4228 36.6821 21.4228H36.2655V22.914H35.4963V18.9877ZM36.2655 19.5348V20.8543H36.5753C36.8317 20.8543 37.0239 20.8006 37.1521 20.6826C37.2212 20.6237 37.2756 20.5494 37.3108 20.4655C37.3461 20.3817 37.3613 20.2907 37.3551 20.1999C37.3606 20.1085 37.3463 20.0171 37.3131 19.9319C37.2799 19.8467 37.2286 19.7697 37.1628 19.7064C37.0096 19.5817 36.8147 19.5203 36.618 19.5348H36.2655Z" fill="white"/>
</svg>
