<svg width="134" height="42" viewBox="0 0 134 42" fill="none" xmlns="http://www.w3.org/2000/svg">
    <path d="M54.1807 2.07919H55.6016V15.9405C55.6016 17.0956 55.0831 16.4218 54.9679 16.1908L46.251 2.69525C44.0238 -0.635309 41.1438 2.13695 39.723 0L39.0894 0.154014L40.4526 2.27171C40.6638 2.59899 40.7022 2.77226 40.7022 3.33056V24.1033C40.7022 25.5279 41.643 26.0477 42.411 26.0477H42.8142V24.6616H42.5646C42.2574 24.6616 42.0846 24.4113 42.0846 24.1033V5.39051C42.0846 4.8322 42.2574 5.04397 42.2958 5.12098L55.832 26.0477H56.984V2.07919H58.4624V0.789324H54.1999V2.07919H54.1807ZM20.3307 0.789324H0.996094V2.07919H9.4826C9.13745 2.2536 8.84715 2.52036 8.64383 2.84994C8.44051 3.17952 8.3321 3.55908 8.33058 3.94662V25.9129H10.9226C11.1952 25.914 11.4653 25.8609 11.7174 25.7567C11.9694 25.6526 12.1984 25.4995 12.3912 25.3062C12.5839 25.1129 12.7366 24.8833 12.8405 24.6306C12.9443 24.3779 12.9973 24.1071 12.9962 23.8337V3.25356C12.9962 2.46423 13.4762 2.05994 14.033 2.05994H20.3307V0.789324ZM76.4914 24.5461H67.0833C67.3549 24.3551 67.5769 24.1016 67.7306 23.8068C67.8843 23.512 67.9652 23.1845 67.9665 22.8519V14.6506C67.9665 14.1501 68.2545 13.8998 68.6001 13.8998H75.0514V12.6099H68.6001C68.1585 12.6099 67.9665 12.2634 67.9665 11.8591V3.25356C67.9665 2.46423 68.4465 2.05994 69.0033 2.05994H78.3154V0.789324H62.2256V2.07919H64.4529C64.1077 2.2536 63.8174 2.52036 63.6141 2.84994C63.4108 3.17952 63.3024 3.55908 63.3008 3.94662V25.9129H76.6258C78.277 25.9129 78.3922 24.7963 78.3922 23.9107H77.0482C77.0482 24.1995 77.0482 24.5461 76.4914 24.5461ZM36.6509 24.0263L29.4892 0.789324H28.03L19.5051 25.8937H20.1579C21.0027 23.4487 24.478 25.4509 25.822 21.6775L30.1036 9.0676C30.1804 8.81733 30.4108 8.56705 30.6796 9.39488V9.37563C32.6957 15.902 35.2493 24.1995 35.2493 24.1995C35.4221 24.7578 35.8061 26.0477 37.2653 26.0477H37.6301V24.6616H37.3037C36.8813 24.6616 36.7469 24.3535 36.6509 24.0263ZM133.65 24.6616C133.247 24.6616 133.113 24.3535 133.017 24.0263L125.855 0.789324H124.396L115.871 25.8937H116.524C117.369 23.4487 120.844 25.4509 122.188 21.6775L126.47 9.0676C126.546 8.81733 126.777 8.56705 127.046 9.39488V9.37563C129.062 15.902 131.615 24.1995 131.615 24.1995C131.788 24.7578 132.172 26.0477 133.631 26.0477H133.996V24.6616H133.65ZM107.039 14.9201C108.696 14.4253 110.119 13.349 111.05 11.888C111.98 10.4271 112.355 8.67924 112.105 6.96404C111.856 5.24884 110.999 3.68097 109.692 2.54715C108.384 1.41334 106.713 0.789354 104.985 0.789324H94.3092V2.07919H96.7477C96.4025 2.2536 96.1122 2.52036 95.9089 2.84994C95.7056 3.17952 95.5971 3.55908 95.5956 3.94662V25.9129H98.1877C98.4603 25.914 98.7304 25.8609 98.9824 25.7567C99.2344 25.6526 99.4634 25.4995 99.6562 25.3062C99.849 25.1129 100.002 24.8833 100.106 24.6306C100.209 24.3779 100.262 24.1071 100.261 23.8337V3.25356C100.261 2.46423 100.741 2.05994 101.298 2.05994H104.965C105.742 2.05994 106.511 2.21332 107.228 2.5113C107.946 2.80929 108.598 3.24606 109.147 3.79667C109.696 4.34728 110.132 5.00095 110.429 5.72036C110.726 6.43976 110.879 7.21082 110.879 7.9895C110.879 8.76818 110.726 9.53924 110.429 10.2586C110.132 10.9781 109.696 11.6317 109.147 12.1823C108.598 12.7329 107.946 13.1697 107.228 13.4677C106.511 13.7657 105.742 13.9191 104.965 13.9191H101.26V15.2089H101.951C102.239 15.2089 102.796 15.3822 103.237 16.1715L107.077 23.1599C108.844 26.2787 111.513 23.8722 112.645 25.8744H113.298L107.5 15.3244C107.387 15.1493 107.227 15.0093 107.039 14.9201ZM82.1363 2.07919H84.5747C84.2296 2.2536 83.9393 2.52036 83.7359 2.84994C83.5326 3.17952 83.4242 3.55908 83.4227 3.94662V24.5653H82.1363V25.9129H89.394V24.5653H87.2243C87.496 24.3743 87.718 24.1208 87.8716 23.826C88.0253 23.5312 88.1062 23.2038 88.1075 22.8711V3.25356C88.1075 2.46423 88.5876 2.05994 89.1444 2.05994H89.8932V0.789324H82.1363V2.07919Z" fill="#623C21"/>
    <path fill-rule="evenodd" clip-rule="evenodd" d="M33.4472 41.1103V36.2011H31.5079V34.1027H38.0936V36.2396H36.308V41.1103H33.4472ZM47.6937 41.1103V36.2396H45.7929V34.1027H52.417V36.2781H50.5738V41.1103H47.6937ZM37.7864 41.1103L40.3976 34.1027H43.4697L46.0425 41.1103H43.2777L41.9337 37.0675L40.5897 41.1103H37.7864ZM52.033 41.1103L54.6442 34.1027H57.6778L60.2507 41.1103H57.5242L56.1802 37.0675L54.7594 41.1103H52.033ZM24.1927 35.2578L23.0022 38.4343H25.3063L24.1927 35.2578ZM23.3863 34.0642H25.0567L27.7831 41.1296H26.2855L25.7095 39.4547H22.6374L22.023 41.1296H20.6406L23.3863 34.0642ZM109.038 34.0834H114.146V35.1615H112.264V41.1103H110.882V35.1615H109.038V34.0834ZM107.829 34.3144L107.733 35.431C107.714 35.4118 107.675 35.4118 107.637 35.3925C107.156 35.1838 106.643 35.06 106.12 35.0268C105.352 35.0268 104.738 35.2578 104.277 35.7391C104.042 35.9953 103.86 36.2957 103.741 36.6228C103.623 36.9499 103.57 37.2973 103.586 37.645C103.57 37.9827 103.625 38.3199 103.748 38.6349C103.87 38.9498 104.057 39.2357 104.296 39.4739C104.548 39.7094 104.844 39.892 105.167 40.011C105.49 40.13 105.834 40.1831 106.178 40.167C106.579 40.1344 106.973 40.0436 107.349 39.8975C107.541 39.8397 107.675 39.8012 107.771 39.7627L107.886 40.8793C107.79 40.8986 107.675 40.9371 107.502 40.9756C107.035 41.1227 106.551 41.2132 106.062 41.2451C104.853 41.2451 103.893 40.9178 103.202 40.2633C102.51 39.6087 102.146 38.7231 102.146 37.6258C102.146 36.5284 102.491 35.6236 103.202 34.9305C103.912 34.2374 104.834 33.9102 105.986 33.9102C106.482 33.9369 106.972 34.0275 107.445 34.1797C107.618 34.2567 107.752 34.2759 107.829 34.3144ZM94.5423 34.0834H95.9247V38.2033C95.9247 38.8771 96.0399 39.3777 96.2703 39.7049C96.5007 40.0322 96.8655 40.1862 97.3455 40.1862C97.5595 40.1984 97.7731 40.1573 97.9674 40.0666C98.1617 39.9759 98.3306 39.8384 98.4591 39.6664C98.7087 39.3199 98.8431 38.8194 98.8431 38.1456V34.0834H100.149V38.1648C100.149 39.1852 99.9183 39.9745 99.4575 40.475C98.9967 40.9756 98.2863 41.2451 97.3455 41.2451C96.4047 41.2451 95.7327 40.9948 95.2719 40.475C94.8111 39.9552 94.5615 39.2044 94.5615 38.2033V34.0834H94.5423ZM86.5742 34.0834H88.571C89.0854 34.0768 89.5994 34.1155 90.107 34.1989C90.4744 34.2583 90.8266 34.3891 91.1438 34.584C91.6251 34.885 92.0165 35.3107 92.2766 35.8161C92.5297 36.3721 92.6607 36.9761 92.6607 37.5873C92.6607 38.1984 92.5297 38.8024 92.2766 39.3584C92.0146 39.8687 91.6156 40.2955 91.1246 40.5905C90.7988 40.8001 90.4323 40.9379 90.0494 40.9948C89.5295 41.0855 89.0027 41.1306 88.475 41.1296H86.5742V34.0834ZM87.9566 35.123V40.0322H88.763C89.531 40.0322 90.1454 39.8205 90.5678 39.3777C90.9902 38.9349 91.2206 38.3381 91.2206 37.568C91.2206 36.7979 91.0094 36.1819 90.5678 35.7583C90.1262 35.3348 89.5118 35.123 88.7054 35.123H87.9566ZM81.2365 33.9294C82.2733 33.9294 83.0797 34.2567 83.6749 34.9113C84.2701 35.5658 84.5582 36.4514 84.5582 37.6065C84.5582 38.7616 84.2701 39.6472 83.6749 40.3018C83.0797 40.9563 82.2733 41.2836 81.2365 41.2836C80.1997 41.2836 79.3933 40.9563 78.7981 40.3018C78.2029 39.6472 77.9149 38.7616 77.9149 37.6065C77.9149 36.4514 78.2029 35.5658 78.7981 34.9113C79.3933 34.2567 80.1997 33.9294 81.2365 33.9294ZM81.2365 34.969C80.9649 34.9614 80.6958 35.0226 80.4541 35.1472C80.2124 35.2717 80.006 35.4554 79.8541 35.6813C79.5085 36.1626 79.3357 36.7787 79.3357 37.568C79.3357 38.3573 79.5085 38.9926 79.8541 39.4739C80.0116 39.6941 80.2191 39.8735 80.4595 39.9973C80.6999 40.1211 80.9663 40.1856 81.2365 40.1856C81.5068 40.1856 81.7731 40.1211 82.0135 39.9973C82.2539 39.8735 82.4614 39.6941 82.6189 39.4739C82.995 38.9118 83.1833 38.2444 83.1565 37.568C83.1565 36.7787 82.9837 36.1434 82.6189 35.6813C82.464 35.4584 82.2571 35.277 82.0161 35.1528C81.7751 35.0286 81.5074 34.9655 81.2365 34.969ZM71.31 34.0834H73.614C74.478 34.0834 75.1116 34.2374 75.534 34.5262C75.7438 34.6796 75.9118 34.8834 76.0225 35.1189C76.1332 35.3544 76.1831 35.614 76.1677 35.8738C76.1826 36.281 76.0457 36.6791 75.7837 36.9904C75.4961 37.307 75.1105 37.5172 74.6892 37.5873C74.8699 37.6438 75.0345 37.7428 75.1693 37.876C75.3408 38.1113 75.4767 38.3709 75.5725 38.6461L76.5517 41.0911H75.0924L74.3052 38.9734C74.234 38.7176 74.0783 38.4936 73.8636 38.3381C73.6228 38.207 73.3499 38.1469 73.0764 38.1648H72.6348V41.1103H71.31V34.0834ZM72.6732 35.0653V37.183H73.3836C73.7485 37.2008 74.1101 37.1067 74.4204 36.9134C74.5432 36.8238 74.6411 36.7043 74.7049 36.5662C74.7687 36.4281 74.7964 36.2759 74.7852 36.1241C74.7984 35.9693 74.7718 35.8137 74.708 35.6721C74.6441 35.5306 74.5451 35.4078 74.4204 35.3155C74.1708 35.1423 73.806 35.0653 73.2684 35.0653H72.6732ZM64.8011 34.0834H66.894C67.7964 34.0834 68.4684 34.2567 68.91 34.6225C69.3516 34.9883 69.5628 35.5273 69.5628 36.2781C69.579 36.58 69.5249 36.8814 69.405 37.1587C69.285 37.4361 69.1024 37.6816 68.8716 37.876C68.4108 38.2611 67.758 38.4536 66.9324 38.4536H66.1835V41.1296H64.8011V34.0834ZM66.1835 35.0653V37.4332H66.7403C67.2012 37.4332 67.5468 37.337 67.7772 37.1252C67.9013 37.0195 67.9991 36.8861 68.0624 36.7356C68.1258 36.5851 68.153 36.4218 68.142 36.2589C68.1519 36.095 68.1261 35.9309 68.0664 35.7779C68.0067 35.625 67.9146 35.4869 67.7964 35.3733C67.5209 35.1495 67.1707 35.0393 66.8172 35.0653H66.1835Z" fill="#623C21"/>
</svg>
