<svg width="74" height="23" viewBox="0 0 74 23" fill="none" xmlns="http://www.w3.org/2000/svg">
<g clip-path="url(#clip0_40_384)">
<path d="M29.5915 1.15858H30.382V8.88247C30.382 9.52612 30.0935 9.15066 30.0295 9.02193L25.1794 1.50187C23.9402 -0.354011 22.3378 1.19077 21.5473 0L21.1947 0.0858208L21.9532 1.26586C22.0707 1.44823 22.0921 1.54478 22.0921 1.85588V13.431C22.0921 14.2248 22.6156 14.5145 23.0429 14.5145H23.2672V13.7421H23.1283C22.9574 13.7421 22.8613 13.6026 22.8613 13.431V3.00373C22.8613 2.69263 22.9574 2.81064 22.9788 2.85355L30.5102 14.5145H31.1511V1.15858H31.9737V0.439832H29.6021V1.15858H29.5915ZM10.7576 0.439832H0V1.15858H4.72181C4.52978 1.25577 4.36826 1.40441 4.25513 1.58806C4.14201 1.77171 4.08169 1.98322 4.08084 2.19916V14.4394H5.52303C5.6747 14.4399 5.82498 14.4104 5.96521 14.3523C6.10545 14.2943 6.23286 14.209 6.34011 14.1013C6.44736 13.9936 6.53232 13.8657 6.5901 13.7248C6.64788 13.584 6.67734 13.4331 6.67677 13.2808V1.81297C6.67677 1.37314 6.94384 1.14785 7.25364 1.14785H10.7576V0.439832ZM42.0049 13.6777H36.7703C36.9215 13.5713 37.045 13.43 37.1305 13.2658C37.216 13.1015 37.261 12.919 37.2617 12.7337V8.16372C37.2617 7.8848 37.422 7.74534 37.6143 7.74534H41.2037V7.02659H37.6143C37.3686 7.02659 37.2617 6.83349 37.2617 6.60821V1.81297C37.2617 1.37314 37.5288 1.14785 37.8386 1.14785H43.0198V0.439832H34.0676V1.15858H35.3068C35.1147 1.25577 34.9532 1.40441 34.8401 1.58806C34.727 1.77171 34.6666 1.98322 34.6658 2.19916V14.4394H42.0797C42.9984 14.4394 43.0625 13.8172 43.0625 13.3237H42.3147C42.3147 13.4846 42.3147 13.6777 42.0049 13.6777ZM19.838 13.3881L15.8533 0.439832H15.0414L10.2983 14.4286H10.6615C11.1315 13.0662 13.0651 14.1819 13.8129 12.0793L16.1952 5.05271C16.2379 4.91325 16.3661 4.77379 16.5157 5.23508V5.22435C17.6374 8.86101 19.0582 13.4846 19.0582 13.4846C19.1543 13.7957 19.368 14.5145 20.1799 14.5145H20.3829V13.7421H20.2012C19.9662 13.7421 19.8914 13.5704 19.838 13.3881V13.3881ZM73.8077 13.7421C73.5834 13.7421 73.5086 13.5704 73.4552 13.3881L69.4705 0.439832H68.6586L63.9154 14.4286H64.2786C64.7487 13.0662 66.6823 14.1819 67.4301 12.0793L69.8123 5.05271C69.8551 4.91325 69.9833 4.77379 70.1328 5.23508V5.22435C71.2545 8.86101 72.6753 13.4846 72.6753 13.4846C72.7715 13.7957 72.9851 14.5145 73.797 14.5145H74V13.7421H73.8077ZM59.0013 8.3139C59.9231 8.03815 60.7152 7.4384 61.2328 6.62433C61.7505 5.81027 61.959 4.8363 61.8202 3.88055C61.6815 2.92479 61.2048 2.05113 60.4772 1.41934C59.7497 0.787548 58.8201 0.439849 57.8582 0.439832H51.9186V1.15858H53.2753C53.0833 1.25577 52.9217 1.40441 52.8086 1.58806C52.6955 1.77171 52.6352 1.98322 52.6343 2.19916V14.4394H54.0765C54.2282 14.4399 54.3785 14.4104 54.5187 14.3523C54.6589 14.2943 54.7863 14.209 54.8936 14.1013C55.0008 13.9936 55.0858 13.8657 55.1436 13.7248C55.2014 13.584 55.2308 13.4331 55.2303 13.2808V1.81297C55.2303 1.37314 55.4973 1.14785 55.8071 1.14785H57.8476C58.2796 1.14785 58.7075 1.23332 59.1067 1.39936C59.5059 1.56541 59.8686 1.80879 60.1742 2.1156C60.4797 2.42242 60.7221 2.78666 60.8874 3.18753C61.0528 3.58841 61.1379 4.01806 61.1379 4.45196C61.1379 4.88586 61.0528 5.31551 60.8874 5.71639C60.7221 6.11726 60.4797 6.4815 60.1742 6.78832C59.8686 7.09513 59.5059 7.33851 59.1067 7.50456C58.7075 7.6706 58.2796 7.75607 57.8476 7.75607H55.7858V8.47482H56.1703C56.3306 8.47482 56.6404 8.57136 56.8861 9.0112L59.0227 12.9053C60.0055 14.6432 61.4904 13.3022 62.1207 14.4179H62.4839L59.2577 8.53918C59.1948 8.44158 59.106 8.36356 59.0013 8.3139ZM45.1457 1.15858H46.5024C46.3103 1.25577 46.1488 1.40441 46.0357 1.58806C45.9226 1.77171 45.8623 1.98322 45.8614 2.19916V13.6884H45.1457V14.4394H49.1838V13.6884H47.9766C48.1278 13.582 48.2513 13.4408 48.3368 13.2765C48.4223 13.1122 48.4673 12.9298 48.468 12.7444V1.81297C48.468 1.37314 48.7351 1.14785 49.0449 1.14785H49.4615V0.439832H45.1457V1.15858Z" fill="#E6116D"/>
<path fill-rule="evenodd" clip-rule="evenodd" d="M18.0512 22.9028V20.1672H16.9723V18.9979H20.6365V20.1887H19.643V22.9028H18.0512ZM25.9779 22.9028V20.1887H24.9203V18.9979H28.6059V20.2101H27.5803V22.9028H25.9779ZM20.4655 22.9028L21.9184 18.9979H23.6277L25.0592 22.9028H23.5208L22.773 20.65L22.0252 22.9028H20.4655ZM28.3922 22.9028L29.8451 18.9979H31.533L32.9645 22.9028H31.4475L30.6997 20.65L29.9092 22.9028H28.3922ZM12.9021 19.6416L12.2398 21.4116H13.5217L12.9021 19.6416ZM12.4534 18.9764H13.3828L14.8998 22.9135H14.0665L13.746 21.9802H12.0368L11.6949 22.9135H10.9258L12.4534 18.9764ZM60.1095 18.9872H62.9512V19.5879H61.9043V22.9028H61.1351V19.5879H60.1095V18.9872ZM59.4365 19.1159L59.3831 19.7381C59.3724 19.7274 59.3511 19.7274 59.3297 19.7167C59.0622 19.6003 58.7767 19.5313 58.4857 19.5128C58.0584 19.5128 57.7166 19.6416 57.4602 19.9097C57.3295 20.0525 57.2282 20.2199 57.1622 20.4022C57.0962 20.5844 57.0668 20.778 57.0756 20.9718C57.067 21.1599 57.0978 21.3478 57.1658 21.5234C57.2339 21.6989 57.3378 21.8581 57.4709 21.9909C57.6109 22.1221 57.7757 22.2238 57.9555 22.2902C58.1353 22.3565 58.3265 22.386 58.5178 22.3771C58.7411 22.3589 58.9606 22.3083 59.1695 22.2269C59.2763 22.1947 59.3511 22.1733 59.4045 22.1518L59.4686 22.774C59.4152 22.7847 59.3511 22.8062 59.2549 22.8277C58.9948 22.9096 58.7258 22.96 58.4537 22.9778C57.7807 22.9778 57.2465 22.7955 56.862 22.4307C56.4774 22.066 56.2744 21.5725 56.2744 20.9611C56.2744 20.3496 56.4667 19.8454 56.862 19.4592C57.2572 19.073 57.77 18.8906 58.411 18.8906C58.6869 18.9055 58.9598 18.956 59.2229 19.0408C59.319 19.0837 59.3938 19.0945 59.4365 19.1159V19.1159ZM52.044 18.9872H52.8132V21.2829C52.8132 21.6583 52.8773 21.9373 53.0055 22.1196C53.1337 22.302 53.3366 22.3878 53.6037 22.3878C53.7227 22.3946 53.8416 22.3717 53.9497 22.3211C54.0578 22.2706 54.1518 22.194 54.2233 22.0982C54.3622 21.9051 54.437 21.6262 54.437 21.2507V18.9872H55.1634V21.2614C55.1634 21.83 55.0352 22.2698 54.7788 22.5487C54.5224 22.8277 54.1272 22.9778 53.6037 22.9778C53.0802 22.9778 52.7063 22.8384 52.4499 22.5487C52.1936 22.2591 52.0547 21.8407 52.0547 21.2829V18.9872H52.044ZM47.6106 18.9872H48.7216C49.0078 18.9835 49.2938 19.005 49.5763 19.0515C49.7807 19.0846 49.9766 19.1575 50.1531 19.2661C50.4209 19.4338 50.6387 19.671 50.7834 19.9527C50.9242 20.2625 50.9971 20.599 50.9971 20.9396C50.9971 21.2802 50.9242 21.6167 50.7834 21.9265C50.6376 22.2109 50.4156 22.4487 50.1425 22.6131C49.9612 22.7299 49.7573 22.8067 49.5442 22.8384C49.2549 22.8889 48.9618 22.914 48.6682 22.9135H47.6106V18.9872V18.9872ZM48.3798 19.5665V22.302H48.8285C49.2558 22.302 49.5976 22.184 49.8327 21.9373C50.0677 21.6905 50.1959 21.358 50.1959 20.9289C50.1959 20.4998 50.0784 20.1565 49.8327 19.9205C49.5869 19.6845 49.2451 19.5665 48.7964 19.5665H48.3798ZM44.6408 18.9014C45.2177 18.9014 45.6664 19.0837 45.9975 19.4485C46.3287 19.8132 46.4889 20.3067 46.4889 20.9503C46.4889 21.594 46.3287 22.0875 45.9975 22.4522C45.6664 22.8169 45.2177 22.9993 44.6408 22.9993C44.0639 22.9993 43.6152 22.8169 43.2841 22.4522C42.9529 22.0875 42.7927 21.594 42.7927 20.9503C42.7927 20.3067 42.9529 19.8132 43.2841 19.4485C43.6152 19.0837 44.0639 18.9014 44.6408 18.9014V18.9014ZM44.6408 19.4806C44.4897 19.4764 44.3399 19.5105 44.2055 19.5799C44.071 19.6493 43.9562 19.7517 43.8716 19.8776C43.6793 20.1458 43.5832 20.489 43.5832 20.9289C43.5832 21.3687 43.6793 21.7227 43.8716 21.9909C43.9593 22.1136 44.0747 22.2136 44.2085 22.2825C44.3422 22.3515 44.4904 22.3875 44.6408 22.3875C44.7912 22.3875 44.9394 22.3515 45.0731 22.2825C45.2069 22.2136 45.3223 22.1136 45.41 21.9909C45.6192 21.6777 45.724 21.3058 45.7091 20.9289C45.7091 20.489 45.6129 20.135 45.41 19.8776C45.3238 19.7534 45.2086 19.6522 45.0745 19.5831C44.9405 19.5139 44.7915 19.4787 44.6408 19.4806V19.4806ZM39.1178 18.9872H40.3997C40.8804 18.9872 41.233 19.073 41.468 19.2339C41.5847 19.3194 41.6782 19.433 41.7398 19.5642C41.8013 19.6954 41.8291 19.84 41.8205 19.9848C41.8288 20.2117 41.7527 20.4335 41.6069 20.607C41.4469 20.7834 41.2324 20.9006 40.998 20.9396C41.0985 20.9711 41.19 21.0263 41.265 21.1005C41.3605 21.2316 41.4361 21.3762 41.4894 21.5296L42.0342 22.892H41.2223L40.7843 21.712C40.7447 21.5694 40.6581 21.4446 40.5386 21.358C40.4046 21.2849 40.2527 21.2514 40.1006 21.2614H39.8549V22.9028H39.1178V18.9872ZM39.8763 19.5343V20.7143H40.2715C40.4745 20.7242 40.6757 20.6718 40.8484 20.5641C40.9167 20.5142 40.9711 20.4476 41.0067 20.3706C41.0422 20.2937 41.0576 20.2089 41.0514 20.1243C41.0587 20.038 41.0439 19.9513 41.0084 19.8724C40.9728 19.7936 40.9178 19.7252 40.8484 19.6737C40.7095 19.5772 40.5065 19.5343 40.2074 19.5343H39.8763ZM35.4963 18.9872H36.6607C37.1628 18.9872 37.5367 19.0837 37.7824 19.2875C38.0281 19.4914 38.1456 19.7917 38.1456 20.2101C38.1546 20.3783 38.1246 20.5463 38.0578 20.7008C37.9911 20.8554 37.8895 20.9922 37.7611 21.1005C37.5047 21.3151 37.1415 21.4223 36.6821 21.4223H36.2655V22.9135H35.4963V18.9872V18.9872ZM36.2655 19.5343V20.8538H36.5753C36.8317 20.8538 37.0239 20.8001 37.1521 20.6821C37.2212 20.6232 37.2756 20.5489 37.3108 20.465C37.3461 20.3812 37.3613 20.2902 37.3551 20.1994C37.3606 20.1081 37.3463 20.0166 37.3131 19.9314C37.2799 19.8462 37.2286 19.7692 37.1628 19.7059C37.0096 19.5812 36.8147 19.5198 36.618 19.5343H36.2655Z" fill="#E6116D"/>
</g>
<defs>
<clipPath id="clip0_40_384">
<rect width="74" height="23" fill="white"/>
</clipPath>
</defs>
</svg>
