<svg width="24" height="24" viewBox="0 0 24 24" fill="none" xmlns="http://www.w3.org/2000/svg">
<path d="M17 18.4302H13L8.54999 21.3902C7.88999 21.8302 7 21.3602 7 20.5602V18.4302C4 18.4302 2 16.4302 2 13.4302V7.43018C2 4.43018 4 2.43018 7 2.43018H17C20 2.43018 22 4.43018 22 7.43018V13.4302C22 16.4302 20 18.4302 17 18.4302Z" stroke="#292D32" stroke-width="1.5" stroke-miterlimit="10" stroke-linecap="round" stroke-linejoin="round"/>
<path d="M11.9998 11.3601V11.1501C11.9998 10.4701 12.4198 10.1101 12.8398 9.82013C13.2498 9.54013 13.6598 9.18014 13.6598 8.52014C13.6598 7.60014 12.9198 6.86011 11.9998 6.86011C11.0798 6.86011 10.3398 7.60014 10.3398 8.52014" stroke="#292D32" stroke-width="1.5" stroke-linecap="round" stroke-linejoin="round"/>
<path d="M11.9961 13.7501H12.0051" stroke="#292D32" stroke-width="1.5" stroke-linecap="round" stroke-linejoin="round"/>
</svg>
