<svg width="40" height="41" viewBox="0 0 40 41" fill="none" xmlns="http://www.w3.org/2000/svg">
<rect x="-0.000244141" y="0.992188" width="40" height="40" rx="20" fill="white"/>
<path d="M27.3081 27.2672C27.3081 27.5672 27.2414 27.8755 27.0998 28.1755C26.9581 28.4755 26.7748 28.7588 26.5331 29.0255C26.1248 29.4755 25.6748 29.8005 25.1664 30.0088C24.6664 30.2172 24.1248 30.3255 23.5414 30.3255C22.6914 30.3255 21.7831 30.1255 20.8248 29.7172C19.8664 29.3088 18.9081 28.7588 17.9581 28.0672C16.9998 27.3672 16.0914 26.5922 15.2248 25.7338C14.3664 24.8672 13.5914 23.9588 12.8998 23.0088C12.2164 22.0588 11.6664 21.1088 11.2664 20.1672C10.8664 19.2172 10.6664 18.3088 10.6664 17.4422C10.6664 16.8755 10.7664 16.3338 10.9664 15.8338C11.1664 15.3255 11.4831 14.8588 11.9248 14.4422C12.4581 13.9172 13.0414 13.6588 13.6581 13.6588C13.8914 13.6588 14.1248 13.7088 14.3331 13.8088C14.5498 13.9088 14.7414 14.0588 14.8914 14.2755L16.8248 17.0005C16.9748 17.2088 17.0831 17.4005 17.1581 17.5838C17.2331 17.7588 17.2748 17.9338 17.2748 18.0922C17.2748 18.2922 17.2164 18.4922 17.0998 18.6838C16.9914 18.8755 16.8331 19.0755 16.6331 19.2755L15.9998 19.9338C15.9081 20.0255 15.8664 20.1338 15.8664 20.2672C15.8664 20.3338 15.8748 20.3922 15.8914 20.4588C15.9164 20.5255 15.9414 20.5755 15.9581 20.6255C16.1081 20.9005 16.3664 21.2588 16.7331 21.6922C17.1081 22.1255 17.5081 22.5672 17.9414 23.0088C18.3914 23.4505 18.8248 23.8588 19.2664 24.2338C19.6998 24.6005 20.0581 24.8505 20.3414 25.0005C20.3831 25.0172 20.4331 25.0422 20.4914 25.0672C20.5581 25.0922 20.6248 25.1005 20.6998 25.1005C20.8414 25.1005 20.9498 25.0505 21.0414 24.9588L21.6748 24.3338C21.8831 24.1255 22.0831 23.9672 22.2748 23.8672C22.4664 23.7505 22.6581 23.6922 22.8664 23.6922C23.0248 23.6922 23.1914 23.7255 23.3748 23.8005C23.5581 23.8755 23.7498 23.9838 23.9581 24.1255L26.7164 26.0838C26.9331 26.2338 27.0831 26.4088 27.1748 26.6172C27.2581 26.8255 27.3081 27.0338 27.3081 27.2672Z" stroke="#B31851" stroke-width="1.2" stroke-miterlimit="10"/>
<path d="M24.4165 19.4923C24.4165 18.9923 24.0248 18.2256 23.4415 17.6006C22.9081 17.0256 22.1998 16.5756 21.4998 16.5756" stroke="#B31851" stroke-width="1.2" stroke-linecap="round" stroke-linejoin="round"/>
<path d="M27.3332 19.4922C27.3332 16.2672 24.7248 13.6588 21.4998 13.6588" stroke="#B31851" stroke-width="1.2" stroke-linecap="round" stroke-linejoin="round"/>
</svg>
