<svg width="40" height="41" viewBox="0 0 40 41" fill="none" xmlns="http://www.w3.org/2000/svg">
<rect x="-0.000244141" y="0.992188" width="40" height="40" rx="20" fill="white"/>
<path d="M19.9998 10.9922C17.2831 10.9922 16.9439 11.0047 15.8773 11.0522C14.8123 11.1022 14.0873 11.2697 13.4498 11.5172C12.7923 11.7722 12.2339 12.1147 11.6781 12.6705C11.1223 13.2264 10.7789 13.7839 10.5248 14.4422C10.2773 15.0797 10.1089 15.8047 10.0598 16.8697C10.0098 17.9364 9.99976 18.2755 9.99976 20.9922C9.99976 23.7089 10.0123 24.048 10.0598 25.1147C10.1098 26.1789 10.2773 26.9047 10.5248 27.5422C10.7798 28.1989 11.1223 28.758 11.6781 29.3139C12.2339 29.8689 12.7914 30.213 13.4498 30.4672C14.0881 30.7139 14.8131 30.883 15.8773 30.9322C16.9439 30.9822 17.2831 30.9922 19.9998 30.9922C22.7164 30.9922 23.0556 30.9797 24.1223 30.9322C25.1864 30.8822 25.9123 30.7139 26.5498 30.4672C27.2064 30.2122 27.7656 29.8689 28.3214 29.3139C28.8764 28.758 29.2206 28.2014 29.4748 27.5422C29.7214 26.9047 29.8906 26.1789 29.9398 25.1147C29.9898 24.048 29.9998 23.7089 29.9998 20.9922C29.9998 18.2755 29.9873 17.9364 29.9398 16.8697C29.8898 15.8055 29.7214 15.0789 29.4748 14.4422C29.2198 13.7847 28.8764 13.2264 28.3214 12.6705C27.7656 12.1147 27.2089 11.7714 26.5498 11.5172C25.9123 11.2697 25.1864 11.1014 24.1223 11.0522C23.0556 11.0022 22.7164 10.9922 19.9998 10.9922ZM19.9998 12.7922C22.6689 12.7922 22.9873 12.8055 24.0414 12.8514C25.0164 12.8972 25.5456 13.0589 25.8973 13.1972C26.3656 13.378 26.6973 13.5947 27.0489 13.9439C27.3981 14.2939 27.6148 14.6264 27.7956 15.0947C27.9323 15.4464 28.0956 15.9755 28.1398 16.9505C28.1873 18.0055 28.1981 18.3222 28.1981 20.9922C28.1981 23.6622 28.1856 23.9797 28.1364 25.0339C28.0856 26.0089 27.9231 26.538 27.7856 26.8897C27.5989 27.358 27.3864 27.6897 27.0364 28.0414C26.6873 28.3905 26.3498 28.6072 25.8864 28.788C25.5364 28.9247 24.9989 29.088 24.0239 29.1322C22.9623 29.1797 22.6498 29.1905 19.9748 29.1905C17.2989 29.1905 16.9864 29.178 15.9256 29.1289C14.9498 29.078 14.4123 28.9155 14.0623 28.778C13.5881 28.5914 13.2623 28.3789 12.9131 28.0289C12.5623 27.6797 12.3381 27.3422 12.1631 26.8789C12.0256 26.5289 11.8639 25.9914 11.8131 25.0164C11.7756 23.9664 11.7623 23.6422 11.7623 20.9797C11.7623 18.3164 11.7756 17.9914 11.8131 16.9289C11.8639 15.9539 12.0256 15.4172 12.1631 15.0672C12.3381 14.5922 12.5623 14.2672 12.9131 13.9164C13.2623 13.5672 13.5881 13.3422 14.0623 13.168C14.4123 13.0297 14.9381 12.8672 15.9131 12.8172C16.9756 12.7797 17.2881 12.7672 19.9623 12.7672L19.9998 12.7922ZM19.9998 15.8572C17.1623 15.8572 14.8648 18.1572 14.8648 20.9922C14.8648 23.8297 17.1648 26.1272 19.9998 26.1272C22.8373 26.1272 25.1348 23.8272 25.1348 20.9922C25.1348 18.1547 22.8348 15.8572 19.9998 15.8572ZM19.9998 24.3255C18.1581 24.3255 16.6664 22.8339 16.6664 20.9922C16.6664 19.1505 18.1581 17.6589 19.9998 17.6589C21.8414 17.6589 23.3331 19.1505 23.3331 20.9922C23.3331 22.8339 21.8414 24.3255 19.9998 24.3255ZM26.5381 15.6547C26.5381 16.3172 25.9998 16.8547 25.3381 16.8547C24.6756 16.8547 24.1381 16.3164 24.1381 15.6547C24.1381 14.993 24.6764 14.4555 25.3381 14.4555C25.9989 14.4547 26.5381 14.993 26.5381 15.6547Z" fill="#B31851"/>
</svg>
