<svg width="40" height="41" viewBox="0 0 40 41" fill="none" xmlns="http://www.w3.org/2000/svg">
<rect x="-0.000244141" y="0.992188" width="40" height="40" rx="20" fill="white"/>
<path d="M29.9606 14.8008C29.2118 15.1304 28.4186 15.348 27.6064 15.4466C28.4615 14.9326 29.1018 14.1266 29.4089 13.1774C28.6164 13.6399 27.7381 13.9766 26.8031 14.1641C26.1862 13.5044 25.3688 13.0669 24.4778 12.9195C23.5868 12.7721 22.672 12.923 21.8755 13.3487C21.0791 13.7745 20.4455 14.4514 20.0731 15.2742C19.7008 16.097 19.6106 17.0197 19.8164 17.8991C16.4081 17.7383 13.3889 16.1008 11.3664 13.6274C10.9988 14.2523 10.807 14.9649 10.8114 15.6899C10.8114 17.1149 11.5364 18.3674 12.6348 19.1033C11.9838 19.0825 11.3472 18.9065 10.7781 18.5899V18.6399C10.7777 19.5869 11.105 20.5049 11.7043 21.2381C12.3037 21.9712 13.1383 22.4745 14.0664 22.6624C13.465 22.8236 12.8351 22.8478 12.2231 22.7333C12.4865 23.5483 12.9978 24.2607 13.6856 24.7712C14.3734 25.2816 15.2034 25.5647 16.0598 25.5808C14.6094 26.719 12.8185 27.3368 10.9748 27.3349C10.6498 27.3349 10.3256 27.3158 9.99976 27.2791C11.8795 28.4827 14.0652 29.1216 16.2973 29.1199C23.8414 29.1199 27.9623 22.8733 27.9623 17.4658C27.9623 17.2908 27.9623 17.1158 27.9498 16.9408C28.7548 16.3615 29.4491 15.6423 29.9998 14.8174L29.9606 14.8008Z" fill="#B31851"/>
</svg>
