<svg width="40" height="41" viewBox="0 0 40 41" fill="none" xmlns="http://www.w3.org/2000/svg">
<rect x="-0.000244141" y="0.992188" width="40" height="40" rx="20" fill="white"/>
<path d="M29.9998 21.0526C29.9998 15.5301 25.5223 11.0526 19.9998 11.0526C14.4773 11.0526 9.99976 15.5301 9.99976 21.0526C9.99976 26.0443 13.6564 30.1809 18.4373 30.9309V23.9434H15.8981V21.0518H18.4373V18.8501C18.4373 16.3443 19.9306 14.9593 22.2148 14.9593C23.3081 14.9593 24.4531 15.1551 24.4531 15.1551V17.6159H23.1914C21.9489 17.6159 21.5614 18.3868 21.5614 19.1776V21.0526H24.3348L23.8914 23.9443H21.5614V30.9318C26.3431 30.1809 29.9998 26.0434 29.9998 21.0526Z" fill="#B31851"/>
</svg>
