<svg width="40" height="41" viewBox="0 0 40 41" fill="none" xmlns="http://www.w3.org/2000/svg">
<rect x="-0.000244141" y="0.992188" width="40" height="40" rx="20" fill="white"/>
<path d="M20.0144 10.9922C14.4969 10.9922 10.0244 15.4647 10.0244 20.9814C10.0244 25.2139 12.656 28.8289 16.3727 30.283C16.2852 29.4922 16.2069 28.2805 16.4069 27.4172C16.5894 26.6364 17.5785 22.453 17.5785 22.453C17.5785 22.453 17.2794 21.853 17.2794 20.9689C17.2794 19.583 18.0852 18.543 19.086 18.543C19.9394 18.543 20.351 19.1839 20.351 19.9497C20.351 20.8072 19.8069 22.0889 19.5244 23.2764C19.2869 24.2705 20.0244 25.0805 21.0035 25.0805C22.7769 25.0805 24.1435 23.2097 24.1435 20.508C24.1435 18.1239 22.4244 16.4505 19.9702 16.4505C17.1285 16.4505 15.4627 18.5855 15.4627 20.783C15.4627 21.6439 15.791 22.5689 16.2035 23.0672C16.286 23.1672 16.2969 23.2547 16.2744 23.3547C16.1994 23.6672 16.0302 24.3539 15.996 24.4905C15.9519 24.678 15.8527 24.7164 15.6619 24.628C14.416 24.053 13.6344 22.2297 13.6344 20.7564C13.6344 17.6097 15.9244 14.713 20.2344 14.713C23.6994 14.713 26.3944 17.1855 26.3944 20.4822C26.3944 23.928 24.2219 26.7005 21.2002 26.7005C20.1885 26.7005 19.2385 26.1764 18.9019 25.5514L18.2777 27.9247C18.0535 28.7955 17.441 29.8847 17.0294 30.5464C17.9652 30.8339 18.951 30.9922 19.9877 30.9922C25.4935 30.9922 29.9752 26.5214 29.9752 21.003C29.9752 15.4839 25.4935 11.0139 19.9877 11.0139L20.0144 10.9922Z" fill="#B31851"/>
</svg>
