<svg width="40" height="41" viewBox="0 0 40 41" fill="none" xmlns="http://www.w3.org/2000/svg">
<rect x="-0.000244141" y="0.992188" width="40" height="40" rx="20" fill="white"/>
<path d="M29.5814 16.1472C29.4684 15.7216 29.2456 15.3331 28.9353 15.0207C28.6249 14.7083 28.2379 14.483 27.8131 14.3672C26.2539 13.9464 19.9998 13.9464 19.9998 13.9464C19.9998 13.9464 13.7456 13.9464 12.1856 14.3672C11.7609 14.4832 11.3742 14.7086 11.064 15.021C10.7538 15.3334 10.5311 15.7217 10.4181 16.1472C9.99976 17.7172 9.99976 20.9922 9.99976 20.9922C9.99976 20.9922 9.99976 24.2672 10.4181 25.8372C10.5311 26.2628 10.7539 26.6512 11.0642 26.9636C11.3746 27.276 11.7616 27.5014 12.1864 27.6172C13.7456 28.038 19.9998 28.038 19.9998 28.038C19.9998 28.038 26.2539 28.038 27.8139 27.6172C28.2388 27.5015 28.6258 27.2761 28.9362 26.9637C29.2465 26.6513 29.4693 26.2628 29.5823 25.8372C29.9998 24.2672 29.9998 20.9922 29.9998 20.9922C29.9998 20.9922 29.9998 17.7172 29.5814 16.1472ZM17.9539 23.9655V18.0189L23.1814 20.9922L17.9539 23.9655Z" fill="#B31851"/>
</svg>
