<svg width="27" height="117" viewBox="0 0 27 117" fill="none" xmlns="http://www.w3.org/2000/svg">
<g filter="url(#filter0_b_5898_43231)">
<path d="M-4.05224e-06 24L-1.33787e-08 116.398C-5.98984e-09 116.567 0.137032 116.705 0.306068 116.705C0.467901 116.705 0.601765 116.579 0.611574 116.417L0.657325 115.664C0.876462 112.055 3.22341 108.923 6.62559 107.7L19.3359 103.129C22.625 101.946 24.2695 101.355 25.2053 100.024C26.1411 98.6929 26.1411 96.9453 26.1411 93.45L26.1411 -1.64015e-05L24 -1.63079e-05C12.6863 -1.58133e-05 7.02943 -1.55661e-05 3.51471 3.5147C-4.79405e-06 7.02942 -4.54678e-06 12.6863 -4.05224e-06 24Z" fill="url(#paint0_linear_5898_43231)"/>
</g>
<path d="M7.64499 87.0401L7.64499 82.5181C7.64499 82.1168 7.70566 81.7575 7.82699 81.4401C7.94832 81.1135 8.11632 80.8381 8.33099 80.6141C8.54566 80.3901 8.81166 80.2221 9.12899 80.1101C9.43699 79.9888 9.77766 79.9281 10.151 79.9281C10.5243 79.9281 10.8417 79.9795 11.103 80.0821C11.355 80.1755 11.565 80.3061 11.733 80.4741C11.901 80.6328 12.027 80.8195 12.111 81.0341C12.195 81.2395 12.2417 81.4541 12.251 81.6781L12.335 81.6781C12.335 81.4635 12.377 81.2348 12.461 80.9921C12.545 80.7401 12.6803 80.5115 12.867 80.3061C13.0443 80.0915 13.2777 79.9141 13.567 79.7741C13.847 79.6341 14.197 79.5641 14.617 79.5641C15.009 79.5641 15.3777 79.6295 15.723 79.7601C16.059 79.8815 16.353 80.0541 16.605 80.2781C16.857 80.5021 17.0577 80.7681 17.207 81.0761C17.347 81.3841 17.417 81.7201 17.417 82.0841L17.417 87.0401L7.64499 87.0401ZM15.849 85.1921L15.849 82.6161C15.849 82.2615 15.7603 81.9861 15.583 81.7901C15.3963 81.5941 15.1303 81.4961 14.785 81.4961L14.309 81.4961C13.9637 81.4961 13.6977 81.5941 13.511 81.7901C13.3243 81.9861 13.231 82.2615 13.231 82.6161L13.231 85.1921L15.849 85.1921ZM11.719 85.1921L11.719 82.9101C11.719 82.5741 11.6303 82.3128 11.453 82.1261C11.2663 81.9395 11.0097 81.8461 10.683 81.8461L10.249 81.8461C9.92232 81.8461 9.67032 81.9395 9.49299 82.1261C9.30632 82.3128 9.21299 82.5741 9.21299 82.9101L9.21299 85.1921L11.719 85.1921ZM17.585 74.2149C17.585 74.7563 17.4963 75.2416 17.319 75.6709C17.1323 76.0909 16.8757 76.4503 16.549 76.7489C16.213 77.0383 15.8117 77.2623 15.345 77.4209C14.869 77.5796 14.337 77.6589 13.749 77.6589C13.1703 77.6589 12.6477 77.5843 12.181 77.4349C11.7143 77.2763 11.3177 77.0523 10.991 76.7629C10.655 76.4736 10.3983 76.1189 10.221 75.6989C10.0343 75.2789 9.94099 74.8029 9.94099 74.2709C9.94099 73.7016 10.039 73.2069 10.235 72.7869C10.431 72.3669 10.697 72.0216 11.033 71.7509C11.369 71.4803 11.761 71.2796 12.209 71.1489C12.6477 71.0089 13.119 70.9389 13.623 70.9389L14.211 70.9389L14.211 75.7969L14.393 75.7969C14.925 75.7969 15.3543 75.6476 15.681 75.3489C15.9983 75.0503 16.157 74.6069 16.157 74.0189C16.157 73.5709 16.0637 73.2069 15.877 72.9269C15.6903 72.6376 15.4523 72.3809 15.163 72.1569L16.241 71.1909C16.661 71.4896 16.9923 71.9003 17.235 72.4229C17.4683 72.9363 17.585 73.5336 17.585 74.2149ZM11.285 74.2429C11.285 74.7189 11.4437 75.0969 11.761 75.3769C12.0783 75.6569 12.489 75.7969 12.993 75.7969L13.105 75.7969L13.105 72.8009L12.979 72.8009C12.475 72.8009 12.069 72.9269 11.761 73.1789C11.4437 73.4216 11.285 73.7763 11.285 74.2429ZM17.585 66.2683C17.585 66.9683 17.4683 67.5563 17.235 68.0323C16.9923 68.5083 16.661 68.9283 16.241 69.2923L15.177 68.2003C15.485 67.9296 15.7277 67.6356 15.905 67.3183C16.0823 66.9916 16.171 66.6183 16.171 66.1983C16.171 65.7689 16.0963 65.4609 15.947 65.2743C15.7977 65.0783 15.5923 64.9803 15.331 64.9803C15.1163 64.9803 14.9483 65.0503 14.827 65.1903C14.6963 65.3209 14.6077 65.5496 14.561 65.8763L14.463 66.6043C14.3603 67.3976 14.1363 68.0043 13.791 68.4243C13.4363 68.8349 12.923 69.0403 12.251 69.0403C11.8963 69.0403 11.579 68.9749 11.299 68.8443C11.0097 68.7136 10.767 68.5269 10.571 68.2843C10.3657 68.0416 10.2117 67.7523 10.109 67.4163C9.99699 67.0709 9.94099 66.6883 9.94099 66.2683C9.94099 65.9136 9.96899 65.6009 10.025 65.3303C10.0717 65.0503 10.1463 64.7983 10.249 64.5743C10.3423 64.3503 10.4637 64.1449 10.613 63.9583C10.753 63.7716 10.9117 63.5896 11.089 63.4123L12.139 64.4623C11.915 64.6769 11.7283 64.9336 11.579 65.2323C11.4297 65.5309 11.355 65.8576 11.355 66.2123C11.355 66.6043 11.425 66.8889 11.565 67.0663C11.705 67.2343 11.887 67.3183 12.111 67.3183C12.3537 67.3183 12.5403 67.2483 12.671 67.1083C12.7923 66.9589 12.881 66.7116 12.937 66.3663L13.035 65.6243C13.259 64.0469 13.9777 63.2583 15.191 63.2583C15.5457 63.2583 15.8723 63.3329 16.171 63.4823C16.4603 63.6223 16.7123 63.8229 16.927 64.0843C17.1323 64.3456 17.2957 64.6629 17.417 65.0363C17.529 65.4003 17.585 65.8109 17.585 66.2683ZM17.417 58.8033C17.417 59.4193 17.2583 59.8907 16.941 60.2173C16.6143 60.5347 16.1523 60.6933 15.555 60.6933L11.537 60.6933L11.537 61.7713L10.109 61.7713L10.109 61.2113C10.109 60.9407 10.0483 60.7587 9.92699 60.6653C9.79632 60.5627 9.60499 60.5113 9.35299 60.5113L8.10699 60.5113L8.10699 58.9013L10.109 58.9013L10.109 57.4033L11.537 57.4033L11.537 58.9013L15.989 58.9013L15.989 57.5153L17.417 57.5153L17.417 58.8033ZM17.585 52.755C17.585 53.455 17.4683 54.043 17.235 54.519C16.9923 54.995 16.661 55.415 16.241 55.779L15.177 54.687C15.485 54.4163 15.7277 54.1223 15.905 53.805C16.0823 53.4783 16.171 53.105 16.171 52.685C16.171 52.2557 16.0963 51.9477 15.947 51.761C15.7977 51.565 15.5923 51.467 15.331 51.467C15.1163 51.467 14.9483 51.537 14.827 51.677C14.6963 51.8077 14.6077 52.0363 14.561 52.363L14.463 53.091C14.3603 53.8843 14.1363 54.491 13.791 54.911C13.4363 55.3217 12.923 55.527 12.251 55.527C11.8963 55.527 11.579 55.4617 11.299 55.331C11.0097 55.2003 10.767 55.0137 10.571 54.771C10.3657 54.5283 10.2117 54.239 10.109 53.903C9.99699 53.5577 9.94099 53.175 9.94099 52.755C9.94099 52.4003 9.96899 52.0877 10.025 51.817C10.0717 51.537 10.1463 51.285 10.249 51.061C10.3423 50.837 10.4637 50.6317 10.613 50.445C10.753 50.2583 10.9117 50.0763 11.089 49.899L12.139 50.949C11.915 51.1637 11.7283 51.4203 11.579 51.719C11.4297 52.0177 11.355 52.3443 11.355 52.699C11.355 53.091 11.425 53.3757 11.565 53.553C11.705 53.721 11.887 53.805 12.111 53.805C12.3537 53.805 12.5403 53.735 12.671 53.595C12.7923 53.4457 12.881 53.1983 12.937 52.853L13.035 52.111C13.259 50.5337 13.9777 49.745 15.191 49.745C15.5457 49.745 15.8723 49.8197 16.171 49.969C16.4603 50.109 16.7123 50.3097 16.927 50.571C17.1323 50.8323 17.2957 51.1497 17.417 51.523C17.529 51.887 17.585 52.2977 17.585 52.755ZM17.585 44.5087C17.585 45.05 17.4963 45.5353 17.319 45.9647C17.1323 46.3847 16.8757 46.744 16.549 47.0427C16.213 47.332 15.8117 47.556 15.345 47.7147C14.869 47.8733 14.337 47.9527 13.749 47.9527C13.1703 47.9527 12.6477 47.878 12.181 47.7287C11.7143 47.57 11.3177 47.346 10.991 47.0567C10.655 46.7673 10.3983 46.4127 10.221 45.9927C10.0343 45.5727 9.94099 45.0967 9.94099 44.5647C9.94099 43.9953 10.039 43.5007 10.235 43.0807C10.431 42.6607 10.697 42.3153 11.033 42.0447C11.369 41.774 11.761 41.5733 12.209 41.4427C12.6477 41.3027 13.119 41.2327 13.623 41.2327L14.211 41.2327L14.211 46.0907L14.393 46.0907C14.925 46.0907 15.3543 45.9413 15.681 45.6427C15.9983 45.344 16.157 44.9007 16.157 44.3127C16.157 43.8647 16.0637 43.5007 15.877 43.2207C15.6903 42.9313 15.4523 42.6747 15.163 42.4507L16.241 41.4847C16.661 41.7833 16.9923 42.194 17.235 42.7167C17.4683 43.23 17.585 43.8273 17.585 44.5087ZM11.285 44.5367C11.285 45.0127 11.4437 45.3907 11.761 45.6707C12.0783 45.9507 12.489 46.0907 12.993 46.0907L13.105 46.0907L13.105 43.0947L12.979 43.0947C12.475 43.0947 12.069 43.2207 11.761 43.4727C11.4437 43.7153 11.285 44.07 11.285 44.5367ZM17.417 37.164C17.417 37.78 17.263 38.2327 16.955 38.522C16.647 38.8114 16.213 38.956 15.653 38.956L7.05699 38.956L7.05699 37.164L15.989 37.164L15.989 36.198L17.417 36.198L17.417 37.164ZM17.417 32.4445C17.417 33.0605 17.263 33.5132 16.955 33.8025C16.647 34.0918 16.213 34.2365 15.653 34.2365L7.05699 34.2365L7.05699 32.4445L15.989 32.4445L15.989 31.4785L17.417 31.4785L17.417 32.4445ZM17.585 26.4673C17.585 27.0086 17.4963 27.4939 17.319 27.9233C17.1323 28.3433 16.8757 28.7026 16.549 29.0013C16.213 29.2906 15.8117 29.5146 15.345 29.6733C14.869 29.8319 14.337 29.9113 13.749 29.9113C13.1703 29.9113 12.6477 29.8366 12.181 29.6873C11.7143 29.5286 11.3177 29.3046 10.991 29.0153C10.655 28.7259 10.3983 28.3713 10.221 27.9513C10.0343 27.5313 9.94099 27.0553 9.94099 26.5233C9.94099 25.9539 10.039 25.4593 10.235 25.0393C10.431 24.6193 10.697 24.2739 11.033 24.0033C11.369 23.7326 11.761 23.5319 12.209 23.4013C12.6477 23.2613 13.119 23.1913 13.623 23.1913L14.211 23.1913L14.211 28.0493L14.393 28.0493C14.925 28.0493 15.3543 27.8999 15.681 27.6013C15.9983 27.3026 16.157 26.8593 16.157 26.2713C16.157 25.8233 16.0637 25.4593 15.877 25.1793C15.6903 24.8899 15.4523 24.6333 15.163 24.4093L16.241 23.4433C16.661 23.7419 16.9923 24.1526 17.235 24.6753C17.4683 25.1886 17.585 25.7859 17.585 26.4673ZM11.285 26.4953C11.285 26.9713 11.4437 27.3493 11.761 27.6293C12.0783 27.9093 12.489 28.0493 12.993 28.0493L13.105 28.0493L13.105 25.0533L12.979 25.0533C12.475 25.0533 12.069 25.1793 11.761 25.4313C11.4437 25.6739 11.285 26.0286 11.285 26.4953ZM17.417 20.9146L10.109 20.9146L10.109 19.1226L11.621 19.1226L11.621 19.0526C11.425 19.006 11.2383 18.936 11.061 18.8426C10.8743 18.74 10.711 18.6093 10.571 18.4506C10.431 18.292 10.319 18.1053 10.235 17.8906C10.151 17.6666 10.109 17.41 10.109 17.1206L10.109 16.7286L11.803 16.7286L11.803 17.2886C11.803 17.8953 11.8917 18.3526 12.069 18.6606C12.2463 18.9686 12.5357 19.1226 12.937 19.1226L17.417 19.1226L17.417 20.9146Z" fill="white"/>
<defs>
<filter id="filter0_b_5898_43231" x="-7.71429" y="-7.71429" width="41.5692" height="132.133" filterUnits="userSpaceOnUse" color-interpolation-filters="sRGB">
<feFlood flood-opacity="0" result="BackgroundImageFix"/>
<feGaussianBlur in="BackgroundImage" stdDeviation="3.85714"/>
<feComposite in2="SourceAlpha" operator="in" result="effect1_backgroundBlur_5898_43231"/>
<feBlend mode="normal" in="SourceGraphic" in2="effect1_backgroundBlur_5898_43231" result="shape"/>
</filter>
<linearGradient id="paint0_linear_5898_43231" x1="-5.34688" y1="101.401" x2="27.3562" y2="-18.4262" gradientUnits="userSpaceOnUse">
<stop stop-color="#F29EB6"/>
<stop offset="1" stop-color="#E6116D"/>
</linearGradient>
</defs>
</svg>
