<svg width="24" height="24" viewBox="0 0 24 24" fill="none" xmlns="http://www.w3.org/2000/svg">
    <path d="M12.001 22.0732L12.0303 15.3973" stroke="white" stroke-width="1.00728" stroke-miterlimit="10"/>
    <path d="M12.0812 15.3971C11.8717 15.4005 11.6626 15.3756 11.4602 15.323C11.1128 15.2322 10.7514 15.1436 10.4196 15.0042C9.91429 14.7914 9.51056 14.4303 9.19397 13.9862C9.08424 13.8327 8.96226 13.7586 8.7706 13.7396C6.45025 13.5076 4.99035 11.0315 5.9268 8.92212C5.99352 8.7716 6.04283 8.64333 5.96127 8.46428C4.98146 6.30889 6.38724 3.86102 8.77283 3.56852C8.96745 3.54479 9.08127 3.46954 9.19248 3.32273C10.4166 1.70861 12.823 1.45245 14.3351 2.77407C14.4945 2.91345 14.658 3.06137 14.7707 3.23673C14.902 3.44062 15.1274 3.56185 15.3702 3.59151C17.6438 3.86584 19.0455 6.35413 18.1095 8.40941C18.032 8.57957 18.0223 8.71822 18.0998 8.89209C19.0563 11.0452 17.622 13.4876 15.2579 13.75C15.1426 13.7626 14.9947 13.8194 14.9305 13.9054C14.3144 14.7332 13.4984 15.2199 12.4686 15.359C12.4585 15.3604 12.4485 15.3619 12.4382 15.3638C12.3203 15.3831 12.2009 15.3953 12.0812 15.3971H12.0812Z" stroke="white" stroke-width="1.00728" stroke-miterlimit="10"/>
    <path d="M11.9488 13.0635C11.7112 13.002 11.4657 12.9382 11.3178 12.8759C11.2222 12.8355 11.1254 12.7143 11.0765 12.6454C10.576 11.9436 9.85902 11.5276 9.00303 11.442C8.4792 11.3897 8.20709 11.0134 8.11441 10.8544C8.02655 10.7028 7.84304 10.3028 8.0399 9.85901C8.39875 9.05047 8.40728 8.25972 8.06584 7.50863C7.85564 7.04635 7.99948 6.66487 8.10403 6.47839C8.21673 6.27747 8.49032 5.9301 9.05642 5.86041C9.85866 5.76253 10.5434 5.36698 11.0353 4.7171C11.2637 4.41608 11.6418 4.2359 12.0455 4.2359C12.2535 4.2359 12.5564 4.28409 12.8181 4.51283C12.8507 4.54138 12.8763 4.56399 12.8952 4.58104C13.3987 5.30247 14.1942 5.77514 15.0962 5.88376C15.5911 5.94383 15.851 6.31787 15.94 6.47581C16.0256 6.62817 16.2036 7.02855 16.0108 7.45229C15.5611 8.43878 15.7524 9.28958 15.9919 9.82935C16.1954 10.2872 16.0464 10.6676 15.9396 10.8537C15.8477 11.0134 15.5733 11.3919 15.0058 11.455C14.225 11.5417 13.5236 11.9321 13.081 12.5264C12.8307 12.8626 12.5731 13.0153 12.162 13.0706C12.1275 13.0754 12.0971 13.0802 12.0652 13.0854C12.0541 13.0873 12.0474 13.088 12.0437 13.0884L11.9488 13.0635H11.9488Z" stroke="white" stroke-width="1.00728" stroke-miterlimit="10"/>
    <path d="M12 21.5534C12 21.5534 12.0104 19.0047 13.5555 17.2553C14.988 15.6333 17.6602 15.6667 18.683 15.7064C18.9392 15.7164 19.1434 15.9162 19.1527 16.1664C19.1913 17.1637 19.116 19.6631 17.5682 21.1745C17.2494 21.4863 17.07 21.6361 16.6874 21.837" stroke="white" stroke-width="1.00728" stroke-miterlimit="10" stroke-linecap="round"/>
    <path d="M12.0013 21.8054C12.0013 21.8054 12.0117 19.0049 10.4458 17.2551C9.00218 15.6421 6.34114 15.664 5.31757 15.7055C5.06177 15.7159 4.85788 15.9157 4.84862 16.1656C4.81006 17.1625 4.88494 19.6626 6.43308 21.1748C6.63216 21.369 6.84755 21.5396 7.07443 21.689C7.20048 21.772 7.20715 21.7809 7.33912 21.8513" stroke="white" stroke-width="1.00728" stroke-miterlimit="10" stroke-linecap="round"/>
</svg>
