<svg width="16" height="16" viewBox="0 0 16 16" fill="none" xmlns="http://www.w3.org/2000/svg">
<path d="M2.00684 7.47998V10.4733C2.00684 13.4666 3.20684 14.6666 6.20017 14.6666H9.7935C12.7868 14.6666 13.9868 13.4666 13.9868 10.4733V7.47998" stroke="#B78053" stroke-linecap="round" stroke-linejoin="round"/>
<path d="M7.99999 8.00016C9.21999 8.00016 10.12 7.00683 9.99999 5.78683L9.55999 1.3335H6.44666L5.99999 5.78683C5.87999 7.00683 6.77999 8.00016 7.99999 8.00016Z" stroke="#B78053" stroke-linecap="round" stroke-linejoin="round"/>
<path d="M12.2065 8.00016C13.5532 8.00016 14.5399 6.90683 14.4065 5.56683L14.2199 3.7335C13.9799 2.00016 13.3132 1.3335 11.5665 1.3335H9.5332L9.99987 6.00683C10.1132 7.10683 11.1065 8.00016 12.2065 8.00016Z" stroke="#B78053" stroke-linecap="round" stroke-linejoin="round"/>
<path d="M3.75992 8.00016C4.85992 8.00016 5.85325 7.10683 5.95992 6.00683L6.10659 4.5335L6.42659 1.3335H4.39326C2.64659 1.3335 1.97992 2.00016 1.73992 3.7335L1.55992 5.56683C1.42659 6.90683 2.41326 8.00016 3.75992 8.00016Z" stroke="#B78053" stroke-linecap="round" stroke-linejoin="round"/>
<path d="M7.99967 11.3335C6.88634 11.3335 6.33301 11.8868 6.33301 13.0002V14.6668H9.66634V13.0002C9.66634 11.8868 9.11301 11.3335 7.99967 11.3335Z" stroke="#B78053" stroke-linecap="round" stroke-linejoin="round"/>
</svg>
