<svg width="566" height="146" viewBox="0 0 566 146" fill="none" xmlns="http://www.w3.org/2000/svg">
<g clip-path="url(#clip0_701_3901)">
<path d="M27.92 50.8875C21.28 50.8875 15.84 52.7275 11.6 56.3275C7.36 59.9275 5.36 64.1675 5.52 68.9675C5.52 70.5675 5.84 71.9275 6.48 73.2075C7.04 74.4875 7.92 75.6075 9.04 76.5675C10.16 77.5275 11.36 78.4075 12.56 79.0475C13.68 79.7675 15.2 80.4075 17.04 80.9675C18.8 81.5275 20.32 81.9275 21.6 82.2475C22.8 82.5675 24.4 82.9675 26.4 83.3675C29.44 84.0075 31.76 84.9675 33.36 86.0875C34.96 87.2075 35.84 88.8075 35.92 90.8075C36 93.8475 34.72 96.3275 32.16 98.3275C29.6 100.327 26.32 101.287 22.48 101.287C18.4 101.287 15.12 100.087 12.64 97.6075C10.08 95.1275 8.88 91.4475 9.04 86.4875L1.52 89.3675C1.04 94.9675 2.72 99.5275 6.48 103.127C10.16 106.727 15.12 108.488 21.28 108.488C26.96 108.488 32 106.967 36.32 103.847C40.64 100.727 43.12 96.7275 43.84 91.7675C44.16 89.3675 43.92 87.2875 43.2 85.3675C42.48 83.5275 41.28 82.0075 39.68 80.8075C38.08 79.6875 36.32 78.7275 34.56 78.0075C32.72 77.3675 30.64 76.7275 28.24 76.1675C22.8 75.0475 18.88 73.8475 16.64 72.5675C14.32 71.3675 13.36 69.3675 13.76 66.5675C14.08 64.0875 15.44 62.0875 17.76 60.4875C20 58.8875 22.96 58.0875 26.56 58.0875C34.88 58.0875 38.8 62.5675 38.48 71.3675L46 68.7275C46.4 63.4475 44.96 59.2075 41.76 55.8475C38.48 52.5675 33.84 50.8875 27.92 50.8875ZM83.7475 98.5675L89.4275 66.0875H81.5075L80.9475 69.4475C78.4675 66.7275 75.1075 65.2875 70.9475 65.2875C65.3475 65.2875 60.6275 67.4475 56.7075 71.7675C52.7075 76.0875 50.2275 81.1275 49.2675 86.8075C48.6275 90.4875 48.6275 93.9275 49.4275 97.1275C50.1475 100.327 51.7475 103.047 54.1475 105.207C56.5475 107.447 59.5875 108.488 63.3475 108.488C67.8275 108.488 71.8275 106.967 75.4275 103.767C75.9875 106.967 78.4675 108.488 82.7875 108.488C84.9475 108.488 86.5475 108.248 87.5875 107.688L88.7875 100.887C87.6675 101.447 86.4675 101.527 85.1875 101.207C83.9075 100.887 83.4275 100.007 83.7475 98.5675ZM57.2675 86.8075C57.9075 82.6475 59.4275 79.2075 61.7475 76.4875C63.9875 73.7675 67.0275 72.3275 70.8675 72.3275C74.3875 72.3275 77.3475 73.6075 79.7475 76.0875L75.9875 97.6075C72.7075 100.087 69.2675 101.287 65.7475 101.287C63.1075 101.287 61.0275 100.647 59.5875 99.2075C58.0675 97.8475 57.1875 96.0875 57.0275 93.9275C56.7875 91.8475 56.8675 89.4475 57.2675 86.8075ZM133.281 98.5675L136.401 81.5275C138.321 70.7275 134.961 65.2875 126.161 65.2875C120.241 65.2875 115.121 67.2075 110.641 70.8875C110.321 67.2075 107.841 65.2875 103.121 65.2875C100.881 65.2875 99.2813 65.6075 98.3213 66.0875L97.1213 72.8875C98.2413 72.4075 99.3613 72.3275 100.641 72.6475C101.921 72.9675 102.401 73.8475 102.161 75.2075L96.3213 107.688H104.321L109.841 76.5675C113.361 73.8475 117.521 72.4875 122.481 72.4875C124.641 72.4875 126.241 73.0475 127.281 74.0075C128.241 75.0475 128.721 76.3275 128.641 77.7675C128.561 79.2075 128.401 80.7275 128.241 82.3275L124.961 100.567C124.481 103.047 124.961 104.967 126.241 106.407C127.521 107.848 129.521 108.488 132.321 108.488C134.481 108.488 136.081 108.248 137.121 107.688L138.321 100.887C137.201 101.447 136.001 101.527 134.721 101.207C133.441 100.887 132.961 100.007 133.281 98.5675ZM182.037 65.2875C178.917 65.2875 176.357 66.3275 174.277 68.2475C171.397 66.3275 168.037 65.2875 164.197 65.2875C159.557 65.2875 155.477 66.6475 151.877 69.2875C148.277 72.0075 146.277 75.5275 145.957 80.0075C145.477 84.3275 146.677 87.9275 149.717 90.6475C146.757 92.2475 145.157 94.4075 144.997 96.9675C144.837 99.1275 145.397 100.887 146.837 102.247C143.317 104.567 141.397 107.607 141.077 111.288C140.677 115.208 142.277 118.408 145.877 120.808C149.397 123.288 154.197 124.488 160.197 124.488C166.597 124.488 171.717 123.208 175.397 120.488C179.077 117.848 181.157 114.728 181.477 111.128C181.637 109.208 181.397 107.607 180.837 106.167C180.197 104.727 179.397 103.607 178.437 102.807C177.477 102.007 176.117 101.287 174.357 100.807C172.597 100.327 170.917 100.007 169.317 99.8475C167.717 99.6875 165.717 99.5275 163.477 99.4475C156.357 99.2875 152.917 98.1675 153.077 96.1675C153.077 95.2075 153.877 94.4875 155.317 94.0075C157.237 94.6475 159.317 94.9675 161.557 94.9675C166.037 94.9675 170.037 93.6875 173.637 90.9675C177.237 88.2475 179.317 84.6475 179.797 80.0075C179.957 77.1275 179.397 74.5675 178.117 72.2475C178.837 71.8475 179.717 71.6075 180.757 71.6075C182.517 71.6075 183.797 72.2475 184.757 73.4475L188.437 66.8075C186.837 65.8475 184.757 65.2875 182.037 65.2875ZM171.797 80.0075C171.477 82.7275 170.437 84.8875 168.597 86.3275C166.757 87.8475 164.597 88.5675 162.117 88.5675C159.477 88.5675 157.397 87.8475 155.877 86.4075C154.277 84.9675 153.637 82.8075 153.957 80.0075C154.117 77.3675 155.157 75.2875 156.997 73.8475C158.837 72.4075 161.077 71.6875 163.637 71.6875C166.117 71.6875 168.117 72.4075 169.717 73.8475C171.317 75.2875 171.957 77.3675 171.797 80.0075ZM173.397 111.528C173.157 113.688 171.877 115.288 169.557 116.408C167.157 117.528 164.277 118.088 160.917 118.088C157.077 118.088 154.117 117.368 152.037 115.928C149.877 114.488 148.917 112.648 149.157 110.488C149.317 108.328 150.517 106.567 152.917 105.207C154.517 105.607 156.117 105.847 157.797 105.847H158.357C160.757 106.007 162.837 106.087 164.597 106.247C166.357 106.407 167.957 106.727 169.397 107.047C170.837 107.367 171.877 107.928 172.517 108.648C173.157 109.448 173.477 110.408 173.397 111.528ZM210.555 102.087C207.035 102.087 204.075 101.127 201.755 99.0475C199.355 97.0475 198.075 94.2475 197.835 90.6475C202.395 91.7675 206.555 92.4075 210.315 92.5675C214.075 92.7275 217.115 92.4075 219.435 91.6075C221.755 90.8875 223.755 90.0075 225.435 88.8875C227.115 87.8475 228.395 86.6475 229.195 85.2075C229.995 83.7675 230.635 82.5675 230.955 81.4475C231.275 80.3275 231.515 79.2875 231.515 78.3275C231.515 74.3275 229.995 71.1275 227.035 68.8075C223.995 66.4875 219.835 65.2875 214.395 65.2875C207.515 65.2875 201.675 67.6075 196.955 72.2475C192.235 76.8875 189.915 82.6475 189.915 89.5275C189.915 95.2875 191.755 99.8475 195.515 103.287C199.275 106.807 204.075 108.488 209.915 108.488C213.995 108.488 217.835 107.688 221.435 106.087C224.955 104.487 227.675 102.247 229.435 99.3675L224.555 95.0475C221.115 99.7675 216.475 102.087 210.555 102.087ZM214.395 71.6875C217.595 71.6875 219.915 72.3275 221.355 73.6075C222.795 74.8875 223.515 76.4075 223.515 78.3275C223.515 79.1275 223.355 80.0075 223.035 80.8075C222.715 81.6075 221.995 82.4875 220.875 83.4475C219.755 84.4075 218.395 85.1275 216.715 85.6075C214.955 86.0875 212.555 86.2475 209.435 86.0875C206.235 85.9275 202.635 85.3675 198.555 84.2475C199.515 80.5675 201.515 77.5275 204.395 75.2075C207.275 72.8875 210.555 71.6875 214.395 71.6875ZM257.43 102.087C253.91 102.087 250.95 101.127 248.63 99.0475C246.23 97.0475 244.95 94.2475 244.71 90.6475C249.27 91.7675 253.43 92.4075 257.19 92.5675C260.95 92.7275 263.99 92.4075 266.31 91.6075C268.63 90.8875 270.63 90.0075 272.31 88.8875C273.99 87.8475 275.27 86.6475 276.07 85.2075C276.87 83.7675 277.51 82.5675 277.83 81.4475C278.15 80.3275 278.39 79.2875 278.39 78.3275C278.39 74.3275 276.87 71.1275 273.91 68.8075C270.87 66.4875 266.71 65.2875 261.27 65.2875C254.39 65.2875 248.55 67.6075 243.83 72.2475C239.11 76.8875 236.79 82.6475 236.79 89.5275C236.79 95.2875 238.63 99.8475 242.39 103.287C246.15 106.807 250.95 108.488 256.79 108.488C260.87 108.488 264.71 107.688 268.31 106.087C271.83 104.487 274.55 102.247 276.31 99.3675L271.43 95.0475C267.99 99.7675 263.35 102.087 257.43 102.087ZM261.27 71.6875C264.47 71.6875 266.79 72.3275 268.23 73.6075C269.67 74.8875 270.39 76.4075 270.39 78.3275C270.39 79.1275 270.23 80.0075 269.91 80.8075C269.59 81.6075 268.87 82.4875 267.75 83.4475C266.63 84.4075 265.27 85.1275 263.59 85.6075C261.83 86.0875 259.43 86.2475 256.31 86.0875C253.11 85.9275 249.51 85.3675 245.43 84.2475C246.39 80.5675 248.39 77.5275 251.27 75.2075C254.15 72.8875 257.43 71.6875 261.27 71.6875ZM297.665 72.4875H308.625L310.625 66.0875H298.865L300.945 54.0875L292.625 55.6875L290.785 66.0875H284.705L283.505 72.4875H289.665L285.265 97.5275C284.625 101.047 285.185 103.767 286.785 105.687C288.385 107.607 291.025 108.488 294.865 108.488C297.745 108.488 300.305 108.248 302.465 107.688L302.705 101.607C301.505 101.927 299.985 102.087 298.145 102.087C294.305 102.087 292.785 100.167 293.505 96.3275L297.665 72.4875Z" fill="white"/>
<path d="M353.371 25.764C349.527 21.796 343.947 20.68 338.615 20.556C329.067 20.184 314.063 29.608 314.063 40.52C314.063 49.696 325.719 58.252 330.555 65.072C334.523 70.9 336.259 76.852 336.631 82.804C328.075 83.176 318.651 87.392 313.071 89.996C299.555 95.948 288.271 103.512 277.483 114.3C269.299 122.484 265.827 134.512 274.879 139.224C294.223 149.64 325.223 124.22 334.151 108.348C338.863 100.536 340.971 92.724 340.599 85.036C342.211 85.16 343.575 85.532 344.691 86.152C348.411 88.26 349.279 93.468 346.055 96.692C345.435 98.18 346.427 99.42 348.411 98.552C352.255 94.708 350.519 85.904 345.187 83.92C343.575 83.3 341.963 83.052 340.475 82.928C339.607 76.108 337.251 69.66 332.415 63.584C327.455 57.26 316.915 48.828 316.915 40.396C316.915 29.856 328.447 22.54 337.375 22.168C342.459 21.176 348.163 25.268 350.891 29.98C352.255 32.708 356.347 27.748 353.371 25.764ZM323.611 115.416C314.683 126.7 293.107 144.184 279.219 139.224C267.439 135.008 274.011 121.12 279.219 115.54C291.867 101.9 310.095 92.724 328.571 86.152C330.431 85.532 333.531 84.912 336.631 84.788C336.259 95.7 331.051 105.992 323.611 115.416ZM340.237 52.424C340.361 52.796 340.485 53.044 340.733 53.168C342.593 55.152 345.941 55.028 348.545 55.028C355.489 55.028 362.557 53.912 369.377 53.292L376.321 52.548C363.053 72.76 352.265 97.56 359.209 106.736C364.293 113.432 379.793 105.248 384.505 102.52C390.333 99.048 395.045 94.956 400.005 90.616C400.377 88.756 400.005 88.88 398.641 89.748C390.829 96.692 382.893 102.52 372.849 105.868C363.301 109.216 357.721 107.48 359.581 96.196C361.937 87.64 363.673 84.292 365.285 81.068C367.145 77.224 369.005 73.38 370.989 69.536C373.965 66.188 380.413 58.252 381.405 57.26L381.033 57.756L386.365 51.556C396.657 50.688 406.825 50.688 416.869 53.044C420.465 53.912 422.821 54.284 426.169 55.896C429.021 56.516 430.509 53.788 428.401 52.052C423.441 50.192 417.117 50.192 411.785 49.696C403.725 49.076 395.789 49.324 387.853 49.82C395.417 41.264 400.005 35.932 403.477 29.98C404.469 28.368 405.585 26.384 404.593 24.524C404.221 24.152 403.849 23.904 403.477 24.028C397.153 26.012 386.985 36.924 377.561 50.688L368.881 51.432C358.093 52.424 351.025 54.656 343.461 52.424C343.213 52.424 340.237 50.316 340.237 52.424ZM384.629 46.72C389.713 39.9 394.921 32.956 400.873 27.872C402.361 26.26 404.097 24.772 402.609 27.624C401.245 30.476 399.385 33.328 397.401 35.808C393.929 40.272 389.961 45.108 385.869 49.944L382.149 50.316L384.629 46.72ZM384.381 51.804L373.345 64.824C375.701 60.484 378.057 56.144 380.909 52.052L384.381 51.804ZM404.13 86.276C397.31 86.276 391.11 98.428 399.418 98.8C402.89 98.924 405.618 95.328 406.734 92.228C412.81 94.832 419.01 92.848 425.086 90.368C425.954 89.252 425.83 89.128 424.342 89.5C420.25 92.228 409.71 93.716 407.106 90.74C407.478 88.88 406.114 86.276 404.13 86.276ZM399.666 97.56C396.442 97.188 399.914 90.864 402.518 88.632C402.518 89.996 404.378 91.36 405.866 91.98C405.246 94.212 403.014 97.932 399.666 97.56ZM406.238 90.492C404.874 89.996 403.386 88.756 404.502 87.888C406.362 88.384 406.362 89.624 406.238 90.492ZM439.864 73.38C439.864 73.008 439.74 72.388 439.368 72.016C436.64 70.652 432.92 75.364 431.68 76.976C427.712 82.184 417.296 98.18 417.296 104.008C417.42 104.628 417.668 105 417.916 105.124C417.792 105.124 418.288 105.744 418.288 105.62C418.412 105.868 418.66 105.992 419.032 106.116C421.884 106.116 426.1 100.164 427.712 98.552C432.548 93.716 436.392 89.128 442.22 85.284C444.576 83.92 450.404 79.208 452.14 83.672C453.008 84.664 453.256 85.16 453.628 83.796C452.264 78.464 448.172 79.58 443.708 81.936C437.88 85.284 432.424 89.996 427.588 94.584C425.604 96.568 421.016 102.024 421.388 101.404L422.132 98.8C422.504 97.312 423.496 96.196 424.116 94.832C424.736 93.468 425.852 91.112 427.34 88.508C430.936 85.16 439.864 78.216 439.864 73.38ZM437.88 73.876C437.88 76.232 432.92 81.564 429.2 85.284C432.548 79.332 436.64 73.256 437.88 73.876ZM464.081 82.556C458.253 87.392 449.821 104.504 464.329 103.016C468.793 102.52 473.257 100.288 477.597 97.436C481.565 94.956 485.409 92.104 488.385 89.748C488.757 87.888 489.129 87.888 488.013 88.508C484.665 91.112 480.821 93.964 476.977 96.32C472.885 98.8 468.917 100.536 464.329 101.404C452.053 103.512 463.833 86.896 467.553 83.672C468.545 82.308 465.445 81.564 464.081 82.556ZM469.413 71.52C468.917 72.636 468.793 74.372 469.413 74.992C470.033 75.612 472.141 75.24 472.637 74.868C473.133 74.496 473.505 73.132 472.637 72.264C471.769 71.396 469.909 70.404 469.413 71.52ZM485.72 91.236C485.844 91.36 485.968 91.36 486.092 91.36C485.1 94.46 485.844 97.808 489.936 98.304C500.848 99.916 518.084 91.36 529.12 87.268C529.492 90.616 531.104 93.964 532.22 97.56C530.36 98.428 528.748 99.544 527.136 100.66C525.152 101.9 520.44 105.124 519.2 107.604C516.348 113.928 522.3 115.044 527.136 113.308C528.996 112.688 530.608 111.696 532.22 110.208C536.188 106.364 538.172 101.528 536.312 96.692C544.248 93.22 553.052 91.608 561.608 89.748C563.468 88.756 563.592 88.756 561.236 88.632C552.432 90.492 543.876 92.228 535.816 95.7C535.816 95.576 535.692 95.452 535.692 95.328C534.452 93.096 530.36 87.888 531.6 85.036C532.964 82.184 536.932 81.068 540.776 81.192C541.644 81.192 542.016 83.3 542.884 83.3C546.356 82.928 545.364 79.332 542.388 78.34C540.528 77.72 537.8 78.216 535.692 79.084C531.352 80.696 529.616 82.928 529.12 85.408C520.688 89.748 511.14 93.344 502.088 95.824C498.988 96.692 495.144 97.312 491.796 96.94C488.324 96.568 487.828 93.964 488.82 91.608C490.556 91.484 492.292 90.864 493.904 89.624C495.02 88.632 496.756 86.4 495.144 85.036C493.284 83.548 490.06 86.152 488.696 87.144C487.704 88.012 486.96 89.004 486.464 90.368L485.72 89.872C484.604 89.872 484.728 90.74 485.72 91.236ZM533.212 101.404C533.832 105.744 531.352 109.588 527.756 111.572C524.78 113.556 517.588 113.432 520.316 108.348C521.68 105.868 526.02 102.768 527.756 101.528C529.244 100.412 530.856 99.42 532.592 98.552C532.964 99.544 533.088 100.536 533.212 101.404ZM492.54 87.144C493.16 86.524 493.532 86.276 493.904 86.4C495.64 87.764 492.292 89.748 489.44 90.368C490.06 89.624 490.68 88.88 491.548 88.136L492.54 87.144Z" fill="white"/>
</g>
<defs>
<clipPath id="clip0_701_3901">
<rect width="566" height="146" fill="white"/>
</clipPath>
</defs>
</svg>
