<svg width="121" height="124" viewBox="0 0 121 124" fill="none" xmlns="http://www.w3.org/2000/svg">
<g clip-path="url(#clip0_4712_23144)">
<path d="M27.0298 119.764C27.4033 120.294 29.5907 123.889 30.8808 125.493C31.9296 126.799 33.5974 129.202 36.5421 131.414C37.4063 132.062 38.4323 132.659 39.5112 133.257C40.2135 133.652 40.9675 134.028 41.7729 134.381C44.123 135.401 46.5922 136.198 49.2213 136.87C54.8143 138.302 58.2374 140.74 60.715 143.214" stroke="#F7E2D1" stroke-width="0.531842" stroke-miterlimit="10"/>
<path d="M26.667 118.76L27.1918 119.669C27.9396 120.732 29.6739 123.362 31.3807 125.047C32.7409 126.388 34.6659 128.317 37.6632 130.17C38.5702 130.73 39.6036 131.266 40.7067 131.806C41.4206 132.159 42.179 132.504 42.9841 132.838C45.5607 133.899 47.958 134.81 50.2196 135.685C55.9079 137.887 58.7187 140.575 60.8761 143.118C61.1561 143.444 61.6387 144.308 61.6387 144.308" stroke="#F7E2D1" stroke-width="0.531842" stroke-miterlimit="10"/>
<path d="M25.8389 117.662C25.8389 117.662 26.9941 119.071 27.3526 119.576C29.8026 123.062 33.0153 126.911 44.1969 131.302C55.3776 135.692 58.5863 139.541 61.0363 143.028C61.2723 143.451 61.9283 144.322 61.9283 144.322" stroke="#F7E2D1" stroke-width="0.531842" stroke-miterlimit="10"/>
<path d="M27.6898 119.369C30.1674 121.843 33.7226 124.221 39.3172 125.652C41.9471 126.326 44.4179 127.122 46.7689 128.144C47.5743 128.496 48.3259 128.872 49.0273 129.266C50.1062 129.863 51.1337 130.46 51.9979 131.108C54.9442 133.319 56.6113 135.724 57.6592 137.028C58.9477 138.633 61.1334 142.225 61.5069 142.756C61.6237 143.018 62.1926 144.084 62.1926 144.084" stroke="#F7E2D1" stroke-width="0.531842" stroke-miterlimit="10"/>
<path d="M27.0264 118.646L27.5098 119.484C29.6672 122.027 32.4789 124.716 38.1696 126.919C40.4312 127.793 42.8285 128.705 45.405 129.766C46.2101 130.1 46.9653 130.443 47.6792 130.795C48.7838 131.335 49.8172 131.871 50.7242 132.431C53.7224 134.285 55.6489 136.213 57.0085 137.557C58.7152 139.242 60.4487 141.871 61.1941 142.933C61.3276 143.132 62.7232 145.247 62.7232 145.247" stroke="#F7E2D1" stroke-width="0.531842" stroke-miterlimit="10"/>
<path d="M65.8481 150.269C65.1147 148.998 63.5288 145.963 60.6419 143.386C60.5535 143.306 60.7342 143.464 60.6419 143.386C57.8441 140.981 53.7091 138.813 48.2226 138.052C44.0758 137.477 40.8242 136.29 38.3129 134.702C37.2591 134.049 36.2396 133.389 35.4176 132.656C32.5307 130.079 31.1118 127.209 30.3783 125.939L22.531 112.347" stroke="#F7E2D1" stroke-width="0.531842" stroke-miterlimit="10"/>
<path d="M22.5302 112.346C23.2637 113.616 24.6712 116.494 27.5557 119.071C27.6441 119.15 27.7332 119.227 27.8255 119.305C30.6232 121.71 34.6707 123.801 40.1573 124.562C44.304 125.136 47.5542 126.324 50.0669 127.912C51.1207 128.564 52.1402 129.224 52.9607 129.958C55.8476 132.535 57.2665 135.405 58 136.675L65.8473 150.267" stroke="#F7E2D1" stroke-width="0.531842" stroke-miterlimit="10"/>
<path d="M59.062 101.27C59.4355 101.8 61.623 105.395 62.913 106.999C63.9618 108.305 65.6296 110.708 68.5743 112.92C69.4385 113.568 70.4645 114.165 71.5434 114.762C72.2457 115.158 72.9997 115.534 73.8051 115.887C76.1552 116.907 78.6245 117.704 81.2535 118.376C86.8466 119.808 90.2696 122.246 92.7472 124.72" stroke="#F7E2D1" stroke-width="0.531842" stroke-miterlimit="10"/>
<path d="M58.6992 100.266L59.224 101.175C59.9719 102.237 61.7062 104.868 63.4129 106.553C64.7732 107.894 66.6981 109.823 69.6954 111.676C70.6024 112.236 71.6358 112.772 72.7389 113.312C73.4528 113.665 74.2113 114.01 75.0164 114.344C77.5929 115.404 79.9902 116.316 82.2518 117.19C87.9401 119.393 90.7509 122.081 92.9083 124.624C93.1883 124.95 93.671 125.814 93.671 125.814" stroke="#F7E2D1" stroke-width="0.531842" stroke-miterlimit="10"/>
<path d="M57.8711 99.168C57.8711 99.168 59.0263 100.577 59.3849 101.082C61.8348 104.568 65.0475 108.417 76.2291 112.808C87.4098 117.198 90.6185 121.047 93.0685 124.533C93.3046 124.956 93.9605 125.828 93.9605 125.828" stroke="#F7E2D1" stroke-width="0.531842" stroke-miterlimit="10"/>
<path d="M59.722 100.875C62.1996 103.349 65.7548 105.727 71.3495 107.158C73.9794 107.832 76.4501 108.628 78.8011 109.65C79.6065 110.002 80.3581 110.378 81.0595 110.772C82.1384 111.369 83.1659 111.965 84.0301 112.613C86.9764 114.825 88.6435 117.23 89.6915 118.534C90.98 120.139 93.1657 123.731 93.5392 124.262C93.6559 124.524 94.2248 125.59 94.2248 125.59" stroke="#F7E2D1" stroke-width="0.531842" stroke-miterlimit="10"/>
<path d="M59.0586 100.152L59.542 100.99C61.6995 103.532 64.5111 106.222 70.2018 108.425C72.4634 109.299 74.8607 110.211 77.4373 111.271C78.2424 111.606 78.9975 111.949 79.7114 112.301C80.816 112.841 81.8494 113.377 82.7565 113.937C85.7547 115.791 87.6811 117.719 89.0407 119.063C90.7475 120.748 92.4809 123.377 93.2263 124.439C93.3598 124.638 94.7554 126.753 94.7554 126.753" stroke="#F7E2D1" stroke-width="0.531842" stroke-miterlimit="10"/>
<path d="M97.8804 131.774C97.1469 130.504 95.5611 127.469 92.6741 124.891M92.6741 124.891C92.5857 124.812 92.7664 124.97 92.6741 124.891ZM92.6741 124.891C89.8764 122.486 85.7413 120.319 80.2548 119.558C76.1081 118.983 72.8564 117.796 70.3452 116.208C69.2914 115.555 68.2718 114.895 67.4499 114.162C64.5629 111.585 63.1441 108.715 62.4106 107.445L54.5633 93.8527" stroke="#F7E2D1" stroke-width="0.531842" stroke-miterlimit="10"/>
<path d="M54.5624 93.8515C55.2959 95.122 56.7034 98.0001 59.588 100.577C59.6764 100.656 59.7654 100.732 59.8577 100.811C62.6554 103.216 66.7029 105.306 72.1895 106.067C76.3362 106.642 79.5864 107.83 82.0991 109.418C83.1529 110.07 84.1725 110.73 84.9929 111.464C87.8799 114.041 89.2987 116.911 90.0322 118.181L97.8795 131.773" stroke="#F7E2D1" stroke-width="0.531842" stroke-miterlimit="10"/>
<path d="M91.0884 82.7812C91.4619 83.3119 93.6493 86.907 94.9394 88.5109C95.9882 89.8169 97.6559 92.2194 100.601 94.4318C101.465 95.0797 102.491 95.6769 103.57 96.2742C104.272 96.6699 105.026 97.0459 105.831 97.3984C108.182 98.4187 110.651 99.2157 113.28 99.888C118.873 101.32 122.296 103.758 124.774 106.232" stroke="#F7E2D1" stroke-width="0.531842" stroke-miterlimit="10"/>
<path d="M90.7256 81.7773L91.2504 82.6863C91.9982 83.7492 93.7325 86.3797 95.4392 88.0643C96.7995 89.406 98.7244 91.3348 101.722 93.1873C102.629 93.7475 103.662 94.2835 104.765 94.824C105.479 95.1765 106.238 95.5215 107.043 95.8558C109.619 96.9162 112.017 97.828 114.278 98.7022C119.966 100.904 122.777 103.593 124.935 106.135C125.215 106.462 125.697 107.326 125.697 107.326" stroke="#F7E2D1" stroke-width="0.531842" stroke-miterlimit="10"/>
<path d="M89.8975 80.6797C89.8975 80.6797 91.0527 82.0889 91.4112 82.5937C93.8612 86.0799 97.0738 89.9291 108.255 94.3201C119.436 98.7096 122.645 102.559 125.095 106.045C125.331 106.468 125.987 107.34 125.987 107.34" stroke="#F7E2D1" stroke-width="0.531842" stroke-miterlimit="10"/>
<path d="M91.7484 82.3867C94.226 84.8606 97.7812 87.239 103.376 88.6698C106.006 89.3435 108.477 90.1396 110.827 91.1615C111.633 91.514 112.384 91.8894 113.086 92.2836C114.165 92.8808 115.192 93.4771 116.056 94.1251C119.003 96.3365 120.67 98.7415 121.718 100.046C123.006 101.651 125.192 105.243 125.566 105.773C125.682 106.035 126.251 107.102 126.251 107.102" stroke="#F7E2D1" stroke-width="0.531842" stroke-miterlimit="10"/>
<path d="M91.085 81.6641L91.5684 82.5014C93.7258 85.0442 96.5375 87.7339 102.228 89.9368C104.49 90.811 106.887 91.7228 109.464 92.7832C110.269 93.1175 111.024 93.4604 111.738 93.8128C112.842 94.3524 113.876 94.8885 114.783 95.4486C117.781 97.3027 119.707 99.2306 121.067 100.575C122.774 102.259 124.507 104.888 125.253 105.951C125.386 106.15 126.782 108.264 126.782 108.264" stroke="#F7E2D1" stroke-width="0.531842" stroke-miterlimit="10"/>
<path d="M129.907 113.286C129.173 112.016 127.587 108.98 124.7 106.403C124.612 106.324 124.793 106.482 124.7 106.403C121.903 103.998 117.768 101.83 112.281 101.069C108.134 100.495 104.883 99.3074 102.372 97.7192C101.318 97.0669 100.298 96.4069 99.4762 95.6736C96.5893 93.0964 95.1704 90.2268 94.4369 88.9564L86.5896 75.3645" stroke="#F7E2D1" stroke-width="0.531842" stroke-miterlimit="10"/>
<path d="M86.5888 75.3633C87.3223 76.6337 88.7298 79.5119 91.6143 82.0884C91.7027 82.1675 91.7917 82.2442 91.8841 82.3231C94.6818 84.728 98.7293 86.8181 104.216 87.5792C108.363 88.154 111.613 89.342 114.125 90.9294C115.179 91.5817 116.199 92.2417 117.019 92.9759C119.906 95.553 121.325 98.4226 122.059 99.6931L129.906 113.285" stroke="#F7E2D1" stroke-width="0.531842" stroke-miterlimit="10"/>
<path d="M161.933 94.796C161.2 93.5255 159.614 90.49 156.727 87.9129C156.638 87.8338 156.819 87.9918 156.727 87.9129C153.929 85.5079 149.794 83.3402 144.308 82.5791C140.161 82.0043 136.909 80.8172 134.398 79.229C133.344 78.5766 132.325 77.9167 131.503 77.1833C128.616 74.6062 127.197 71.7366 126.463 70.4662L118.616 56.8742" stroke="#F7E2D1" stroke-width="0.531842" stroke-miterlimit="10"/>
<path d="M118.615 56.873C119.349 58.1435 120.756 61.0216 123.641 63.5981C123.729 63.6772 123.818 63.754 123.91 63.8328C126.708 66.2378 130.756 68.3279 136.242 69.089C140.389 69.6638 143.639 70.8518 146.152 72.4391C147.206 73.0915 148.225 73.7514 149.046 74.4856C151.933 77.0628 153.351 79.9324 154.085 81.2028L161.932 94.7948" stroke="#F7E2D1" stroke-width="0.531842" stroke-miterlimit="10"/>
<path d="M52.4629 90.4766C52.7357 91.0653 54.7554 94.7573 55.4995 96.6764C56.106 98.2377 57.3528 100.883 57.7964 104.54C57.9254 105.612 57.9296 106.799 57.9074 108.032C57.8989 108.838 57.8476 109.679 57.7502 110.553C57.4588 113.098 56.9144 115.635 56.182 118.248C54.6253 123.808 55.0255 127.992 55.9292 131.374" stroke="#F7E2D1" stroke-width="0.531842" stroke-miterlimit="10"/>
<path d="M51.7764 89.6621L52.3012 90.5711C52.8477 91.7502 54.2587 94.5674 54.8642 96.8878C55.346 98.7366 56.0539 101.368 56.1596 104.89C56.1912 105.956 56.1387 107.119 56.0553 108.344C56.0035 109.139 55.9231 109.968 55.8101 110.832C55.4402 113.594 55.0312 116.126 54.6574 118.522C53.7205 124.549 54.6431 128.327 55.7666 131.467C55.9093 131.873 56.4163 132.723 56.4163 132.723" stroke="#F7E2D1" stroke-width="0.531842" stroke-miterlimit="10"/>
<path d="M51.2368 88.3965C51.2368 88.3965 51.8796 90.1016 52.1375 90.6644C53.9317 94.5293 55.6588 99.2361 53.8707 111.115C52.0818 122.993 53.8111 127.696 55.6053 131.561C55.8535 131.977 56.2807 132.981 56.2807 132.981" stroke="#F7E2D1" stroke-width="0.531842" stroke-miterlimit="10"/>
<path d="M51.7909 90.8516C52.6946 94.2342 52.9767 98.5023 51.4185 104.063C50.687 106.677 50.1411 109.215 49.8505 111.762C49.7531 112.636 49.7024 113.474 49.6931 114.279C49.6709 115.512 49.6735 116.7 49.8026 117.772C50.2446 121.429 51.4938 124.076 52.0995 125.635C52.8451 127.554 54.863 131.243 55.1358 131.831C55.3044 132.064 55.9436 133.089 55.9436 133.089" stroke="#F7E2D1" stroke-width="0.531842" stroke-miterlimit="10"/>
<path d="M51.4961 89.916L51.9795 90.7533C53.1029 93.8931 54.0265 97.673 53.0889 103.703C52.7152 106.098 52.3062 108.63 51.9362 111.392C51.8232 112.256 51.7425 113.082 51.6908 113.876C51.6058 115.103 51.5533 116.266 51.585 117.331C51.6915 120.855 52.3979 123.487 52.8821 125.337C53.4876 127.657 54.8977 130.473 55.4449 131.649C55.5509 131.865 56.6842 134.131 56.6842 134.131" stroke="#F7E2D1" stroke-width="0.531842" stroke-miterlimit="10"/>
<path d="M59.469 139.348C58.7355 138.078 56.8996 135.187 56.1112 131.398C56.0869 131.282 56.1334 131.517 56.1112 131.398C55.4273 127.773 55.6175 123.108 57.7017 117.976C59.2773 114.097 59.875 110.688 59.7552 107.719C59.7171 106.48 59.6554 105.267 59.4313 104.189C58.6429 100.4 56.8672 97.7362 56.1337 96.4658L48.2864 82.8738" stroke="#F7E2D1" stroke-width="0.531842" stroke-miterlimit="10"/>
<path d="M48.2872 82.8711C49.0207 84.1415 50.8095 86.7996 51.5985 90.5859C51.6229 90.702 51.6448 90.8175 51.6669 90.9369C52.3508 94.5623 52.1372 99.1126 50.053 104.245C48.4774 108.123 47.8812 111.532 47.9995 114.502C48.0375 115.74 48.0993 116.953 48.3249 118.031C49.1133 121.82 50.8891 124.483 51.6225 125.754L59.4699 139.346" stroke="#F7E2D1" stroke-width="0.531842" stroke-miterlimit="10"/>
<path d="M84.4893 71.9863C84.7621 72.5751 86.7818 76.2671 87.5258 78.1862C88.1324 79.7475 89.3792 82.3931 89.8227 86.0495C89.9518 87.1219 89.956 88.3091 89.9337 89.542C89.9253 90.3481 89.874 91.1891 89.7765 92.0628C89.4851 94.6082 88.9407 97.1452 88.2084 99.7581C86.6516 105.318 87.0519 109.501 87.9555 112.884" stroke="#F7E2D1" stroke-width="0.531842" stroke-miterlimit="10"/>
<path d="M83.8027 71.1719L84.3275 72.0809C84.8741 73.2599 86.285 76.0772 86.8906 78.3975C87.3724 80.2464 88.0803 82.8778 88.186 86.3998C88.2176 87.4654 88.1651 88.6284 88.0816 89.854C88.0299 90.6484 87.9495 91.4778 87.8365 92.3422C87.4665 95.1038 87.0575 97.6357 86.6837 100.031C85.7468 106.059 86.6695 109.837 87.7929 112.977C87.9356 113.383 88.4427 114.233 88.4427 114.233" stroke="#F7E2D1" stroke-width="0.531842" stroke-miterlimit="10"/>
<path d="M83.2632 69.9062C83.2632 69.9062 83.906 71.6113 84.1638 72.1742C85.958 76.0391 87.6852 80.7459 85.8971 92.6249C84.1081 104.502 85.8375 109.206 87.6317 113.071C87.8799 113.487 88.307 114.491 88.307 114.491" stroke="#F7E2D1" stroke-width="0.531842" stroke-miterlimit="10"/>
<path d="M83.8173 72.3613C84.7209 75.7439 85.0031 80.012 83.4448 85.5725C82.7134 88.1869 82.1674 90.7247 81.8769 93.2717C81.7794 94.1454 81.7288 94.984 81.7195 95.7885C81.6972 97.0215 81.6999 98.2095 81.829 99.2819C82.271 102.939 83.5202 105.585 84.1259 107.145C84.8714 109.063 86.8894 112.752 87.1622 113.341C87.3308 113.573 87.9699 114.599 87.9699 114.599" stroke="#F7E2D1" stroke-width="0.531842" stroke-miterlimit="10"/>
<path d="M83.5225 71.4258L84.0059 72.2631C85.1293 75.4029 86.0528 79.1827 85.1153 85.2125C84.7415 87.6082 84.3325 90.1401 83.9626 92.9017C83.8495 93.7661 83.7689 94.5915 83.7172 95.386C83.6322 96.6125 83.5797 97.7754 83.6113 98.841C83.7179 102.365 84.4242 104.997 84.9084 106.846C85.514 109.167 86.9241 111.982 87.4713 113.159C87.5773 113.374 88.7106 115.64 88.7106 115.64" stroke="#F7E2D1" stroke-width="0.531842" stroke-miterlimit="10"/>
<path d="M91.4954 120.858C90.7619 119.588 88.9259 116.697 88.1376 112.908C88.1132 112.792 88.1597 113.027 88.1376 112.908C87.4537 109.282 87.6439 104.618 89.7281 99.4856C91.3036 95.607 91.9014 92.1974 91.7816 89.2285C91.7435 87.9897 91.6817 86.7768 91.4576 85.6983C90.6693 81.9095 88.8935 79.246 88.16 77.9755L80.3127 64.3836" stroke="#F7E2D1" stroke-width="0.531842" stroke-miterlimit="10"/>
<path d="M80.3136 64.3809C81.0471 65.6513 82.8359 68.3094 83.6249 72.0957C83.6492 72.2118 83.6712 72.3273 83.6933 72.4466C84.3772 76.072 84.1635 80.6223 82.0793 85.7544C80.5038 89.6329 79.9076 93.0417 80.0259 96.0114C80.0639 97.2502 80.1257 98.4631 80.3513 99.5408C81.1397 103.33 82.9154 105.993 83.6489 107.264L91.4962 120.855" stroke="#F7E2D1" stroke-width="0.531842" stroke-miterlimit="10"/>
<path d="M116.518 53.4961C116.79 54.0849 118.81 57.7768 119.554 59.696C120.161 61.2573 121.408 63.9029 121.851 67.5593C121.98 68.6316 121.984 69.8188 121.962 71.0518C121.954 71.8578 121.902 72.6988 121.805 73.5726C121.513 76.118 120.969 78.6549 120.237 81.2678C118.68 86.8274 119.08 91.0111 119.984 94.3937" stroke="#F7E2D1" stroke-width="0.531842" stroke-miterlimit="10"/>
<path d="M115.831 52.6816L116.356 53.5906C116.902 54.7697 118.313 57.5869 118.919 59.9073C119.401 61.7562 120.109 64.3876 120.214 67.9096C120.246 68.9752 120.193 70.1382 120.11 71.3637C120.058 72.1582 119.978 72.9875 119.865 73.8519C119.495 76.6135 119.086 79.1455 118.712 81.5412C117.775 87.5685 118.698 91.3469 119.821 94.4867C119.964 94.8923 120.471 95.7424 120.471 95.7424" stroke="#F7E2D1" stroke-width="0.531842" stroke-miterlimit="10"/>
<path d="M115.292 51.416C115.292 51.416 115.934 53.1211 116.192 53.684C117.986 57.5488 119.714 62.2556 117.925 74.1347C116.136 86.0122 117.866 90.7158 119.66 94.5806C119.908 94.9965 120.335 96.0005 120.335 96.0005" stroke="#F7E2D1" stroke-width="0.531842" stroke-miterlimit="10"/>
<path d="M115.846 53.8711C116.749 57.2537 117.031 61.5218 115.473 67.0823C114.742 69.6967 114.196 72.2345 113.905 74.7814C113.808 75.6552 113.757 76.4938 113.748 77.2983C113.726 78.5313 113.728 79.7193 113.857 80.7917C114.299 84.449 115.549 87.0952 116.154 88.655C116.9 90.5732 118.918 94.2622 119.191 94.8509C119.359 95.083 119.998 96.109 119.998 96.109" stroke="#F7E2D1" stroke-width="0.531842" stroke-miterlimit="10"/>
<path d="M115.551 52.9355L116.034 53.7728C117.158 56.9127 118.081 60.6925 117.144 66.7222C116.77 69.118 116.361 71.6499 115.991 74.4115C115.878 75.2759 115.797 76.1013 115.745 76.8958C115.661 78.1222 115.608 79.2852 115.64 80.3508C115.746 83.8743 116.453 86.5066 116.937 88.3562C117.542 90.6765 118.952 93.4922 119.5 94.6689C119.606 94.8842 120.739 97.15 120.739 97.15" stroke="#F7E2D1" stroke-width="0.531842" stroke-miterlimit="10"/>
<path d="M123.524 102.368C122.79 101.098 120.954 98.2064 120.166 94.4176C120.142 94.3015 120.188 94.537 120.166 94.4176C119.482 90.7923 119.672 86.1274 121.756 80.9953C123.332 77.1168 123.93 73.7072 123.81 70.7383C123.772 69.4995 123.71 68.2866 123.486 67.2081C122.698 63.4193 120.922 60.7557 120.188 59.4853L112.341 45.8934" stroke="#F7E2D1" stroke-width="0.531842" stroke-miterlimit="10"/>
<path d="M112.342 45.8906C113.075 47.1611 114.864 49.8191 115.653 53.6055C115.678 53.7216 115.699 53.837 115.722 53.9564C116.406 57.5818 116.192 62.1321 114.108 67.2641C112.532 71.1427 111.936 74.5514 112.054 77.5212C112.092 78.76 112.154 79.9729 112.38 81.0505C113.168 84.8393 114.944 87.5029 115.677 88.7733L123.525 102.365" stroke="#F7E2D1" stroke-width="0.531842" stroke-miterlimit="10"/>
<path d="M11.4468 92.7676C11.8203 93.2982 14.0077 96.8934 15.2978 98.4973C16.3466 99.8032 18.0143 102.206 20.9591 104.418C21.8233 105.066 22.8493 105.663 23.9282 106.26C24.6305 106.656 25.3845 107.032 26.1899 107.385C28.54 108.405 31.0092 109.202 33.6383 109.874C39.2313 111.306 42.6544 113.744 45.132 116.218" stroke="#F7E2D1" stroke-width="0.531842" stroke-miterlimit="10"/>
<path d="M11.084 91.7637L11.6088 92.6726C12.3566 93.7355 14.0909 96.366 15.7976 98.0507C17.1579 99.3924 19.0828 101.321 22.0802 103.174C22.9872 103.734 24.0206 104.27 25.1237 104.81C25.8376 105.163 26.596 105.508 27.4011 105.842C29.9777 106.903 32.375 107.814 34.6366 108.688C40.3249 110.891 43.1356 113.579 45.2931 116.122C45.5731 116.448 46.0557 117.312 46.0557 117.312" stroke="#F7E2D1" stroke-width="0.531842" stroke-miterlimit="10"/>
<path d="M10.2559 90.666C10.2559 90.666 11.4111 92.0752 11.7696 92.58C14.2196 96.0662 17.4322 99.9154 28.6139 104.306C39.7946 108.696 43.0033 112.545 45.4533 116.032C45.6893 116.454 46.3452 117.326 46.3452 117.326" stroke="#F7E2D1" stroke-width="0.531842" stroke-miterlimit="10"/>
<path d="M12.1068 92.373C14.5844 94.8469 18.1396 97.2254 23.7342 98.6561C26.3641 99.3298 28.8349 100.126 31.1859 101.148C31.9913 101.5 32.7429 101.876 33.4443 102.27C34.5232 102.867 35.5507 103.463 36.4149 104.111C39.3612 106.323 41.0283 108.728 42.0762 110.032C43.3647 111.637 45.5504 115.229 45.9239 115.76C46.0406 116.022 46.6096 117.088 46.6096 117.088" stroke="#F7E2D1" stroke-width="0.531842" stroke-miterlimit="10"/>
<path d="M11.4434 91.6504L11.9268 92.4877C14.0842 95.0305 16.8959 97.7203 22.5866 99.9232C24.8482 100.797 27.2454 101.709 29.822 102.769C30.6271 103.104 31.3823 103.447 32.0962 103.799C33.2008 104.339 34.2342 104.875 35.1412 105.435C38.1394 107.289 40.0659 109.217 41.4255 110.561C43.1322 112.246 44.8656 114.875 45.6111 115.937C45.7446 116.136 47.1402 118.251 47.1402 118.251" stroke="#F7E2D1" stroke-width="0.531842" stroke-miterlimit="10"/>
<path d="M50.2651 123.273C49.5316 122.002 47.9458 118.967 45.0589 116.389C44.9705 116.31 45.1512 116.468 45.0589 116.389C42.2611 113.984 38.1261 111.817 32.6395 111.056C28.4928 110.481 25.2411 109.294 22.7299 107.706C21.6761 107.053 20.6566 106.393 19.8346 105.66C16.9477 103.083 15.5288 100.213 14.7953 98.9427L6.94802 85.3508" stroke="#F7E2D1" stroke-width="0.531842" stroke-miterlimit="10"/>
<path d="M6.94716 85.3496C7.68065 86.62 9.08818 89.4982 11.9727 92.0747C12.0611 92.1538 12.1501 92.2305 12.2425 92.3094C15.0402 94.7144 19.0877 96.8045 24.5743 97.5655C28.721 98.1403 31.9711 99.3284 34.4839 100.916C35.5377 101.568 36.5572 102.228 37.3777 102.962C40.2646 105.539 41.6835 108.409 42.417 109.679L50.2643 123.271" stroke="#F7E2D1" stroke-width="0.531842" stroke-miterlimit="10"/>
<path d="M43.4727 74.2773C43.8461 74.808 46.0336 78.4031 47.3236 80.007C48.3725 81.313 50.0402 83.7155 52.985 85.9279C53.8492 86.5758 54.8752 87.173 55.9541 87.7702C56.6564 88.166 57.4103 88.542 58.2157 88.8945C60.5659 89.9148 63.0351 90.7118 65.6641 91.3841C71.2572 92.8157 74.6803 95.2541 77.1578 97.728" stroke="#F7E2D1" stroke-width="0.531842" stroke-miterlimit="10"/>
<path d="M43.1099 73.2734L43.6347 74.1824C44.3825 75.2453 46.1168 77.8758 47.8235 79.5604C49.1838 80.9021 51.1087 82.8309 54.106 84.6834C55.0131 85.2436 56.0465 85.7796 57.1496 86.3201C57.8635 86.6726 58.6219 87.0176 59.427 87.3519C62.0036 88.4123 64.4008 89.3241 66.6625 90.1982C72.3507 92.4005 75.1615 95.0887 77.319 97.6316C77.5989 97.958 78.0816 98.8221 78.0816 98.8221" stroke="#F7E2D1" stroke-width="0.531842" stroke-miterlimit="10"/>
<path d="M42.2817 72.1758C42.2817 72.1758 43.437 73.585 43.7955 74.0897C46.2455 77.576 49.4581 81.4252 60.6397 85.8162C71.8205 90.2057 75.0292 94.0551 77.4792 97.5413C77.7152 97.9642 78.3711 98.8361 78.3711 98.8361" stroke="#F7E2D1" stroke-width="0.531842" stroke-miterlimit="10"/>
<path d="M44.1329 73.8828C46.6105 76.3567 50.1657 78.7351 55.7603 80.1659C58.3902 80.8396 60.861 81.6357 63.212 82.6576C64.0174 83.0101 64.769 83.3855 65.4704 83.7797C66.5493 84.3769 67.5768 84.9732 68.441 85.6212C71.3873 87.8326 73.0544 90.2376 74.1024 91.542C75.3909 93.1468 77.5766 96.7389 77.95 97.2695C78.0668 97.5316 78.6357 98.5981 78.6357 98.5981" stroke="#F7E2D1" stroke-width="0.531842" stroke-miterlimit="10"/>
<path d="M43.4697 73.1602L43.9531 73.9975C46.1106 76.5403 48.9223 79.23 54.6129 81.4329C56.8746 82.3071 59.2718 83.2189 61.8484 84.2793C62.6535 84.6136 63.4086 84.9565 64.1225 85.3089C65.2272 85.8485 66.2606 86.3846 67.1676 86.9447C70.1658 88.7988 72.0922 90.7267 73.4519 92.0708C75.1586 93.7554 76.892 96.3844 77.6375 97.4466C77.7709 97.6461 79.1665 99.7605 79.1665 99.7605" stroke="#F7E2D1" stroke-width="0.531842" stroke-miterlimit="10"/>
<path d="M82.291 104.782C81.5575 103.512 79.9717 100.476 77.0847 97.8992C76.9964 97.8201 77.1771 97.9781 77.0847 97.8992C74.287 95.4942 70.152 93.3265 64.6654 92.5655C60.5187 91.9907 57.267 90.8035 54.7558 89.2153C53.702 88.563 52.6825 87.903 51.8605 87.1697C48.9735 84.5925 47.5547 81.7229 46.8212 80.4525L38.9739 66.8606" stroke="#F7E2D1" stroke-width="0.531842" stroke-miterlimit="10"/>
<path d="M38.973 66.8594C39.7065 68.1298 41.1141 71.008 43.9986 73.5845C44.087 73.6636 44.176 73.7403 44.2683 73.8192C47.0661 76.2241 51.1136 78.3142 56.6002 79.0753C60.7469 79.6501 63.997 80.8381 66.5098 82.4254C67.5636 83.0778 68.5831 83.7378 69.4035 84.472C72.2905 87.0491 73.7094 89.9187 74.4428 91.1892L82.2902 104.781" stroke="#F7E2D1" stroke-width="0.531842" stroke-miterlimit="10"/>
<path d="M75.5015 55.7871C75.8749 56.3178 78.0624 59.9129 79.3524 61.5168C80.4013 62.8227 82.069 65.2253 85.0138 67.4376C85.878 68.0856 86.904 68.6828 87.9829 69.28C88.6852 69.6757 89.4391 70.0518 90.2446 70.4043C92.5947 71.4246 95.0639 72.2216 97.6929 72.8938C103.286 74.3254 106.709 76.7639 109.187 79.2378" stroke="#F7E2D1" stroke-width="0.531842" stroke-miterlimit="10"/>
<path d="M75.1387 54.7832L75.6635 55.6922C76.4113 56.755 78.1456 59.3856 79.8523 61.0702C81.2126 62.4119 83.1375 64.3406 86.1349 66.1932C87.0419 66.7533 88.0753 67.2894 89.1784 67.8299C89.8923 68.1823 90.6507 68.5273 91.4558 68.8617C94.0324 69.9221 96.4296 70.8339 98.6913 71.708C104.38 73.9103 107.19 76.5985 109.348 79.1413C109.628 79.4677 110.11 80.3319 110.11 80.3319" stroke="#F7E2D1" stroke-width="0.531842" stroke-miterlimit="10"/>
<path d="M74.3105 53.6855C74.3105 53.6855 75.4658 55.0948 75.8243 55.5995C78.2743 59.0858 81.4869 62.9349 92.6685 67.3259C103.849 71.7154 107.058 75.5648 109.508 79.0511C109.744 79.474 110.4 80.3459 110.4 80.3459" stroke="#F7E2D1" stroke-width="0.531842" stroke-miterlimit="10"/>
<path d="M76.1615 55.3926C78.6391 57.8665 82.1943 60.2449 87.7889 61.6756C90.4188 62.3494 92.8896 63.1455 95.2406 64.1674C96.046 64.5198 96.7975 64.8952 97.499 65.2895C98.5778 65.8867 99.6054 66.483 100.47 67.131C103.416 69.3424 105.083 71.7474 106.131 73.0518C107.419 74.6566 109.605 78.2486 109.979 78.7793C110.095 79.0413 110.664 80.1078 110.664 80.1078" stroke="#F7E2D1" stroke-width="0.531842" stroke-miterlimit="10"/>
<path d="M75.498 54.6699L75.9815 55.5072C78.1389 58.05 80.9506 60.7398 86.6412 62.9427C88.9029 63.8169 91.3001 64.7286 93.8767 65.789C94.6818 66.1234 95.437 66.4662 96.1508 66.8187C97.2555 67.3583 98.2889 67.8943 99.1959 68.4545C102.194 70.3086 104.121 72.2364 105.48 73.5805C107.187 75.2651 108.92 77.8942 109.666 78.9564C109.799 79.1559 111.195 81.2702 111.195 81.2702" stroke="#F7E2D1" stroke-width="0.531842" stroke-miterlimit="10"/>
<path d="M114.32 86.2921C113.586 85.0216 112.001 81.9861 109.114 79.409M109.114 79.409C109.025 79.3298 109.206 79.4878 109.114 79.409ZM109.114 79.409C106.316 77.004 102.181 74.8363 96.6942 74.0752C92.5475 73.5004 89.2859 72.3211 86.7846 70.7251C85.7308 70.0727 84.7113 69.4128 83.8893 68.6794C81.0024 66.1023 79.5835 63.2327 78.85 61.9623L71.0027 48.3703" stroke="#F7E2D1" stroke-width="0.531842" stroke-miterlimit="10"/>
<path d="M71.0019 48.3691C71.7353 49.6396 73.1429 52.5177 76.0274 55.0942C76.1158 55.1733 76.2048 55.25 76.2971 55.3289C79.0949 57.7339 83.1424 59.824 88.629 60.5851C92.7757 61.1599 96.0258 62.3479 98.5386 63.9352C99.5924 64.5876 100.612 65.2475 101.432 65.9817C104.319 68.5589 105.738 71.4285 106.472 72.6989L114.319 86.2909" stroke="#F7E2D1" stroke-width="0.531842" stroke-miterlimit="10"/>
<path d="M107.528 37.293C107.901 37.8236 110.089 41.4187 111.379 43.0226C112.428 44.3286 114.095 46.7312 117.04 48.9435C117.904 49.5914 118.93 50.1887 120.009 50.7859C120.712 51.1816 121.466 51.5577 122.271 51.9101C124.621 52.9305 127.09 53.7275 129.719 54.3997C135.312 55.8313 138.735 58.2697 141.213 60.7436" stroke="#F7E2D1" stroke-width="0.531842" stroke-miterlimit="10"/>
<path d="M107.165 36.2891L107.69 37.198C108.438 38.2609 110.172 40.8914 111.879 42.5761C113.239 43.9177 115.164 45.8465 118.161 47.699C119.068 48.2592 120.102 48.7952 121.205 49.3357C121.919 49.6882 122.677 50.0332 123.482 50.3675C126.059 51.4279 128.456 52.3397 130.718 53.2139C136.406 55.4162 139.217 58.1044 141.374 60.6472C141.654 60.9736 142.137 61.8378 142.137 61.8378" stroke="#F7E2D1" stroke-width="0.531842" stroke-miterlimit="10"/>
<path d="M106.337 35.1914C106.337 35.1914 107.492 36.6006 107.851 37.1054C110.301 40.5916 113.513 44.4408 124.695 48.8318C135.876 53.2213 139.084 57.0707 141.534 60.5569C141.77 60.9799 142.426 61.8518 142.426 61.8518" stroke="#F7E2D1" stroke-width="0.531842" stroke-miterlimit="10"/>
<path d="M108.188 36.8984C110.665 39.3723 114.221 41.7508 119.815 43.1815C122.445 43.8552 124.916 44.6514 127.267 45.6732C128.072 46.0257 128.824 46.4011 129.525 46.7953C130.604 47.3925 131.632 47.9889 132.496 48.6368C135.442 50.8483 137.109 53.2532 138.157 54.5577C139.446 56.1624 141.631 59.7545 142.005 60.2852C142.122 60.5472 142.691 61.6137 142.691 61.6137" stroke="#F7E2D1" stroke-width="0.531842" stroke-miterlimit="10"/>
<path d="M107.524 36.1758L108.008 37.0131C110.165 39.5559 112.977 42.2456 118.668 44.4486C120.929 45.3227 123.326 46.2345 125.903 47.2949C126.708 47.6292 127.463 47.9721 128.177 48.3245C129.282 48.8642 130.315 49.4002 131.222 49.9604C134.22 51.8144 136.147 53.7423 137.507 55.0864C139.213 56.771 140.947 59.4 141.692 60.4622C141.826 60.6617 143.221 62.7761 143.221 62.7761" stroke="#F7E2D1" stroke-width="0.531842" stroke-miterlimit="10"/>
<path d="M146.346 67.7979C145.613 66.5275 144.027 63.492 141.14 60.9148C141.052 60.8357 141.232 60.9937 141.14 60.9148C138.342 58.5099 134.207 56.3422 128.721 55.5811C124.574 55.0063 121.322 53.8192 118.811 52.2309C117.757 51.5786 116.738 50.9186 115.916 50.1853C113.029 47.6082 111.61 44.7386 110.876 43.4681L103.029 29.8762" stroke="#F7E2D1" stroke-width="0.531842" stroke-miterlimit="10"/>
<path d="M103.028 29.875C103.762 31.1454 105.169 34.0236 108.054 36.6001C108.142 36.6792 108.231 36.7559 108.324 36.8348C111.121 39.2398 115.169 41.3299 120.655 42.0909C124.802 42.6657 128.052 43.8538 130.565 45.4411C131.619 46.0934 132.638 46.7534 133.459 47.4876C136.346 50.0647 137.765 52.9343 138.498 54.2048L146.345 67.7967" stroke="#F7E2D1" stroke-width="0.531842" stroke-miterlimit="10"/>
<path d="M36.8779 63.4844C37.1508 64.0732 39.1705 67.7651 39.9145 69.6843C40.521 71.2456 41.7679 73.8912 42.2114 77.5475C42.3405 78.6199 42.3447 79.8071 42.3224 81.0401C42.314 81.8461 42.2627 82.6871 42.1652 83.5608C41.8738 86.1063 41.3294 88.6432 40.597 91.2561C39.0403 96.8157 39.4406 100.999 40.3442 104.382" stroke="#F7E2D1" stroke-width="0.531842" stroke-miterlimit="10"/>
<path d="M36.188 62.6699L36.7128 63.5789C37.2593 64.758 38.6703 67.5752 39.2759 69.8956C39.7577 71.7444 40.4655 74.3758 40.5712 77.8979C40.6028 78.9635 40.5503 80.1264 40.4669 81.352C40.4152 82.1465 40.3348 82.9758 40.2217 83.8402C39.8518 86.6018 39.4428 89.1338 39.069 91.5295C38.1321 97.5568 39.0548 101.335 40.1782 104.475C40.3209 104.881 40.8279 105.731 40.8279 105.731" stroke="#F7E2D1" stroke-width="0.531842" stroke-miterlimit="10"/>
<path d="M35.6514 61.4062C35.6514 61.4062 36.2942 63.1113 36.552 63.6742C38.3462 67.5391 40.0734 72.2459 38.2853 84.1249C36.4963 96.0025 38.2257 100.706 40.0198 104.571C40.2681 104.987 40.6952 105.991 40.6952 105.991" stroke="#F7E2D1" stroke-width="0.531842" stroke-miterlimit="10"/>
<path d="M36.2056 63.8613C37.1092 67.2439 37.3914 71.512 35.8332 77.0725C35.1017 79.6869 34.5557 82.2247 34.2652 84.7717C34.1677 85.6454 34.1171 86.484 34.1078 87.2885C34.0855 88.5215 34.0882 89.7095 34.2173 90.7819C34.6593 94.4392 35.9085 97.0854 36.5142 98.6452C37.2597 100.563 39.2777 104.252 39.5505 104.841C39.7191 105.073 40.3582 106.099 40.3582 106.099" stroke="#F7E2D1" stroke-width="0.531842" stroke-miterlimit="10"/>
<path d="M35.9111 62.9258L36.3945 63.7631C37.518 66.9029 38.4415 70.6827 37.504 76.7125C37.1302 79.1082 36.7212 81.6401 36.3512 84.4017C36.2382 85.2661 36.1576 86.0915 36.1058 86.886C36.0209 88.1125 35.9684 89.2754 36 90.341C36.1066 93.8646 36.8129 96.4969 37.2971 98.3464C37.9027 100.667 39.3128 103.482 39.8599 104.659C39.966 104.874 41.0993 107.14 41.0993 107.14" stroke="#F7E2D1" stroke-width="0.531842" stroke-miterlimit="10"/>
<path d="M43.8836 112.354C43.1501 111.084 41.3141 108.193 40.5257 104.404C40.5014 104.288 40.5479 104.523 40.5257 104.404C39.8418 100.779 40.0321 96.1137 42.1163 90.9817C43.6918 87.1031 44.2896 83.6935 44.1698 80.7246C44.1317 79.4858 44.0699 78.2729 43.8458 77.1944C43.0574 73.4056 41.2817 70.7421 40.5482 69.4716L32.7009 55.8797" stroke="#F7E2D1" stroke-width="0.531842" stroke-miterlimit="10"/>
<path d="M32.7022 55.8809C33.4357 57.1513 35.2245 59.8094 36.0136 63.5957C36.0379 63.7118 36.0598 63.8273 36.082 63.9466C36.7659 67.572 36.5522 72.1223 34.468 77.2544C32.8925 81.1329 32.2962 84.5417 32.4145 87.5114C32.4526 88.7502 32.5143 89.9631 32.74 91.0408C33.5284 94.8295 35.3041 97.4931 36.0376 98.7635L43.8849 112.355" stroke="#F7E2D1" stroke-width="0.531842" stroke-miterlimit="10"/>
<path d="M68.9043 44.9883C69.1771 45.5771 71.1968 49.269 71.9409 51.1882C72.5474 52.7495 73.7942 55.3951 74.2378 59.0514C74.3668 60.1238 74.371 61.311 74.3488 62.544C74.3404 63.35 74.289 64.191 74.1916 65.0648C73.9002 67.6102 73.3558 70.1471 72.6234 72.76C71.0667 78.3196 71.4669 82.5032 72.3706 85.8859" stroke="#F7E2D1" stroke-width="0.531842" stroke-miterlimit="10"/>
<path d="M68.2144 44.1738L68.7392 45.0828C69.2857 46.2619 70.6967 49.0791 71.3022 51.3995C71.784 53.2484 72.4919 55.8798 72.5976 59.4018C72.6292 60.4674 72.5767 61.6304 72.4933 62.8559C72.4415 63.6504 72.3611 64.4797 72.2481 65.3441C71.8781 68.1057 71.4691 70.6377 71.0954 73.0334C70.1585 79.0607 71.0811 82.839 72.2046 85.9789C72.3473 86.3845 72.8543 87.2346 72.8543 87.2346" stroke="#F7E2D1" stroke-width="0.531842" stroke-miterlimit="10"/>
<path d="M67.6777 42.9102C67.6777 42.9102 68.3205 44.6152 68.5784 45.1781C70.3726 49.043 72.0997 53.7498 70.3117 65.6288C68.5227 77.5064 70.252 82.2099 72.0462 86.0748C72.2944 86.4907 72.7216 87.4947 72.7216 87.4947" stroke="#F7E2D1" stroke-width="0.531842" stroke-miterlimit="10"/>
<path d="M68.2319 45.3652C69.1356 48.7478 69.4178 53.0159 67.8595 58.5764C67.128 61.1908 66.5821 63.7286 66.2916 66.2756C66.1941 67.1493 66.1435 67.9879 66.1342 68.7924C66.1119 70.0254 66.1146 71.2135 66.2436 72.2858C66.6857 75.9431 67.9349 78.5894 68.5405 80.1491C69.2861 82.0674 71.304 85.7563 71.5769 86.3451C71.7454 86.5772 72.3846 87.6031 72.3846 87.6031" stroke="#F7E2D1" stroke-width="0.531842" stroke-miterlimit="10"/>
<path d="M67.9375 44.4297L68.4209 45.267C69.5443 48.4068 70.4679 52.1867 69.5303 58.2164C69.1566 60.6121 68.7476 63.1441 68.3776 65.9056C68.2646 66.7701 68.1839 67.5954 68.1322 68.3899C68.0472 69.6164 67.9948 70.7793 68.0264 71.8449C68.1329 75.3685 68.8393 78.0008 69.3235 79.8503C69.9291 82.1707 71.3391 84.9864 71.8863 86.163C71.9923 86.3784 73.1256 88.6442 73.1256 88.6442" stroke="#F7E2D1" stroke-width="0.531842" stroke-miterlimit="10"/>
<path d="M75.9099 93.8582C75.1764 92.5878 73.3405 89.6966 72.5521 85.9079C72.5278 85.7918 72.5743 86.0273 72.5521 85.9079C71.8682 82.2825 72.0584 77.6176 74.1426 72.4856C75.7182 68.607 76.3159 65.1974 76.1961 62.2285C76.1581 60.9897 76.0963 59.7768 75.8722 58.6983C75.0838 54.9095 73.3081 52.246 72.5746 50.9755L64.7273 37.3836" stroke="#F7E2D1" stroke-width="0.531842" stroke-miterlimit="10"/>
<path d="M64.7286 37.3848C65.4621 38.6552 67.2509 41.3133 68.0399 45.0996C68.0643 45.2157 68.0862 45.3312 68.1083 45.4506C68.7922 49.0759 68.5786 53.6263 66.4944 58.7583C64.9188 62.6369 64.3226 66.0456 64.4409 69.0153C64.479 70.2541 64.5407 71.4671 64.7663 72.5447C65.5547 76.3334 67.3305 78.997 68.0639 80.2674L75.9113 93.8594" stroke="#F7E2D1" stroke-width="0.531842" stroke-miterlimit="10"/>
<path d="M100.937 26.498C101.209 27.0868 103.229 30.7788 103.973 32.6979C104.58 34.2592 105.826 36.9048 106.27 40.5612C106.399 41.6336 106.403 42.8208 106.381 44.0537C106.373 44.8598 106.321 45.7008 106.224 46.5745C105.932 49.1199 105.388 51.6569 104.656 54.2698C103.099 59.8293 103.499 64.013 104.403 67.3956" stroke="#F7E2D1" stroke-width="0.531842" stroke-miterlimit="10"/>
<path d="M100.247 25.6836L100.771 26.5926C101.318 27.7717 102.729 30.5889 103.334 32.9092C103.816 34.7581 104.524 37.3895 104.63 40.9115C104.661 41.9772 104.609 43.1401 104.525 44.3657C104.474 45.1602 104.393 45.9895 104.28 46.8539C103.91 49.6155 103.501 52.1474 103.128 54.5432C102.191 60.5705 103.113 64.3488 104.237 67.4886C104.379 67.8943 104.887 68.7444 104.887 68.7444" stroke="#F7E2D1" stroke-width="0.531842" stroke-miterlimit="10"/>
<path d="M99.71 24.4199C99.71 24.4199 100.353 26.125 100.611 26.6879C102.405 30.5527 104.132 35.2595 102.344 47.1386C100.555 59.0162 102.284 63.7197 104.078 67.5845C104.327 68.0004 104.754 69.0044 104.754 69.0044" stroke="#F7E2D1" stroke-width="0.531842" stroke-miterlimit="10"/>
<path d="M100.264 26.875C101.168 30.2576 101.45 34.5257 99.8917 40.0862C99.1603 42.7006 98.6143 45.2384 98.3238 47.7854C98.2263 48.6591 98.1757 49.4977 98.1664 50.3022C98.1441 51.5352 98.1468 52.7232 98.2759 53.7956C98.7179 57.4529 99.9671 60.0991 100.573 61.6589C101.318 63.5771 103.336 67.2661 103.609 67.8548C103.778 68.0869 104.417 69.1129 104.417 69.1129" stroke="#F7E2D1" stroke-width="0.531842" stroke-miterlimit="10"/>
<path d="M99.9697 25.9395L100.453 26.7767C101.577 29.9166 102.5 33.6964 101.563 39.7261C101.189 42.1219 100.78 44.6538 100.41 47.4154C100.297 48.2798 100.216 49.1052 100.164 49.8997C100.079 51.1261 100.027 52.2891 100.059 53.3547C100.165 56.8783 100.872 59.5105 101.356 61.3601C101.961 63.6804 103.371 66.4961 103.919 67.6728C104.025 67.8881 105.158 70.1539 105.158 70.1539" stroke="#F7E2D1" stroke-width="0.531842" stroke-miterlimit="10"/>
<path d="M107.942 75.368C107.209 74.0975 105.373 71.2064 104.584 67.4176C104.56 67.3015 104.606 67.537 104.584 67.4176C103.9 63.7923 104.091 59.1274 106.175 53.9953C107.75 50.1168 108.348 46.7072 108.228 43.7383C108.19 42.4995 108.129 41.2866 107.904 40.2081C107.116 36.4193 105.34 33.7557 104.607 32.4853L96.7595 18.8934" stroke="#F7E2D1" stroke-width="0.531842" stroke-miterlimit="10"/>
<path d="M96.7608 18.8946C97.4943 20.165 99.2831 22.823 100.072 26.6094C100.096 26.7255 100.118 26.8409 100.141 26.9603C100.824 30.5857 100.611 35.136 98.5266 40.2681C96.951 44.1466 96.3548 47.5553 96.4731 50.5251C96.5112 51.7639 96.5729 52.9768 96.7986 54.0545C97.587 57.8432 99.3627 60.5068 100.096 61.7772L107.943 75.3692" stroke="#F7E2D1" stroke-width="0.531842" stroke-miterlimit="10"/>
<path d="M132.963 8.00977C133.236 8.59855 135.255 12.2905 135.999 14.2096C136.606 15.7709 137.853 18.4165 138.296 22.0729C138.425 23.1453 138.43 24.3325 138.407 25.5654C138.399 26.3715 138.348 27.2125 138.25 28.0862C137.959 30.6317 137.414 33.1686 136.682 35.7815C135.125 41.3411 135.526 45.5247 136.429 48.9073" stroke="#F7E2D1" stroke-width="0.531842" stroke-miterlimit="10"/>
<path d="M132.273 7.19531L132.798 8.10429C133.344 9.28337 134.755 12.1006 135.361 14.421C135.843 16.2698 136.55 18.9012 136.656 22.4233C136.688 23.4889 136.635 24.6518 136.552 25.8774C136.5 26.6719 136.42 27.5012 136.307 28.3656C135.937 31.1272 135.528 33.6592 135.154 36.0549C134.217 42.0822 135.14 45.8605 136.263 49.0003C136.406 49.406 136.913 50.2561 136.913 50.2561" stroke="#F7E2D1" stroke-width="0.531842" stroke-miterlimit="10"/>
<path d="M131.736 5.93164C131.736 5.93164 132.379 7.63672 132.637 8.19958C134.431 12.0645 136.158 16.7713 134.37 28.6503C132.581 40.5279 134.311 45.2314 136.105 49.0963C136.353 49.5122 136.78 50.5161 136.78 50.5161" stroke="#F7E2D1" stroke-width="0.531842" stroke-miterlimit="10"/>
<path d="M132.291 8.38672C133.194 11.7693 133.476 16.0374 131.918 21.5979C131.187 24.2123 130.641 26.7501 130.35 29.2971C130.253 30.1708 130.202 31.0094 130.193 31.8139C130.17 33.0469 130.173 34.2349 130.302 35.3073C130.744 38.9646 131.993 41.6108 132.599 43.1706C133.345 45.0889 135.363 48.7778 135.635 49.3666C135.804 49.5987 136.443 50.6246 136.443 50.6246" stroke="#F7E2D1" stroke-width="0.531842" stroke-miterlimit="10"/>
<path d="M131.996 7.45117L132.48 8.28847C133.603 11.4283 134.526 15.2081 133.589 21.2379C133.215 23.6336 132.806 26.1655 132.436 28.9271C132.323 29.7915 132.243 30.6169 132.191 31.4114C132.106 32.6379 132.053 33.8008 132.085 34.8664C132.192 38.39 132.898 41.0223 133.382 42.8718C133.988 45.1921 135.398 48.0078 135.945 49.1845C136.051 49.3999 137.184 51.6657 137.184 51.6657" stroke="#F7E2D1" stroke-width="0.531842" stroke-miterlimit="10"/>
<path d="M139.969 56.8797C139.235 55.6092 137.399 52.7181 136.611 48.9294C136.586 48.8133 136.633 49.0487 136.611 48.9294C135.927 45.304 136.117 40.6391 138.201 35.5071C139.777 31.6285 140.375 28.2189 140.255 25.25C140.217 24.0112 140.155 22.7983 139.931 21.7198C139.142 17.931 137.367 15.2675 136.633 13.997L128.786 0.405073" stroke="#F7E2D1" stroke-width="0.531842" stroke-miterlimit="10"/>
<path d="M128.787 0.406272C129.521 1.67671 131.31 4.33475 132.099 8.1211C132.123 8.2372 132.145 8.35265 132.167 8.47204C132.851 12.0974 132.637 16.6477 130.553 21.7798C128.977 25.6583 128.381 29.0671 128.499 32.0368C128.538 33.2756 128.599 34.4885 128.825 35.5662C129.613 39.3549 131.389 42.0185 132.123 43.2889L139.97 56.8809" stroke="#F7E2D1" stroke-width="0.531842" stroke-miterlimit="10"/>
</g>
<defs>
<clipPath id="clip0_4712_23144">
<rect width="149.511" height="98.3186" fill="white" transform="translate(0 74.7559) rotate(-30)"/>
</clipPath>
</defs>
</svg>
