<svg width="22" height="22" viewBox="0 0 22 22" fill="none" xmlns="http://www.w3.org/2000/svg">
    <path d="M5.36509 17.9593C5.75707 17.2957 6.60959 17.0773 7.26921 17.4715C7.92926 17.8657 8.14635 18.7235 7.75436 19.387C7.36237 20.0506 6.50984 20.269 5.8498 19.8748C5.19018 19.4806 4.97309 18.6228 5.36509 17.9593V17.9593Z" stroke="#B78053" stroke-linecap="round" stroke-linejoin="round"/>
    <path d="M2.66505 14.2164C3.33432 13.839 4.18114 14.0785 4.55643 14.7517C4.93217 15.4249 4.69355 16.277 4.02426 16.6545C3.35498 17.0324 2.50816 16.7925 2.13287 16.1193C1.75759 15.446 1.99577 14.5939 2.66505 14.2164V14.2164Z" stroke="#B78053" stroke-linecap="round" stroke-linejoin="round"/>
    <path d="M2.18609 9.61693C2.95336 9.6266 3.56771 10.2603 3.55804 11.032C3.54837 11.8041 2.91865 12.4219 2.15137 12.4123C1.38409 12.4026 0.769742 11.7689 0.779409 10.9972C0.789077 10.2251 1.41882 9.60728 2.18609 9.61693V9.61693Z" stroke="#B78053" stroke-linecap="round" stroke-linejoin="round"/>
    <path d="M4.05828 5.39299C4.71788 5.78717 4.93498 6.64499 4.54299 7.30854C4.15143 7.97212 3.2989 8.19053 2.63885 7.79634C1.97924 7.40216 1.76216 6.54435 2.15414 5.88078C2.54613 5.21721 3.39866 4.99881 4.05828 5.39299V5.39299Z" stroke="#B78053" stroke-linecap="round" stroke-linejoin="round"/>
    <path d="M7.7793 2.67645C8.15457 3.34969 7.9164 4.20178 7.24711 4.57927C6.57784 4.95719 5.73102 4.71726 5.35573 4.04403C4.98 3.37079 5.21862 2.5187 5.8879 2.14121C6.55719 1.76329 7.404 2.00322 7.7793 2.67645V2.67645Z" stroke="#B78053" stroke-linecap="round" stroke-linejoin="round"/>
    <path d="M12.351 2.19527C12.3414 2.96739 11.7116 3.58526 10.9443 3.57559C10.1771 3.56592 9.56272 2.93223 9.57238 2.16057C9.58205 1.38845 10.2118 0.770595 10.9791 0.780263C11.7463 0.789918 12.3607 1.42317 12.351 2.19527Z" stroke="#B78053" stroke-linecap="round" stroke-linejoin="round"/>
    <path d="M16.5512 4.07831C16.1592 4.74188 15.3067 4.9603 14.6471 4.56611C13.987 4.17193 13.77 3.31412 14.1619 2.65055C14.5539 1.98699 15.4065 1.76858 16.0665 2.16277C16.7261 2.55695 16.9432 3.41476 16.5512 4.07831V4.07831Z" stroke="#B78053" stroke-linecap="round" stroke-linejoin="round"/>
    <path d="M19.251 7.82103C18.5817 8.19852 17.7349 7.95903 17.3596 7.28578C16.9839 6.61254 17.2225 5.76045 17.8918 5.38298C18.5611 5.00504 19.4079 5.24498 19.7832 5.91822C20.1585 6.59146 19.9203 7.44355 19.251 7.82103Z" stroke="#B78053" stroke-linecap="round" stroke-linejoin="round"/>
    <path d="M19.7295 12.4207C18.9622 12.411 18.3479 11.7773 18.3575 11.0057C18.3672 10.2336 18.9969 9.61569 19.7642 9.62536C20.5315 9.63502 21.1458 10.2687 21.1362 11.0404C21.1265 11.8125 20.4968 12.4304 19.7295 12.4207V12.4207Z" stroke="#B78053" stroke-linecap="round" stroke-linejoin="round"/>
    <path d="M17.8576 16.6446C17.198 16.2504 16.9809 15.3926 17.3729 14.7291C17.7644 14.0655 18.617 13.8471 19.277 14.2413C19.9366 14.6354 20.1537 15.4932 19.7617 16.1568C19.3697 16.8204 18.5172 17.0388 17.8576 16.6446V16.6446Z" stroke="#B78053" stroke-linecap="round" stroke-linejoin="round"/>
    <path d="M14.1368 19.3612C13.7615 18.6879 13.9997 17.8358 14.669 17.4583C15.3382 17.0804 16.185 17.3204 16.5603 17.9936C16.9361 18.6668 16.6974 19.5189 16.0282 19.8964C15.3589 20.2743 14.5121 20.0344 14.1368 19.3612V19.3612Z" stroke="#B78053" stroke-linecap="round" stroke-linejoin="round"/>
    <path d="M9.71857 19.2888L10.326 18.6814C10.6288 18.3786 11.1205 18.3786 11.4233 18.6814L12.0309 19.289C12.3336 19.5917 12.3336 20.0832 12.0309 20.3859L11.4233 20.9935C11.1205 21.2964 10.6288 21.2964 10.326 20.9935L9.71857 20.3861C9.41576 20.0833 9.41576 19.5916 9.71857 19.2888V19.2888Z" stroke="#B78053" stroke-linecap="round" stroke-linejoin="round"/>
    <path d="M5.25805 12.833L5.70816 12.3829C5.93263 12.1584 6.2971 12.1584 6.52157 12.3829L6.97169 12.833C7.19603 13.0574 7.19603 13.4216 6.97169 13.646L6.52137 14.0963C6.29701 14.3207 5.93272 14.3207 5.70836 14.0963L5.25805 13.646C5.0337 13.4216 5.0337 13.0574 5.25805 12.833V12.833Z" stroke="#B78053" stroke-linecap="round" stroke-linejoin="round"/>
    <path d="M15.1547 12.3214L15.6046 11.8715C15.8291 11.647 16.1936 11.647 16.4181 11.8715L16.868 12.3214C17.0924 12.5459 17.0924 12.9103 16.868 13.1348L16.4179 13.5849C16.1935 13.8092 15.8292 13.8092 15.6048 13.5849L15.1547 13.1348C14.9303 12.9103 14.9303 12.5459 15.1547 12.3214L15.1547 12.3214Z" stroke="#B78053" stroke-linecap="round" stroke-linejoin="round"/>
    <path d="M14.9436 8.22243L15.3937 7.77231C15.6182 7.54784 15.9827 7.54784 16.2071 7.77231L16.657 8.22222C16.8815 8.44668 16.8815 8.81114 16.657 9.03559L16.2069 9.48571C15.9826 9.71006 15.6183 9.71006 15.3939 9.4857L14.9436 9.03539C14.7192 8.81104 14.7192 8.44677 14.9436 8.22242L14.9436 8.22243Z" stroke="#B78053" stroke-linecap="round" stroke-linejoin="round"/>
    <path d="M10.3225 8.32777L10.7726 7.87766C10.9971 7.65319 11.3616 7.65319 11.586 7.87766L12.0359 8.32757C12.2604 8.55202 12.2604 8.91648 12.0359 9.14094L11.5858 9.59105C11.3615 9.81541 10.9972 9.81541 10.7728 9.59105L10.3225 9.14074C10.0982 8.91639 10.0982 8.55211 10.3225 8.32777L10.3225 8.32777Z" stroke="#B78053" stroke-linecap="round" stroke-linejoin="round"/>
    <path d="M10.1057 13.037L10.5558 12.5869C10.7803 12.3624 11.1448 12.3624 11.3692 12.5869L11.8193 13.037C12.0437 13.2613 12.0437 13.6256 11.8193 13.85L11.369 14.3003C11.1447 14.5246 10.7804 14.5246 10.556 14.3003L10.1057 13.85C9.88136 13.6256 9.88136 13.2613 10.1057 13.037V13.037Z" stroke="#B78053" stroke-linecap="round" stroke-linejoin="round"/>
    <path d="M12.4592 10.6065L12.9093 10.1563C13.1338 9.93188 13.4983 9.93188 13.7227 10.1563L14.1727 10.6063C14.3971 10.8307 14.3971 11.1952 14.1727 11.4196L13.7225 11.8697C13.4982 12.0941 13.1339 12.0941 12.9095 11.8697L12.4592 11.4194C12.2349 11.1951 12.2349 10.8308 12.4592 10.6065L12.4592 10.6065Z" stroke="#B78053" stroke-linecap="round" stroke-linejoin="round"/>
    <path d="M7.82661 10.6063L8.27652 10.1563C8.50099 9.93187 8.86546 9.93187 9.08993 10.1563L9.54005 10.6065C9.76439 10.8308 9.76439 11.1951 9.54005 11.4194L9.08973 11.8697C8.86537 12.0941 8.50108 12.0941 8.27672 11.8697L7.82661 11.4196C7.60215 11.1952 7.60215 10.8307 7.8266 10.6063L7.82661 10.6063Z" stroke="#B78053" stroke-linecap="round" stroke-linejoin="round"/>
    <path d="M5.70336 8.22242L6.15347 7.77231C6.37794 7.54784 6.74242 7.54784 6.96688 7.77231L7.417 8.22242C7.64134 8.44677 7.64134 8.81104 7.417 9.03539L6.96668 9.4857C6.74233 9.71006 6.37803 9.71006 6.15367 9.4857L5.70336 9.03539C5.47901 8.81104 5.47901 8.44677 5.70336 8.22242V8.22242Z" stroke="#B78053" stroke-linecap="round" stroke-linejoin="round"/>
    <path d="M14.1932 18.1287L14.8006 17.5213C15.1034 17.2185 15.5951 17.2185 15.8979 17.5213L16.5055 18.1289C16.8082 18.4316 16.8082 18.9231 16.5055 19.2258L15.8979 19.8334C15.5951 20.1363 15.1034 20.1363 14.8006 19.8334L14.1932 19.226C13.8904 18.9232 13.8904 18.4315 14.1932 18.1287Z" stroke="#B78053" stroke-linecap="round" stroke-linejoin="round"/>
    <path d="M17.41 14.9103L18.0174 14.3029C18.3202 14.0001 18.8119 14.0001 19.1147 14.3029L19.7223 14.9105C20.025 15.2132 20.025 15.7047 19.7223 16.0074L19.1147 16.6151C18.8119 16.9179 18.3202 16.9179 18.0174 16.6151L17.41 16.0076C17.1072 15.7048 17.1072 15.2131 17.41 14.9103Z" stroke="#B78053" stroke-linecap="round" stroke-linejoin="round"/>
    <path d="M18.5897 10.4744L19.1971 9.86693C19.4999 9.56412 19.9916 9.56412 20.2944 9.86693L20.902 10.4746C21.2047 10.7773 21.2047 11.2688 20.902 11.5715L20.2944 12.1791C19.9916 12.4819 19.4999 12.4819 19.1971 12.1791L18.5897 11.5717C18.2869 11.2688 18.2869 10.7772 18.5897 10.4744V10.4744Z" stroke="#B78053" stroke-linecap="round" stroke-linejoin="round"/>
    <path d="M17.4158 6.03833L18.0233 5.43089C18.3261 5.12808 18.8178 5.12808 19.1206 5.43089L19.7282 6.03852C20.0309 6.34122 20.0309 6.83273 19.7282 7.13543L19.1206 7.74306C18.8178 8.04587 18.3261 8.04587 18.0233 7.74306L17.4158 7.13562C17.113 6.83281 17.113 6.34114 17.4158 6.03833Z" stroke="#B78053" stroke-linecap="round" stroke-linejoin="round"/>
    <path d="M14.199 2.81567L14.8065 2.20824C15.1093 1.90543 15.601 1.90543 15.9038 2.20824L16.5114 2.81587C16.8141 3.11856 16.8141 3.61007 16.5114 3.91277L15.9038 4.5204C15.601 4.82321 15.1093 4.82321 14.8065 4.5204L14.199 3.91297C13.8962 3.61016 13.8962 3.11848 14.199 2.81567V2.81567Z" stroke="#B78053" stroke-linecap="round" stroke-linejoin="round"/>
    <path d="M9.8299 1.62921L10.4373 1.02178C10.7401 0.718966 11.2318 0.718966 11.5346 1.02178L12.1423 1.6294C12.445 1.9321 12.445 2.42361 12.1423 2.72631L11.5346 3.33394C11.2318 3.63675 10.7401 3.63675 10.4373 3.33394L9.8299 2.7265C9.52709 2.4237 9.52709 1.93202 9.8299 1.62921V1.62921Z" stroke="#B78053" stroke-linecap="round" stroke-linejoin="round"/>
    <path d="M5.41193 2.81152L6.01937 2.20408C6.32218 1.90127 6.81386 1.90127 7.11667 2.20408L7.7243 2.81171C8.027 3.11441 8.027 3.60592 7.7243 3.90862L7.11686 4.51605C6.81395 4.81897 6.32209 4.81897 6.01917 4.51605L5.41193 3.90881C5.10912 3.60601 5.10912 3.11433 5.41193 2.81152L5.41193 2.81152Z" stroke="#B78053" stroke-linecap="round" stroke-linejoin="round"/>
    <path d="M2.19318 6.0606L2.80062 5.45317C3.10343 5.15036 3.59511 5.15036 3.89792 5.45317L4.50555 6.0608C4.80825 6.36349 4.80825 6.855 4.50555 7.1577L3.89811 7.76514C3.5952 8.06805 3.10334 8.06806 2.80042 7.76514L2.19318 7.1579C1.89037 6.85509 1.89037 6.36341 2.19318 6.06061L2.19318 6.0606Z" stroke="#B78053" stroke-linecap="round" stroke-linejoin="round"/>
    <path d="M1.01545 10.4664L1.62288 9.85899C1.92569 9.55618 2.41738 9.55618 2.72019 9.85899L3.32781 10.4666C3.63051 10.7693 3.63052 11.2608 3.32781 11.5635L2.72038 12.171C2.41746 12.4739 1.9256 12.4739 1.62268 12.171L1.01544 11.5637C0.712637 11.2609 0.712636 10.7692 1.01544 10.4664L1.01545 10.4664Z" stroke="#B78053" stroke-linecap="round" stroke-linejoin="round"/>
    <path d="M2.19318 14.9176L2.80061 14.3102C3.10342 14.0074 3.59511 14.0074 3.89792 14.3102L4.50555 14.9178C4.80824 15.2205 4.80825 15.712 4.50554 16.0147L3.89792 16.6223C3.59511 16.9251 3.10342 16.9251 2.80061 16.6223L2.19318 16.0149C1.89037 15.7121 1.89037 15.2204 2.19318 14.9176V14.9176Z" stroke="#B78053" stroke-linecap="round" stroke-linejoin="round"/>
    <path d="M5.40412 18.1287L6.01155 17.5213C6.31436 17.2185 6.80605 17.2185 7.10886 17.5213L7.71648 18.1289C8.01918 18.4316 8.01918 18.9231 7.71648 19.2258L7.10885 19.8334C6.80604 20.1363 6.31436 20.1363 6.01155 19.8334L5.40411 19.226C5.10131 18.9232 5.10131 18.4315 5.40412 18.1287Z" stroke="#B78053" stroke-linecap="round" stroke-linejoin="round"/>
</svg>