<svg width="16" height="16" viewBox="0 0 16 16" fill="none" xmlns="http://www.w3.org/2000/svg">
    <path d="M2.53479 12.3122C2.53479 12.3122 11.0794 13.1567 10.8407 3.01123C10.8407 3.01123 1.60052 3.25736 2.53479 12.3122L2.53479 12.3122Z" stroke="#402020" stroke-linecap="round" stroke-linejoin="round"/>
    <path d="M4.48171 12.2099C6.32798 13.5732 10.3026 15.4773 13.8306 10.2431C13.8306 10.2431 12.1185 8.76213 9.94034 8.19719" stroke="#402020" stroke-linecap="round" stroke-linejoin="round"/>
    <path d="M7.88184 6.49658L2.52262 12.2941" stroke="#402020" stroke-linecap="round" stroke-linejoin="round"/>
    <path d="M13.6018 5.02683C13.3059 5.02683 13.0659 4.78691 13.0659 4.49095C13.0659 4.195 13.3059 3.95508 13.6018 3.95508C13.8978 3.95508 14.1377 4.195 14.1377 4.49095C14.1377 4.78691 13.8978 5.02683 13.6018 5.02683Z" fill="#402020"/>
    <path d="M0.873576 11.4479C0.662985 11.4479 0.492268 11.2772 0.492268 11.0666C0.492268 10.856 0.662985 10.6853 0.873576 10.6853C1.08417 10.6853 1.25488 10.856 1.25488 11.0666C1.25488 11.2772 1.08417 11.4479 0.873576 11.4479Z" fill="#402020"/>
</svg>
