<svg width="24" height="24" viewBox="0 0 24 24" fill="none" xmlns="http://www.w3.org/2000/svg">
<path d="M12.001 22.0734L12.0303 15.3975" stroke="#B78053" stroke-width="1.00728" stroke-miterlimit="10"/>
<path d="M12.0812 15.397C11.8717 15.4004 11.6626 15.3755 11.4602 15.3229C11.1128 15.232 10.7514 15.1435 10.4196 15.0041C9.91429 14.7913 9.51056 14.4302 9.19397 13.9861C9.08424 13.8326 8.96226 13.7584 8.7706 13.7395C6.45025 13.5075 4.99035 11.0314 5.9268 8.922C5.99352 8.77148 6.04283 8.64321 5.96127 8.46415C4.98146 6.30877 6.38724 3.8609 8.77283 3.5684C8.96745 3.54467 9.08127 3.46941 9.19248 3.32261C10.4166 1.70848 12.823 1.45232 14.3351 2.77395C14.4945 2.91333 14.658 3.06125 14.7707 3.2366C14.902 3.4405 15.1274 3.56173 15.3702 3.59138C17.6438 3.86572 19.0455 6.354 18.1095 8.40928C18.032 8.57944 18.0223 8.7181 18.0998 8.89196C19.0563 11.0451 17.622 13.4874 15.2579 13.7499C15.1426 13.7625 14.9947 13.8192 14.9305 13.9052C14.3144 14.7331 13.4984 15.2198 12.4686 15.3588C12.4585 15.3603 12.4485 15.3618 12.4382 15.3637C12.3203 15.3829 12.2009 15.3952 12.0812 15.397H12.0812Z" stroke="#B78053" stroke-width="1.00728" stroke-miterlimit="10"/>
<path d="M11.9488 13.063C11.7112 13.0014 11.4657 12.9377 11.3178 12.8754C11.2222 12.835 11.1254 12.7138 11.0765 12.6448C10.576 11.943 9.85902 11.5271 9.00303 11.4414C8.4792 11.3892 8.20709 11.0129 8.11441 10.8538C8.02655 10.7022 7.84304 10.3022 8.0399 9.85846C8.39875 9.04992 8.40728 8.25917 8.06584 7.50808C7.85564 7.0458 7.99948 6.66432 8.10403 6.47784C8.21673 6.27692 8.49032 5.92955 9.05642 5.85986C9.85866 5.76198 10.5434 5.36643 11.0353 4.71655C11.2637 4.41553 11.6418 4.23535 12.0455 4.23535C12.2535 4.23535 12.5564 4.28355 12.8181 4.51228C12.8507 4.54083 12.8763 4.56344 12.8952 4.58049C13.3987 5.30192 14.1942 5.77459 15.0962 5.88321C15.5911 5.94328 15.851 6.31733 15.94 6.47526C16.0256 6.62762 16.2036 7.028 16.0108 7.45174C15.5611 8.43823 15.7524 9.28903 15.9919 9.8288C16.1954 10.2866 16.0464 10.667 15.9396 10.8531C15.8477 11.0129 15.5733 11.3914 15.0058 11.4544C14.225 11.5412 13.5236 11.9315 13.081 12.5258C12.8307 12.8621 12.5731 13.0148 12.162 13.07C12.1275 13.0748 12.0971 13.0797 12.0652 13.0849C12.0541 13.0867 12.0474 13.0874 12.0437 13.0878L11.9488 13.063H11.9488Z" stroke="#B78053" stroke-width="1.00728" stroke-miterlimit="10"/>
<path d="M12 21.5532C12 21.5532 12.0104 19.0045 13.5555 17.2551C14.988 15.6332 17.6602 15.6665 18.683 15.7062C18.9392 15.7162 19.1434 15.916 19.1527 16.1663C19.1913 17.1635 19.116 19.6629 17.5682 21.1743C17.2494 21.4861 17.07 21.6359 16.6874 21.8368" stroke="#B78053" stroke-width="1.00728" stroke-miterlimit="10" stroke-linecap="round"/>
<path d="M12.0013 21.8051C12.0013 21.8051 12.0117 19.0047 10.4458 17.2549C9.00218 15.6419 6.34114 15.6637 5.31757 15.7053C5.06177 15.7156 4.85788 15.9155 4.84862 16.1653C4.81006 17.1622 4.88494 19.6624 6.43308 21.1745C6.63216 21.3688 6.84755 21.5393 7.07443 21.6887C7.20048 21.7718 7.20715 21.7807 7.33912 21.8511" stroke="#B78053" stroke-width="1.00728" stroke-miterlimit="10" stroke-linecap="round"/>
</svg>
