<svg width="23" height="23" viewBox="0 0 23 23" fill="none" xmlns="http://www.w3.org/2000/svg">
    <path d="M18.8191 11.1298L21.5349 8.63342C22.0363 8.17237 21.6812 7.3835 20.9718 7.3835H17.608C16.8964 7.3835 16.5418 7.00474 17.0484 6.54499L18.5799 5.15445C19.0866 4.69471 18.7324 3.90148 18.0204 3.90148H14.6459C13.9423 3.90148 13.5845 3.12393 14.0745 2.65983L14.6063 1.74165C15.0962 1.27756 14.738 0.5 14.0344 0.5H8.25257C7.54896 0.5 7.1912 1.27755 7.68113 1.74165L8.21292 2.65983C8.70285 3.12392 8.3451 3.90148 7.64104 3.90148H4.26703C3.55504 3.90148 3.20081 4.69471 3.70749 5.15445L5.23896 6.54499C5.7452 7.00474 5.39097 7.3835 4.67898 7.3835H1.31554C0.606196 7.3835 0.250643 8.17237 0.752471 8.63342L3.46824 11.1298M3.46824 11.1298L0.752471 13.6261C0.250643 14.0872 0.606196 14.8761 1.31554 14.8761H4.67897C5.39096 14.8761 5.7452 15.2548 5.23896 15.7146L3.70748 17.1051C3.20081 17.5648 3.55504 18.3581 4.26703 18.3581H7.64104C8.3451 18.3581 8.70285 19.1356 8.21292 19.5997L7.68113 20.5179C7.1912 20.982 7.54895 21.7596 8.25257 21.7596H14.0344C14.738 21.7596 15.0962 20.982 14.6063 20.5179L14.0745 19.5997C13.5845 19.1356 13.9423 18.3581 14.6459 18.3581H18.0204C18.7324 18.3581 19.0866 17.5648 18.5799 17.1051L17.0484 15.7146C16.5418 15.2548 16.8964 14.8761 17.608 14.8761H20.9718C21.6812 14.8761 22.0363 14.0872 21.5349 13.6261L18.8191 11.1298" stroke="#B78053" stroke-linecap="round" stroke-linejoin="round"/>
    <path d="M10.8354 14.8155L7.44203 11.4436C7.26932 11.2717 7.26932 10.9987 7.44203 10.8267L10.8354 7.45484C11.0161 7.27547 11.3143 7.27547 11.495 7.45484L14.8879 10.8267C15.0611 10.9987 15.0611 11.2717 14.8879 11.4436L11.495 14.8155C11.3143 14.9949 11.0161 14.9949 10.8354 14.8155V14.8155Z" stroke="#B78053" stroke-linecap="round" stroke-linejoin="round"/>
</svg>
