<svg width="22" height="22" viewBox="0 0 22 22" fill="none" xmlns="http://www.w3.org/2000/svg">
    <path d="M11.1445 21.5007C11.5928 21.4915 13.1636 21.4766 14.4988 20.3384C16.1696 18.9137 16.1674 16.8053 16.1845 16.4609C15.8402 16.478 13.7312 16.4759 12.3069 18.1466C11.1687 19.4817 11.1537 21.0525 11.1445 21.5007V21.5007Z" stroke="#B78053" stroke-linecap="round" stroke-linejoin="round"/>
    <path d="M16.459 16.1863C16.9073 16.1771 18.4781 16.1622 19.8133 15.0239C21.4841 13.5993 21.4819 11.4908 21.499 11.1465C21.1547 11.1636 19.0461 11.1614 17.6214 12.8321C16.4831 14.1673 16.4682 15.738 16.459 16.1863Z" stroke="#B78053" stroke-linecap="round" stroke-linejoin="round"/>
    <path d="M21.499 10.8542C21.4898 10.406 21.4749 8.83526 20.3366 7.50009C18.9123 5.82936 16.8033 5.83156 16.459 5.81445C16.4761 6.15877 16.4739 8.26724 18.1447 9.69189C19.4799 10.8301 21.0507 10.845 21.499 10.8542H21.499Z" stroke="#B78053" stroke-linecap="round" stroke-linejoin="round"/>
    <path d="M11.1445 10.8542C11.5928 10.845 13.1636 10.8301 14.4988 9.69189C16.1696 8.26724 16.1674 6.15878 16.1845 5.81445C15.8402 5.83156 13.7312 5.82937 12.3069 7.50009C11.1687 8.83526 11.1537 10.406 11.1445 10.8542V10.8542Z" stroke="#B78053" stroke-linecap="round" stroke-linejoin="round"/>
    <path d="M10.8584 11.1406C10.4101 11.1498 8.8393 11.1648 7.50407 12.303C5.83327 13.7276 5.83547 15.8361 5.81836 16.1804C6.16269 16.1633 8.2717 16.1655 9.69597 14.4948C10.8343 13.1596 10.8492 11.5889 10.8584 11.1406L10.8584 11.1406Z" stroke="#B78053" stroke-linecap="round" stroke-linejoin="round"/>
    <path d="M10.8584 10.8542C10.4101 10.845 8.8393 10.8301 7.50407 9.69189C5.83327 8.26724 5.83547 6.15878 5.81836 5.81445C6.16269 5.83156 8.27126 5.82937 9.69597 7.50009C10.8343 8.83526 10.8492 10.406 10.8584 10.8542H10.8584Z" stroke="#B78053" stroke-linecap="round" stroke-linejoin="round"/>
    <path d="M11.1445 11.1406C11.5928 11.1498 13.1636 11.1648 14.4988 12.303C16.1696 13.7276 16.1674 15.8361 16.1845 16.1804C15.8402 16.1633 13.7316 16.1655 12.3069 14.4948C11.1687 13.1596 11.1537 11.5889 11.1445 11.1406V11.1406Z" stroke="#B78053" stroke-linecap="round" stroke-linejoin="round"/>
    <path d="M16.1846 5.53979C16.1753 5.09152 16.1604 3.5208 15.0221 2.18563C13.5979 0.514913 11.4889 0.517106 11.1445 0.5C11.1616 0.84432 11.1594 2.95279 12.8302 4.37744C14.1655 5.51567 15.7363 5.53059 16.1846 5.53979V5.53979Z" stroke="#B78053" stroke-linecap="round" stroke-linejoin="round"/>
    <path d="M10.8545 21.5007C10.4062 21.4915 8.83539 21.4766 7.50016 20.3384C5.82937 18.9137 5.83156 16.8053 5.81445 16.4609C6.15879 16.478 8.26779 16.4759 9.69207 18.1466C10.8303 19.4817 10.8453 21.0525 10.8545 21.5007H10.8545Z" stroke="#B78053" stroke-linecap="round" stroke-linejoin="round"/>
    <path d="M5.54002 16.1861C5.09173 16.1769 3.52095 16.162 2.18571 15.0237C0.514914 13.5991 0.517107 11.4906 0.5 11.1463C0.844336 11.1634 2.95334 11.1612 4.37761 12.8319C5.51589 14.1671 5.53081 15.7378 5.54002 16.1861H5.54002Z" stroke="#B78053" stroke-linecap="round" stroke-linejoin="round"/>
    <path d="M0.500004 10.8542C0.509216 10.406 0.524125 8.83526 1.66241 7.50009C3.08668 5.82936 5.19569 5.83156 5.54002 5.81445C5.52291 6.15877 5.52511 8.26724 3.85431 9.69189C2.51908 10.8301 0.948294 10.845 0.5 10.8542H0.500004Z" stroke="#B78053" stroke-linecap="round" stroke-linejoin="round"/>
    <path d="M5.81445 5.53979C5.82366 5.09152 5.83857 3.5208 6.97686 2.18563C8.40113 0.514913 10.5101 0.517106 10.8545 0.5C10.8374 0.84432 10.8396 2.95279 9.16876 4.37744C7.83353 5.51567 6.26275 5.53059 5.81445 5.53979V5.53979Z" stroke="#B78053" stroke-linecap="round" stroke-linejoin="round"/>
</svg>
