<svg width="48" height="48" viewBox="0 0 48 48" fill="none" xmlns="http://www.w3.org/2000/svg">
<rect width="48" height="48" rx="12" fill="#FDF7F3"/>
<path d="M17 17H31C31.5304 17 32.0391 17.2107 32.4142 17.5858C32.7893 17.9609 33 18.4696 33 19V22C32.4696 22 31.9609 22.2107 31.5858 22.5858C31.2107 22.9609 31 23.4696 31 24C31 24.5304 31.2107 25.0391 31.5858 25.4142C31.9609 25.7893 32.4696 26 33 26V29C33 29.5304 32.7893 30.0391 32.4142 30.4142C32.0391 30.7893 31.5304 31 31 31H17C16.4696 31 15.9609 30.7893 15.5858 30.4142C15.2107 30.0391 15 29.5304 15 29V26C15.5304 26 16.0391 25.7893 16.4142 25.4142C16.7893 25.0391 17 24.5304 17 24C17 23.4696 16.7893 22.9609 16.4142 22.5858C16.0391 22.2107 15.5304 22 15 22V19C15 18.4696 15.2107 17.9609 15.5858 17.5858C15.9609 17.2107 16.4696 17 17 17" stroke="#272932" stroke-linecap="round" stroke-linejoin="round"/>
<path d="M27 17V19" stroke="#272932" stroke-linecap="round" stroke-linejoin="round"/>
<path d="M27 23V25" stroke="#272932" stroke-linecap="round" stroke-linejoin="round"/>
<path d="M27 29V31" stroke="#272932" stroke-linecap="round" stroke-linejoin="round"/>
</svg>
