<svg width="331" height="46" viewBox="0 0 331 46" fill="none" xmlns="http://www.w3.org/2000/svg">
    <path fill-rule="evenodd" clip-rule="evenodd" d="M10 0C4.47715 0 0 4.47715 0 10V46C0 40.4772 4.47715 36 10 36H331V0H10Z" fill="url(#paint0_linear_793_5270)"/>
    <path d="M108.536 22.3122C108.536 22.3122 117.08 23.1567 116.842 13.0112C116.842 13.0112 107.602 13.2574 108.536 22.3122L108.536 22.3122Z" stroke="white" stroke-linecap="round" stroke-linejoin="round"/>
    <path d="M110.302 22.4258C112.081 23.5764 115.987 25.0931 119.98 19.9883C119.98 19.9883 118.255 18.6476 115.987 18.3039" stroke="white" stroke-linecap="round" stroke-linejoin="round"/>
    <path d="M113.883 16.4965L108.524 22.294" stroke="white" stroke-linecap="round" stroke-linejoin="round"/>
    <path d="M119.601 15.0268C119.305 15.0268 119.065 14.7869 119.065 14.491C119.065 14.195 119.305 13.9551 119.601 13.9551C119.897 13.9551 120.137 14.195 120.137 14.491C120.137 14.7869 119.897 15.0268 119.601 15.0268Z" fill="white"/>
    <path d="M106.877 21.4479C106.666 21.4479 106.495 21.2772 106.495 21.0666C106.495 20.856 106.666 20.6853 106.877 20.6853C107.087 20.6853 107.258 20.856 107.258 21.0666C107.258 21.2772 107.087 21.4479 106.877 21.4479Z" fill="white"/>
    <path d="M19.588 23.144C18.868 23.144 18.256 23.016 17.752 22.76C17.256 22.504 16.828 22.168 16.468 21.752L17.536 20.72C17.824 21.056 18.144 21.312 18.496 21.488C18.856 21.664 19.252 21.752 19.684 21.752C20.172 21.752 20.54 21.648 20.788 21.44C21.036 21.224 21.16 20.936 21.16 20.576C21.16 20.296 21.08 20.068 20.92 19.892C20.76 19.716 20.46 19.588 20.02 19.508L19.228 19.388C17.556 19.124 16.72 18.312 16.72 16.952C16.72 16.576 16.788 16.236 16.924 15.932C17.068 15.628 17.272 15.368 17.536 15.152C17.8 14.936 18.116 14.772 18.484 14.66C18.86 14.54 19.284 14.48 19.756 14.48C20.388 14.48 20.94 14.584 21.412 14.792C21.884 15 22.288 15.308 22.624 15.716L21.544 16.736C21.336 16.48 21.084 16.272 20.788 16.112C20.492 15.952 20.12 15.872 19.672 15.872C19.216 15.872 18.872 15.96 18.64 16.136C18.416 16.304 18.304 16.544 18.304 16.856C18.304 17.176 18.396 17.412 18.58 17.564C18.764 17.716 19.06 17.828 19.468 17.9L20.248 18.044C21.096 18.196 21.72 18.468 22.12 18.86C22.528 19.244 22.732 19.784 22.732 20.48C22.732 20.88 22.66 21.244 22.516 21.572C22.38 21.892 22.176 22.172 21.904 22.412C21.64 22.644 21.312 22.824 20.92 22.952C20.536 23.08 20.092 23.144 19.588 23.144ZM26.4199 14.624V19.772C26.4199 20.428 26.5439 20.92 26.7919 21.248C27.0479 21.576 27.4759 21.74 28.0759 21.74C28.6759 21.74 29.0999 21.576 29.3479 21.248C29.6039 20.92 29.7319 20.428 29.7319 19.772V14.624H31.2919V19.568C31.2919 20.184 31.2319 20.716 31.1119 21.164C30.9999 21.612 30.8159 21.984 30.5599 22.28C30.3039 22.576 29.9679 22.796 29.5519 22.94C29.1439 23.076 28.6479 23.144 28.0639 23.144C27.4719 23.144 26.9719 23.076 26.5639 22.94C26.1639 22.796 25.8359 22.576 25.5799 22.28C25.3239 21.984 25.1399 21.612 25.0279 21.164C24.9159 20.716 24.8599 20.184 24.8599 19.568V14.624H26.4199ZM36.4091 23.144C35.6891 23.144 35.0771 23.016 34.5731 22.76C34.0771 22.504 33.6491 22.168 33.2891 21.752L34.3571 20.72C34.6451 21.056 34.9651 21.312 35.3171 21.488C35.6771 21.664 36.0731 21.752 36.5051 21.752C36.9931 21.752 37.3611 21.648 37.6091 21.44C37.8571 21.224 37.9811 20.936 37.9811 20.576C37.9811 20.296 37.9011 20.068 37.7411 19.892C37.5811 19.716 37.2811 19.588 36.8411 19.508L36.0491 19.388C34.3771 19.124 33.5411 18.312 33.5411 16.952C33.5411 16.576 33.6091 16.236 33.7451 15.932C33.8891 15.628 34.0931 15.368 34.3571 15.152C34.6211 14.936 34.9371 14.772 35.3051 14.66C35.6811 14.54 36.1051 14.48 36.5771 14.48C37.2091 14.48 37.7611 14.584 38.2331 14.792C38.7051 15 39.1091 15.308 39.4451 15.716L38.3651 16.736C38.1571 16.48 37.9051 16.272 37.6091 16.112C37.3131 15.952 36.9411 15.872 36.4931 15.872C36.0371 15.872 35.6931 15.96 35.4611 16.136C35.2371 16.304 35.1251 16.544 35.1251 16.856C35.1251 17.176 35.2171 17.412 35.4011 17.564C35.5851 17.716 35.8811 17.828 36.2891 17.9L37.0691 18.044C37.9171 18.196 38.5411 18.468 38.9411 18.86C39.3491 19.244 39.5531 19.784 39.5531 20.48C39.5531 20.88 39.4811 21.244 39.3371 21.572C39.2011 21.892 38.9971 22.172 38.7251 22.412C38.4611 22.644 38.1331 22.824 37.7411 22.952C37.3571 23.08 36.9131 23.144 36.4091 23.144ZM44.7947 16.028V23H43.2107V16.028H40.8347V14.624H47.1707V16.028H44.7947ZM53.4664 23L52.7944 20.864H49.8184L49.1584 23H47.5504L50.3584 14.624H52.3264L55.1104 23H53.4664ZM51.3304 16.064H51.2704L50.2024 19.508H52.4104L51.3304 16.064ZM56.5969 23V21.728H57.7009V15.896H56.5969V14.624H60.4009V15.896H59.2849V21.728H60.4009V23H56.5969ZM65.0192 18.704L64.1552 16.964H64.1192V23H62.6192V14.624H64.3592L66.8792 18.92L67.7432 20.66H67.7792V14.624H69.2792V23H67.5392L65.0192 18.704ZM77.0282 23L76.3562 20.864H73.3802L72.7202 23H71.1122L73.9202 14.624H75.8882L78.6722 23H77.0282ZM74.8922 16.064H74.8322L73.7642 19.508H75.9722L74.8922 16.064ZM80.5067 14.624H84.3827C84.7267 14.624 85.0347 14.676 85.3067 14.78C85.5867 14.884 85.8227 15.028 86.0147 15.212C86.2067 15.396 86.3507 15.624 86.4467 15.896C86.5507 16.16 86.6027 16.452 86.6027 16.772C86.6027 17.092 86.5587 17.364 86.4707 17.588C86.3907 17.804 86.2787 17.984 86.1347 18.128C85.9987 18.272 85.8387 18.38 85.6547 18.452C85.4787 18.524 85.2947 18.564 85.1027 18.572V18.644C85.2867 18.644 85.4827 18.68 85.6907 18.752C85.9067 18.824 86.1027 18.94 86.2787 19.1C86.4627 19.252 86.6147 19.452 86.7347 19.7C86.8547 19.94 86.9147 20.24 86.9147 20.6C86.9147 20.936 86.8587 21.252 86.7467 21.548C86.6427 21.836 86.4947 22.088 86.3027 22.304C86.1107 22.52 85.8827 22.692 85.6187 22.82C85.3547 22.94 85.0667 23 84.7547 23H80.5067V14.624ZM82.0907 21.656H84.2987C84.6027 21.656 84.8387 21.58 85.0067 21.428C85.1747 21.268 85.2587 21.04 85.2587 20.744V20.336C85.2587 20.04 85.1747 19.812 85.0067 19.652C84.8387 19.492 84.6027 19.412 84.2987 19.412H82.0907V21.656ZM82.0907 18.116H84.0467C84.3347 18.116 84.5587 18.04 84.7187 17.888C84.8787 17.728 84.9587 17.508 84.9587 17.228V16.856C84.9587 16.576 84.8787 16.36 84.7187 16.208C84.5587 16.048 84.3347 15.968 84.0467 15.968H82.0907V18.116ZM89.0637 23V14.624H90.6477V21.596H93.9477V23H89.0637ZM95.9215 23V14.624H101.442V16.028H97.5055V18.056H100.986V19.46H97.5055V21.596H101.442V23H95.9215Z" fill="white"/>
    <defs>
        <linearGradient id="paint0_linear_793_5270" x1="-13.3161" y1="24" x2="331" y2="24" gradientUnits="userSpaceOnUse">
            <stop stop-color="#03AC84"/>
            <stop offset="0.476666" stop-color="#03AC84" stop-opacity="0.76"/>
            <stop offset="1" stop-color="#03AC84" stop-opacity="0"/>
        </linearGradient>
    </defs>
</svg>
