<svg width="174" height="38" viewBox="0 0 174 38" fill="none" xmlns="http://www.w3.org/2000/svg">
<path fill-rule="evenodd" clip-rule="evenodd" d="M10 0C4.47715 0 0 4.47715 0 10V38C0 32.4772 4.47715 28 10 28H174V0H10Z" fill="url(#paint0_linear_47_1430)"/>
<path d="M15.014 13.754L14.167 12.126H14.134V18H12.946V10.322H14.332L16.84 14.568L17.687 16.196H17.72V10.322H18.908V18H17.522L15.014 13.754ZM21.3485 18V10.322H26.2655V11.422H22.5915V13.556H25.9245V14.656H22.5915V16.9H26.2655V18H21.3485ZM29.552 18L27.737 10.322H29.002L29.783 14.018L30.322 16.57H30.355L30.971 14.018L31.884 10.322H33.27L34.172 14.018L34.777 16.559H34.81L35.371 14.018L36.174 10.322H37.395L35.503 18H34.106L33.127 14.029L32.555 11.697H32.533L31.95 14.029L30.949 18H29.552ZM44.6013 18.132C43.9559 18.132 43.4059 18.0147 42.9513 17.78C42.5039 17.5453 42.1189 17.23 41.7963 16.834L42.6543 16.031C42.9256 16.361 43.2226 16.6103 43.5453 16.779C43.8753 16.9477 44.2493 17.032 44.6673 17.032C45.1586 17.032 45.5289 16.922 45.7783 16.702C46.0276 16.482 46.1523 16.185 46.1523 15.811C46.1523 15.5103 46.0643 15.272 45.8883 15.096C45.7123 14.92 45.4006 14.788 44.9533 14.7L44.2713 14.579C43.5233 14.4397 42.9623 14.194 42.5883 13.842C42.2143 13.49 42.0273 13.006 42.0273 12.39C42.0273 12.0527 42.0896 11.7483 42.2143 11.477C42.3463 11.1983 42.5259 10.9673 42.7533 10.784C42.9879 10.5933 43.2703 10.4467 43.6003 10.344C43.9303 10.2413 44.3006 10.19 44.7113 10.19C45.2906 10.19 45.7929 10.2927 46.2183 10.498C46.6436 10.696 47.0066 10.9857 47.3073 11.367L46.4383 12.137C46.2403 11.8803 45.9983 11.675 45.7123 11.521C45.4263 11.367 45.0706 11.29 44.6453 11.29C44.2053 11.29 43.8643 11.378 43.6223 11.554C43.3803 11.73 43.2593 11.9867 43.2593 12.324C43.2593 12.6467 43.3583 12.8887 43.5563 13.05C43.7543 13.204 44.0623 13.3213 44.4803 13.402L45.1623 13.545C45.9323 13.6917 46.4933 13.941 46.8453 14.293C47.2046 14.645 47.3843 15.129 47.3843 15.745C47.3843 16.1043 47.3219 16.4307 47.1973 16.724C47.0726 17.0173 46.8893 17.2703 46.6473 17.483C46.4126 17.6883 46.1229 17.8497 45.7783 17.967C45.4336 18.077 45.0413 18.132 44.6013 18.132ZM49.4265 18V10.322H54.3435V11.422H50.6695V13.556H54.0025V14.656H50.6695V16.9H54.3435V18H49.4265ZM61.293 18L60.6 15.921H57.729L57.058 18H55.793L58.411 10.322H59.973L62.591 18H61.293ZM59.192 11.466H59.137L58.026 14.854H60.292L59.192 11.466ZM66.6292 18.132C65.9838 18.132 65.4338 18.0147 64.9792 17.78C64.5318 17.5453 64.1468 17.23 63.8242 16.834L64.6822 16.031C64.9535 16.361 65.2505 16.6103 65.5732 16.779C65.9032 16.9477 66.2772 17.032 66.6952 17.032C67.1865 17.032 67.5568 16.922 67.8062 16.702C68.0555 16.482 68.1802 16.185 68.1802 15.811C68.1802 15.5103 68.0922 15.272 67.9162 15.096C67.7402 14.92 67.4285 14.788 66.9812 14.7L66.2992 14.579C65.5512 14.4397 64.9902 14.194 64.6162 13.842C64.2422 13.49 64.0552 13.006 64.0552 12.39C64.0552 12.0527 64.1175 11.7483 64.2422 11.477C64.3742 11.1983 64.5538 10.9673 64.7812 10.784C65.0158 10.5933 65.2982 10.4467 65.6282 10.344C65.9582 10.2413 66.3285 10.19 66.7392 10.19C67.3185 10.19 67.8208 10.2927 68.2462 10.498C68.6715 10.696 69.0345 10.9857 69.3352 11.367L68.4662 12.137C68.2682 11.8803 68.0262 11.675 67.7402 11.521C67.4542 11.367 67.0985 11.29 66.6732 11.29C66.2332 11.29 65.8922 11.378 65.6502 11.554C65.4082 11.73 65.2872 11.9867 65.2872 12.324C65.2872 12.6467 65.3862 12.8887 65.5842 13.05C65.7822 13.204 66.0902 13.3213 66.5082 13.402L67.1902 13.545C67.9602 13.6917 68.5212 13.941 68.8732 14.293C69.2325 14.645 69.4122 15.129 69.4122 15.745C69.4122 16.1043 69.3498 16.4307 69.2252 16.724C69.1005 17.0173 68.9172 17.2703 68.6752 17.483C68.4405 17.6883 68.1508 17.8497 67.8062 17.967C67.4615 18.077 67.0692 18.132 66.6292 18.132ZM74.4244 18.132C73.9257 18.132 73.4711 18.0477 73.0604 17.879C72.6571 17.703 72.3087 17.45 72.0154 17.12C71.7294 16.7827 71.5057 16.3683 71.3444 15.877C71.1904 15.3783 71.1134 14.8063 71.1134 14.161C71.1134 13.5157 71.1904 12.9473 71.3444 12.456C71.5057 11.9573 71.7294 11.543 72.0154 11.213C72.3087 10.8757 72.6571 10.6227 73.0604 10.454C73.4711 10.278 73.9257 10.19 74.4244 10.19C74.9231 10.19 75.3741 10.278 75.7774 10.454C76.1881 10.6227 76.5364 10.8757 76.8224 11.213C77.1157 11.543 77.3394 11.9573 77.4934 12.456C77.6547 12.9473 77.7354 13.5157 77.7354 14.161C77.7354 14.8063 77.6547 15.3783 77.4934 15.877C77.3394 16.3683 77.1157 16.7827 76.8224 17.12C76.5364 17.45 76.1881 17.703 75.7774 17.879C75.3741 18.0477 74.9231 18.132 74.4244 18.132ZM74.4244 17.021C74.7177 17.021 74.9854 16.9697 75.2274 16.867C75.4767 16.7643 75.6857 16.6177 75.8544 16.427C76.0304 16.229 76.1661 15.9907 76.2614 15.712C76.3567 15.4333 76.4044 15.118 76.4044 14.766V13.556C76.4044 13.204 76.3567 12.8887 76.2614 12.61C76.1661 12.3313 76.0304 12.0967 75.8544 11.906C75.6857 11.708 75.4767 11.5577 75.2274 11.455C74.9854 11.3523 74.7177 11.301 74.4244 11.301C74.1237 11.301 73.8524 11.3523 73.6104 11.455C73.3684 11.5577 73.1594 11.708 72.9834 11.906C72.8147 12.0967 72.6827 12.3313 72.5874 12.61C72.4921 12.8887 72.4444 13.204 72.4444 13.556V14.766C72.4444 15.118 72.4921 15.4333 72.5874 15.712C72.6827 15.9907 72.8147 16.229 72.9834 16.427C73.1594 16.6177 73.3684 16.7643 73.6104 16.867C73.8524 16.9697 74.1237 17.021 74.4244 17.021ZM81.9035 13.754L81.0565 12.126H81.0235V18H79.8355V10.322H81.2215L83.7295 14.568L84.5765 16.196H84.6095V10.322H85.7975V18H84.4115L81.9035 13.754Z" fill="white"/>
<path d="M96.837 6.66797L95.7125 9.70647L92.674 10.8309L95.7125 11.9554L96.837 14.9939L97.9615 11.9554L101 10.8309L97.9615 9.70647L96.837 6.66797Z" fill="white"/>
<path d="M91.4219 13.4961L90.6347 15.623L88.5078 16.4102L90.6347 17.1973L91.4219 19.3243L92.209 17.1973L94.3359 16.4102L92.209 15.623L91.4219 13.4961Z" fill="white"/>
<path d="M98.5 18L98.0948 19.0948L97 19.5L98.0948 19.9052L98.5 21L98.9052 19.9052L100 19.5L98.9052 19.0948L98.5 18Z" fill="white"/>
<defs>
<linearGradient id="paint0_linear_47_1430" x1="-7" y1="24" x2="174" y2="24" gradientUnits="userSpaceOnUse">
<stop stop-color="#F4B224"/>
<stop offset="0.43235" stop-color="#F4B224" stop-opacity="0.85"/>
<stop offset="1" stop-color="#F4B224" stop-opacity="0"/>
</linearGradient>
</defs>
</svg>
