<svg width="46" height="200" viewBox="0 0 46 200" fill="none" xmlns="http://www.w3.org/2000/svg">
<path fill-rule="evenodd" clip-rule="evenodd" d="M-4.37114e-07 10C-1.95703e-07 4.47715 4.47715 1.95703e-07 10 4.37114e-07L46 2.01072e-06C40.4772 1.76931e-06 36 4.47715 36 10L36 200L-8.74228e-06 200L-4.37114e-07 10Z" fill="url(#paint0_linear_5881_30882)"/>
<path d="M9.85254 28.8295L13.3775 30.134L14.682 33.6589L15.9865 30.134L19.5115 28.8295L15.9865 27.525L14.682 24L13.3775 27.525L9.85254 28.8295Z" fill="white"/>
<path d="M17.7739 35.1116L20.2414 36.0248L21.1546 38.4922L22.0677 36.0248L24.5352 35.1116L22.0677 34.1985L21.1546 31.731L20.2414 34.1985L17.7739 35.1116Z" fill="white"/>
<path d="M22.999 26.9002L24.2691 27.3703L24.7392 28.6404L25.2092 27.3703L26.4793 26.9002L25.2092 26.4302L24.7392 25.1601L24.2691 26.4302L22.999 26.9002Z" fill="white"/>
<path d="M18.8235 136.616L16.4555 137.848L16.4555 137.896L24.9995 137.896L24.9995 139.624L13.8315 139.624L13.8315 137.608L20.0075 133.96L22.3755 132.728L22.3755 132.68L13.8315 132.68L13.8315 130.952L24.9995 130.952L24.9995 132.968L18.8235 136.616ZM25.1915 124.266C25.1915 124.863 25.0902 125.397 24.8875 125.866C24.6848 126.335 24.3968 126.735 24.0235 127.066C23.6395 127.397 23.1808 127.653 22.6475 127.834C22.1035 128.005 21.5008 128.09 20.8395 128.09C20.1782 128.09 19.5808 128.005 19.0475 127.834C18.5035 127.653 18.0448 127.397 17.6715 127.066C17.2875 126.735 16.9942 126.335 16.7915 125.866C16.5888 125.397 16.4875 124.863 16.4875 124.266C16.4875 123.658 16.5942 123.125 16.8075 122.666C17.0208 122.197 17.3195 121.807 17.7035 121.498C18.0768 121.189 18.5142 120.959 19.0155 120.81C19.5168 120.65 20.0555 120.57 20.6315 120.57L21.2875 120.57L21.2875 126.282L21.5595 126.282C22.1995 126.282 22.7275 126.095 23.1435 125.722C23.5488 125.338 23.7515 124.794 23.7515 124.09C23.7515 123.578 23.6395 123.146 23.4155 122.794C23.1915 122.442 22.8875 122.143 22.5035 121.898L23.5115 120.874C24.0235 121.183 24.4342 121.631 24.7435 122.218C25.0422 122.805 25.1915 123.487 25.1915 124.266ZM17.8475 124.266C17.8475 124.565 17.9008 124.842 18.0075 125.098C18.1142 125.343 18.2635 125.557 18.4555 125.738C18.6475 125.909 18.8768 126.042 19.1435 126.138C19.4102 126.234 19.7035 126.282 20.0235 126.282L20.1355 126.282L20.1355 122.41L19.9755 122.41C19.3355 122.41 18.8235 122.575 18.4395 122.906C18.0448 123.237 17.8475 123.69 17.8475 124.266ZM16.6795 118.749L16.6795 117.053L20.1675 116.205L23.3195 115.453L23.3195 115.405L20.1675 114.541L16.6795 113.533L16.6795 111.965L20.1675 110.941L23.3195 110.061L23.3195 110.013L20.1675 109.277L16.6795 108.413L16.6795 106.797L24.9995 109.037L24.9995 111.005L21.2075 112.093L18.8715 112.765L18.8715 112.797L21.2075 113.453L24.9995 114.557L24.9995 116.477L16.6795 118.749ZM25.1915 96.283C25.1915 97.2216 25.0208 98.0216 24.6795 98.683C24.3382 99.3336 23.8795 99.8936 23.3035 100.363L22.1355 99.115C22.6155 98.7203 22.9782 98.2883 23.2235 97.819C23.4688 97.339 23.5915 96.795 23.5915 96.187C23.5915 95.4723 23.4315 94.9336 23.1115 94.571C22.7915 94.2083 22.3595 94.027 21.8155 94.027C21.3782 94.027 21.0315 94.155 20.7755 94.411C20.5195 94.667 20.3275 95.1203 20.1995 95.771L20.0235 96.763C19.8208 97.851 19.4635 98.667 18.9515 99.211C18.4395 99.755 17.7355 100.027 16.8395 100.027C16.3488 100.027 15.9062 99.9363 15.5115 99.755C15.1062 99.563 14.7702 99.3016 14.5035 98.971C14.2262 98.6296 14.0128 98.219 13.8635 97.739C13.7142 97.259 13.6395 96.7203 13.6395 96.123C13.6395 95.2803 13.7888 94.5496 14.0875 93.931C14.3755 93.3123 14.7968 92.7843 15.3515 92.347L16.4715 93.611C16.0982 93.899 15.7995 94.251 15.5755 94.667C15.3515 95.083 15.2395 95.6003 15.2395 96.219C15.2395 96.859 15.3675 97.355 15.6235 97.707C15.8795 98.059 16.2528 98.235 16.7435 98.235C17.2128 98.235 17.5648 98.091 17.7995 97.803C18.0235 97.515 18.1942 97.067 18.3115 96.459L18.5195 95.467C18.7328 94.347 19.0955 93.531 19.6075 93.019C20.1195 92.4963 20.8235 92.235 21.7195 92.235C22.2422 92.235 22.7168 92.3256 23.1435 92.507C23.5702 92.6883 23.9382 92.955 24.2475 93.307C24.5462 93.6483 24.7808 94.0696 24.9515 94.571C25.1115 95.0723 25.1915 95.643 25.1915 96.283ZM25.1915 86.1285C25.1915 86.7258 25.0902 87.2591 24.8875 87.7285C24.6848 88.1978 24.3968 88.5978 24.0235 88.9285C23.6395 89.2591 23.1808 89.5151 22.6475 89.6965C22.1035 89.8671 21.5008 89.9525 20.8395 89.9525C20.1782 89.9525 19.5808 89.8671 19.0475 89.6965C18.5035 89.5151 18.0448 89.2591 17.6715 88.9285C17.2875 88.5978 16.9942 88.1978 16.7915 87.7285C16.5888 87.2591 16.4875 86.7258 16.4875 86.1285C16.4875 85.5205 16.5942 84.9871 16.8075 84.5285C17.0208 84.0591 17.3195 83.6698 17.7035 83.3605C18.0768 83.0511 18.5142 82.8218 19.0155 82.6725C19.5168 82.5125 20.0555 82.4325 20.6315 82.4325L21.2875 82.4325L21.2875 88.1445L21.5595 88.1445C22.1995 88.1445 22.7275 87.9578 23.1435 87.5845C23.5488 87.2005 23.7515 86.6565 23.7515 85.9525C23.7515 85.4405 23.6395 85.0085 23.4155 84.6565C23.1915 84.3045 22.8875 84.0058 22.5035 83.7605L23.5115 82.7365C24.0235 83.0458 24.4342 83.4938 24.7435 84.0805C25.0422 84.6671 25.1915 85.3498 25.1915 86.1285ZM17.8475 86.1285C17.8475 86.4271 17.9008 86.7045 18.0075 86.9605C18.1142 87.2058 18.2635 87.4191 18.4555 87.6005C18.6475 87.7711 18.8768 87.9045 19.1435 88.0005C19.4102 88.0965 19.7035 88.1445 20.0235 88.1445L20.1355 88.1445L20.1355 84.2725L19.9755 84.2725C19.3355 84.2725 18.8235 84.4378 18.4395 84.7685C18.0448 85.0991 17.8475 85.5525 17.8475 86.1285ZM24.9995 73.6058C24.9995 74.0645 24.8715 74.4165 24.6155 74.6618C24.3488 74.9072 24.0128 75.0565 23.6075 75.1098L23.6075 75.1898C24.1302 75.3498 24.5248 75.6432 24.7915 76.0698C25.0582 76.4965 25.1915 77.0138 25.1915 77.6218C25.1915 78.4858 24.9675 79.1525 24.5195 79.6218C24.0715 80.0805 23.4688 80.3098 22.7115 80.3098C21.8795 80.3098 21.2555 80.0112 20.8395 79.4138C20.4235 78.8058 20.2155 77.9205 20.2155 76.7578L20.2155 75.2538L19.5115 75.2538C18.9995 75.2538 18.6048 75.3925 18.3275 75.6698C18.0502 75.9472 17.9115 76.3792 17.9115 76.9658C17.9115 77.4565 18.0182 77.8565 18.2315 78.1658C18.4448 78.4752 18.7168 78.7365 19.0475 78.9498L18.1035 79.9898C17.6342 79.7125 17.2502 79.3232 16.9515 78.8218C16.6422 78.3205 16.4875 77.6645 16.4875 76.8538C16.4875 75.7765 16.7382 74.9498 17.2395 74.3738C17.7408 73.7978 18.4608 73.5098 19.3995 73.5098L23.5755 73.5098L23.5755 72.6298L24.9995 72.6298L24.9995 73.6058ZM23.8635 77.1258C23.8635 76.5818 23.7462 76.1338 23.5115 75.7818C23.2662 75.4298 22.9408 75.2538 22.5355 75.2538L21.3355 75.2538L21.3355 76.7258C21.3355 77.9312 21.7088 78.5338 22.4555 78.5338L22.7435 78.5338C23.1168 78.5338 23.3995 78.4112 23.5915 78.1658C23.7728 77.9098 23.8635 77.5632 23.8635 77.1258ZM25.1915 67.4806C25.1915 68.2699 25.0528 68.9313 24.7755 69.4646C24.4982 69.9979 24.1142 70.4619 23.6235 70.8566L22.5995 69.7366C22.9728 69.4273 23.2662 69.0859 23.4795 68.7126C23.6822 68.3286 23.7835 67.8859 23.7835 67.3846C23.7835 66.8726 23.6875 66.4939 23.4955 66.2486C23.2928 65.9926 23.0155 65.8646 22.6635 65.8646C22.3968 65.8646 22.1728 65.9553 21.9915 66.1366C21.7995 66.3073 21.6768 66.6113 21.6235 67.0486L21.5275 67.8166C21.4208 68.6699 21.1755 69.3419 20.7915 69.8326C20.3968 70.3126 19.8155 70.5526 19.0475 70.5526C18.6422 70.5526 18.2848 70.4779 17.9755 70.3286C17.6555 70.1793 17.3888 69.9713 17.1755 69.7046C16.9515 69.4273 16.7808 69.1019 16.6635 68.7286C16.5462 68.3446 16.4875 67.9233 16.4875 67.4646C16.4875 66.7179 16.6048 66.1099 16.8395 65.6406C17.0742 65.1606 17.3995 64.7339 17.8155 64.3606L18.8395 65.4326C18.5835 65.6459 18.3648 65.9286 18.1835 66.2806C17.9915 66.6219 17.8955 67.0166 17.8955 67.4646C17.8955 67.9446 17.9915 68.3019 18.1835 68.5366C18.3755 68.7606 18.6262 68.8726 18.9355 68.8726C19.2555 68.8726 19.4955 68.7713 19.6555 68.5686C19.8155 68.3659 19.9328 68.0406 20.0075 67.5926L20.1035 66.8246C20.2422 65.9073 20.5142 65.2406 20.9195 64.8246C21.3142 64.3979 21.8475 64.1846 22.5195 64.1846C22.9248 64.1846 23.2928 64.2646 23.6235 64.4246C23.9435 64.5739 24.2208 64.7926 24.4555 65.0806C24.6902 65.3686 24.8715 65.7153 24.9995 66.1206C25.1275 66.5259 25.1915 66.9793 25.1915 67.4806ZM25.1915 58.1503C25.1915 58.7263 25.0902 59.2543 24.8875 59.7343C24.6848 60.2037 24.3968 60.6037 24.0235 60.9343C23.6395 61.265 23.1808 61.521 22.6475 61.7023C22.1035 61.8837 21.5008 61.9743 20.8395 61.9743C20.1782 61.9743 19.5808 61.8837 19.0475 61.7023C18.5035 61.521 18.0448 61.265 17.6715 60.9343C17.2875 60.6037 16.9942 60.2037 16.7915 59.7343C16.5888 59.2543 16.4875 58.7263 16.4875 58.1503C16.4875 57.5743 16.5888 57.0517 16.7915 56.5823C16.9942 56.1023 17.2875 55.697 17.6715 55.3663C18.0448 55.0357 18.5035 54.7797 19.0475 54.5983C19.5808 54.417 20.1782 54.3263 20.8395 54.3263C21.5008 54.3263 22.1035 54.417 22.6475 54.5983C23.1808 54.7797 23.6395 55.0357 24.0235 55.3663C24.3968 55.697 24.6848 56.1023 24.8875 56.5823C25.0902 57.0517 25.1915 57.5743 25.1915 58.1503ZM23.7515 58.1503C23.7515 57.553 23.5702 57.073 23.2075 56.7103C22.8342 56.3477 22.2795 56.1663 21.5435 56.1663L20.1355 56.1663C19.3995 56.1663 18.8502 56.3477 18.4875 56.7103C18.1142 57.073 17.9275 57.553 17.9275 58.1503C17.9275 58.7477 18.1142 59.2277 18.4875 59.5903C18.8502 59.953 19.3995 60.1343 20.1355 60.1343L21.5435 60.1343C22.2795 60.1343 22.8342 59.953 23.2075 59.5903C23.5702 59.2277 23.7515 58.7477 23.7515 58.1503ZM24.9995 51.5831L16.6795 51.5831L16.6795 49.8391L18.0555 49.8391L18.0555 49.7591C17.6075 49.5778 17.2342 49.3058 16.9355 48.9431C16.6368 48.5698 16.4875 48.0631 16.4875 47.4231C16.4875 46.5698 16.7702 45.9084 17.3355 45.4391C17.8902 44.9591 18.6848 44.7191 19.7195 44.7191L24.9995 44.7191L24.9995 46.4631L19.9435 46.4631C18.6422 46.4631 17.9915 46.9858 17.9915 48.0311C17.9915 48.2551 18.0235 48.4791 18.0875 48.7031C18.1408 48.9164 18.2262 49.1084 18.3435 49.2791C18.4608 49.4498 18.6102 49.5884 18.7915 49.6951C18.9728 49.7911 19.1862 49.8391 19.4315 49.8391L24.9995 49.8391L24.9995 51.5831Z" fill="white"/>
<defs>
<linearGradient id="paint0_linear_5881_30882" x1="29.0526" y1="-8.04598" x2="29.0526" y2="200" gradientUnits="userSpaceOnUse">
<stop stop-color="#F4B224"/>
<stop offset="0.43235" stop-color="#F4B224" stop-opacity="0.85"/>
<stop offset="1" stop-color="#F4B224" stop-opacity="0"/>
</linearGradient>
</defs>
</svg>
