<svg width="46" height="200" viewBox="0 0 46 200" fill="none" xmlns="http://www.w3.org/2000/svg">
<path fill-rule="evenodd" clip-rule="evenodd" d="M-4.37114e-07 10C-1.95703e-07 4.47715 4.47716 1.95703e-07 10 4.37114e-07L45.9262 2.0075e-06C40.4033 1.76609e-06 35.9262 4.47715 35.9262 10L35.9262 200L-8.74228e-06 200L-4.37114e-07 10Z" fill="url(#paint0_linear_5881_30870)"/>
<path d="M23.3623 37.3159C23.3623 37.3159 24.4368 26.4283 11.5279 26.7325C11.5279 26.7325 11.841 38.5063 23.3623 37.3159L23.3623 37.3159Z" stroke="white" stroke-linecap="round" stroke-linejoin="round"/>
<path d="M23.5064 35.0625C24.9704 32.7965 26.9002 27.8188 20.405 22.731C20.405 22.731 18.6991 24.9291 18.2617 27.8192" stroke="white" stroke-linecap="round" stroke-linejoin="round"/>
<path d="M15.9624 30.5021L23.339 37.3308" stroke="white" stroke-linecap="round" stroke-linejoin="round"/>
<path d="M14.0927 23.2166C14.0927 23.5939 13.7874 23.8998 13.4108 23.8998C13.0343 23.8998 12.729 23.5939 12.729 23.2166C12.729 22.8392 13.0343 22.5333 13.4108 22.5333C13.7874 22.5333 14.0927 22.8392 14.0927 23.2166Z" fill="white"/>
<path d="M22.2623 39.4326C22.2623 39.7011 22.0451 39.9187 21.7772 39.9187C21.5092 39.9187 21.292 39.7011 21.292 39.4326C21.292 39.1641 21.5092 38.9464 21.7772 38.9464C22.0451 38.9464 22.2623 39.1641 22.2623 39.4326Z" fill="white"/>
<path d="M24.1715 135.28C24.1715 136.219 24.0008 137.019 23.6595 137.68C23.3182 138.331 22.8595 138.891 22.2835 139.36L21.1155 138.112C21.5955 137.717 21.9582 137.285 22.2035 136.816C22.4488 136.336 22.5715 135.792 22.5715 135.184C22.5715 134.469 22.4115 133.931 22.0915 133.568C21.7715 133.205 21.3395 133.024 20.7955 133.024C20.3582 133.024 20.0115 133.152 19.7555 133.408C19.4995 133.664 19.3075 134.117 19.1795 134.768L19.0035 135.76C18.8008 136.848 18.4435 137.664 17.9315 138.208C17.4195 138.752 16.7155 139.024 15.8195 139.024C15.3288 139.024 14.8862 138.933 14.4915 138.752C14.0862 138.56 13.7502 138.299 13.4835 137.968C13.2062 137.627 12.9928 137.216 12.8435 136.736C12.6942 136.256 12.6195 135.717 12.6195 135.12C12.6195 134.277 12.7688 133.547 13.0675 132.928C13.3555 132.309 13.7768 131.781 14.3315 131.344L15.4515 132.608C15.0782 132.896 14.7795 133.248 14.5555 133.664C14.3315 134.08 14.2195 134.597 14.2195 135.216C14.2195 135.856 14.3475 136.352 14.6035 136.704C14.8595 137.056 15.2328 137.232 15.7235 137.232C16.1928 137.232 16.5448 137.088 16.7795 136.8C17.0035 136.512 17.1742 136.064 17.2915 135.456L17.4995 134.464C17.7128 133.344 18.0755 132.528 18.5875 132.016C19.0995 131.493 19.8035 131.232 20.6995 131.232C21.2222 131.232 21.6968 131.323 22.1235 131.504C22.5502 131.685 22.9182 131.952 23.2275 132.304C23.5262 132.645 23.7608 133.067 23.9315 133.568C24.0915 134.069 24.1715 134.64 24.1715 135.28ZM22.6035 123.349L22.6035 123.413C22.8062 123.488 23.0035 123.589 23.1955 123.717C23.3875 123.835 23.5582 123.989 23.7075 124.181C23.8462 124.363 23.9582 124.587 24.0435 124.853C24.1288 125.109 24.1715 125.408 24.1715 125.749C24.1715 126.613 23.8942 127.285 23.3395 127.765C22.7848 128.235 21.9902 128.469 20.9555 128.469L15.6595 128.469L15.6595 126.725L20.7315 126.725C22.0222 126.725 22.6675 126.192 22.6675 125.125C22.6675 124.901 22.6408 124.683 22.5875 124.469C22.5235 124.256 22.4328 124.069 22.3155 123.909C22.1982 123.739 22.0488 123.605 21.8675 123.509C21.6862 123.403 21.4728 123.349 21.2275 123.349L15.6595 123.349L15.6595 121.605L23.9795 121.605L23.9795 123.349L22.6035 123.349ZM24.1715 115.668C24.1715 116.458 24.0328 117.119 23.7555 117.652C23.4782 118.186 23.0942 118.65 22.6035 119.044L21.5795 117.924C21.9528 117.615 22.2462 117.274 22.4595 116.9C22.6622 116.516 22.7635 116.074 22.7635 115.572C22.7635 115.06 22.6675 114.682 22.4755 114.436C22.2728 114.18 21.9955 114.052 21.6435 114.052C21.3768 114.052 21.1528 114.143 20.9715 114.324C20.7795 114.495 20.6568 114.799 20.6035 115.236L20.5075 116.004C20.4008 116.858 20.1555 117.53 19.7715 118.02C19.3768 118.5 18.7955 118.74 18.0275 118.74C17.6222 118.74 17.2648 118.666 16.9555 118.516C16.6355 118.367 16.3688 118.159 16.1555 117.892C15.9315 117.615 15.7608 117.29 15.6435 116.916C15.5262 116.532 15.4675 116.111 15.4675 115.652C15.4675 114.906 15.5848 114.298 15.8195 113.828C16.0542 113.348 16.3795 112.922 16.7955 112.548L17.8195 113.62C17.5635 113.834 17.3448 114.116 17.1635 114.468C16.9715 114.81 16.8755 115.204 16.8755 115.652C16.8755 116.132 16.9715 116.49 17.1635 116.724C17.3555 116.948 17.6062 117.06 17.9155 117.06C18.2355 117.06 18.4755 116.959 18.6355 116.756C18.7955 116.554 18.9128 116.228 18.9875 115.78L19.0835 115.012C19.2222 114.095 19.4942 113.428 19.8995 113.012C20.2942 112.586 20.8275 112.372 21.4995 112.372C21.9048 112.372 22.2728 112.452 22.6035 112.612C22.9235 112.762 23.2008 112.98 23.4355 113.268C23.6702 113.556 23.8515 113.903 23.9795 114.308C24.1075 114.714 24.1715 115.167 24.1715 115.668ZM23.9795 107.407C23.9795 108.015 23.8248 108.474 23.5155 108.783C23.1955 109.093 22.7475 109.247 22.1715 109.247L17.0835 109.247L17.0835 110.543L15.6595 110.543L15.6595 109.839C15.6595 109.551 15.5955 109.354 15.4675 109.247C15.3395 109.13 15.1315 109.071 14.8435 109.071L13.3875 109.071L13.3875 107.503L15.6595 107.503L15.6595 105.759L17.0835 105.759L17.0835 107.503L22.5555 107.503L22.5555 105.887L23.9795 105.887L23.9795 107.407ZM23.9795 96.9716C23.9795 97.4302 23.8515 97.7822 23.5955 98.0276C23.3288 98.2729 22.9928 98.4222 22.5875 98.4756L22.5875 98.5556C23.1102 98.7156 23.5048 99.0089 23.7715 99.4356C24.0382 99.8622 24.1715 100.38 24.1715 100.988C24.1715 101.852 23.9475 102.518 23.4995 102.988C23.0515 103.446 22.4488 103.676 21.6915 103.676C20.8595 103.676 20.2355 103.377 19.8195 102.78C19.4035 102.172 19.1955 101.286 19.1955 100.124L19.1955 98.6196L18.4915 98.6196C17.9795 98.6196 17.5848 98.7582 17.3075 99.0356C17.0302 99.3129 16.8915 99.7449 16.8915 100.332C16.8915 100.822 16.9982 101.222 17.2115 101.532C17.4248 101.841 17.6968 102.102 18.0275 102.316L17.0835 103.356C16.6142 103.078 16.2302 102.689 15.9315 102.188C15.6222 101.686 15.4675 101.03 15.4675 100.22C15.4675 99.1422 15.7182 98.3156 16.2195 97.7396C16.7208 97.1636 17.4408 96.8756 18.3795 96.8756L22.5555 96.8756L22.5555 95.9956L23.9795 95.9956L23.9795 96.9716ZM22.8435 100.492C22.8435 99.9476 22.7262 99.4996 22.4915 99.1476C22.2462 98.7956 21.9208 98.6196 21.5155 98.6196L20.3155 98.6196L20.3155 100.092C20.3155 101.297 20.6888 101.9 21.4355 101.9L21.7235 101.9C22.0968 101.9 22.3795 101.777 22.5715 101.532C22.7528 101.276 22.8435 100.929 22.8435 100.492ZM14.1715 92.6063C14.1715 92.969 14.0862 93.2356 13.9155 93.4063C13.7448 93.5663 13.5262 93.6463 13.2595 93.6463L12.9875 93.6463C12.7208 93.6463 12.5022 93.5663 12.3315 93.4063C12.1608 93.2356 12.0755 92.969 12.0755 92.6063C12.0755 92.2436 12.1608 91.9823 12.3315 91.8223C12.5022 91.6623 12.7208 91.5823 12.9875 91.5823L13.2595 91.5823C13.5262 91.5823 13.7448 91.6623 13.9155 91.8223C14.0862 91.9823 14.1715 92.2436 14.1715 92.6063ZM15.6595 93.4863L15.6595 91.7423L23.9795 91.7423L23.9795 93.4863L15.6595 93.4863ZM23.9795 88.4519L15.6595 88.4519L15.6595 86.7079L17.0355 86.7079L17.0355 86.6279C16.5875 86.4466 16.2142 86.1746 15.9155 85.8119C15.6168 85.4386 15.4675 84.9319 15.4675 84.2919C15.4675 83.4386 15.7502 82.7773 16.3155 82.3079C16.8702 81.8279 17.6648 81.5879 18.6995 81.5879L23.9795 81.5879L23.9795 83.3319L18.9235 83.3319C17.6222 83.3319 16.9715 83.8546 16.9715 84.8999C16.9715 85.1239 17.0035 85.3479 17.0675 85.5719C17.1208 85.7853 17.2062 85.9773 17.3235 86.1479C17.4408 86.3186 17.5902 86.4573 17.7715 86.5639C17.9528 86.6599 18.1662 86.7079 18.4115 86.7079L23.9795 86.7079L23.9795 88.4519ZM23.9795 72.2747C23.9795 72.7334 23.8515 73.0854 23.5955 73.3307C23.3288 73.576 22.9928 73.7254 22.5875 73.7787L22.5875 73.8587C23.1102 74.0187 23.5048 74.312 23.7715 74.7387C24.0382 75.1654 24.1715 75.6827 24.1715 76.2907C24.1715 77.1547 23.9475 77.8214 23.4995 78.2907C23.0515 78.7494 22.4488 78.9787 21.6915 78.9787C20.8595 78.9787 20.2355 78.68 19.8195 78.0827C19.4035 77.4747 19.1955 76.5894 19.1955 75.4267L19.1955 73.9227L18.4915 73.9227C17.9795 73.9227 17.5848 74.0614 17.3075 74.3387C17.0302 74.616 16.8915 75.048 16.8915 75.6347C16.8915 76.1254 16.9982 76.5254 17.2115 76.8347C17.4248 77.144 17.6968 77.4054 18.0275 77.6187L17.0835 78.6587C16.6142 78.3814 16.2302 77.992 15.9315 77.4907C15.6222 76.9894 15.4675 76.3334 15.4675 75.5227C15.4675 74.4454 15.7182 73.6187 16.2195 73.0427C16.7208 72.4667 17.4408 72.1787 18.3795 72.1787L22.5555 72.1787L22.5555 71.2987L23.9795 71.2987L23.9795 72.2747ZM22.8435 75.7947C22.8435 75.2507 22.7262 74.8027 22.4915 74.4507C22.2462 74.0987 21.9208 73.9227 21.5155 73.9227L20.3155 73.9227L20.3155 75.3947C20.3155 76.6 20.6888 77.2027 21.4355 77.2027L21.7235 77.2027C22.0968 77.2027 22.3795 77.08 22.5715 76.8347C22.7528 76.5787 22.8435 76.232 22.8435 75.7947ZM12.1395 68.7894L12.1395 67.0454L17.0355 67.0454L17.0355 66.9654C16.5342 66.7841 16.1502 66.4908 15.8835 66.0854C15.6062 65.6694 15.4675 65.1841 15.4675 64.6294C15.4675 63.5734 15.8515 62.7574 16.6195 62.1814C17.3768 61.6054 18.4435 61.3174 19.8195 61.3174C21.1955 61.3174 22.2675 61.6054 23.0355 62.1814C23.7928 62.7574 24.1715 63.5734 24.1715 64.6294C24.1715 65.1841 24.0328 65.6694 23.7555 66.0854C23.4782 66.4908 23.0942 66.7841 22.6035 66.9654L22.6035 67.0454L23.9795 67.0454L23.9795 68.7894L12.1395 68.7894ZM22.6675 65.1574C22.6675 64.5494 22.4755 64.0641 22.0915 63.7014C21.6968 63.3388 21.1795 63.1574 20.5395 63.1574L19.0995 63.1574C18.4595 63.1574 17.9475 63.3388 17.5635 63.7014C17.1688 64.0641 16.9715 64.5494 16.9715 65.1574C16.9715 65.6908 17.1048 66.1388 17.3715 66.5014C17.6275 66.8641 17.9688 67.0454 18.3955 67.0454L21.2435 67.0454C21.6702 67.0454 22.0168 66.8641 22.2835 66.5014C22.5395 66.1388 22.6675 65.6908 22.6675 65.1574ZM23.9795 56.7447C23.9795 57.342 23.8302 57.79 23.5315 58.0887C23.2222 58.3767 22.7955 58.5207 22.2515 58.5207L12.1395 58.5207L12.1395 56.7767L22.5555 56.7767L22.5555 55.6247L23.9795 55.6247L23.9795 56.7447ZM24.1715 49.8942C24.1715 50.4915 24.0702 51.0249 23.8675 51.4942C23.6648 51.9635 23.3768 52.3635 23.0035 52.6942C22.6195 53.0249 22.1608 53.2809 21.6275 53.4622C21.0835 53.6329 20.4808 53.7182 19.8195 53.7182C19.1582 53.7182 18.5608 53.6329 18.0275 53.4622C17.4835 53.2809 17.0248 53.0249 16.6515 52.6942C16.2675 52.3635 15.9742 51.9635 15.7715 51.4942C15.5688 51.0249 15.4675 50.4915 15.4675 49.8942C15.4675 49.2862 15.5742 48.7529 15.7875 48.2942C16.0008 47.8249 16.2995 47.4355 16.6835 47.1262C17.0568 46.8169 17.4942 46.5875 17.9955 46.4382C18.4968 46.2782 19.0355 46.1982 19.6115 46.1982L20.2675 46.1982L20.2675 51.9102L20.5395 51.9102C21.1795 51.9102 21.7075 51.7235 22.1235 51.3502C22.5288 50.9662 22.7315 50.4222 22.7315 49.7182C22.7315 49.2062 22.6195 48.7742 22.3955 48.4222C22.1715 48.0702 21.8675 47.7715 21.4835 47.5262L22.4915 46.5022C23.0035 46.8115 23.4142 47.2595 23.7235 47.8462C24.0222 48.4329 24.1715 49.1155 24.1715 49.8942ZM16.8275 49.8942C16.8275 50.1929 16.8808 50.4702 16.9875 50.7262C17.0942 50.9715 17.2435 51.1849 17.4355 51.3662C17.6275 51.5369 17.8568 51.6702 18.1235 51.7662C18.3902 51.8622 18.6835 51.9102 19.0035 51.9102L19.1155 51.9102L19.1155 48.0382L18.9555 48.0382C18.3155 48.0382 17.8035 48.2035 17.4195 48.5342C17.0248 48.8649 16.8275 49.3182 16.8275 49.8942Z" fill="white"/>
<defs>
<linearGradient id="paint0_linear_5881_30870" x1="23.9615" y1="-8.04598" x2="23.9615" y2="200" gradientUnits="userSpaceOnUse">
<stop stop-color="#03AC84"/>
<stop offset="0.476666" stop-color="#03AC84" stop-opacity="0.76"/>
<stop offset="1" stop-color="#03AC84" stop-opacity="0"/>
</linearGradient>
</defs>
</svg>
