<svg width="331" height="46" viewBox="0 0 331 46" fill="none" xmlns="http://www.w3.org/2000/svg">
    <path fill-rule="evenodd" clip-rule="evenodd" d="M10 0C4.47715 0 0 4.47715 0 10V46C0 40.4772 4.47715 36 10 36H331V0H10Z" fill="url(#paint0_linear_793_4222)"/>
    <path d="M111.392 11L110.267 14.0385L107.229 15.163L110.267 16.2875L111.392 19.326L112.516 16.2875L115.555 15.163L112.516 14.0385L111.392 11Z" fill="white"/>
    <path d="M105.977 17.8281L105.189 19.9551L103.062 20.7422L105.189 21.5293L105.977 23.6563L106.764 21.5293L108.891 20.7422L106.764 19.9551L105.977 17.8281Z" fill="white"/>
    <path d="M113.055 22.332L112.65 23.4269L111.555 23.832L112.65 24.2372L113.055 25.332L113.46 24.2372L114.555 23.832L113.46 23.4269L113.055 22.332Z" fill="white"/>
    <path d="M19.384 18.704L18.52 16.964H18.484V23H16.984V14.624H18.724L21.244 18.92L22.108 20.66H22.144V14.624H23.644V23H21.904L19.384 18.704ZM26.209 23V14.624H31.729V16.028H27.793V18.056H31.273V19.46H27.793V21.596H31.729V23H26.209ZM35.2763 23L33.3323 14.624H34.9163L35.7443 18.644L36.2603 21.212H36.2963L36.8963 18.644L37.8563 14.624H39.6083L40.5683 18.644L41.1563 21.212H41.1923L41.7203 18.644L42.5723 14.624H44.0843L42.0803 23H40.2923L39.2243 18.572L38.7083 16.364H38.6843L38.1443 18.572L37.0763 23H35.2763ZM52.0349 23.144C51.3149 23.144 50.7029 23.016 50.1989 22.76C49.7029 22.504 49.2749 22.168 48.9149 21.752L49.9829 20.72C50.2709 21.056 50.5909 21.312 50.9429 21.488C51.3029 21.664 51.6989 21.752 52.1309 21.752C52.6189 21.752 52.9869 21.648 53.2349 21.44C53.4829 21.224 53.6069 20.936 53.6069 20.576C53.6069 20.296 53.5269 20.068 53.3669 19.892C53.2069 19.716 52.9069 19.588 52.4669 19.508L51.6749 19.388C50.0029 19.124 49.1669 18.312 49.1669 16.952C49.1669 16.576 49.2349 16.236 49.3709 15.932C49.5149 15.628 49.7189 15.368 49.9829 15.152C50.2469 14.936 50.5629 14.772 50.9309 14.66C51.3069 14.54 51.7309 14.48 52.2029 14.48C52.8349 14.48 53.3869 14.584 53.8589 14.792C54.3309 15 54.7349 15.308 55.0709 15.716L53.9909 16.736C53.7829 16.48 53.5309 16.272 53.2349 16.112C52.9389 15.952 52.5669 15.872 52.1189 15.872C51.6629 15.872 51.3189 15.96 51.0869 16.136C50.8629 16.304 50.7509 16.544 50.7509 16.856C50.7509 17.176 50.8429 17.412 51.0269 17.564C51.2109 17.716 51.5069 17.828 51.9149 17.9L52.6949 18.044C53.5429 18.196 54.1669 18.468 54.5669 18.86C54.9749 19.244 55.1789 19.784 55.1789 20.48C55.1789 20.88 55.1069 21.244 54.9629 21.572C54.8269 21.892 54.6229 22.172 54.3509 22.412C54.0869 22.644 53.7589 22.824 53.3669 22.952C52.9829 23.08 52.5389 23.144 52.0349 23.144ZM57.3668 23V14.624H62.8868V16.028H58.9508V18.056H62.4308V19.46H58.9508V21.596H62.8868V23H57.3668ZM70.3461 23L69.6741 20.864H66.6981L66.0381 23H64.4301L67.2381 14.624H69.2061L71.9901 23H70.3461ZM68.2101 16.064H68.1501L67.0821 19.508H69.2901L68.2101 16.064ZM76.4286 23.144C75.7086 23.144 75.0966 23.016 74.5926 22.76C74.0966 22.504 73.6686 22.168 73.3086 21.752L74.3766 20.72C74.6646 21.056 74.9846 21.312 75.3366 21.488C75.6966 21.664 76.0926 21.752 76.5246 21.752C77.0126 21.752 77.3806 21.648 77.6286 21.44C77.8766 21.224 78.0006 20.936 78.0006 20.576C78.0006 20.296 77.9206 20.068 77.7606 19.892C77.6006 19.716 77.3006 19.588 76.8606 19.508L76.0686 19.388C74.3966 19.124 73.5606 18.312 73.5606 16.952C73.5606 16.576 73.6286 16.236 73.7646 15.932C73.9086 15.628 74.1126 15.368 74.3766 15.152C74.6406 14.936 74.9566 14.772 75.3246 14.66C75.7006 14.54 76.1246 14.48 76.5966 14.48C77.2286 14.48 77.7806 14.584 78.2526 14.792C78.7246 15 79.1286 15.308 79.4646 15.716L78.3846 16.736C78.1766 16.48 77.9246 16.272 77.6286 16.112C77.3326 15.952 76.9606 15.872 76.5126 15.872C76.0566 15.872 75.7126 15.96 75.4806 16.136C75.2566 16.304 75.1446 16.544 75.1446 16.856C75.1446 17.176 75.2366 17.412 75.4206 17.564C75.6046 17.716 75.9006 17.828 76.3086 17.9L77.0886 18.044C77.9366 18.196 78.5606 18.468 78.9606 18.86C79.3686 19.244 79.5726 19.784 79.5726 20.48C79.5726 20.88 79.5006 21.244 79.3566 21.572C79.2206 21.892 79.0166 22.172 78.7446 22.412C78.4806 22.644 78.1526 22.824 77.7606 22.952C77.3766 23.08 76.9326 23.144 76.4286 23.144ZM85.0486 23.144C84.4966 23.144 83.9966 23.052 83.5486 22.868C83.1006 22.684 82.7166 22.408 82.3966 22.04C82.0846 21.672 81.8406 21.22 81.6646 20.684C81.4886 20.148 81.4006 19.524 81.4006 18.812C81.4006 18.108 81.4886 17.488 81.6646 16.952C81.8406 16.408 82.0846 15.952 82.3966 15.584C82.7166 15.216 83.1006 14.94 83.5486 14.756C83.9966 14.572 84.4966 14.48 85.0486 14.48C85.6006 14.48 86.1006 14.572 86.5486 14.756C86.9966 14.94 87.3806 15.216 87.7006 15.584C88.0206 15.952 88.2646 16.408 88.4326 16.952C88.6086 17.488 88.6966 18.108 88.6966 18.812C88.6966 19.524 88.6086 20.148 88.4326 20.684C88.2646 21.22 88.0206 21.672 87.7006 22.04C87.3806 22.408 86.9966 22.684 86.5486 22.868C86.1006 23.052 85.6006 23.144 85.0486 23.144ZM85.0486 21.74C85.6486 21.74 86.1246 21.54 86.4766 21.14C86.8366 20.74 87.0166 20.18 87.0166 19.46V18.164C87.0166 17.444 86.8366 16.884 86.4766 16.484C86.1246 16.084 85.6486 15.884 85.0486 15.884C84.4486 15.884 83.9686 16.084 83.6086 16.484C83.2566 16.884 83.0806 17.444 83.0806 18.164V19.46C83.0806 20.18 83.2566 20.74 83.6086 21.14C83.9686 21.54 84.4486 21.74 85.0486 21.74ZM93.3035 18.704L92.4395 16.964H92.4035V23H90.9035V14.624H92.6435L95.1635 18.92L96.0275 20.66H96.0635V14.624H97.5635V23H95.8235L93.3035 18.704Z" fill="white"/>
    <defs>
        <linearGradient id="paint0_linear_793_4222" x1="-13.3161" y1="29.0526" x2="331" y2="29.0526" gradientUnits="userSpaceOnUse">
            <stop stop-color="#F4B224"/>
            <stop offset="0.43235" stop-color="#F4B224" stop-opacity="0.85"/>
            <stop offset="1" stop-color="#F4B224" stop-opacity="0"/>
        </linearGradient>
    </defs>
</svg>
