<svg width="32" height="151" viewBox="0 0 32 151" fill="none" xmlns="http://www.w3.org/2000/svg">
<g filter="url(#filter0_b_5881_30867)">
<path d="M-5.55135e-06 24L-1.6379e-08 150.625C-7.33313e-09 150.832 0.167763 151 0.374708 151C0.572801 151 0.736671 150.846 0.748722 150.648L0.804566 149.732L0.804566 149.732C0.832984 149.266 0.847193 149.033 0.869201 148.819C1.25898 145.034 3.70578 141.774 7.23055 140.343C7.42957 140.262 7.64944 140.183 8.08919 140.026L25.1833 133.902C28.4777 132.721 30.1249 132.131 31.0625 130.8C32 129.468 32 127.718 32 124.219L32 -1.39876e-06L24 -1.04907e-06C12.6863 -5.54535e-07 7.02943 -3.07266e-07 3.51471 3.51472C-6.29315e-06 7.02943 -6.04588e-06 12.6863 -5.55135e-06 24Z" fill="url(#paint0_linear_5881_30867)"/>
</g>
<path d="M10.5498 105.425L10.5498 100.257C10.5498 99.798 10.6191 99.3873 10.7578 99.0246C10.8964 98.6513 11.0884 98.3366 11.3338 98.0806C11.5791 97.8246 11.8831 97.6326 12.2458 97.5046C12.5978 97.366 12.9871 97.2966 13.4138 97.2966C13.8404 97.2966 14.2031 97.3553 14.5018 97.4726C14.7898 97.5793 15.0298 97.7286 15.2218 97.9206C15.4138 98.102 15.5578 98.3153 15.6538 98.5606C15.7498 98.7953 15.8031 99.0406 15.8138 99.2966L15.9098 99.2966C15.9098 99.0513 15.9578 98.79 16.0538 98.5126C16.1498 98.2246 16.3044 97.9633 16.5178 97.7286C16.7204 97.4833 16.9871 97.2806 17.3178 97.1206C17.6378 96.9606 18.0378 96.8806 18.5178 96.8806C18.9658 96.8806 19.3871 96.9553 19.7818 97.1046C20.1658 97.2433 20.5018 97.4406 20.7898 97.6966C21.0778 97.9526 21.3071 98.2566 21.4778 98.6086C21.6378 98.9606 21.7178 99.3446 21.7178 99.7606L21.7178 105.425L10.5498 105.425ZM19.9258 103.313L19.9258 100.369C19.9258 99.9633 19.8244 99.6486 19.6218 99.4246C19.4084 99.2006 19.1044 99.0886 18.7098 99.0886L18.1658 99.0886C17.7711 99.0886 17.4671 99.2006 17.2538 99.4246C17.0404 99.6486 16.9338 99.9633 16.9338 100.369L16.9338 103.313L19.9258 103.313ZM15.2058 103.313L15.2058 100.705C15.2058 100.321 15.1044 100.022 14.9018 99.8086C14.6884 99.5953 14.3951 99.4886 14.0218 99.4886L13.5258 99.4886C13.1524 99.4886 12.8644 99.5953 12.6618 99.8086C12.4484 100.022 12.3418 100.321 12.3418 100.705L12.3418 103.313L15.2058 103.313ZM21.9098 90.7672C21.9098 91.3859 21.8084 91.9406 21.6058 92.4312C21.3924 92.9112 21.0991 93.3219 20.7258 93.6632C20.3418 93.9939 19.8831 94.2499 19.3498 94.4312C18.8058 94.6126 18.1978 94.7032 17.5258 94.7032C16.8644 94.7032 16.2671 94.6179 15.7338 94.4472C15.2004 94.2659 14.7471 94.0099 14.3738 93.6792C13.9898 93.3486 13.6964 92.9432 13.4938 92.4632C13.2804 91.9832 13.1738 91.4392 13.1738 90.8312C13.1738 90.1806 13.2858 89.6152 13.5098 89.1352C13.7338 88.6552 14.0378 88.2606 14.4218 87.9512C14.8058 87.6419 15.2538 87.4126 15.7658 87.2632C16.2671 87.1032 16.8058 87.0232 17.3818 87.0232L18.0538 87.0232L18.0538 92.5752L18.2618 92.5752C18.8698 92.5752 19.3604 92.4046 19.7338 92.0632C20.0964 91.7219 20.2778 91.2152 20.2778 90.5432C20.2778 90.0312 20.1711 89.6152 19.9578 89.2952C19.7444 88.9646 19.4724 88.6712 19.1418 88.4152L20.3738 87.3112C20.8538 87.6526 21.2324 88.1219 21.5098 88.7192C21.7764 89.3059 21.9098 89.9886 21.9098 90.7672ZM14.7098 90.7992C14.7098 91.3432 14.8911 91.7752 15.2538 92.0952C15.6164 92.4152 16.0858 92.5752 16.6618 92.5752L16.7898 92.5752L16.7898 89.1512L16.6458 89.1512C16.0698 89.1512 15.6058 89.2952 15.2538 89.5832C14.8911 89.8606 14.7098 90.2659 14.7098 90.7992ZM21.9098 81.6854C21.9098 82.4854 21.7764 83.1574 21.5098 83.7014C21.2324 84.2454 20.8538 84.7254 20.3738 85.1414L19.1578 83.8934C19.5098 83.584 19.7871 83.248 19.9898 82.8854C20.1924 82.512 20.2938 82.0854 20.2938 81.6054C20.2938 81.1147 20.2084 80.7627 20.0378 80.5494C19.8671 80.3254 19.6324 80.2134 19.3338 80.2134C19.0884 80.2134 18.8964 80.2934 18.7578 80.4534C18.6084 80.6027 18.5071 80.864 18.4538 81.2374L18.3418 82.0694C18.2244 82.976 17.9684 83.6694 17.5738 84.1494C17.1684 84.6187 16.5818 84.8534 15.8138 84.8534C15.4084 84.8534 15.0458 84.7787 14.7258 84.6294C14.3951 84.48 14.1178 84.2667 13.8938 83.9894C13.6591 83.712 13.4831 83.3814 13.3658 82.9974C13.2378 82.6027 13.1738 82.1654 13.1738 81.6854C13.1738 81.28 13.2058 80.9227 13.2698 80.6134C13.3231 80.2934 13.4084 80.0054 13.5258 79.7494C13.6324 79.4934 13.7711 79.2587 13.9418 79.0454C14.1018 78.832 14.2831 78.624 14.4858 78.4214L15.6858 79.6214C15.4298 79.8667 15.2164 80.16 15.0458 80.5014C14.8751 80.8427 14.7898 81.216 14.7898 81.6214C14.7898 82.0694 14.8698 82.3947 15.0298 82.5974C15.1898 82.7894 15.3978 82.8854 15.6538 82.8854C15.9311 82.8854 16.1444 82.8054 16.2938 82.6454C16.4324 82.4747 16.5338 82.192 16.5978 81.7974L16.7098 80.9494C16.9658 79.1467 17.7871 78.2454 19.1738 78.2454C19.5791 78.2454 19.9524 78.3307 20.2938 78.5014C20.6244 78.6614 20.9124 78.8907 21.1578 79.1894C21.3924 79.488 21.5791 79.8507 21.7178 80.2774C21.8458 80.6934 21.9098 81.1627 21.9098 81.6854ZM21.7178 73.154C21.7178 73.858 21.5364 74.3967 21.1738 74.77C20.8004 75.1327 20.2724 75.314 19.5898 75.314L14.9978 75.314L14.9978 76.546L13.3658 76.546L13.3658 75.906C13.3658 75.5967 13.2964 75.3887 13.1578 75.282C13.0084 75.1647 12.7898 75.106 12.5018 75.106L11.0778 75.106L11.0778 73.266L13.3658 73.266L13.3658 71.554L14.9978 71.554L14.9978 73.266L20.0858 73.266L20.0858 71.682L21.7178 71.682L21.7178 73.154ZM21.9098 66.2416C21.9098 67.0416 21.7764 67.7136 21.5098 68.2576C21.2324 68.8016 20.8538 69.2816 20.3738 69.6976L19.1578 68.4496C19.5098 68.1403 19.7871 67.8043 19.9898 67.4416C20.1924 67.0683 20.2938 66.6416 20.2938 66.1616C20.2938 65.6709 20.2084 65.3189 20.0378 65.1056C19.8671 64.8816 19.6324 64.7696 19.3338 64.7696C19.0884 64.7696 18.8964 64.8496 18.7578 65.0096C18.6084 65.1589 18.5071 65.4203 18.4538 65.7936L18.3418 66.6256C18.2244 67.5323 17.9684 68.2256 17.5738 68.7056C17.1684 69.175 16.5818 69.4096 15.8138 69.4096C15.4084 69.4096 15.0458 69.335 14.7258 69.1856C14.3951 69.0363 14.1178 68.823 13.8938 68.5456C13.6591 68.2683 13.4831 67.9376 13.3658 67.5536C13.2378 67.159 13.1738 66.7216 13.1738 66.2416C13.1738 65.8363 13.2058 65.4789 13.2698 65.1696C13.3231 64.8496 13.4084 64.5616 13.5258 64.3056C13.6324 64.0496 13.7711 63.8149 13.9418 63.6016C14.1018 63.3883 14.2831 63.1803 14.4858 62.9776L15.6858 64.1776C15.4298 64.4229 15.2164 64.7163 15.0458 65.0576C14.8751 65.399 14.7898 65.7723 14.7898 66.1776C14.7898 66.6256 14.8698 66.9509 15.0298 67.1536C15.1898 67.3456 15.3978 67.4416 15.6538 67.4416C15.9311 67.4416 16.1444 67.3616 16.2938 67.2016C16.4324 67.031 16.5338 66.7483 16.5978 66.3536L16.7098 65.5056C16.9658 63.7029 17.7871 62.8016 19.1738 62.8016C19.5791 62.8016 19.9524 62.8869 20.2938 63.0576C20.6244 63.2176 20.9124 63.4469 21.1578 63.7456C21.3924 64.0443 21.5791 64.4069 21.7178 64.8336C21.8458 65.2496 21.9098 65.7189 21.9098 66.2416ZM21.9098 56.8172C21.9098 57.4359 21.8084 57.9906 21.6058 58.4812C21.3924 58.9612 21.0991 59.3719 20.7258 59.7132C20.3418 60.0439 19.8831 60.2999 19.3498 60.4812C18.8058 60.6626 18.1978 60.7532 17.5258 60.7532C16.8644 60.7532 16.2671 60.6679 15.7338 60.4972C15.2004 60.3159 14.7471 60.0599 14.3738 59.7292C13.9898 59.3986 13.6964 58.9932 13.4938 58.5132C13.2804 58.0332 13.1738 57.4892 13.1738 56.8812C13.1738 56.2306 13.2858 55.6652 13.5098 55.1852C13.7338 54.7052 14.0378 54.3106 14.4218 54.0012C14.8058 53.6919 15.2538 53.4626 15.7658 53.3132C16.2671 53.1532 16.8058 53.0732 17.3818 53.0732L18.0538 53.0732L18.0538 58.6252L18.2618 58.6252C18.8698 58.6252 19.3604 58.4546 19.7338 58.1132C20.0964 57.7719 20.2778 57.2652 20.2778 56.5932C20.2778 56.0812 20.1711 55.6652 19.9578 55.3452C19.7444 55.0146 19.4724 54.7212 19.1418 54.4652L20.3738 53.3612C20.8538 53.7026 21.2324 54.1719 21.5098 54.7692C21.7764 55.3559 21.9098 56.0386 21.9098 56.8172ZM14.7098 56.8492C14.7098 57.3932 14.8911 57.8252 15.2538 58.1452C15.6164 58.4652 16.0858 58.6252 16.6618 58.6252L16.7898 58.6252L16.7898 55.2012L16.6458 55.2012C16.0698 55.2012 15.6058 55.3452 15.2538 55.6332C14.8911 55.9106 14.7098 56.3159 14.7098 56.8492ZM21.7178 48.4234C21.7178 49.1274 21.5418 49.6447 21.1898 49.9754C20.8378 50.306 20.3418 50.4714 19.7018 50.4714L9.87777 50.4714L9.87777 48.4234L20.0858 48.4234L20.0858 47.3194L21.7178 47.3194L21.7178 48.4234ZM21.7178 43.0296C21.7178 43.7336 21.5418 44.251 21.1898 44.5816C20.8378 44.9123 20.3418 45.0776 19.7018 45.0776L9.87777 45.0776L9.87777 43.0296L20.0858 43.0296L20.0858 41.9256L21.7178 41.9256L21.7178 43.0296ZM21.9098 36.1985C21.9098 36.8172 21.8084 37.3718 21.6058 37.8625C21.3924 38.3425 21.0991 38.7532 20.7258 39.0945C20.3418 39.4252 19.8831 39.6812 19.3498 39.8625C18.8058 40.0438 18.1978 40.1345 17.5258 40.1345C16.8644 40.1345 16.2671 40.0492 15.7338 39.8785C15.2004 39.6972 14.7471 39.4412 14.3738 39.1105C13.9898 38.7798 13.6964 38.3745 13.4938 37.8945C13.2804 37.4145 13.1738 36.8705 13.1738 36.2625C13.1738 35.6118 13.2858 35.0465 13.5098 34.5665C13.7338 34.0865 14.0378 33.6918 14.4218 33.3825C14.8058 33.0732 15.2538 32.8438 15.7658 32.6945C16.2671 32.5345 16.8058 32.4545 17.3818 32.4545L18.0538 32.4545L18.0538 38.0065L18.2618 38.0065C18.8698 38.0065 19.3604 37.8358 19.7338 37.4945C20.0964 37.1532 20.2778 36.6465 20.2778 35.9745C20.2778 35.4625 20.1711 35.0465 19.9578 34.7265C19.7444 34.3958 19.4724 34.1025 19.1418 33.8465L20.3738 32.7425C20.8538 33.0838 21.2324 33.5532 21.5098 34.1505C21.7764 34.7372 21.9098 35.4198 21.9098 36.1985ZM14.7098 36.2305C14.7098 36.7745 14.8911 37.2065 15.2538 37.5265C15.6164 37.8465 16.0858 38.0065 16.6618 38.0065L16.7898 38.0065L16.7898 34.5825L16.6458 34.5825C16.0698 34.5825 15.6058 34.7265 15.2538 35.0145C14.8911 35.2918 14.7098 35.6972 14.7098 36.2305ZM21.7178 29.8526L13.3658 29.8526L13.3658 27.8046L15.0938 27.8046L15.0938 27.7246C14.8698 27.6713 14.6564 27.5913 14.4538 27.4846C14.2404 27.3673 14.0538 27.218 13.8938 27.0366C13.7338 26.8553 13.6058 26.642 13.5098 26.3966C13.4138 26.1406 13.3658 25.8473 13.3658 25.5166L13.3658 25.0686L15.3018 25.0686L15.3018 25.7086C15.3018 26.402 15.4031 26.9246 15.6058 27.2766C15.8084 27.6286 16.1391 27.8046 16.5978 27.8046L21.7178 27.8046L21.7178 29.8526Z" fill="white"/>
<defs>
<filter id="filter0_b_5881_30867" x="-7.71429" y="-7.71429" width="47.4286" height="166.429" filterUnits="userSpaceOnUse" color-interpolation-filters="sRGB">
<feFlood flood-opacity="0" result="BackgroundImageFix"/>
<feGaussianBlur in="BackgroundImage" stdDeviation="3.85714"/>
<feComposite in2="SourceAlpha" operator="in" result="effect1_backgroundBlur_5881_30867"/>
<feBlend mode="normal" in="SourceGraphic" in2="effect1_backgroundBlur_5881_30867" result="shape"/>
</filter>
<linearGradient id="paint0_linear_5881_30867" x1="-6.54534" y1="123.663" x2="33.2086" y2="-22.5473" gradientUnits="userSpaceOnUse">
<stop stop-color="#F29EB6"/>
<stop offset="1" stop-color="#E6116D"/>
</linearGradient>
</defs>
</svg>
