<svg width="22" height="96" viewBox="0 0 22 96" fill="none" xmlns="http://www.w3.org/2000/svg">
<g filter="url(#filter0_b_5870_27845)">
<path d="M0 2L0 95.74C0 95.8836 0.116384 96 0.259951 96C0.395506 96 0.508306 95.8958 0.51908 95.7607L0.549573 95.3783C0.734157 93.0634 2.34948 91.1123 4.58926 90.499L18.2155 86.7675C20.4504 86.1554 22 84.1244 22 81.8072L22 0H2C0.895431 0 0 0.895432 0 2Z" fill="url(#paint0_linear_5870_27845)"/>
</g>
<path d="M6.822 70.8253V67.4263C6.822 66.7883 7.00167 66.2896 7.361 65.9303C7.72033 65.5636 8.20067 65.3803 8.802 65.3803C9.088 65.3803 9.33367 65.4206 9.539 65.5013C9.737 65.582 9.902 65.6846 10.034 65.8093C10.1587 65.934 10.254 66.077 10.32 66.2383C10.3787 66.3996 10.4153 66.5573 10.43 66.7113H10.496C10.5033 66.5573 10.54 66.3886 10.606 66.2053C10.672 66.0146 10.7783 65.8386 10.925 65.6773C11.0643 65.516 11.2477 65.3803 11.475 65.2703C11.695 65.1603 11.9663 65.1053 12.289 65.1053C12.597 65.1053 12.8867 65.1566 13.158 65.2593C13.4293 65.3546 13.664 65.4903 13.862 65.6663C14.06 65.8423 14.2177 66.0513 14.335 66.2933C14.445 66.5353 14.5 66.7993 14.5 67.0853V70.8253H6.822ZM13.433 69.5823V67.4483C13.433 67.1256 13.3487 66.8726 13.18 66.6893C13.0113 66.506 12.7693 66.4143 12.454 66.4143H12.08C11.7647 66.4143 11.5227 66.506 11.354 66.6893C11.1853 66.8726 11.101 67.1256 11.101 67.4483V69.5823H13.433ZM10.067 69.5823V67.6573C10.067 67.3493 9.99 67.111 9.836 66.9423C9.67467 66.7736 9.44733 66.6893 9.154 66.6893H8.802C8.50867 66.6893 8.285 66.7736 8.131 66.9423C7.96967 67.111 7.889 67.3493 7.889 67.6573V69.5823H10.067ZM14.632 60.8683C14.632 61.279 14.5623 61.6456 14.423 61.9683C14.2837 62.291 14.0857 62.566 13.829 62.7933C13.565 63.0206 13.2497 63.1966 12.883 63.3213C12.509 63.4386 12.0947 63.4973 11.64 63.4973C11.1853 63.4973 10.7747 63.4386 10.408 63.3213C10.034 63.1966 9.71867 63.0206 9.462 62.7933C9.198 62.566 8.99633 62.291 8.857 61.9683C8.71767 61.6456 8.648 61.279 8.648 60.8683C8.648 60.4503 8.72133 60.0836 8.868 59.7683C9.01467 59.4456 9.22 59.178 9.484 58.9653C9.74067 58.7526 10.0413 58.595 10.386 58.4923C10.7307 58.3823 11.101 58.3273 11.497 58.3273H11.948V62.2543H12.135C12.575 62.2543 12.938 62.126 13.224 61.8693C13.5027 61.6053 13.642 61.2313 13.642 60.7473C13.642 60.3953 13.565 60.0983 13.411 59.8563C13.257 59.6143 13.048 59.409 12.784 59.2403L13.477 58.5363C13.829 58.749 14.1113 59.057 14.324 59.4603C14.5293 59.8636 14.632 60.333 14.632 60.8683ZM9.583 60.8683C9.583 61.0736 9.61967 61.2643 9.693 61.4403C9.76633 61.609 9.869 61.7556 10.001 61.8803C10.133 61.9976 10.2907 62.0893 10.474 62.1553C10.6573 62.2213 10.859 62.2543 11.079 62.2543H11.156V59.5923H11.046C10.606 59.5923 10.254 59.706 9.99 59.9333C9.71867 60.1606 9.583 60.4723 9.583 60.8683ZM14.632 54.635C14.632 55.1777 14.5367 55.6323 14.346 55.999C14.1553 56.3657 13.8913 56.6847 13.554 56.956L12.85 56.186C13.1067 55.9733 13.3083 55.7387 13.455 55.482C13.5943 55.218 13.664 54.9137 13.664 54.569C13.664 54.217 13.598 53.9567 13.466 53.788C13.3267 53.612 13.136 53.524 12.894 53.524C12.7107 53.524 12.5567 53.5863 12.432 53.711C12.3 53.8283 12.2157 54.0373 12.179 54.338L12.113 54.866C12.0397 55.4527 11.871 55.9147 11.607 56.252C11.3357 56.582 10.936 56.747 10.408 56.747C10.1293 56.747 9.88367 56.6957 9.671 56.593C9.451 56.4903 9.26767 56.3473 9.121 56.164C8.967 55.9733 8.84967 55.7497 8.769 55.493C8.68833 55.229 8.648 54.9393 8.648 54.624C8.648 54.1107 8.72867 53.6927 8.89 53.37C9.05133 53.04 9.275 52.7467 9.561 52.49L10.265 53.227C10.089 53.3737 9.93867 53.568 9.814 53.81C9.682 54.0447 9.616 54.316 9.616 54.624C9.616 54.954 9.682 55.1997 9.814 55.361C9.946 55.515 10.1183 55.592 10.331 55.592C10.551 55.592 10.716 55.5223 10.826 55.383C10.936 55.2437 11.0167 55.02 11.068 54.712L11.134 54.184C11.2293 53.5533 11.4163 53.095 11.695 52.809C11.9663 52.5157 12.333 52.369 12.795 52.369C13.0737 52.369 13.3267 52.424 13.554 52.534C13.774 52.6367 13.9647 52.787 14.126 52.985C14.2873 53.183 14.412 53.4213 14.5 53.7C14.588 53.9787 14.632 54.2903 14.632 54.635ZM14.5 48.9557C14.5 49.3737 14.3937 49.689 14.181 49.9017C13.961 50.1143 13.653 50.2207 13.257 50.2207H9.759L9.759 51.1117H8.78V50.6277C8.78 50.4297 8.736 50.294 8.648 50.2207C8.56 50.14 8.417 50.0997 8.219 50.0997H7.218V49.0217H8.78V47.8227H9.759V49.0217H13.521V47.9107H14.5V48.9557ZM14.632 44.1571C14.632 44.6997 14.5367 45.1544 14.346 45.5211C14.1553 45.8877 13.8913 46.2067 13.554 46.4781L12.85 45.7081C13.1067 45.4954 13.3083 45.2607 13.455 45.0041C13.5943 44.7401 13.664 44.4357 13.664 44.0911C13.664 43.7391 13.598 43.4787 13.466 43.3101C13.3267 43.1341 13.136 43.0461 12.894 43.0461C12.7107 43.0461 12.5567 43.1084 12.432 43.2331C12.3 43.3504 12.2157 43.5594 12.179 43.8601L12.113 44.3881C12.0397 44.9747 11.871 45.4367 11.607 45.7741C11.3357 46.1041 10.936 46.2691 10.408 46.2691C10.1293 46.2691 9.88367 46.2177 9.671 46.1151C9.451 46.0124 9.26767 45.8694 9.121 45.6861C8.967 45.4954 8.84967 45.2717 8.769 45.0151C8.68833 44.7511 8.648 44.4614 8.648 44.1461C8.648 43.6327 8.72867 43.2147 8.89 42.8921C9.05133 42.5621 9.275 42.2687 9.561 42.0121L10.265 42.7491C10.089 42.8957 9.93867 43.0901 9.814 43.3321C9.682 43.5667 9.616 43.8381 9.616 44.1461C9.616 44.4761 9.682 44.7217 9.814 44.8831C9.946 45.0371 10.1183 45.1141 10.331 45.1141C10.551 45.1141 10.716 45.0444 10.826 44.9051C10.936 44.7657 11.0167 44.5421 11.068 44.2341L11.134 43.7061C11.2293 43.0754 11.4163 42.6171 11.695 42.3311C11.9663 42.0377 12.333 41.8911 12.795 41.8911C13.0737 41.8911 13.3267 41.9461 13.554 42.0561C13.774 42.1587 13.9647 42.3091 14.126 42.5071C14.2873 42.7051 14.412 42.9434 14.5 43.2221C14.588 43.5007 14.632 43.8124 14.632 44.1571ZM14.632 37.7425C14.632 38.1532 14.5623 38.5199 14.423 38.8425C14.2837 39.1652 14.0857 39.4402 13.829 39.6675C13.565 39.8949 13.2497 40.0709 12.883 40.1955C12.509 40.3129 12.0947 40.3715 11.64 40.3715C11.1853 40.3715 10.7747 40.3129 10.408 40.1955C10.034 40.0709 9.71867 39.8949 9.462 39.6675C9.198 39.4402 8.99633 39.1652 8.857 38.8425C8.71767 38.5199 8.648 38.1532 8.648 37.7425C8.648 37.3245 8.72133 36.9579 8.868 36.6425C9.01467 36.3199 9.22 36.0522 9.484 35.8395C9.74067 35.6269 10.0413 35.4692 10.386 35.3665C10.7307 35.2565 11.101 35.2015 11.497 35.2015H11.948V39.1285H12.135C12.575 39.1285 12.938 39.0002 13.224 38.7435C13.5027 38.4795 13.642 38.1055 13.642 37.6215C13.642 37.2695 13.565 36.9725 13.411 36.7305C13.257 36.4885 13.048 36.2832 12.784 36.1145L13.477 35.4105C13.829 35.6232 14.1113 35.9312 14.324 36.3345C14.5293 36.7379 14.632 37.2072 14.632 37.7425ZM9.583 37.7425C9.583 37.9479 9.61967 38.1385 9.693 38.3145C9.76633 38.4832 9.869 38.6299 10.001 38.7545C10.133 38.8719 10.2907 38.9635 10.474 39.0295C10.6573 39.0955 10.859 39.1285 11.079 39.1285H11.156V36.4665H11.046C10.606 36.4665 10.254 36.5802 9.99 36.8075C9.71867 37.0349 9.583 37.3465 9.583 37.7425ZM14.5 32.1032C14.5 32.5139 14.3973 32.8219 14.192 33.0272C13.9793 33.2252 13.686 33.3242 13.312 33.3242H6.36V32.1252H13.521V31.3332H14.5V32.1032ZM14.5 28.481C14.5 28.8916 14.3973 29.1996 14.192 29.405C13.9793 29.603 13.686 29.702 13.312 29.702H6.36V28.503H13.521L13.521 27.711H14.5V28.481ZM14.632 23.7712C14.632 24.1819 14.5623 24.5486 14.423 24.8712C14.2837 25.1939 14.0857 25.4689 13.829 25.6962C13.565 25.9236 13.2497 26.0996 12.883 26.2242C12.509 26.3416 12.0947 26.4002 11.64 26.4002C11.1853 26.4002 10.7747 26.3416 10.408 26.2242C10.034 26.0996 9.71867 25.9236 9.462 25.6962C9.198 25.4689 8.99633 25.1939 8.857 24.8712C8.71767 24.5486 8.648 24.1819 8.648 23.7712C8.648 23.3532 8.72133 22.9866 8.868 22.6712C9.01467 22.3486 9.22 22.0809 9.484 21.8682C9.74067 21.6556 10.0413 21.4979 10.386 21.3952C10.7307 21.2852 11.101 21.2302 11.497 21.2302H11.948V25.1572H12.135C12.575 25.1572 12.938 25.0289 13.224 24.7722C13.5027 24.5082 13.642 24.1342 13.642 23.6502C13.642 23.2982 13.565 23.0012 13.411 22.7592C13.257 22.5172 13.048 22.3119 12.784 22.1432L13.477 21.4392C13.829 21.6519 14.1113 21.9599 14.324 22.3632C14.5293 22.7666 14.632 23.2359 14.632 23.7712ZM9.583 23.7712C9.583 23.9766 9.61967 24.1672 9.693 24.3432C9.76633 24.5119 9.869 24.6586 10.001 24.7832C10.133 24.9006 10.2907 24.9922 10.474 25.0582C10.6573 25.1242 10.859 25.1572 11.079 25.1572H11.156V22.4952H11.046C10.606 22.4952 10.254 22.6089 9.99 22.8362C9.71867 23.0636 9.583 23.3752 9.583 23.7712ZM14.5 19.3529H8.78V18.1539H9.88V18.0989C9.58667 18.0183 9.33 17.8496 9.11 17.5929C8.89 17.3363 8.78 16.9806 8.78 16.5259V16.2069H9.935V16.6799C9.935 17.1566 10.012 17.5233 10.166 17.7799C10.32 18.0293 10.5473 18.1539 10.848 18.1539H14.5V19.3529Z" fill="white"/>
<defs>
<filter id="filter0_b_5870_27845" x="-7.71429" y="-7.71429" width="37.4286" height="111.429" filterUnits="userSpaceOnUse" color-interpolation-filters="sRGB">
<feFlood flood-opacity="0" result="BackgroundImageFix"/>
<feGaussianBlur in="BackgroundImage" stdDeviation="3.85714"/>
<feComposite in2="SourceAlpha" operator="in" result="effect1_backgroundBlur_5870_27845"/>
<feBlend mode="normal" in="SourceGraphic" in2="effect1_backgroundBlur_5870_27845" result="shape"/>
</filter>
<linearGradient id="paint0_linear_5870_27845" x1="-4.49987" y1="64.9875" x2="11.94" y2="-14.1127" gradientUnits="userSpaceOnUse">
<stop stop-color="#F29EB6"/>
<stop offset="1" stop-color="#E6116D"/>
</linearGradient>
</defs>
</svg>
