<svg width="174" height="38" viewBox="0 0 174 38" fill="none" xmlns="http://www.w3.org/2000/svg">
<path fill-rule="evenodd" clip-rule="evenodd" d="M10 0C4.47715 0 0 4.47715 0 10V38C0 32.4772 4.47715 28 10 28H174V0H10Z" fill="url(#paint0_linear_47_1461)"/>
<path d="M95.192 18.3122C95.192 18.3122 103.737 19.1567 103.498 9.01123C103.498 9.01123 94.2578 9.25736 95.192 18.3122L95.192 18.3122Z" stroke="white" stroke-linecap="round" stroke-linejoin="round"/>
<path d="M97.1385 18.2099C98.9847 19.5732 102.959 21.4773 106.487 16.2431C106.487 16.2431 104.678 14.6784 102.414 14.1521" stroke="white" stroke-linecap="round" stroke-linejoin="round"/>
<path d="M100.539 12.4966L95.1798 18.2941" stroke="white" stroke-linecap="round" stroke-linejoin="round"/>
<path d="M106.259 11.0268C105.963 11.0268 105.723 10.7869 105.723 10.491C105.723 10.195 105.963 9.95508 106.259 9.95508C106.555 9.95508 106.795 10.195 106.795 10.491C106.795 10.7869 106.555 11.0268 106.259 11.0268Z" fill="white"/>
<path d="M93.5308 17.4479C93.3202 17.4479 93.1495 17.2772 93.1495 17.0666C93.1495 16.856 93.3202 16.6853 93.5308 16.6853C93.7414 16.6853 93.9121 16.856 93.9121 17.0666C93.9121 17.2772 93.7414 17.4479 93.5308 17.4479Z" fill="white"/>
<path d="M15.245 18.132C14.5997 18.132 14.0497 18.0147 13.595 17.78C13.1477 17.5453 12.7627 17.23 12.44 16.834L13.298 16.031C13.5693 16.361 13.8663 16.6103 14.189 16.779C14.519 16.9477 14.893 17.032 15.311 17.032C15.8023 17.032 16.1727 16.922 16.422 16.702C16.6713 16.482 16.796 16.185 16.796 15.811C16.796 15.5103 16.708 15.272 16.532 15.096C16.356 14.92 16.0443 14.788 15.597 14.7L14.915 14.579C14.167 14.4397 13.606 14.194 13.232 13.842C12.858 13.49 12.671 13.006 12.671 12.39C12.671 12.0527 12.7333 11.7483 12.858 11.477C12.99 11.1983 13.1697 10.9673 13.397 10.784C13.6317 10.5933 13.914 10.4467 14.244 10.344C14.574 10.2413 14.9443 10.19 15.355 10.19C15.9343 10.19 16.4367 10.2927 16.862 10.498C17.2873 10.696 17.6503 10.9857 17.951 11.367L17.082 12.137C16.884 11.8803 16.642 11.675 16.356 11.521C16.07 11.367 15.7143 11.29 15.289 11.29C14.849 11.29 14.508 11.378 14.266 11.554C14.024 11.73 13.903 11.9867 13.903 12.324C13.903 12.6467 14.002 12.8887 14.2 13.05C14.398 13.204 14.706 13.3213 15.124 13.402L15.806 13.545C16.576 13.6917 17.137 13.941 17.489 14.293C17.8483 14.645 18.028 15.129 18.028 15.745C18.028 16.1043 17.9657 16.4307 17.841 16.724C17.7163 17.0173 17.533 17.2703 17.291 17.483C17.0563 17.6883 16.7667 17.8497 16.422 17.967C16.0773 18.077 15.685 18.132 15.245 18.132ZM21.2472 10.322V15.052C21.2472 15.7047 21.3719 16.196 21.6212 16.526C21.8706 16.856 22.2959 17.021 22.8972 17.021C23.4986 17.021 23.9239 16.856 24.1732 16.526C24.4226 16.196 24.5472 15.7047 24.5472 15.052V10.322H25.7682V14.854C25.7682 15.4187 25.7169 15.9063 25.6142 16.317C25.5116 16.7277 25.3466 17.0687 25.1192 17.34C24.8919 17.604 24.5949 17.802 24.2282 17.934C23.8689 18.066 23.4252 18.132 22.8972 18.132C22.3692 18.132 21.9219 18.066 21.5552 17.934C21.1959 17.802 20.9026 17.604 20.6752 17.34C20.4479 17.0687 20.2829 16.7277 20.1802 16.317C20.0776 15.9063 20.0262 15.4187 20.0262 14.854V10.322H21.2472ZM30.4602 18.132C29.8149 18.132 29.2649 18.0147 28.8102 17.78C28.3629 17.5453 27.9779 17.23 27.6552 16.834L28.5132 16.031C28.7846 16.361 29.0816 16.6103 29.4042 16.779C29.7342 16.9477 30.1082 17.032 30.5262 17.032C31.0176 17.032 31.3879 16.922 31.6372 16.702C31.8866 16.482 32.0112 16.185 32.0112 15.811C32.0112 15.5103 31.9232 15.272 31.7472 15.096C31.5712 14.92 31.2596 14.788 30.8122 14.7L30.1302 14.579C29.3822 14.4397 28.8212 14.194 28.4472 13.842C28.0732 13.49 27.8862 13.006 27.8862 12.39C27.8862 12.0527 27.9486 11.7483 28.0732 11.477C28.2052 11.1983 28.3849 10.9673 28.6122 10.784C28.8469 10.5933 29.1292 10.4467 29.4592 10.344C29.7892 10.2413 30.1596 10.19 30.5702 10.19C31.1496 10.19 31.6519 10.2927 32.0772 10.498C32.5026 10.696 32.8656 10.9857 33.1662 11.367L32.2972 12.137C32.0992 11.8803 31.8572 11.675 31.5712 11.521C31.2852 11.367 30.9296 11.29 30.5042 11.29C30.0642 11.29 29.7232 11.378 29.4812 11.554C29.2392 11.73 29.1182 11.9867 29.1182 12.324C29.1182 12.6467 29.2172 12.8887 29.4152 13.05C29.6132 13.204 29.9212 13.3213 30.3392 13.402L31.0212 13.545C31.7912 13.6917 32.3522 13.941 32.7042 14.293C33.0636 14.645 33.2432 15.129 33.2432 15.745C33.2432 16.1043 33.1809 16.4307 33.0562 16.724C32.9316 17.0173 32.7482 17.2703 32.5062 17.483C32.2716 17.6883 31.9819 17.8497 31.6372 17.967C31.2926 18.077 30.9002 18.132 30.4602 18.132ZM37.9518 11.422V18H36.7088V11.422H34.4208V10.322H40.2398V11.422H37.9518ZM46.0777 18L45.3847 15.921H42.5137L41.8427 18H40.5777L43.1957 10.322H44.7577L47.3757 18H46.0777ZM43.9767 11.466H43.9217L42.8107 14.854H45.0767L43.9767 11.466ZM48.7849 18V16.988H49.8299V11.334H48.7849V10.322H52.1289V11.334H51.0729V16.988H52.1289V18H48.7849ZM56.3091 13.754L55.4621 12.126H55.4291V18H54.2411V10.322H55.6271L58.1351 14.568L58.9821 16.196H59.0151V10.322H60.2031V18H58.8171L56.3091 13.754ZM67.4397 18L66.7467 15.921H63.8757L63.2047 18H61.9397L64.5577 10.322H66.1197L68.7377 18H67.4397ZM65.3387 11.466H65.2837L64.1727 14.854H66.4387L65.3387 11.466ZM70.4769 10.322H73.8759C74.5139 10.322 75.0125 10.5017 75.3719 10.861C75.7385 11.2203 75.9219 11.7007 75.9219 12.302C75.9219 12.588 75.8815 12.8337 75.8009 13.039C75.7202 13.237 75.6175 13.402 75.4929 13.534C75.3682 13.6587 75.2252 13.754 75.0639 13.82C74.9025 13.8787 74.7449 13.9153 74.5909 13.93V13.996C74.7449 14.0033 74.9135 14.04 75.0969 14.106C75.2875 14.172 75.4635 14.2783 75.6249 14.425C75.7862 14.5643 75.9219 14.7477 76.0319 14.975C76.1419 15.195 76.1969 15.4663 76.1969 15.789C76.1969 16.097 76.1455 16.3867 76.0429 16.658C75.9475 16.9293 75.8119 17.164 75.6359 17.362C75.4599 17.56 75.2509 17.7177 75.0089 17.835C74.7669 17.945 74.5029 18 74.2169 18H70.4769V10.322ZM71.7199 16.933H73.8539C74.1765 16.933 74.4295 16.8487 74.6129 16.68C74.7962 16.5113 74.8879 16.2693 74.8879 15.954V15.58C74.8879 15.2647 74.7962 15.0227 74.6129 14.854C74.4295 14.6853 74.1765 14.601 73.8539 14.601H71.7199V16.933ZM71.7199 13.567H73.6449C73.9529 13.567 74.1912 13.49 74.3599 13.336C74.5285 13.1747 74.6129 12.9473 74.6129 12.654V12.302C74.6129 12.0087 74.5285 11.785 74.3599 11.631C74.1912 11.4697 73.9529 11.389 73.6449 11.389H71.7199V13.567ZM78.2778 18V10.322H79.5208V16.9H82.6448V18H78.2778ZM84.4675 18V10.322H89.3845V11.422H85.7105V13.556H89.0435V14.656H85.7105V16.9H89.3845V18H84.4675Z" fill="white"/>
<defs>
<linearGradient id="paint0_linear_47_1461" x1="-7" y1="24" x2="174" y2="24" gradientUnits="userSpaceOnUse">
<stop stop-color="#03AC84"/>
<stop offset="0.476666" stop-color="#03AC84" stop-opacity="0.76"/>
<stop offset="1" stop-color="#03AC84" stop-opacity="0"/>
</linearGradient>
</defs>
</svg>
