<svg width="38" height="140" viewBox="0 0 38 140" fill="none" xmlns="http://www.w3.org/2000/svg">
<path fill-rule="evenodd" clip-rule="evenodd" d="M-4.37114e-07 10C-1.95703e-07 4.47715 4.47715 1.95703e-07 10 4.37114e-07L38 1.66103e-06C32.4772 1.41962e-06 28 4.47715 28 10L28 140L-6.11959e-06 140L-4.37114e-07 10Z" fill="url(#paint0_linear_5870_27987)"/>
<path d="M13.754 104.986L12.126 105.833L12.126 105.866L18 105.866L18 107.054L10.322 107.054L10.322 105.668L14.568 103.16L16.196 102.313L16.196 102.28L10.322 102.28L10.322 101.092L18 101.092L18 102.478L13.754 104.986ZM18 98.6513L10.322 98.6513L10.322 93.7343L11.422 93.7343L11.422 97.4083L13.556 97.4083L13.556 94.0753L14.656 94.0753L14.656 97.4083L16.9 97.4083L16.9 93.7343L18 93.7343L18 98.6513ZM18 90.4478L10.322 92.2628L10.322 90.9978L14.018 90.2168L16.57 89.6778L16.57 89.6448L14.018 89.0288L10.322 88.1158L10.322 86.7298L14.018 85.8278L16.559 85.2228L16.559 85.1898L14.018 84.6288L10.322 83.8258L10.322 82.6048L18 84.4968L18 85.8938L14.029 86.8728L11.697 87.4448L11.697 87.4668L14.029 88.0498L18 89.0508L18 90.4478ZM18.132 75.3986C18.132 76.044 18.0147 76.594 17.78 77.0486C17.5453 77.496 17.23 77.881 16.834 78.2036L16.031 77.3456C16.361 77.0743 16.6103 76.7773 16.779 76.4546C16.9477 76.1246 17.032 75.7506 17.032 75.3326C17.032 74.8413 16.922 74.471 16.702 74.2216C16.482 73.9723 16.185 73.8476 15.811 73.8476C15.5103 73.8476 15.272 73.9356 15.096 74.1116C14.92 74.2876 14.788 74.5993 14.7 75.0466L14.579 75.7286C14.4397 76.4766 14.194 77.0376 13.842 77.4116C13.49 77.7856 13.006 77.9726 12.39 77.9726C12.0527 77.9726 11.7483 77.9103 11.477 77.7856C11.1983 77.6536 10.9673 77.474 10.784 77.2466C10.5933 77.012 10.4467 76.7296 10.344 76.3996C10.2413 76.0696 10.19 75.6993 10.19 75.2886C10.19 74.7093 10.2927 74.207 10.498 73.7816C10.696 73.3563 10.9857 72.9933 11.367 72.6926L12.137 73.5616C11.8803 73.7596 11.675 74.0016 11.521 74.2876C11.367 74.5736 11.29 74.9293 11.29 75.3546C11.29 75.7946 11.378 76.1356 11.554 76.3776C11.73 76.6196 11.9867 76.7406 12.324 76.7406C12.6467 76.7406 12.8887 76.6416 13.05 76.4436C13.204 76.2456 13.3213 75.9376 13.402 75.5196L13.545 74.8376C13.6917 74.0676 13.941 73.5066 14.293 73.1546C14.645 72.7953 15.129 72.6156 15.745 72.6156C16.1043 72.6156 16.4307 72.678 16.724 72.8026C17.0173 72.9273 17.2703 73.1106 17.483 73.3526C17.6883 73.5873 17.8497 73.877 17.967 74.2216C18.077 74.5663 18.132 74.9586 18.132 75.3986ZM18 70.5734L10.322 70.5734L10.322 65.6564L11.422 65.6564L11.422 69.3304L13.556 69.3304L13.556 65.9974L14.656 65.9974L14.656 69.3304L16.9 69.3304L16.9 65.6564L18 65.6564L18 70.5734ZM18 58.7069L15.921 59.3999L15.921 62.2709L18 62.9419L18 64.2069L10.322 61.5889L10.322 60.0269L18 57.4089L18 58.7069ZM11.466 60.8079L11.466 60.8629L14.854 61.9739L14.854 59.7079L11.466 60.8079ZM18.132 53.3707C18.132 54.016 18.0147 54.566 17.78 55.0207C17.5453 55.468 17.23 55.853 16.834 56.1757L16.031 55.3177C16.361 55.0464 16.6103 54.7494 16.779 54.4267C16.9477 54.0967 17.032 53.7227 17.032 53.3047C17.032 52.8134 16.922 52.443 16.702 52.1937C16.482 51.9444 16.185 51.8197 15.811 51.8197C15.5103 51.8197 15.272 51.9077 15.096 52.0837C14.92 52.2597 14.788 52.5714 14.7 53.0187L14.579 53.7007C14.4397 54.4487 14.194 55.0097 13.842 55.3837C13.49 55.7577 13.006 55.9447 12.39 55.9447C12.0527 55.9447 11.7483 55.8824 11.477 55.7577C11.1983 55.6257 10.9673 55.446 10.784 55.2187C10.5933 54.984 10.4467 54.7017 10.344 54.3717C10.2413 54.0417 10.19 53.6714 10.19 53.2607C10.19 52.6814 10.2927 52.179 10.498 51.7537C10.696 51.3284 10.9857 50.9654 11.367 50.6647L12.137 51.5337C11.8803 51.7317 11.675 51.9737 11.521 52.2597C11.367 52.5457 11.29 52.9014 11.29 53.3267C11.29 53.7667 11.378 54.1077 11.554 54.3497C11.73 54.5917 11.9867 54.7127 12.324 54.7127C12.6467 54.7127 12.8887 54.6137 13.05 54.4157C13.204 54.2177 13.3213 53.9097 13.402 53.4917L13.545 52.8097C13.6917 52.0397 13.941 51.4787 14.293 51.1267C14.645 50.7674 15.129 50.5877 15.745 50.5877C16.1043 50.5877 16.4307 50.65 16.724 50.7747C17.0173 50.8994 17.2703 51.0827 17.483 51.3247C17.6883 51.5594 17.8497 51.849 17.967 52.1937C18.077 52.5384 18.132 52.9307 18.132 53.3707ZM18.132 45.5755C18.132 46.0741 18.0477 46.5288 17.879 46.9395C17.703 47.3428 17.45 47.6911 17.12 47.9845C16.7827 48.2705 16.3683 48.4941 15.877 48.6555C15.3783 48.8095 14.8063 48.8865 14.161 48.8865C13.5157 48.8865 12.9473 48.8095 12.456 48.6555C11.9573 48.4941 11.543 48.2705 11.213 47.9845C10.8757 47.6911 10.6227 47.3428 10.454 46.9395C10.278 46.5288 10.19 46.0741 10.19 45.5755C10.19 45.0768 10.278 44.6258 10.454 44.2225C10.6227 43.8118 10.8757 43.4635 11.213 43.1775C11.543 42.8841 11.9573 42.6605 12.456 42.5065C12.9473 42.3451 13.5157 42.2645 14.161 42.2645C14.8063 42.2645 15.3783 42.3451 15.877 42.5065C16.3683 42.6605 16.7827 42.8841 17.12 43.1775C17.45 43.4635 17.703 43.8118 17.879 44.2225C18.0477 44.6258 18.132 45.0768 18.132 45.5755ZM17.021 45.5755C17.021 45.2821 16.9697 45.0145 16.867 44.7725C16.7643 44.5231 16.6177 44.3141 16.427 44.1455C16.229 43.9695 15.9907 43.8338 15.712 43.7385C15.4333 43.6431 15.118 43.5955 14.766 43.5955L13.556 43.5955C13.204 43.5955 12.8887 43.6431 12.61 43.7385C12.3313 43.8338 12.0967 43.9695 11.906 44.1455C11.708 44.3141 11.5577 44.5231 11.455 44.7725C11.3523 45.0145 11.301 45.2821 11.301 45.5755C11.301 45.8761 11.3523 46.1475 11.455 46.3895C11.5577 46.6315 11.708 46.8405 11.906 47.0165C12.0967 47.1851 12.3313 47.3171 12.61 47.4125C12.8887 47.5078 13.204 47.5555 13.556 47.5555L14.766 47.5555C15.118 47.5555 15.4333 47.5078 15.712 47.4125C15.9907 47.3171 16.229 47.1851 16.427 47.0165C16.6177 46.8405 16.7643 46.6315 16.867 46.3895C16.9697 46.1475 17.021 45.8761 17.021 45.5755ZM13.754 38.0964L12.126 38.9434L12.126 38.9764L18 38.9764L18 40.1644L10.322 40.1644L10.322 38.7784L14.568 36.2704L16.196 35.4234L16.196 35.3904L10.322 35.3904L10.322 34.2024L18 34.2024L18 35.5884L13.754 38.0964Z" fill="white"/>
<path d="M6.66797 20.163L9.70647 21.2875L10.8309 24.326L11.9554 21.2875L14.9939 20.163L11.9554 19.0385L10.8309 16L9.70647 19.0385L6.66797 20.163Z" fill="white"/>
<path d="M13.4961 25.5781L15.623 26.3653L16.4102 28.4922L17.1973 26.3653L19.3243 25.5781L17.1973 24.791L16.4102 22.6641L15.623 24.791L13.4961 25.5781Z" fill="white"/>
<path d="M18 18.5L19.0948 18.9052L19.5 20L19.9052 18.9052L21 18.5L19.9052 18.0948L19.5 17L19.0948 18.0948L18 18.5Z" fill="white"/>
<defs>
<linearGradient id="paint0_linear_5870_27987" x1="24" y1="-5.63218" x2="24" y2="140" gradientUnits="userSpaceOnUse">
<stop stop-color="#F4B224"/>
<stop offset="0.43235" stop-color="#F4B224" stop-opacity="0.85"/>
<stop offset="1" stop-color="#F4B224" stop-opacity="0"/>
</linearGradient>
</defs>
</svg>
