<svg width="38" height="140" viewBox="0 0 38 140" fill="none" xmlns="http://www.w3.org/2000/svg">
<path fill-rule="evenodd" clip-rule="evenodd" d="M-4.37114e-07 10C-1.95703e-07 4.47715 4.47715 1.95703e-07 10 4.37114e-07L38 1.66103e-06C32.4772 1.41962e-06 28 4.47715 28 10L28 140L-6.11959e-06 140L-4.37114e-07 10Z" fill="url(#paint0_linear_5881_29029)"/>
<path d="M18.3122 28.3875C18.3122 28.3875 19.1567 19.8428 9.01123 20.0816C9.01123 20.0816 9.25736 29.3217 18.3122 28.3874L18.3122 28.3875Z" stroke="white" stroke-linecap="round" stroke-linejoin="round"/>
<path d="M18.2099 26.441C19.5731 24.5948 21.4773 20.6202 16.2431 17.0921C16.2431 17.0921 14.7799 18.6941 14.2536 20.9587" stroke="white" stroke-linecap="round" stroke-linejoin="round"/>
<path d="M12.4966 23.0404L18.2941 28.3996" stroke="white" stroke-linecap="round" stroke-linejoin="round"/>
<path d="M11.0268 17.3204C11.0268 17.6164 10.7869 17.8563 10.491 17.8563C10.195 17.8563 9.95508 17.6164 9.95508 17.3204C9.95508 17.0245 10.195 16.7845 10.491 16.7845C10.7869 16.7845 11.0268 17.0245 11.0268 17.3204Z" fill="white"/>
<path d="M17.4479 30.0487C17.4479 30.2593 17.2772 30.43 17.0666 30.43C16.856 30.43 16.6853 30.2593 16.6853 30.0487C16.6853 29.8381 16.856 29.6674 17.0666 29.6674C17.2772 29.6674 17.4479 29.8381 17.4479 30.0487Z" fill="white"/>
<path d="M18.132 97.2925C18.132 97.9378 18.0147 98.4878 17.78 98.9425C17.5453 99.3898 17.23 99.7748 16.834 100.097L16.031 99.2395C16.361 98.9681 16.6103 98.6711 16.779 98.3485C16.9477 98.0185 17.032 97.6445 17.032 97.2265C17.032 96.7351 16.922 96.3648 16.702 96.1155C16.482 95.8661 16.185 95.7415 15.811 95.7415C15.5103 95.7415 15.272 95.8295 15.096 96.0055C14.92 96.1815 14.788 96.4931 14.7 96.9405L14.579 97.6225C14.4397 98.3705 14.194 98.9315 13.842 99.3055C13.49 99.6795 13.006 99.8665 12.39 99.8665C12.0527 99.8665 11.7483 99.8041 11.477 99.6795C11.1983 99.5475 10.9673 99.3678 10.784 99.1405C10.5933 98.9058 10.4467 98.6235 10.344 98.2935C10.2413 97.9635 10.19 97.5931 10.19 97.1825C10.19 96.6031 10.2927 96.1008 10.498 95.6755C10.696 95.2501 10.9857 94.8871 11.367 94.5865L12.137 95.4555C11.8803 95.6535 11.675 95.8955 11.521 96.1815C11.367 96.4675 11.29 96.8231 11.29 97.2485C11.29 97.6885 11.378 98.0295 11.554 98.2715C11.73 98.5135 11.9867 98.6345 12.324 98.6345C12.6467 98.6345 12.8887 98.5355 13.05 98.3375C13.204 98.1395 13.3213 97.8315 13.402 97.4135L13.545 96.7315C13.6917 95.9615 13.941 95.4005 14.293 95.0485C14.645 94.6891 15.129 94.5095 15.745 94.5095C16.1043 94.5095 16.4307 94.5718 16.724 94.6965C17.0173 94.8211 17.2703 95.0045 17.483 95.2465C17.6883 95.4811 17.8497 95.7708 17.967 96.1155C18.077 96.4601 18.132 96.8525 18.132 97.2925ZM17.054 89.0903L17.054 89.1343C17.1933 89.1856 17.329 89.2553 17.461 89.3433C17.593 89.4239 17.7103 89.5303 17.813 89.6623C17.9083 89.7869 17.9853 89.9409 18.044 90.1243C18.1027 90.3003 18.132 90.5056 18.132 90.7403C18.132 91.3343 17.9413 91.7963 17.56 92.1263C17.1787 92.4489 16.6323 92.6103 15.921 92.6103L12.28 92.6103L12.28 91.4113L15.767 91.4113C16.6543 91.4113 17.098 91.0446 17.098 90.3113C17.098 90.1573 17.0797 90.0069 17.043 89.8603C16.999 89.7136 16.9367 89.5853 16.856 89.4753C16.7753 89.3579 16.6727 89.2663 16.548 89.2003C16.4233 89.1269 16.2767 89.0903 16.108 89.0903L12.28 89.0903L12.28 87.8913L18 87.8913L18 89.0903L17.054 89.0903ZM18.132 83.8094C18.132 84.3521 18.0367 84.8067 17.846 85.1734C17.6553 85.5401 17.3913 85.8591 17.054 86.1304L16.35 85.3604C16.6067 85.1477 16.8083 84.9131 16.955 84.6564C17.0943 84.3924 17.164 84.0881 17.164 83.7434C17.164 83.3914 17.098 83.1311 16.966 82.9624C16.8267 82.7864 16.636 82.6984 16.394 82.6984C16.2107 82.6984 16.0567 82.7607 15.932 82.8854C15.8 83.0027 15.7157 83.2117 15.679 83.5124L15.613 84.0404C15.5397 84.6271 15.371 85.0891 15.107 85.4264C14.8357 85.7564 14.436 85.9214 13.908 85.9214C13.6293 85.9214 13.3837 85.8701 13.171 85.7674C12.951 85.6647 12.7677 85.5217 12.621 85.3384C12.467 85.1477 12.3497 84.9241 12.269 84.6674C12.1883 84.4034 12.148 84.1137 12.148 83.7984C12.148 83.2851 12.2287 82.8671 12.39 82.5444C12.5513 82.2144 12.775 81.9211 13.061 81.6644L13.765 82.4014C13.589 82.5481 13.4387 82.7424 13.314 82.9844C13.182 83.2191 13.116 83.4904 13.116 83.7984C13.116 84.1284 13.182 84.3741 13.314 84.5354C13.446 84.6894 13.6183 84.7664 13.831 84.7664C14.051 84.7664 14.216 84.6967 14.326 84.5574C14.436 84.4181 14.5167 84.1944 14.568 83.8864L14.634 83.3584C14.7293 82.7277 14.9163 82.2694 15.195 81.9834C15.4663 81.6901 15.833 81.5434 16.295 81.5434C16.5737 81.5434 16.8267 81.5984 17.054 81.7084C17.274 81.8111 17.4647 81.9614 17.626 82.1594C17.7873 82.3574 17.912 82.5957 18 82.8744C18.088 83.1531 18.132 83.4647 18.132 83.8094ZM18 78.13C18 78.548 17.8937 78.8634 17.681 79.076C17.461 79.2887 17.153 79.395 16.757 79.395L13.259 79.395L13.259 80.286L12.28 80.286L12.28 79.802C12.28 79.604 12.236 79.4684 12.148 79.395C12.06 79.3144 11.917 79.274 11.719 79.274L10.718 79.274L10.718 78.196L12.28 78.196L12.28 76.997L13.259 76.997L13.259 78.196L17.021 78.196L17.021 77.085L18 77.085L18 78.13ZM18 70.9555C18 71.2708 17.912 71.5128 17.736 71.6815C17.5527 71.8501 17.3217 71.9528 17.043 71.9895L17.043 72.0445C17.4023 72.1545 17.6737 72.3561 17.857 72.6495C18.0403 72.9428 18.132 73.2985 18.132 73.7165C18.132 74.3105 17.978 74.7688 17.67 75.0915C17.362 75.4068 16.9477 75.5645 16.427 75.5645C15.855 75.5645 15.426 75.3591 15.14 74.9485C14.854 74.5305 14.711 73.9218 14.711 73.1225L14.711 72.0885L14.227 72.0885C13.875 72.0885 13.6037 72.1838 13.413 72.3745C13.2223 72.5651 13.127 72.8621 13.127 73.2655C13.127 73.6028 13.2003 73.8778 13.347 74.0905C13.4937 74.3031 13.6807 74.4828 13.908 74.6295L13.259 75.3445C12.9363 75.1538 12.6723 74.8861 12.467 74.5415C12.2543 74.1968 12.148 73.7458 12.148 73.1885C12.148 72.4478 12.3203 71.8795 12.665 71.4835C13.0097 71.0875 13.5047 70.8895 14.15 70.8895L17.021 70.8895L17.021 70.2845L18 70.2845L18 70.9555ZM17.219 73.3755C17.219 73.0015 17.1383 72.6935 16.977 72.4515C16.8083 72.2095 16.5847 72.0885 16.306 72.0885L15.481 72.0885L15.481 73.1005C15.481 73.9291 15.7377 74.3435 16.251 74.3435L16.449 74.3435C16.7057 74.3435 16.9 74.2591 17.032 74.0905C17.1567 73.9145 17.219 73.6761 17.219 73.3755ZM11.257 67.9544C11.257 68.2037 11.1983 68.387 11.081 68.5044C10.9637 68.6144 10.8133 68.6694 10.63 68.6694L10.443 68.6694C10.2597 68.6694 10.1093 68.6144 9.992 68.5044C9.87466 68.387 9.816 68.2037 9.816 67.9544C9.816 67.705 9.87466 67.5254 9.992 67.4154C10.1093 67.3054 10.2597 67.2504 10.443 67.2504L10.63 67.2504C10.8133 67.2504 10.9637 67.3054 11.081 67.4154C11.1983 67.5254 11.257 67.705 11.257 67.9544ZM12.28 68.5594L12.28 67.3604L18 67.3604L18 68.5594L12.28 68.5594ZM18 65.0982L12.28 65.0982L12.28 63.8992L13.226 63.8992L13.226 63.8442C12.918 63.7196 12.6613 63.5326 12.456 63.2832C12.2507 63.0266 12.148 62.6782 12.148 62.2382C12.148 61.6516 12.3423 61.1969 12.731 60.8742C13.1123 60.5442 13.6587 60.3792 14.37 60.3792L18 60.3792L18 61.5782L14.524 61.5782C13.6293 61.5782 13.182 61.9376 13.182 62.6562C13.182 62.8102 13.204 62.9642 13.248 63.1182C13.2847 63.2649 13.3433 63.3969 13.424 63.5142C13.5047 63.6316 13.6073 63.7269 13.732 63.8002C13.8567 63.8662 14.0033 63.8992 14.172 63.8992L18 63.8992L18 65.0982ZM18 53.9764C18 54.2917 17.912 54.5337 17.736 54.7024C17.5527 54.871 17.3217 54.9737 17.043 55.0104L17.043 55.0654C17.4023 55.1754 17.6737 55.377 17.857 55.6704C18.0403 55.9637 18.132 56.3194 18.132 56.7374C18.132 57.3314 17.978 57.7897 17.67 58.1124C17.362 58.4277 16.9477 58.5854 16.427 58.5854C15.855 58.5854 15.426 58.38 15.14 57.9694C14.854 57.5514 14.711 56.9427 14.711 56.1434L14.711 55.1094L14.227 55.1094C13.875 55.1094 13.6037 55.2047 13.413 55.3954C13.2223 55.586 13.127 55.883 13.127 56.2864C13.127 56.6237 13.2003 56.8987 13.347 57.1114C13.4937 57.324 13.6807 57.5037 13.908 57.6504L13.259 58.3654C12.9363 58.1747 12.6723 57.907 12.467 57.5624C12.2543 57.2177 12.148 56.7667 12.148 56.2094C12.148 55.4687 12.3203 54.9004 12.665 54.5044C13.0097 54.1084 13.5047 53.9104 14.15 53.9104L17.021 53.9104L17.021 53.3054L18 53.3054L18 53.9764ZM17.219 56.3964C17.219 56.0224 17.1383 55.7144 16.977 55.4724C16.8083 55.2304 16.5847 55.1094 16.306 55.1094L15.481 55.1094L15.481 56.1214C15.481 56.95 15.7377 57.3644 16.251 57.3644L16.449 57.3644C16.7057 57.3644 16.9 57.28 17.032 57.1114C17.1567 56.9354 17.219 56.697 17.219 56.3964ZM9.86 51.5803L9.86 50.3813L13.226 50.3813L13.226 50.3263C12.8813 50.2016 12.6173 49.9999 12.434 49.7213C12.2433 49.4353 12.148 49.1016 12.148 48.7203C12.148 47.9943 12.412 47.4333 12.94 47.0373C13.4607 46.6413 14.194 46.4433 15.14 46.4433C16.086 46.4433 16.823 46.6413 17.351 47.0373C17.8717 47.4333 18.132 47.9943 18.132 48.7203C18.132 49.1016 18.0367 49.4353 17.846 49.7213C17.6553 49.9999 17.3913 50.2016 17.054 50.3263L17.054 50.3813L18 50.3813L18 51.5803L9.86 51.5803ZM17.098 49.0833C17.098 48.6653 16.966 48.3316 16.702 48.0823C16.4307 47.8329 16.075 47.7083 15.635 47.7083L14.645 47.7083C14.205 47.7083 13.853 47.8329 13.589 48.0823C13.3177 48.3316 13.182 48.6653 13.182 49.0833C13.182 49.4499 13.2737 49.7579 13.457 50.0073C13.633 50.2566 13.8677 50.3813 14.161 50.3813L16.119 50.3813C16.4123 50.3813 16.6507 50.2566 16.834 50.0073C17.01 49.7579 17.098 49.4499 17.098 49.0833ZM18 43.2995C18 43.7102 17.8973 44.0182 17.692 44.2235C17.4793 44.4215 17.186 44.5205 16.812 44.5205L9.86 44.5205L9.86 43.3215L17.021 43.3215L17.021 42.5295L18 42.5295L18 43.2995ZM18.132 38.5898C18.132 39.0004 18.0623 39.3671 17.923 39.6898C17.7837 40.0124 17.5857 40.2874 17.329 40.5148C17.065 40.7421 16.7497 40.9181 16.383 41.0428C16.009 41.1601 15.5947 41.2188 15.14 41.2188C14.6853 41.2188 14.2747 41.1601 13.908 41.0428C13.534 40.9181 13.2187 40.7421 12.962 40.5148C12.698 40.2874 12.4963 40.0124 12.357 39.6898C12.2177 39.3671 12.148 39.0004 12.148 38.5898C12.148 38.1718 12.2213 37.8051 12.368 37.4898C12.5147 37.1671 12.72 36.8994 12.984 36.6868C13.2407 36.4741 13.5413 36.3164 13.886 36.2138C14.2307 36.1038 14.601 36.0488 14.997 36.0488L15.448 36.0488L15.448 39.9758L15.635 39.9758C16.075 39.9758 16.438 39.8474 16.724 39.5908C17.0027 39.3268 17.142 38.9528 17.142 38.4688C17.142 38.1168 17.065 37.8198 16.911 37.5778C16.757 37.3358 16.548 37.1304 16.284 36.9618L16.977 36.2578C17.329 36.4704 17.6113 36.7784 17.824 37.1818C18.0293 37.5851 18.132 38.0544 18.132 38.5898ZM13.083 38.5898C13.083 38.7951 13.1197 38.9858 13.193 39.1618C13.2663 39.3304 13.369 39.4771 13.501 39.6018C13.633 39.7191 13.7907 39.8108 13.974 39.8768C14.1573 39.9428 14.359 39.9758 14.579 39.9758L14.656 39.9758L14.656 37.3138L14.546 37.3138C14.106 37.3138 13.754 37.4274 13.49 37.6548C13.2187 37.8821 13.083 38.1938 13.083 38.5898Z" fill="white"/>
<defs>
<linearGradient id="paint0_linear_5881_29029" x1="24" y1="-5.63218" x2="24" y2="140" gradientUnits="userSpaceOnUse">
<stop stop-color="#03AC84"/>
<stop offset="0.476666" stop-color="#03AC84" stop-opacity="0.76"/>
<stop offset="1" stop-color="#03AC84" stop-opacity="0"/>
</linearGradient>
</defs>
</svg>
