<svg width="130" height="28" viewBox="0 0 130 28" fill="none" xmlns="http://www.w3.org/2000/svg">
    <g filter="url(#filter0_b_793_5174)">
        <path d="M127.818 0H0.327874C0.146794 0 0 0.146794 0 0.327873C0 0.501204 0.13491 0.64459 0.307918 0.655139L1.10902 0.703987C4.95851 0.938712 8.29763 3.44517 9.59786 7.07601L15.8701 24.591C16.6023 26.6357 18.5401 28 20.7119 28H127.818C128.923 28 129.818 27.1046 129.818 26V2C129.818 0.895431 128.923 0 127.818 0Z" fill="url(#paint0_linear_793_5174)"/>
    </g>
    <path d="M33.7534 9.35129H37.6294C37.9734 9.35129 38.2814 9.40329 38.5534 9.50729C38.8334 9.61129 39.0694 9.75529 39.2614 9.93929C39.4534 10.1233 39.5974 10.3513 39.6934 10.6233C39.7974 10.8873 39.8494 11.1793 39.8494 11.4993C39.8494 11.8193 39.8054 12.0913 39.7174 12.3153C39.6374 12.5313 39.5254 12.7113 39.3814 12.8553C39.2454 12.9993 39.0854 13.1073 38.9014 13.1793C38.7254 13.2513 38.5414 13.2913 38.3494 13.2993V13.3713C38.5334 13.3713 38.7294 13.4073 38.9374 13.4793C39.1534 13.5513 39.3494 13.6673 39.5254 13.8273C39.7094 13.9793 39.8614 14.1793 39.9814 14.4273C40.1014 14.6673 40.1614 14.9673 40.1614 15.3273C40.1614 15.6633 40.1054 15.9793 39.9934 16.2753C39.8894 16.5633 39.7414 16.8153 39.5494 17.0313C39.3574 17.2473 39.1294 17.4193 38.8654 17.5473C38.6014 17.6673 38.3134 17.7273 38.0014 17.7273H33.7534V9.35129ZM35.3374 16.3833H37.5454C37.8494 16.3833 38.0854 16.3073 38.2534 16.1553C38.4214 15.9953 38.5054 15.7673 38.5054 15.4713V15.0633C38.5054 14.7673 38.4214 14.5393 38.2534 14.3793C38.0854 14.2193 37.8494 14.1393 37.5454 14.1393H35.3374V16.3833ZM35.3374 12.8433H37.2934C37.5814 12.8433 37.8054 12.7673 37.9654 12.6153C38.1254 12.4553 38.2054 12.2353 38.2054 11.9553V11.5833C38.2054 11.3033 38.1254 11.0873 37.9654 10.9353C37.8054 10.7753 37.5814 10.6953 37.2934 10.6953H35.3374V12.8433ZM42.3104 17.7273V9.35129H47.8304V10.7553H43.8944V12.7833H47.3744V14.1873H43.8944V16.3233H47.8304V17.7273H42.3104ZM52.7097 17.8713C51.9897 17.8713 51.3777 17.7433 50.8737 17.4873C50.3777 17.2313 49.9497 16.8953 49.5897 16.4793L50.6577 15.4473C50.9457 15.7833 51.2657 16.0393 51.6177 16.2153C51.9777 16.3913 52.3737 16.4793 52.8057 16.4793C53.2937 16.4793 53.6617 16.3753 53.9097 16.1673C54.1577 15.9513 54.2817 15.6633 54.2817 15.3033C54.2817 15.0233 54.2017 14.7953 54.0417 14.6193C53.8817 14.4433 53.5817 14.3153 53.1417 14.2353L52.3497 14.1153C50.6777 13.8513 49.8417 13.0393 49.8417 11.6793C49.8417 11.3033 49.9097 10.9633 50.0457 10.6593C50.1897 10.3553 50.3937 10.0953 50.6577 9.87929C50.9217 9.66329 51.2377 9.49929 51.6057 9.38729C51.9817 9.26729 52.4057 9.20729 52.8777 9.20729C53.5097 9.20729 54.0617 9.31129 54.5337 9.51929C55.0057 9.72729 55.4097 10.0353 55.7457 10.4433L54.6657 11.4633C54.4577 11.2073 54.2057 10.9993 53.9097 10.8393C53.6137 10.6793 53.2417 10.5993 52.7937 10.5993C52.3377 10.5993 51.9937 10.6873 51.7617 10.8633C51.5377 11.0313 51.4257 11.2713 51.4257 11.5833C51.4257 11.9033 51.5177 12.1393 51.7017 12.2913C51.8857 12.4433 52.1817 12.5553 52.5897 12.6273L53.3697 12.7713C54.2177 12.9233 54.8417 13.1953 55.2417 13.5873C55.6497 13.9713 55.8537 14.5113 55.8537 15.2073C55.8537 15.6073 55.7817 15.9713 55.6377 16.2993C55.5017 16.6193 55.2977 16.8993 55.0257 17.1393C54.7617 17.3713 54.4337 17.5513 54.0417 17.6793C53.6577 17.8073 53.2137 17.8713 52.7097 17.8713ZM61.0953 10.7553V17.7273H59.5113V10.7553H57.1353V9.35129H63.4713V10.7553H61.0953ZM67.8316 17.8713C67.1116 17.8713 66.4996 17.7433 65.9956 17.4873C65.4996 17.2313 65.0716 16.8953 64.7116 16.4793L65.7796 15.4473C66.0676 15.7833 66.3876 16.0393 66.7396 16.2153C67.0996 16.3913 67.4956 16.4793 67.9276 16.4793C68.4156 16.4793 68.7836 16.3753 69.0316 16.1673C69.2796 15.9513 69.4036 15.6633 69.4036 15.3033C69.4036 15.0233 69.3236 14.7953 69.1636 14.6193C69.0036 14.4433 68.7036 14.3153 68.2636 14.2353L67.4716 14.1153C65.7996 13.8513 64.9636 13.0393 64.9636 11.6793C64.9636 11.3033 65.0316 10.9633 65.1676 10.6593C65.3116 10.3553 65.5156 10.0953 65.7796 9.87929C66.0436 9.66329 66.3596 9.49929 66.7276 9.38729C67.1036 9.26729 67.5276 9.20729 67.9996 9.20729C68.6316 9.20729 69.1836 9.31129 69.6556 9.51929C70.1276 9.72729 70.5316 10.0353 70.8676 10.4433L69.7876 11.4633C69.5796 11.2073 69.3276 10.9993 69.0316 10.8393C68.7356 10.6793 68.3636 10.5993 67.9156 10.5993C67.4596 10.5993 67.1156 10.6873 66.8836 10.8633C66.6596 11.0313 66.5476 11.2713 66.5476 11.5833C66.5476 11.9033 66.6396 12.1393 66.8236 12.2913C67.0076 12.4433 67.3036 12.5553 67.7116 12.6273L68.4916 12.7713C69.3396 12.9233 69.9636 13.1953 70.3636 13.5873C70.7716 13.9713 70.9756 14.5113 70.9756 15.2073C70.9756 15.6073 70.9036 15.9713 70.7596 16.2993C70.6236 16.6193 70.4196 16.8993 70.1476 17.1393C69.8836 17.3713 69.5556 17.5513 69.1636 17.6793C68.7796 17.8073 68.3356 17.8713 67.8316 17.8713ZM73.1635 17.7273V9.35129H78.6835V10.7553H74.7475V12.7833H78.2275V14.1873H74.7475V16.3233H78.6835V17.7273H73.1635ZM80.9589 17.7273V9.35129H82.5429V16.3233H85.8429V17.7273H80.9589ZM87.8167 17.7273V9.35129H89.4007V16.3233H92.7007V17.7273H87.8167ZM94.6745 17.7273V9.35129H100.194V10.7553H96.2585V12.7833H99.7385V14.1873H96.2585V16.3233H100.194V17.7273H94.6745ZM104.054 17.7273H102.47V9.35129H106.25C106.634 9.35129 106.978 9.41129 107.282 9.53129C107.586 9.65129 107.842 9.82729 108.05 10.0593C108.266 10.2833 108.43 10.5553 108.542 10.8753C108.662 11.1953 108.722 11.5513 108.722 11.9433C108.722 12.5193 108.59 13.0153 108.326 13.4313C108.07 13.8473 107.682 14.1433 107.162 14.3193L108.878 17.7273H107.114L105.554 14.4993H104.054V17.7273ZM106.094 13.1673C106.398 13.1673 106.638 13.0873 106.814 12.9273C106.99 12.7593 107.078 12.5233 107.078 12.2193V11.6673C107.078 11.3633 106.99 11.1313 106.814 10.9713C106.638 10.8113 106.398 10.7313 106.094 10.7313H104.054V13.1673H106.094Z" fill="white"/>
    <defs>
        <filter id="filter0_b_793_5174" x="-7.71429" y="-7.71429" width="145.245" height="43.4286" filterUnits="userSpaceOnUse" color-interpolation-filters="sRGB">
            <feFlood flood-opacity="0" result="BackgroundImageFix"/>
            <feGaussianBlur in="BackgroundImage" stdDeviation="3.85714"/>
            <feComposite in2="SourceAlpha" operator="in" result="effect1_backgroundBlur_793_5174"/>
            <feBlend mode="normal" in="SourceGraphic" in2="effect1_backgroundBlur_793_5174" result="shape"/>
        </filter>
        <linearGradient id="paint0_linear_793_5174" x1="21.6572" y1="-5.72713" x2="149.546" y2="29.0313" gradientUnits="userSpaceOnUse">
            <stop stop-color="#F29EB6"/>
            <stop offset="1" stop-color="#E6116D"/>
        </linearGradient>
    </defs>
</svg>