<svg width="13" height="16" viewBox="0 0 13 16" fill="none" xmlns="http://www.w3.org/2000/svg">
    <path fill-rule="evenodd" clip-rule="evenodd" d="M1.90756 1.91334C1.46621 1.91334 1.07422 2.27337 1.07422 2.81334V4.34668C1.07422 4.45119 1.11362 4.62891 1.20548 4.83382C1.2954 5.03442 1.41405 5.21274 1.52778 5.32647L1.53684 5.33553L4.07007 8.00232C4.07983 8.0126 4.08915 8.02328 4.09801 8.03435C4.26709 8.24571 4.42351 8.52358 4.53848 8.81101C4.65238 9.09575 4.74091 9.42797 4.74091 9.74671V13.2801C4.74091 13.9246 5.48325 14.3298 6.04182 13.9898L6.97054 13.3928L6.98367 13.3846C7.04435 13.3482 7.13945 13.2504 7.22231 13.091C7.30358 12.9348 7.34092 12.7806 7.34092 12.6801V9.81338C7.34092 9.46981 7.42521 9.10348 7.56397 8.77643C7.70079 8.45391 7.90653 8.13226 8.18145 7.90098L11.0304 5.38331C11.1434 5.26696 11.2743 5.07508 11.3774 4.84812C11.4842 4.6133 11.5409 4.38567 11.5409 4.21335V2.74667C11.5409 2.28948 11.1648 1.91334 10.7076 1.91334H1.90756ZM0.0742188 2.81334C0.0742188 1.7533 0.882238 0.91333 1.90756 0.91333H10.7076C11.7171 0.91333 12.5409 1.73719 12.5409 2.74667V4.21335C12.5409 4.57436 12.4311 4.94674 12.2878 5.26192C12.1439 5.57845 11.946 5.8821 11.7278 6.10024C11.7206 6.10751 11.7131 6.11455 11.7054 6.12135L8.8387 8.6547L8.82769 8.66415C8.70564 8.76585 8.58006 8.94186 8.48455 9.16698C8.38997 9.38993 8.34093 9.62361 8.34093 9.81338V12.6801C8.34093 12.9795 8.24494 13.292 8.10953 13.5524C7.97695 13.8074 7.77457 14.0736 7.50565 14.2376L6.56968 14.8393C5.39533 15.562 3.7409 14.7674 3.7409 13.2801V9.74671C3.7409 9.59877 3.6961 9.39766 3.61 9.1824C3.52844 8.97849 3.42367 8.79646 3.32913 8.6743L0.815803 6.02869C0.598382 5.8097 0.418772 5.52353 0.292965 5.24288C0.168156 4.96446 0.0742188 4.64217 0.0742188 4.34668V2.81334Z" fill="#B78053"/>
</svg>
