<svg width="14" height="8" viewBox="0 0 14 8" fill="none" xmlns="http://www.w3.org/2000/svg">
    <path fill-rule="evenodd" clip-rule="evenodd" d="M0.5 0.666992C0.5 0.39085 0.723858 0.166992 1 0.166992H13C13.2761 0.166992 13.5 0.39085 13.5 0.666992C13.5 0.943135 13.2761 1.16699 13 1.16699H1C0.723858 1.16699 0.5 0.943135 0.5 0.666992Z" fill="#B78053"/>
    <path fill-rule="evenodd" clip-rule="evenodd" d="M2.5 4C2.5 3.72386 2.72386 3.5 3 3.5H11C11.2761 3.5 11.5 3.72386 11.5 4C11.5 4.27614 11.2761 4.5 11 4.5H3C2.72386 4.5 2.5 4.27614 2.5 4Z" fill="#B78053"/>
    <path fill-rule="evenodd" clip-rule="evenodd" d="M5.16699 7.33301C5.16699 7.05687 5.39085 6.83301 5.66699 6.83301H8.33366C8.6098 6.83301 8.83366 7.05687 8.83366 7.33301C8.83366 7.60915 8.6098 7.83301 8.33366 7.83301H5.66699C5.39085 7.83301 5.16699 7.60915 5.16699 7.33301Z" fill="#B78053"/>
</svg>